<svg height="210" viewBox="0 0 210 210" width="210" xmlns="http://www.w3.org/2000/svg"><g fill="none" fill-rule="evenodd" transform="translate(3 3)"><circle cx="102" cy="102" r="102" stroke="#51b03b" stroke-width="6"/><path d="m67.0859375 118v-34.2890625h-.6796875l-12.421875 4.6640625v3.9375l8.7421875-3.2109375v28.8984375zm23.3671875.46875c1.65625 0 3.1445312-.257812 4.4648438-.773438 1.3203124-.515624 2.4453124-1.363281 3.375-2.542968.9296874-1.179688 1.6445312-2.726563 2.1445312-4.640625.5-1.914063.75-4.269531.75-7.066407v-5.2031245c0-2.796875-.25-5.140625-.75-7.03125s-1.21875-3.4140625-2.15625-4.5703125-2.0703125-1.984375-3.3984375-2.484375-2.8203125-.75-4.4765625-.75c-1.640625 0-3.1210938.25-4.4414062.75-1.3203126.5-2.4492188 1.328125-3.3867188 2.484375s-1.6601562 2.6796875-2.1679688 4.5703125c-.5078124 1.890625-.7617187 4.234375-.7617187 7.03125v5.2031245c0 2.796876.2578125 5.152344.7734375 7.066407.515625 1.914062 1.2421875 3.460937 2.1796875 4.640625.9375 1.179687 2.0703125 2.027344 3.3984375 2.542968 1.328125.515626 2.8125.773438 4.453125.773438zm0-3.539062c-1.03125 0-1.9492188-.203126-2.7539062-.609376-.8046876-.40625-1.484375-1.046874-2.0390626-1.921874-.5546874-.875-.9726562-1.996094-1.2539062-3.363282-.28125-1.367187-.421875-3.003906-.421875-4.910156v-6.609375c0-1.921875.140625-3.5546875.421875-4.8984375s.6914062-2.4335937 1.2304688-3.2695313c.5390624-.8359374 1.2109374-1.4414062 2.015625-1.8164062.8046874-.375 1.7226562-.5625 2.7539062-.5625 1.046875 0 1.9726562.1875 2.7773438.5625.8046874.375 1.4804687.9804688 2.0273437 1.8164062.546875.8359376.9570313 1.9257813 1.2304687 3.2695313.2734376 1.34375.4101563 2.9765625.4101563 4.8984375v6.609375c0 1.90625-.1328125 3.542969-.3984375 4.910156-.265625 1.367188-.6679688 2.488282-1.2070312 3.363282-.5390626.875-1.2070313 1.515624-2.0039063 1.921874s-1.7265625.609376-2.7890625.609376zm26.953125 3.539062c1.65625 0 3.144531-.257812 4.464844-.773438 1.320312-.515624 2.445312-1.363281 3.375-2.542968.929687-1.179688 1.644531-2.726563 2.144531-4.640625.5-1.914063.75-4.269531.75-7.066407v-5.2031245c0-2.796875-.25-5.140625-.75-7.03125s-1.21875-3.4140625-2.15625-4.5703125-2.070313-1.984375-3.398437-2.484375c-1.328126-.5-2.820313-.75-4.476563-.75-1.640625 0-3.121094.25-4.441406.75-1.320313.5-2.449219 1.328125-3.386719 2.484375s-1.660156 2.6796875-2.167969 4.5703125c-.507812 1.890625-.761719 4.234375-.761719 7.03125v5.2031245c0 2.796876.257813 5.152344.773438 7.066407.515625 1.914062 1.242188 3.460937 2.179688 4.640625.9375 1.179687 2.070312 2.027344 3.398437 2.542968 1.328125.515626 2.8125.773438 4.453125.773438zm0-3.539062c-1.03125 0-1.949219-.203126-2.753906-.609376-.804688-.40625-1.484375-1.046874-2.039063-1.921874-.554687-.875-.972656-1.996094-1.253906-3.363282-.28125-1.367187-.421875-3.003906-.421875-4.910156v-6.609375c0-1.921875.140625-3.5546875.421875-4.8984375s.691406-2.4335937 1.230469-3.2695313c.539062-.8359374 1.210937-1.4414062 2.015625-1.8164062.804687-.375 1.722656-.5625 2.753906-.5625 1.046875 0 1.972656.1875 2.777344.5625.804687.375 1.480469.9804688 2.027343 1.8164062.546876.8359376.957032 1.9257813 1.230469 3.2695313.273438 1.34375.410157 2.9765625.410157 4.8984375v6.609375c0 1.90625-.132813 3.542969-.398438 4.910156-.265625 1.367188-.667969 2.488282-1.207031 3.363282-.539063.875-1.207031 1.515624-2.003907 1.921874-.796874.40625-1.726562.609376-2.789062.609376zm22.945312-15.679688c1.078126 0 2.046876-.1875 2.90625-.5625.859376-.375 1.589844-.8789062 2.191407-1.5117188.601562-.6328124 1.058593-1.375 1.371093-2.2265624.3125-.8515626.46875-1.7539063.46875-2.7070313v-1.8046875c0-.96875-.160156-1.8789062-.480468-2.7304688-.320313-.8515624-.777344-1.5976562-1.371094-2.2382812s-1.324219-1.1484375-2.191406-1.5234375c-.867188-.375-1.847656-.5625-2.941406-.5625-1.078126 0-2.050782.1875-2.917969.5625-.867188.375-1.601563.8828125-2.203125 1.5234375-.601563.640625-1.0625 1.3867188-1.382813 2.2382812-.320312.8515626-.480469 1.7617188-.480469 2.7304688v1.8046875c0 .953125.160157 1.8554687.480469 2.7070313.320313.8515624.785157 1.59375 1.394531 2.2265624.609376.6328126 1.347657 1.1367188 2.214844 1.5117188.867188.375 1.847656.5625 2.941406.5625zm0-2.8125c-.640624 0-1.199218-.1171875-1.675781-.3515625-.476562-.234375-.871093-.546875-1.183593-.9375s-.546876-.8359375-.703126-1.3359375-.234374-1.0234375-.234374-1.5703125v-1.8046875c0-.546875.078124-1.0742188.234374-1.5820312.15625-.5078126.386719-.9570313.691407-1.3476563.304687-.390625.691406-.703125 1.160156-.9375s1.023437-.3515625 1.664063-.3515625c.625 0 1.175781.1171875 1.652343.3515625.476563.234375.867188.546875 1.171875.9375.304688.390625.535156.8398437.691406 1.3476563.15625.5078124.234376 1.0351562.234376 1.5820312v1.8046875c0 .546875-.074219 1.0742187-.222657 1.5820313-.148437.5078124-.375.953125-.679687 1.3359374-.304688.3828126-.691406.6914063-1.160156.9257813s-1.015626.3515625-1.640626.3515625zm.984376 18.984375 16.664062-26.671875-2.460938-1.546875-16.664062 26.671875zm15.632812 3.070313c1.078125 0 2.046875-.1875 2.90625-.5625s1.589844-.878907 2.191406-1.511719c.601563-.632813 1.0625-1.375 1.382813-2.226563.320312-.851562.480469-1.761718.480469-2.730468v-1.828126c0-.953124-.160157-1.859374-.480469-2.71875-.320313-.859374-.78125-1.605468-1.382813-2.238281-.601562-.632812-1.335937-1.136719-2.203125-1.511719-.867187-.375-1.847656-.5625-2.941406-.5625-1.078125 0-2.050781.1875-2.917969.5625-.867187.375-1.601562.878907-2.203125 1.511719-.601562.632813-1.0625 1.378907-1.382812 2.238281-.320313.859376-.480469 1.765626-.480469 2.71875v1.828126c0 .96875.160156 1.878906.480469 2.730468.320312.851563.785156 1.59375 1.394531 2.226563.609375.632812 1.347656 1.136719 2.214844 1.511719.867187.375 1.847656.5625 2.941406.5625zm0-2.8125c-.640625 0-1.199219-.117188-1.675781-.351563-.476563-.234375-.871094-.546875-1.183594-.9375s-.546875-.839844-.703125-1.347656c-.15625-.507813-.234375-1.035157-.234375-1.582031v-1.828126c0-.546874.078125-1.074218.234375-1.582031.15625-.507812.390625-.953125.703125-1.335937.3125-.382813.703125-.691406 1.171875-.925782.46875-.234374 1.015625-.351562 1.640625-.351562s1.175781.117188 1.652344.351562c.476562.234376.867187.542969 1.171875.925782.304687.382812.535156.828125.691406 1.335937.15625.507813.234375 1.035157.234375 1.582031v1.828126c0 .546874-.074219 1.074218-.222656 1.582031-.148438.507812-.375.957031-.679688 1.347656-.304687.390625-.691406.703125-1.160156.9375s-1.015625.351563-1.640625.351563z" fill="#fff" fill-rule="nonzero"/></g></svg>