<?xml version="1.0" encoding="UTF-8"?>
<svg width="577px" height="35px" viewBox="0 0 577 35" version="1.1" xmlns="http://www.w3.org/2000/svg" xmlns:xlink="http://www.w3.org/1999/xlink">
    <title>E31E98E6-ADE4-4930-9F0D-84AC2F5C528D</title>
    <g id="People" stroke="none" stroke-width="1" fill="none" fill-rule="evenodd">
        <g id="People---1920x1080" transform="translate(-672.000000, -14127.000000)">
            <g id="Integrations" transform="translate(0.000000, 11949.000000)">
                <g id="Logos" transform="translate(672.000000, 2178.000000)">
                    <g id="logo-economic" transform="translate(0.000000, 8.072391)" fill-rule="nonzero">
                        <path d="M41.5066579,16.4983165 C39.6875449,16.4983165 38.2448001,15.9554103 37.1784235,14.8997593 C36.1120469,13.8441084 35.6102227,12.3360356 35.6102227,10.4660253 C35.6102227,8.56585354 36.1120469,7.02761928 37.0843315,5.9116454 C38.056616,4.79567152 39.3739047,4.22260386 41.0361976,4.22260386 C42.5730345,4.22260386 43.7962312,4.70518715 44.7057877,5.70051521 C45.6153442,6.6656818 46.0544404,7.96262442 46.0544404,9.56118159 L46.0544404,10.7073169 L37.5547917,10.7073169 C37.5861557,12.0947439 37.962524,13.1503949 38.6525323,13.8742698 C39.3425407,14.5981448 40.3148252,14.9600822 41.5693859,14.9600822 C42.8866747,14.9600822 44.2039634,14.6886291 45.5212521,14.1457229 L45.5212521,15.7141186 C44.8626077,15.9855717 44.2353274,16.1967019 43.6394111,16.3173478 C43.0434947,16.4379936 42.3221223,16.4983165 41.5066579,16.4983165 L41.5066579,16.4983165 Z M41.0048336,5.70051521 C40.0011851,5.70051521 39.2170846,6.00212977 38.6525323,6.63552035 C38.056616,7.26891093 37.7116118,8.1134317 37.6175198,9.19924412 L44.0471433,9.19924412 C44.0471433,8.05310878 43.7962312,7.20858801 43.2630429,6.60535889 C42.7298546,6.00212977 41.9771182,5.70051521 41.0048336,5.70051521 Z M49.1594781,10.2548951 C49.1594781,9.77231178 49.2849342,9.41037431 49.5044823,9.16908266 C49.7240304,8.92779101 50.0690346,8.80714519 50.4767668,8.80714519 C50.9158631,8.80714519 51.2608673,8.92779101 51.4804154,9.16908266 C51.7313275,9.41037431 51.8567836,9.77231178 51.8567836,10.2548951 C51.8567836,10.7374784 51.7313275,11.0692544 51.4804154,11.3407075 C51.2295032,11.5819992 50.8844991,11.7328064 50.4767668,11.7328064 C50.1003986,11.7328064 49.7867585,11.6121606 49.5358463,11.4010304 C49.2849342,11.1597388 49.1594781,10.7676398 49.1594781,10.2548951 L49.1594781,10.2548951 Z M61.0778047,16.4983165 C59.2900557,16.4983165 57.9100389,15.9554103 56.9377544,14.8997593 C55.9654698,13.8441084 55.4636456,12.3360356 55.4636456,10.4057024 C55.4636456,8.41504626 55.9654698,6.876812 56.9691184,5.82116103 C57.972767,4.76551007 59.3841477,4.1924424 61.2032607,4.1924424 C61.7991771,4.1924424 62.3950934,4.25276531 62.9910097,4.37341114 C63.586926,4.49405696 64.0573863,4.64486424 64.3710265,4.79567152 L63.8064742,6.33390579 C63.3987419,6.1830985 62.9596457,6.03229122 62.4578214,5.94180686 C61.9559971,5.85132249 61.5482649,5.79099958 61.1718967,5.79099958 C58.6627753,5.79099958 57.4082146,7.32923384 57.4082146,10.4057024 C57.4082146,11.8534523 57.7218548,12.9694261 58.3177711,13.753624 C58.9136875,14.5378219 59.823244,14.9299208 61.0464406,14.9299208 C62.0814532,14.9299208 63.1164658,14.7187906 64.2142064,14.2965302 L64.2142064,15.8950874 C63.3673779,16.2871863 62.3323654,16.4983165 61.0778047,16.4983165 L61.0778047,16.4983165 Z M77.6380058,10.3453794 C77.6380058,12.2757126 77.1361815,13.7837854 76.1325329,14.8695979 C75.1288844,15.9554103 73.7175036,16.4983165 71.9297546,16.4983165 C70.832014,16.4983165 69.8597295,16.2570248 68.981537,15.7442801 C68.1347085,15.2616968 67.4760642,14.5378219 67.0056039,13.6028167 C66.5351437,12.6678116 66.3155955,11.5819992 66.3155955,10.3453794 C66.3155955,8.41504626 66.8174198,6.90697345 67.8210684,5.82116103 C68.8247169,4.73534861 70.2047337,4.1924424 71.9924827,4.1924424 C73.7175036,4.1924424 75.0975204,4.73534861 76.1011689,5.85132249 C77.1048175,6.96729636 77.6380058,8.44520771 77.6380058,10.3453794 L77.6380058,10.3453794 Z M68.2601646,10.3453794 C68.2601646,11.8534523 68.5738048,12.9995876 69.2010851,13.8139469 C69.8283655,14.5981448 70.769286,14.9902437 71.9924827,14.9902437 C73.2156793,14.9902437 74.1565999,14.5981448 74.7838802,13.8139469 C75.4111605,13.029749 75.7248007,11.8836137 75.7248007,10.3453794 C75.7248007,8.83730664 75.4111605,7.69117131 74.7838802,6.90697345 C74.1565999,6.12277559 73.2156793,5.73067666 71.9924827,5.73067666 C70.769286,5.73067666 69.8597295,6.12277559 69.2324491,6.876812 C68.5738048,7.66100985 68.2601646,8.80714519 68.2601646,10.3453794 Z M89.1172361,16.2871863 L89.1172361,8.62617645 C89.1172361,7.66100985 88.897688,6.93713491 88.4272277,6.45455161 C87.9567674,5.97196831 87.2667591,5.73067666 86.2944745,5.73067666 C85.0085498,5.73067666 84.0676293,6.06245268 83.471713,6.72600472 C82.8757966,7.38955675 82.5621565,8.50553063 82.5621565,10.0437649 L82.5621565,16.2570248 L80.6803154,16.2570248 L80.6803154,4.43373405 L82.1857883,4.43373405 L82.4994284,6.06245268 L82.5935205,6.06245268 C82.9698887,5.48938501 83.503077,5.03696317 84.1930854,4.70518715 C84.8830938,4.37341114 85.6358302,4.22260386 86.5140226,4.22260386 C87.9881315,4.22260386 89.1172361,4.55437987 89.8699725,5.24809337 C90.6227089,5.94180686 90.9990771,7.02761928 90.9990771,8.56585354 L90.9990771,16.2871863 L89.1172361,16.2871863 Z M105.112885,10.3453794 C105.112885,12.2757126 104.611061,13.7837854 103.607412,14.8695979 C102.603763,15.9554103 101.192383,16.4983165 99.4046337,16.4983165 C98.3068931,16.4983165 97.3346086,16.2570248 96.4564161,15.7442801 C95.6095876,15.2616968 94.9509433,14.5378219 94.480483,13.6028167 C94.0100228,12.6678116 93.7904746,11.5819992 93.7904746,10.3453794 C93.7904746,8.41504626 94.2922989,6.90697345 95.2959475,5.82116103 C96.299596,4.73534861 97.6796128,4.1924424 99.4673618,4.1924424 C101.192383,4.1924424 102.572399,4.73534861 103.576048,5.85132249 C104.579697,6.96729636 105.112885,8.44520771 105.112885,10.3453794 L105.112885,10.3453794 Z M95.7350437,10.3453794 C95.7350437,11.8534523 96.0486839,12.9995876 96.6759642,13.8139469 C97.3032446,14.5981448 98.2441651,14.9902437 99.4673618,14.9902437 C100.690558,14.9902437 101.631479,14.5981448 102.258759,13.8139469 C102.88604,13.029749 103.19968,11.8836137 103.19968,10.3453794 C103.19968,8.83730664 102.88604,7.69117131 102.258759,6.90697345 C101.631479,6.12277559 100.690558,5.73067666 99.4673618,5.73067666 C98.2441651,5.73067666 97.3346086,6.12277559 96.7073283,6.876812 C96.0486839,7.66100985 95.7350437,8.80714519 95.7350437,10.3453794 Z M124.088115,16.2871863 L124.088115,8.56585354 C124.088115,7.6308484 123.868567,6.90697345 123.460835,6.45455161 C123.053103,5.97196831 122.394458,5.76083812 121.516266,5.76083812 C120.355797,5.76083812 119.508969,6.09261414 118.944416,6.72600472 C118.379864,7.35939529 118.097588,8.35472335 118.097588,9.68182741 L118.097588,16.2871863 L116.215747,16.2871863 L116.215747,8.56585354 C116.215747,7.6308484 115.996199,6.90697345 115.588467,6.45455161 C115.180734,5.97196831 114.52209,5.76083812 113.612534,5.76083812 C112.452065,5.76083812 111.573872,6.09261414 111.040684,6.78632763 C110.507496,7.48004112 110.22522,8.56585354 110.22522,10.1040878 L110.22522,16.3173478 L108.343379,16.3173478 L108.343379,4.43373405 L109.848851,4.43373405 L110.162492,6.06245268 L110.256584,6.06245268 C110.601588,5.48938501 111.103412,5.03696317 111.762057,4.70518715 C112.389337,4.37341114 113.110709,4.22260386 113.926174,4.22260386 C115.839379,4.22260386 117.125303,4.88615589 117.689856,6.24342142 L117.783948,6.24342142 C118.160316,5.61003084 118.693504,5.12744754 119.383513,4.76551007 C120.073521,4.40357259 120.888986,4.22260386 121.767178,4.22260386 C123.147195,4.22260386 124.213571,4.55437987 124.90358,5.24809337 C125.593588,5.94180686 125.938592,7.02761928 125.938592,8.56585354 L125.938592,16.2871863 L124.088115,16.2871863 L124.088115,16.2871863 Z M129.545454,1.20645824 C129.545454,0.784197859 129.639546,0.482583298 129.859094,0.301614561 C130.078643,0.120645824 130.329555,0 130.643195,0 C130.956835,0 131.207747,0.0904843684 131.427295,0.301614561 C131.646843,0.512744754 131.740936,0.784197859 131.740936,1.20645824 C131.740936,1.59855717 131.646843,1.90017174 131.427295,2.11130193 C131.207747,2.32243212 130.956835,2.41291649 130.643195,2.41291649 C130.329555,2.41291649 130.078643,2.32243212 129.859094,2.11130193 C129.639546,1.93033319 129.545454,1.62871863 129.545454,1.20645824 Z M131.552751,16.2871863 L129.67091,16.2871863 L129.67091,4.43373405 L131.552751,4.43373405 L131.552751,16.2871863 Z M140.334676,16.4983165 C138.546927,16.4983165 137.16691,15.9554103 136.194626,14.8997593 C135.222341,13.8441084 134.720517,12.3360356 134.720517,10.4057024 C134.720517,8.41504626 135.222341,6.876812 136.22599,5.82116103 C137.229639,4.76551007 138.641019,4.1924424 140.460132,4.1924424 C141.056049,4.1924424 141.651965,4.25276531 142.247881,4.37341114 C142.843798,4.49405696 143.314258,4.64486424 143.627898,4.79567152 L143.063346,6.33390579 C142.655614,6.1830985 142.216517,6.03229122 141.714693,5.94180686 C141.212869,5.85132249 140.805136,5.79099958 140.428768,5.79099958 C137.919647,5.79099958 136.665086,7.32923384 136.665086,10.4057024 C136.665086,11.8534523 136.978726,12.9694261 137.574643,13.753624 C138.170559,14.5378219 139.080116,14.9299208 140.303312,14.9299208 C141.338325,14.9299208 142.373337,14.7187906 143.471078,14.2965302 L143.471078,15.8950874 C142.624249,16.2871863 141.589237,16.4983165 140.334676,16.4983165 L140.334676,16.4983165 Z" id="Shape" fill="#FFFFFF"></path>
                        <path d="M10.1383672,0 C15.5108346,0.469812079 21.4327589,3.25736375 24.8210764,7.23510602 C29.1556807,12.3403973 27.659937,17.4143677 21.4938096,18.6045583 C15.3276823,19.7947489 6.8111005,16.6313476 2.47649613,11.5573772 C-0.850770595,7.6735973 -0.728669064,3.75849664 2.26281845,1.62868188 L19.4180836,14.6268161 L10.1383672,0 Z" id="Path" fill="#E70641"></path>
                    </g>
                    <g id="logo-microsoft-365" transform="translate(183.802129, 5.159615)" fill-rule="nonzero">
                        <path d="M46.2610145,12.6297222 C46.2955647,14.1539688 45.971248,15.6658184 45.3126672,17.0505811 C44.725471,18.2672933 43.7750661,19.2855058 42.5842434,19.9736674 C41.3403812,20.6713589 39.9230003,21.0258014 38.4858868,20.9985377 C37.0885854,21.0229366 35.7107766,20.678523 34.5001877,20.0022248 C33.3332707,19.3352727 32.3944379,18.3508902 31.8003683,17.1714174 C31.1466454,15.8789696 30.819054,14.4546702 30.8445398,13.0156736 C30.8119138,11.4947575 31.1428082,9.98713083 31.81137,8.61058515 C32.4106844,7.38780435 33.3775282,6.36898112 34.5851209,5.68771201 C35.8601735,4.9909111 37.3051568,4.63885351 38.7688507,4.66838264 C40.1375794,4.64802321 41.4854594,4.9946801 42.6634557,5.67002346 C43.8129509,6.34036749 44.7368449,7.31945905 45.3230088,8.48847022 C45.9665018,9.7784327 46.2877453,11.1968951 46.2607945,12.629296 M44.2602437,12.8716078 C44.2602437,10.8154736 43.76392,9.21142756 42.7712725,8.05946959 C41.7786249,6.90751161 40.3953434,6.33131951 38.6214278,6.33089328 C37.561634,6.31620329 36.5204107,6.60111389 35.6252224,7.15074694 C34.7233562,7.71913395 34.0105376,8.5281081 33.5727436,9.48009462 C33.0768003,10.537394 32.8283921,11.6878339 32.8453106,12.8490176 C32.8236976,14.0099701 33.0624258,15.1616411 33.5450193,16.2245471 C33.9656495,17.1597578 34.6588381,17.9557985 35.5396291,18.5151079 C36.418187,19.0586085 37.4422131,19.3402086 38.4845666,19.3249451 C40.2888469,19.3249451 41.7024931,18.7521629 42.7255053,17.6065983 C43.7485176,16.4610338 44.260097,14.8827036 44.2602437,12.8716078" id="Shape" fill="#FFFFFF"></path>
                        <path d="M54.5661069,5.39201323 C54.1825207,5.18262887 53.7501957,5.07635219 53.312191,5.08376821 C51.9943482,5.08376821 51.3354268,5.90700259 51.3354268,7.55347137 L51.3354268,9.35031968 L54.0942198,9.35031968 L54.0942198,10.9305158 L51.3354268,10.9305158 L51.3354268,21 L49.4498808,21 L49.4498808,10.9311763 L47.4497559,10.9311763 L47.4497559,9.35098021 L49.4498808,9.35098021 L49.4498808,7.46253909 C49.4498808,6.27814428 49.8023685,5.32243792 50.507344,4.59542002 C51.2068696,3.86893747 52.1858598,3.47155574 53.199392,3.50269141 C53.6643748,3.48498526 54.128529,3.55476767 54.5672193,3.70833488 L54.5661069,5.39201323 Z" id="Path" fill="#FFFFFF"></path>
                        <path d="M60.4984388,5.39204064 C60.1150356,5.18265316 59.6828565,5.07637256 59.2449944,5.08379616 C57.9267973,5.08379616 57.2676988,5.9070291 57.2676988,7.55349499 L57.2676988,9.35034015 L60.026923,9.35034015 L60.026923,10.9305335 L57.2676988,10.9305335 L57.2676988,21 L55.381413,21 L55.381413,10.931194 L53.3809754,10.931194 L53.3809754,9.35100067 L55.381413,9.35100067 L55.381413,7.46256287 C55.381413,6.27817014 55.7341041,5.32246546 56.4394865,4.59544883 C57.1387063,3.86930327 58.1172281,3.47194459 59.1303976,3.50272214 C59.5954595,3.48490351 60.0597076,3.554689 60.4984388,3.70836525 L60.4984388,5.39204064 Z" id="Path" fill="#FFFFFF"></path>
                        <path d="M64.0567824,5.82331595 C64.0651938,6.13840881 63.9365495,6.44192859 63.7034934,6.65685622 C63.2344581,7.09563056 62.5022224,7.10061178 62.0271321,6.66826012 C61.7969934,6.44757408 61.6727753,6.14035213 61.6855839,5.82352713 C61.6817765,5.51882212 61.8030105,5.22560982 62.0215819,5.01089399 C62.241122,4.78335661 62.5477952,4.65843975 62.865633,4.66708767 C63.1837481,4.65867392 63.4911746,4.78100136 63.7148072,5.00498086 C63.9384095,5.2191199 64.0621054,5.51549005 64.0563554,5.82331595 M63.7474678,21 L61.9379026,21 L61.9379026,9.82650558 L63.7474678,9.82650558 L63.7474678,21 Z" id="Shape" fill="#FFFFFF"></path>
                        <path d="M74.7127047,20.216328 C73.7938653,20.7545493 72.7446501,21.0252148 71.6820199,20.9981522 C70.7319095,21.0124167 69.7952659,20.7707999 68.9689706,20.2982934 C68.1689132,19.8322656 67.5193552,19.1436832 67.0982188,18.3151499 C66.6442999,17.4260404 66.4149293,16.4379888 66.4303913,15.4383729 C66.4303913,13.6001051 66.9531055,12.1229056 67.9985338,11.0067744 C69.0445186,9.892885 70.437426,9.33544991 72.1772558,9.33446912 C73.0616877,9.31657872 73.937715,9.51026335 74.7333656,9.89961037 L74.7333656,11.7234467 C73.967768,11.1647235 73.0478073,10.8611495 72.1023339,10.8552434 C71.0359696,10.8216497 70.011522,11.2745846 69.3143627,12.0878776 C68.5993699,12.9100541 68.2416647,13.9725925 68.2412473,15.2754929 C68.2412473,16.5722283 68.5812133,17.5966562 69.2611452,18.3487768 C69.9410771,19.1008973 70.8518964,19.4770277 71.9936032,19.4771678 C72.9796949,19.4700815 73.9356384,19.1340103 74.7118699,18.5215347 L74.7127047,20.216328 Z" id="Path" fill="#FFFFFF"></path>
                        <path d="M86.5951065,15.6133746 L77.9516409,15.6133746 C77.9843419,16.8665538 78.3492198,17.8242367 79.0462747,18.4864233 C79.7433297,19.1486098 80.7093963,19.4795629 81.9444745,19.4792826 C83.3246318,19.4820825 84.6636747,19.0525932 85.7360122,18.2631718 L85.7360122,19.9253651 C84.6679864,20.6422083 83.249428,21.0004197 81.4803368,20.9999996 C79.7337662,20.9999996 78.3705063,20.487628 77.3905572,19.4628856 C76.4106081,18.4381432 75.9204793,17.0205034 75.9201708,15.2099663 C75.9060673,14.1673354 76.1579031,13.1359005 76.6559424,12.196492 C77.1013737,11.334621 77.8029745,10.6029587 78.6816282,10.0840119 C79.5373818,9.5858438 80.534375,9.32505279 81.5506748,9.3335338 C83.1357459,9.3335338 84.3731379,9.80302055 85.2628509,10.741994 C86.1525638,11.6809676 86.5968804,12.9932181 86.5958026,14.6787456 L86.5951065,15.6133746 Z M84.5872367,14.1023279 C84.5705777,13.0747826 84.2973241,12.2763749 83.767476,11.7071046 C83.2376279,11.1378344 82.4907503,10.8536198 81.5268432,10.8544607 C80.6471643,10.8433188 79.8022602,11.1661494 79.1957428,11.7451541 C78.5217068,12.3917674 78.0943812,13.2181646 77.9768608,14.1023279 L84.5872367,14.1023279 Z" id="Shape" fill="#FFFFFF"></path>
                        <path d="M99.6431586,16.2535002 C99.6431586,17.6775989 99.1135916,18.8249198 98.0544576,19.6954629 C96.9953236,20.566006 95.604482,21.0008512 93.8819328,21 C92.3198539,21 91.0773884,20.7137724 90.1545363,20.1413196 L90.1545363,18.2031643 C91.2318916,19.0297987 92.5723964,19.4728965 93.9496312,19.4576158 C95.1012422,19.4576158 96.0177522,19.184248 96.6991614,18.6375123 C97.3816718,18.0925866 97.7605369,17.2716533 97.7232662,16.4184586 C97.7232662,14.3564068 96.1990189,13.3251678 93.1505241,13.3247415 L91.7903607,13.3247415 L91.7903607,11.7938673 L93.0814983,11.7938673 C95.7788166,11.7938673 97.1277707,10.8247897 97.1283606,8.88663431 C97.1283606,7.09525077 96.0993886,6.19970109 94.0414445,6.19998526 C92.8553179,6.20926846 91.7073643,6.60498088 90.7843973,7.32272579 L90.7843973,5.5721201 C91.9171581,4.94793274 93.2061694,4.63556071 94.5106876,4.66911106 C95.8676062,4.66911106 96.9630968,5.01607795 97.7971593,5.71001174 C98.6238887,6.38695887 99.0847261,7.39035557 99.0486955,8.43502322 C99.0486955,10.5131304 97.9589571,11.8495639 95.7794803,12.4443237 L95.7794803,12.4869486 C96.8312119,12.5645995 97.8219577,12.9929721 98.5812223,13.698349 C99.2858311,14.3722843 99.6701193,15.2966983 99.6431586,16.2528608" id="Path" fill="#FFFFFF"></path>
                        <path d="M112.692617,15.712398 C112.706167,16.6580662 112.470836,17.5922254 112.007553,18.4317953 C111.579843,19.218494 110.923612,19.8751336 110.114955,20.32557 C109.295142,20.7775568 108.359322,21.0100159 107.408944,20.9977471 C105.829311,21.0456923 104.334754,20.3257125 103.453899,19.092464 C102.497093,17.8231277 102.018917,16.0499783 102.01937,13.7730158 C101.987406,12.1428993 102.27561,10.5212211 102.86952,8.98934859 C103.435833,7.60521226 104.237984,6.53912039 105.275972,5.79107299 C106.305235,5.04480332 107.573363,4.64863686 108.873179,4.66729694 C110.029691,4.66729694 110.959436,4.81782994 111.662414,5.11889593 L111.662414,6.82619158 C110.815596,6.4122351 109.874866,6.19676392 108.920346,6.19813013 C107.43608,6.19813013 106.246914,6.82406039 105.352846,8.07592091 C104.458779,9.32778143 104.011368,10.9959342 104.010612,13.0803793 L104.05778,13.0803793 C104.831055,11.5885469 106.10851,10.843199 107.890143,10.8443356 C109.343116,10.8443356 110.507187,11.2905356 111.382356,12.1829356 C112.257526,13.0753355 112.694355,14.251823 112.692843,15.712398 M110.724732,15.943632 C110.724732,14.841523 110.437494,13.9714295 109.863017,13.3333515 C109.28854,12.6952734 108.485785,12.3764475 107.454751,12.3768738 C106.56159,12.3592034 105.702036,12.6968984 105.087983,13.3067116 C104.456983,13.9039202 104.110486,14.715989 104.127624,15.5574605 C104.090568,16.5603896 104.428161,17.5438807 105.08186,18.3373837 C105.645956,19.0172193 106.502316,19.4263354 107.419161,19.4540022 C108.336007,19.481669 109.218529,19.1250256 109.827868,18.4805996 C110.42487,17.8312973 110.723522,16.9854993 110.723825,15.9432057" id="Shape" fill="#FFFFFF"></path>
                        <path d="M123.369365,15.8173003 C123.369365,17.3782417 122.82539,18.6325129 121.737439,19.5801138 C120.649488,20.5277147 119.19696,21.0010095 117.379855,21 C115.80793,21 114.641117,20.7764599 113.879414,20.329383 L113.879414,18.3808064 C114.920205,19.0522425 116.145722,19.4185643 117.40381,19.4342901 C118.598229,19.4342901 119.5607,19.1164971 120.291223,18.4809112 C121.021746,17.8453252 121.387539,16.99494 121.388604,15.9297557 C121.388604,14.8834945 121.01916,14.0640942 120.280272,13.4715547 C119.541384,12.8790153 118.468718,12.58289 117.062276,12.5831789 C116.105349,12.5746965 115.148713,12.6191182 114.197221,12.7162186 L114.774202,4.66666667 L122.590476,4.66666667 L122.590476,6.32381264 L116.449248,6.32381264 L116.107029,11.0371882 L117.662984,10.9804188 C119.423508,10.9804188 120.814589,11.4025057 121.836226,12.2466794 C122.857863,13.0908532 123.368909,14.2810601 123.369365,15.8173003" id="Path" fill="#FFFFFF"></path>
                        <polygon id="Path" fill="#E33B05" points="22.5386341 24.5972403 22.536448 24.5959377 22.536448 2.30447839 14.494103 0 0.0362888164 5.39115514 0 5.39788513 0.00174885862 21.5164252 4.93549763 19.5988126 4.93549763 6.48466976 14.494103 4.21514389 14.4927914 23.4963444 0.00983732973 21.5164252 14.4927914 26.8274717 14.4927914 26.8333333 22.536448 24.6226406 22.536448 24.5972403"></polygon>
                    </g>
                    <g id="logo-dinero" transform="translate(347.288185, 0.000000)" fill-rule="nonzero">
                        <g id="BlnzUq.tif" transform="translate(40.234073, 7.000000)" fill="#FFFFFF">
                            <path d="M68.6345953,16.9913743 C68.596583,17.0720696 68.5547695,17.1527649 68.5205585,17.2334602 C68.3019949,17.7889705 67.7252612,18.1061658 67.1495829,17.9874772 C66.5469331,17.8814788 66.1191569,17.3302811 66.1568292,16.7082951 C66.1782251,16.1221028 66.5979957,15.6305133 67.1647878,15.5278841 C67.7548121,15.4258959 68.3324529,15.7665814 68.5395646,16.3387106 C68.5674403,16.4135958 68.6029184,16.4855761 68.6345953,16.5591702 L68.6345953,16.9913743 Z" id="Path"></path>
                            <path d="M12.1828991,6.95416861 C12.1828991,8.87859041 12.2117251,10.8036578 12.1749799,12.727434 C12.1360173,14.7645064 11.345679,16.4394183 9.65825128,17.6014308 C8.35515478,18.4809272 6.77725045,18.8342131 5.2323567,18.5923693 C3.45905352,18.4288895 1.86264242,17.4302703 0.917014455,15.8929497 C-1.21293939,12.5018099 0.459283446,7.51613076 4.98084222,6.80407533 C6.26201182,6.577463 7.57850804,6.89211908 8.62716862,7.6755847 C9.05434152,7.94068023 9.26865347,8.45334691 9.16029062,8.95089341 C9.09488226,9.29738445 8.85899688,9.58514237 8.53603949,9.71242092 C8.2130821,9.83969948 7.84856607,9.7885617 7.571378,9.57708903 C6.71368843,8.98263195 5.64079644,8.80813218 4.64411692,9.10098669 C3.38179299,9.44345759 2.70454116,10.3708081 2.39030645,11.6070603 C1.81378711,13.8765352 3.02384418,15.9345885 5.2364747,16.4671775 C6.29118812,16.7204335 7.40177894,16.5128486 8.29961415,15.8946342 C9.19744936,15.2764197 9.80076036,14.3038784 9.96361647,13.2122514 C10.0043376,12.9382216 10.0248793,12.6614711 10.0250696,12.3843175 C10.0291876,8.64844738 10.0431255,4.91257723 10.0165169,1.17702985 C10.0091357,0.796620928 10.1901691,0.43797834 10.4981571,0.22285987 C10.806145,0.00774140072 11.1997119,-0.0349536635 11.5452434,0.109269488 C11.9532802,0.24796105 12.2165754,0.651530642 12.1841662,1.08858779 C12.1860668,3.0437814 12.1860668,4.9990826 12.1841662,6.95449139 L12.1828991,6.95416861 Z" id="Path"></path>
                            <path d="M35.4014234,13.3416867 C35.566133,14.0164326 35.9334612,14.6219482 36.4521457,15.0737309 C37.7936619,16.2570469 40.0572922,16.2896478 41.5442052,15.1440972 C41.7847757,14.9368987 42.0915492,14.8267666 42.4064501,14.83455 C42.7359376,14.8356202 43.041663,15.0095045 43.2155099,15.2947104 C43.3893568,15.5799164 43.4068208,15.9362433 43.261726,16.2376801 C43.1615957,16.4388193 43.0236097,16.6179207 42.8556283,16.7647818 C42.0169722,17.4898269 40.9731998,17.9233565 39.8761004,18.0023251 C38.4517718,18.1929765 37.0053637,17.9029659 35.7581051,17.1766507 C34.4566599,16.3783441 33.561413,15.0415722 33.3063141,13.5156658 C32.8628377,11.3833729 33.270836,9.43280581 34.7799229,7.82955136 C36.1103521,6.41415559 37.7999972,5.95742012 39.6816043,6.17110131 C40.9511589,6.28737549 42.1438529,6.84129987 43.0627952,7.74143207 C44.3225849,8.98930438 44.7907693,10.5567301 44.7670116,12.3016855 C44.7287367,12.8742933 44.26647,13.3216276 43.7033018,13.3310349 C43.5423832,13.3452373 43.3798808,13.3413639 43.2183287,13.3413639 C40.7614693,13.3413639 38.30461,13.3413639 35.8477507,13.3413639 L35.4014234,13.3416867 Z M42.6009461,11.4049992 C42.380528,9.44492644 40.6586109,8.02688235 38.7316145,8.21850276 C36.4689345,8.35052029 35.3976222,10.0848239 35.3497901,11.4062904 L42.6009461,11.4049992 Z" id="Shape"></path>
                            <path d="M59.5750058,6.12591193 C62.8503958,6.02617253 65.4247764,8.72785157 65.4149846,12.1096307 C65.40482,15.5704912 62.9568302,18.0972228 59.5892604,18.1004537 C56.1735417,18.1036784 53.6878564,15.5585483 53.7255519,12.0198975 C53.7629306,8.56581538 56.3243237,6.01681187 59.5750058,6.12591193 Z M63.2761332,12.0360366 C63.257908,11.7714687 63.2261883,11.508046 63.1811025,11.2468364 C62.9042465,9.91181318 62.2193923,8.8805271 60.9105033,8.43670288 C59.566453,7.98125854 58.2553467,8.09616867 57.1564755,9.08742987 C56.0398652,10.0948301 55.733233,11.4340495 55.9670084,12.8807551 C56.2476025,14.8424646 58.0013901,16.2261355 59.9354887,16.0117332 C61.8506733,15.8222606 63.3017915,14.1515449 63.2767667,12.0360366 L63.2761332,12.0360366 Z" id="Shape"></path>
                            <path d="M22.1576339,7.5929527 C22.8150319,6.87973618 23.6802194,6.40101902 24.6252634,6.22758803 C26.7476148,5.84025053 28.6064145,6.31086559 30.0192036,8.06744113 C30.6431186,8.83801961 30.9875435,9.80404897 30.9945349,10.8030122 C31.0239944,12.8610654 31.0167088,14.920087 31.0125908,16.9787858 C31.0419841,17.2668023 30.9425218,17.5529925 30.7417942,17.7579682 C30.5410667,17.9629438 30.2604208,18.0649063 29.9777069,18.0355716 C29.2896849,18.0407361 28.8829537,17.6653415 28.8785189,16.9703935 C28.867432,15.1896094 28.8823201,13.4088252 28.867432,11.6280411 C28.8773394,11.1970644 28.8314347,10.7666379 28.7309046,10.3478906 C28.2643041,8.66942816 26.5160567,7.79275429 24.8096229,8.35116585 C23.2980906,8.8098819 22.2443226,10.2028689 22.1937456,11.8091214 C22.1462302,13.3930089 22.1756897,14.979156 22.171255,16.5643347 C22.171255,16.6979661 22.1744227,16.8322431 22.1684041,16.9655518 C22.1367272,17.6821261 21.7680082,18.0410589 21.0758682,18.034926 C20.7825921,18.0611701 20.492812,17.9547791 20.2833594,17.7439614 C20.0739068,17.5331437 19.9659396,17.239195 19.988084,16.9400521 C19.9813262,13.7387076 19.9813262,10.5373632 19.988084,7.33601883 C19.9804738,6.73187142 20.4549401,6.23582682 21.0478342,6.2280722 C21.6407283,6.22031758 22.1275331,6.70378945 22.1351433,7.30793686 C22.1386278,7.37765761 22.1459135,7.4467328 22.1576339,7.5929527 Z" id="Path"></path>
                            <path d="M48.9870065,7.31277858 C49.4605233,6.81733565 50.074237,6.48518607 50.7422227,6.36283337 C51.1493824,6.29288722 51.5619005,6.26047798 51.9747704,6.26599899 C52.503187,6.30954945 52.9108376,6.75820539 52.912827,7.29840605 C52.9148019,7.8386067 52.510455,8.29035625 51.9823728,8.33793182 C51.7001729,8.34868267 51.4190485,8.37942106 51.1410347,8.42992447 C50.0294928,8.68298497 49.2869866,9.55965884 49.0883725,10.8598217 C49.0225281,11.2963115 48.9879091,11.737101 48.9847891,12.1787059 C48.9721183,13.7319292 48.9648326,15.2854754 48.9847891,16.838376 C48.9952153,17.2048946 48.8256312,17.5525851 48.5326219,17.7654333 C48.2396127,17.9782816 47.861751,18.0282675 47.5251181,17.8987124 C47.1530876,17.7937627 46.8844366,17.4640008 46.8516675,17.0720696 C46.8368876,16.93929 46.8293791,16.8057744 46.829177,16.6721436 C46.8279099,13.6272405 46.8289658,10.5823374 46.8323446,7.53743433 C46.8263338,7.3124047 46.8584826,7.08800612 46.9273753,6.87411886 C47.1126551,6.46955475 47.5293531,6.22925514 47.9651101,6.27568243 C48.416089,6.27866176 48.806334,6.59611613 48.9090813,7.04357902 C48.9280875,7.12104652 48.953429,7.19786845 48.9870065,7.31277858 Z" id="Path"></path>
                            <path d="M17.059239,12.1809653 C17.059239,13.7661441 17.0405497,15.3513228 17.0671583,16.9358559 C17.0810961,17.7657265 16.4485087,18.1792093 15.6781268,18.0165275 C15.2420611,17.9336291 14.9253357,17.5466699 14.9235834,17.0946643 C14.9074281,16.6011317 14.9162977,16.1066309 14.9162977,15.6127756 C14.9162977,12.885274 14.9299187,10.1577725 14.9083784,7.43027095 C14.9017263,6.58522965 15.5707421,6.17142409 16.3249688,6.33765643 C16.7943108,6.43308358 17.1131162,6.87970856 17.0576552,7.3641008 C17.0617732,8.9699375 17.059239,10.5754514 17.059239,12.1809653 Z" id="Path"></path>
                            <path d="M17.2293439,1.24481392 C17.2348603,1.57811466 17.1062357,1.89918775 16.8733926,2.13334043 C16.6405495,2.36749311 16.3237874,2.49431174 15.9967963,2.4842939 C15.5567273,2.49033069 15.147639,2.2541699 14.9265026,1.86642884 C14.7053662,1.47868777 14.7065271,0.999587637 14.9295399,0.612964055 C15.1525527,0.226340472 15.5627806,-0.00775892192 16.0028149,0.000492207827 C16.3299342,-0.00898997965 16.6465129,0.118876339 16.8784233,0.354150946 C17.1103337,0.589425552 17.23721,0.911447273 17.2293439,1.24481392 Z" id="Path"></path>
                        </g>
                        <path d="M31.9502089,19.1417704 C31.9946059,25.5216199 28.1306499,31.2976416 22.1647949,33.7694641 C16.1989399,36.2412866 9.30986115,34.9205512 4.7183002,30.4247204 C0.126739252,25.9288897 -1.26014823,19.1462057 1.20602723,13.2476691 C3.67220268,7.3491325 9.50419826,3.5 15.9754737,3.5 C20.197804,3.48561702 24.2530112,5.12548646 27.2488973,8.0589108 C30.2447833,10.9923351 31.9359105,14.9789939 31.9502089,19.1417704 L31.9502089,19.1417704 Z" id="Path" fill="#008EBE"></path>
                        <path d="M15.7447718,30.3333333 C14.1502837,30.3421218 12.5926174,29.8513585 11.2881412,28.929094 C9.34163161,27.5709279 8.33833424,25.7236333 8.30766576,23.437256 C8.26792191,20.5544187 8.27637139,17.4078171 8.33896012,13.5350767 C8.36165676,12.4479495 8.75045897,11.4007422 9.44177358,10.5647377 C10.1491196,9.69765365 11.096803,9.06166094 12.1643834,8.7375873 C12.7116062,8.56686059 13.2813344,8.48027013 13.8542792,8.48074756 C16.343433,8.48074756 18.5531282,10.0658517 19.2275218,12.3361765 C19.3780706,12.859688 19.4550706,13.4018071 19.4562836,13.9467757 C19.4662978,15.54447 19.4656719,17.1682889 19.465046,18.7458389 C19.465046,18.7458389 19.4628554,21.6516532 19.4672366,22.9726782 C19.4722437,24.3711328 18.8967403,25.4035279 17.7557478,26.044683 C17.2238921,26.35356 16.621764,26.5191114 16.0076445,26.5253132 C15.3384863,26.5161225 14.6843896,26.3242086 14.1152742,25.9700861 C13.0635809,25.4044516 12.4219549,24.2877347 12.4598022,23.0888226 C12.4638705,21.9915882 12.4648093,16.7336128 12.4648093,16.7336128 C12.4414136,16.3502827 12.5765013,15.9742597 12.8381118,15.6945076 C13.0997222,15.4147554 13.4646135,15.2561279 13.8464556,15.2561548 L14.1281049,15.2819647 C14.8098314,15.4100386 15.2948603,16.0218434 15.2672198,16.7188193 L15.2700363,23.076862 C15.2700363,23.4482724 15.5645163,23.6878006 16.0185975,23.6878006 C16.4335608,23.6878006 16.6354095,23.4954856 16.6360354,23.1026718 L16.6360354,20.1408312 C16.6332189,18.0949264 16.6310283,15.9772575 16.6516825,13.8961002 C16.6645132,12.5536719 15.4975463,11.390339 14.049869,11.3028372 L13.8524015,11.2959126 C12.6625181,11.2489729 11.5874621,12.0056094 11.2236748,13.14604 C11.1630582,13.3616755 11.1314822,13.5845164 11.1297917,13.8085984 C11.1260363,14.8715247 11.1276011,15.9542804 11.1297917,17.0011542 C11.1326082,18.9935507 11.1354247,21.0501572 11.1006879,23.0759177 C11.0594826,24.2112315 11.4837765,25.3137237 12.2742266,26.1252601 C13.0255136,26.8791233 14.0100014,27.3526754 15.0650582,27.4676884 C15.3393368,27.4993387 15.6151529,27.5156261 15.8912294,27.5164754 C16.8450884,27.5229281 17.7862123,27.2960883 18.6335547,26.8554908 C20.0240931,26.2137407 20.8937184,24.7930741 20.837304,23.2553278 L20.837304,1.72611415 C20.8335771,1.51849806 20.8509839,1.31104335 20.8892526,1.10699188 C21.0263836,0.461484588 21.5933386,0 22.2496187,0 C22.8965012,0.00457034133 23.4570872,0.451817502 23.608733,1.08432955 C23.646552,1.26011329 23.6649188,1.43956585 23.6634982,1.61941234 L23.6650629,5.01876187 C23.6669405,10.9509415 23.6691311,17.0839347 23.6634982,23.1171506 C23.6606817,26.6065199 21.5602038,29.1969501 18.0442818,30.0417514 C17.2919447,30.2300759 16.5200412,30.3279146 15.7447718,30.3333333 Z" id="Path" fill="#FFFFFF"></path>
                        <path d="M22.1143077,0.362899665 C22.6602002,0.370040191 23.1315721,0.75347363 23.2584925,1.29362691 C23.2929315,1.45417531 23.3095427,1.61814955 23.3080137,1.78246862 L23.3080137,5.1409231 C23.3101535,11.0017371 23.3122933,17.0609488 23.3080137,23.0215835 C23.3052626,26.380038 21.3042383,28.8721356 17.956359,29.6884266 C17.2346054,29.8693028 16.4944516,29.9632378 15.7511361,29.9684149 C14.2294491,29.976973 12.742866,29.5034249 11.4978132,28.6134102 C9.64657539,27.3073446 8.69252761,25.5301624 8.6631817,23.3337954 C8.62435951,20.480042 8.63414148,17.3725387 8.69375036,13.5563393 C8.71653001,12.5229787 9.08290182,11.5279747 9.73308468,10.7336827 C10.4016873,9.90470635 11.297509,9.29670456 12.3066599,8.98697541 C12.8240374,8.8241016 13.3625934,8.74149267 13.9041779,8.74193263 C16.2579644,8.74193263 18.345498,10.2551029 18.9822431,12.4216171 C19.1243393,12.9224023 19.1969794,13.4409235 19.1980578,13.9621526 C19.2084512,15.6283191 19.2072284,17.3230948 19.2063114,18.9625181 C19.2063114,20.2449502 19.2044773,21.5727836 19.2084512,22.8779163 C19.2133422,24.1886465 18.6820589,25.1563789 17.6283573,25.7543704 C17.1356194,26.0445536 16.5775371,26.2003029 16.0082185,26.2065179 C15.3864885,26.1972015 14.7788968,26.0164284 14.2502151,25.6834697 C13.2797722,25.1551987 12.6875261,24.1130313 12.7217822,22.9939074 C12.7260619,21.908629 12.7251448,20.8046926 12.7245334,19.7377614 C12.7245334,18.7457734 12.7245334,17.7214448 12.7266732,16.7139085 C12.7052443,16.3837331 12.8188898,16.0592257 13.0407066,15.8172062 C13.2625235,15.5751868 13.5727924,15.4371706 13.8980642,15.43583 L14.1404736,15.4585306 C14.7203333,15.5710604 15.1314571,16.0990057 15.1064432,16.698982 C15.1098057,17.4854201 15.1091943,18.283364 15.1091943,19.0570524 C15.1091943,19.3773494 15.1091943,19.6975428 15.1091943,20.0176326 L15.1091943,20.9032695 C15.1091943,21.5948623 15.1091943,22.2868698 15.1091943,22.9792919 C15.1091943,23.4497865 15.4760182,23.7641751 16.0186119,23.7641751 C16.2271286,23.7934148 16.4373649,23.7242676 16.5895864,23.5763806 C16.7418079,23.4284935 16.8193764,23.2180308 16.8002524,23.0047913 C16.8014752,22.0304248 16.8014752,21.0550218 16.8002524,20.0785823 C16.7975012,18.0572903 16.7953614,15.9663414 16.8158424,13.9105319 C16.828987,12.4890971 15.6135772,11.2576638 14.1056253,11.1643734 L13.9029551,11.158465 C12.6614886,11.1121044 11.5418854,11.9132841 11.1652262,13.1175635 C11.1005801,13.3466207 11.0670511,13.5836 11.0655724,13.821906 C11.0622099,14.8732888 11.0634326,15.9430188 11.0655724,16.9772984 C11.0683236,18.944171 11.0710748,20.9763469 11.0371436,22.9755603 C10.9955376,24.1454988 11.4277185,25.281546 12.2326837,26.1182029 C12.995462,26.8923259 13.9949328,27.3787021 15.0660925,27.4970351 C15.3406751,27.5294831 15.6168518,27.5459912 15.8932804,27.546479 C16.8535053,27.5534574 17.8010136,27.3229461 18.6542414,26.8747881 C20.0740945,26.2118866 20.9621014,24.7447109 20.9047059,23.1565436 C20.9024642,20.5705337 20.9024642,17.985042 20.9047059,15.4000686 L20.9047059,10.4037457 C20.9047059,7.56522968 20.9054192,4.7265064 20.9068458,1.88757581 C20.903205,1.69417925 20.9188754,1.50090634 20.9536158,1.31073015 C21.0709285,0.757807291 21.5515346,0.362899665 22.1075826,0.362899665 L22.1167532,0.362899665 M22.1167532,0 L22.1063598,0 C21.3811914,0.000320307675 20.7546949,0.5157222 20.6026876,1.23703073 C20.5634333,1.4515024 20.5455112,1.66945044 20.5491925,1.88757581 L20.5470527,10.4037457 L20.5470527,15.4000686 C20.5470527,17.9860786 20.5470527,20.5715703 20.5470527,23.1565436 C20.5470527,24.7113837 19.8745422,25.8234053 18.4910048,26.5532472 C17.6876632,26.9738286 16.7961348,27.1902118 15.892669,27.1838903 C15.6299252,27.1835961 15.3674158,27.1679182 15.1064432,27.1369341 C14.1164305,27.0276035 13.1924488,26.5788511 12.4864036,25.8644531 C11.7487476,25.0969056 11.3529401,24.055107 11.3914343,22.9824016 C11.4256712,20.9744811 11.422003,18.9426162 11.4201688,16.9769874 C11.4186404,15.9427078 11.417112,14.8742217 11.4201688,13.8228389 C11.421426,13.6181402 11.4500144,13.414564 11.5051497,13.2176952 C11.8395484,12.1698664 12.8187671,11.4766252 13.9008153,11.5216756 L14.0826988,11.5272731 C15.4032648,11.6081247 16.4688882,12.675056 16.4569664,13.9064893 C16.4367911,15.9638536 16.4389309,18.0569793 16.4416821,20.0788933 L16.4416821,20.1936405 L16.4416821,23.0051022 C16.4416821,23.250145 16.3698457,23.4018974 16.0167777,23.4018974 C15.8874723,23.4018974 15.4647078,23.3708006 15.4637907,22.9796028 L15.4637907,20.9035804 L15.4637907,20.0179435 L15.4637907,19.0573634 C15.4637907,18.283675 15.4637907,17.4844872 15.4610396,16.6980491 C15.489423,15.9209345 14.9524025,15.2405778 14.2003882,15.1009174 L13.8947016,15.0726193 C13.4755741,15.0753748 13.0756559,15.2517921 12.7872309,15.5611618 C12.4988058,15.8705314 12.3467924,16.2861255 12.3662688,16.7120427 C12.3629062,17.7211338 12.3635176,18.7454625 12.3644346,19.7374504 C12.3644346,20.8326797 12.3644346,21.9210677 12.3613778,22.9923525 C12.3223665,24.2416273 12.9831833,25.4053222 14.0664975,25.9950596 C14.6497703,26.3615151 15.3199774,26.5598276 16.0054673,26.5687956 C16.6358169,26.5628152 17.2539802,26.391439 17.8001532,26.0712468 C18.9752123,25.4035985 19.56855,24.3282711 19.5630476,22.8757395 C19.558768,21.5696739 19.5593794,20.2443283 19.5609078,18.9618962 C19.5609078,17.2801812 19.5630476,15.6034417 19.5526543,13.9587319 C19.5511944,13.4034326 19.4733032,12.8510767 19.3212495,12.3177537 C18.6426254,9.99824338 16.4141703,8.37872199 13.9044836,8.37872199 C13.3272935,8.37858279 12.7533486,8.46652885 12.2018094,8.63962415 C11.1254841,8.97104407 10.1703089,9.62048915 9.45766109,10.5054322 C8.75579941,11.3629435 8.36071462,12.4373367 8.33701413,13.5529187 C8.27771094,17.3731606 8.26792897,20.4834626 8.30644548,23.3415696 C8.33701413,25.6613909 9.34272294,27.5359061 11.294226,28.9131834 C12.598498,29.8463529 14.1563044,30.342672 15.7508304,30.3332002 C16.5219774,30.3277758 17.2898746,30.2308216 18.0388944,30.044174 C21.5582638,29.1852804 23.6613874,26.5613324 23.6635272,23.0243822 C23.6693353,17.1548611 23.667125,11.188007 23.6635272,5.41084333 L23.6635272,5.14434375 L23.6635272,1.78588927 C23.6656902,1.5932573 23.6464111,1.40099531 23.6060581,1.21277523 C23.4409355,0.509577319 22.8276926,0.0100970127 22.1170589,0 L22.1167532,0 Z" id="Shape" fill="#008EBE"></path>
                    </g>
                    <g id="logo-billy" transform="translate(497.000000, 4.683334)">
                        <g id="icon">
                            <ellipse id="Oval" fill="#FFD4CC" fill-rule="nonzero" cx="11.5" cy="12.8166657" rx="11" ry="10.844871"></ellipse>
                            <polygon id="Path" fill="#FFFFFF" fill-rule="nonzero" points="9.05734571 14.0205626 7.03222283 15.4785886 3.30311305 15.4785886 2.06007646 13.6338585 2 9.51680414 5.93009285 8.87307629 10 10.2458172"></polygon>
                            <polygon id="Path" fill="#FFFFFF" fill-rule="nonzero" points="12.9426543 13.8669063 14.9677772 15.2814092 18.6968869 15.2814092 19.9399235 13.4917456 20 9.49758839 16.0699072 8.87307629 12 10.2048398"></polygon>
                            <ellipse id="Oval" fill="#595959" fill-rule="nonzero" cx="7" cy="11.8307684" rx="1" ry="1"></ellipse>
                            <ellipse id="Oval" fill="#595959" fill-rule="nonzero" cx="15" cy="11.8307684" rx="1" ry="1"></ellipse>
                            <path d="M7,18.024335 C10.2016703,20.3758416 13.8455361,20.2744757 17,17.7461526" id="Path" stroke="#595959" stroke-width="0.65"></path>
                            <path d="M16.6845146,15.7743578 C16.1338997,15.7132141 15.5748944,15.6998737 15.0358162,15.5831448 C13.355463,15.2588966 12.096914,13.7673668 11.979641,11.9612147 C11.9332704,11.5800587 11.7034045,11.251814 11.3726393,11.0944266 C11.0418741,10.9370391 10.6577195,10.9731154 10.3582111,11.1896924 C10.2111889,11.3246314 10.105627,11.5031201 10.0551107,11.7021877 C9.99979068,11.9385892 9.95637929,12.177944 9.92506073,12.4192365 C9.64561216,14.2236011 8.2134432,15.5748079 6.49027228,15.6598524 C5.61666454,15.7252272 4.73933942,15.709604 3.86829637,15.6131608 C3.10020652,15.5599208 2.43795849,15.0215946 2.19023179,14.2491006 C1.98881866,13.6103688 1.82592748,12.9587074 1.70254427,12.2980608 C1.60385241,11.7227807 1.39891053,11.1738357 1.09948981,10.6827556 C0.920146659,10.4126116 1.03865997,9.91790354 1.0355136,9.52547219 C1.0355136,9.49212108 1.12780715,9.43764761 1.18339304,9.42653057 C3.68596698,8.75150493 6.30536662,8.72747728 8.81858689,9.35649325 C9.25217258,9.5436795 9.69716926,9.69967162 10.1505507,9.82340874 C11.0194866,9.98723778 11.9143891,9.88821819 12.7326725,9.53770093 C14.0950817,8.97910513 15.5623686,8.76812606 17.0159324,8.92181716 C18.2021143,9.00185982 19.3799059,9.2153069 20.5629414,9.35982836 C20.8775785,9.39762628 21.0139212,9.52102537 20.9897991,9.88455244 C21.0034003,10.1359615 21.0034003,10.3879901 20.9897991,10.6393991 C20.9698721,10.8239419 20.7947241,10.8672984 20.695089,11.0529529 C20.471002,11.5980832 20.3114218,12.1705141 20.2199869,12.7571944 C20.1151079,13.1629662 20.0521805,13.5809667 19.9242281,13.9800683 C19.6397295,14.9824368 18.7742353,15.6729718 17.7867933,15.6854216 C17.4214858,15.7394972 17.053335,15.7692011 16.6845146,15.7743578 L16.6845146,15.7743578 Z M6.07180493,9.67110535 C5.44989965,9.6673969 4.82883927,9.72021092 4.21544598,9.82896726 C3.7143152,9.84367076 3.24122672,10.0773737 2.908314,10.4746829 C2.57540128,10.8719921 2.41230152,11.3975374 2.45767333,11.9267519 C2.48271637,12.4015657 2.53596057,12.8742351 2.61708947,13.3419505 C2.70528543,14.2645273 3.3977635,14.9915541 4.26893429,15.076208 C5.23069052,15.2596887 6.2199939,15.1948632 7.15310779,14.8872184 C8.23417089,14.5817381 9.05393718,13.6457891 9.26117643,12.4803802 C9.33354296,12.1468692 9.36605546,11.8033528 9.40486071,11.4631715 C9.49390332,10.926297 9.20777014,10.3988031 8.72524455,10.2102816 C8.52231105,10.0959039 8.30516934,10.0124449 8.08023848,9.96237168 C7.41945932,9.80628376 6.74774139,9.7077547 6.07180493,9.66777024 L6.07180493,9.67110535 Z M16.3100965,9.68778091 C15.8384271,9.68713 15.3671059,9.71496771 14.8984246,9.77115867 C14.3340774,9.87013263 13.7794186,10.0234412 13.2413359,10.2291805 C12.7592771,10.3975762 12.4781106,10.9280552 12.5931834,11.4520544 C12.6099641,11.5632248 12.6047201,11.6743952 12.6173056,11.7855655 C12.6295165,12.8378559 13.1220543,13.8186268 13.9387814,14.4169678 C15.2237701,15.230513 16.7789045,15.4118678 18.2000167,14.9138993 C18.7462394,14.7679536 19.16554,14.303632 19.279222,13.718818 C19.4146021,13.0832381 19.4936054,12.4356299 19.5151998,11.7844538 C19.5918893,10.8343967 18.9408039,9.9924238 18.0468933,9.88566414 C17.4249606,9.76004164 16.7862473,9.73780757 16.3100965,9.6844458 L16.3100965,9.68778091 Z" id="Shape" fill="#595959" fill-rule="nonzero"></path>
                            <path d="M18.1553636,3.41086787 L19.7486364,3.44043921 L18.9959091,4.28533459 L23,6.58556228 L22.4051364,12.8166657 C22.4027289,9.66606082 21.0350978,6.67443351 18.6624091,4.62962946 C17.8798169,5.27057571 17.0228546,5.81283775 16.1104545,6.24443577 C14.403551,6.76552439 12.5732016,6.69526606 10.9103636,6.04482923 C9.9252311,5.45697642 8.99419394,4.78117699 8.12840909,4.02552926 C6.36286404,4.09859994 4.65854619,4.69957889 3.2315,5.7522842 C1.012,7.76947194 0.522727273,12.4417434 0.522727273,12.4417434 L0,6.57183273 L2.33345455,5.19887773 L1.63718182,4.29061519 L3.08618182,4.29061519 L3.08618182,3.11832284 L4.21631818,4.28850295 C4.21631818,4.28850295 9.74677273,0.785355457 12.7367727,0.0471281135 C13.1789139,-0.0157093712 13.6275861,-0.0157093712 14.0697273,0.0471281135 C16.5848016,0.42348692 19.0528504,1.07033765 21.4318182,1.97665795 L18.1553636,3.41086787 Z" id="Path" fill="#735F50" fill-rule="nonzero"></path>
                        </g>
                        <path d="M32.4567807,3.98406104 L34.5213568,3.98406104 L34.5213568,8.67050171 L34.4727309,10.798315 C35.5870752,9.85402491 36.9425231,9.15869288 38.2929059,9.15869288 C41.4667611,9.15869288 43.1453689,11.501427 43.1453689,15.1229885 C43.1453689,19.133547 40.6563289,21.4762811 37.8583116,21.4762811 C36.7297847,21.4762811 35.4462626,20.9482177 34.3562313,20.0175426 L34.2802532,20.0175426 L34.1070233,21.1748085 L32.4456373,21.1748085 L32.4567807,3.9762811 L32.4567807,3.98406104 Z M37.5118518,19.8026217 C39.527802,19.8026217 41.0139321,18.0424106 41.0139321,15.1443833 C41.0139321,12.5604711 40.1021958,10.8187373 37.7914509,10.8187373 C36.7591628,10.8187373 35.6782488,11.3740305 34.5213568,12.4116798 L34.5213568,18.5704739 C35.5972056,19.4603044 36.7115499,19.8026217 37.5108387,19.8026217 L37.5118518,19.8026217 Z" id="Shape" fill="#FFFFFF" fill-rule="nonzero"></path>
                        <path d="M45.523087,5.31382181 C45.523087,4.50966872 46.300998,3.9762811 47.3063756,3.9762811 C48.3117533,3.9762811 49.0896642,4.51170455 49.0896642,5.31382181 C49.0896642,6.09863452 48.3117533,6.65136253 47.3063756,6.65136253 C46.300998,6.65136253 45.523087,6.10168826 45.523087,5.31382181 Z M45.9905876,9.18189999 L48.5517872,9.18189999 L48.5517872,21.4762811 L45.9905876,21.4762811 L45.9905876,9.18189999 Z" id="Shape" fill="#FFFFFF" fill-rule="nonzero"></path>
                        <path d="M52.6562414,3.9762811 L54.8370648,3.9762811 L54.8370648,18.9526634 C54.8370648,19.5828385 55.1324069,19.8279065 55.4480806,19.8279065 C55.6093948,19.8305535 55.7704409,19.8148721 55.9274765,19.7812269 L56.2228186,21.2817826 C55.9274765,21.4023717 55.560439,21.4762811 54.9697548,21.4762811 C53.318621,21.4762811 52.6562414,20.531991 52.6562414,18.8184595 L52.6562414,3.9762811 Z" id="Path" fill="#FFFFFF" fill-rule="nonzero"></path>
                        <path d="M58.6090974,3.9762811 L60.7899208,3.9762811 L60.7899208,18.9609906 C60.7899208,19.591516 61.0852629,19.8367204 61.4020067,19.8367204 C61.5633214,19.8393789 61.7243689,19.8236887 61.8814026,19.7900148 L62.167114,21.2816745 C61.8717718,21.4023306 61.5047343,21.4762811 60.9140501,21.4762811 C59.2629164,21.4762811 58.6005368,20.531466 58.6005368,18.8169817 L58.6101675,3.98114626 L58.6090974,3.9762811 Z" id="Path" fill="#FFFFFF" fill-rule="nonzero"></path>
                        <path d="M65.3402838,25.5907792 C66.8107034,25.5907792 67.7564358,24.4760755 68.2908394,22.9752789 L68.5888099,22.0632486 L63.355973,9.80961443 L65.6382543,9.80961443 L68.2940782,16.583973 C68.6956906,17.6459817 69.1469647,18.9005301 69.5582936,20.0294209 L69.6662539,20.0294209 C70.0462742,18.9147172 70.4219761,17.6652357 70.7663696,16.583973 L73.0961533,9.80961443 L75.2445637,9.80961443 L70.3334487,23.0533082 C69.4179451,25.4661351 68.0813963,27.3096144 65.4493237,27.3096144 C64.9266328,27.3138851 64.4074702,27.2287173 63.9173667,27.0581347 L64.349208,25.4174935 C64.6697101,25.517014 65.0031024,25.5753063 65.3402838,25.5907792 Z" id="Path" fill="#FFFFFF" fill-rule="nonzero"></path>
                        <path d="M77.6253123,4.17423788 C78.8331312,4.17423788 79.8122619,5.13509063 79.8122619,6.32036258 C79.8122619,7.50563452 78.8331312,8.46648728 77.6253123,8.46648728 C76.4174934,8.46648728 75.4383624,7.50563452 75.4383624,6.32036258 L75.4383624,6.32036258 C75.4380978,5.75091499 75.6683591,5.20468724 76.0784917,4.80184322 C76.4886243,4.39899919 77.0450323,4.17253779 77.6253123,4.17227794 M77.6253123,3.97628296 C76.6633573,3.97509541 75.7954486,4.54283051 75.4264843,5.41462945 C75.0575199,6.28642839 75.2602043,7.29050334 75.9399808,7.95843164 C76.6197572,8.62635995 77.642676,8.82652646 78.5315233,8.46554918 C79.4203706,8.10457189 80,7.25358133 80,6.30958295 L80,6.30958295 C79.9994512,5.02230859 78.9370722,3.97844638 77.6253123,3.97628296 Z" id="Shape" fill="#FFFFFF" fill-rule="nonzero"></path>
                        <path d="M78.5608159,7.46116231 L78.1532071,6.4824726 L77.8438084,6.4824726 L77.8438084,7.46116231 L77.6222819,7.46116231 L77.6222819,5.14294776 L78.1568992,5.14294776 C78.5017422,5.14294776 78.7542825,5.31530197 78.7542825,5.79607951 C78.7542825,6.16094632 78.6065981,6.37160147 78.3747337,6.45828254 L78.8111409,7.4762811 L78.5608159,7.4762811 L78.5608159,7.46116231 Z M77.8438084,6.24157987 L78.1317929,6.24157987 C78.3991016,6.24157987 78.5394017,6.08837613 78.5394017,5.790032 C78.5394017,5.49168786 78.3917174,5.37678506 78.1317929,5.37678506 L77.8438084,5.37678506 L77.8438084,6.24157987 Z" id="Shape" fill="#FFFFFF" fill-rule="nonzero"></path>
                    </g>
                </g>
            </g>
        </g>
    </g>
</svg>