<?xml version="1.0" standalone="no"?>
<!DOCTYPE svg PUBLIC "-//W3C//DTD SVG 20010904//EN"
 "http://www.w3.org/TR/2001/REC-SVG-20010904/DTD/svg10.dtd">
<svg version="1.0" xmlns="http://www.w3.org/2000/svg"
 width="24.000000pt" height="24.000000pt" viewBox="0 0 24.000000 24.000000"
 preserveAspectRatio="xMidYMid meet">

<g transform="translate(0.000000,24.000000) scale(0.100000,-0.100000)"
fill="#000000" stroke="none">
<path d="M63 224 c-33 -16 -63 -66 -63 -104 0 -60 60 -120 120 -120 60 0 120
60 120 120 0 39 -30 88 -65 104 -41 20 -71 20 -112 0z m93 -19 c49 -20 70 -71
49 -120 -32 -78 -138 -78 -170 0 -14 31 -14 39 -1 70 10 23 27 41 48 50 41 18
33 18 74 0z"/>
<path d="M110 175 c0 -8 5 -15 10 -15 6 0 10 7 10 15 0 8 -4 15 -10 15 -5 0
-10 -7 -10 -15z"/>
<path d="M110 95 c0 -25 5 -45 10 -45 6 0 10 20 10 45 0 25 -4 45 -10 45 -5 0
-10 -20 -10 -45z"/>
</g>
</svg>
