<?xml version="1.0" encoding="UTF-8"?>
<svg width="50px" height="50px" viewBox="0 0 50 50" version="1.1" xmlns="http://www.w3.org/2000/svg" xmlns:xlink="http://www.w3.org/1999/xlink">
    <title>CA4135A6-4511-41F0-A1D7-E0FA9BD6800D</title>
    <g id="People" stroke="none" stroke-width="1" fill="none" fill-rule="evenodd">
        <g id="People---1920x1080" transform="translate(-443.000000, -13740.000000)">
            <g id="Integrations" transform="translate(0.000000, 11949.000000)">
                <g id="icon-app-umbraco" transform="translate(443.000000, 1791.000000)">
                    <rect id="Rectangle" fill-opacity="0.7" fill="#1F2227" x="0" y="0" width="50" height="50" rx="12"></rect>
                    <polygon id="Path" points="12.5 11.5 37.5 11.5 37.5 36.5 12.5 36.5"></polygon>
                    <path d="M14.3749996,24 C14.3749996,18.1319745 19.1319745,13.375 25,13.375 C30.8680255,13.375 35.625,18.1319745 35.625,24 C35.625,29.8680255 30.8680255,34.6250004 25,34.6250004 C22.1818308,34.6257961 19.478858,33.5066353 17.4861113,31.5138887 C15.4933647,29.521142 14.3742039,26.8181692 14.3749996,24 L14.3749996,24 Z M24.765,27.64 C23.9442272,27.657479 23.1240076,27.5850475 22.319,27.424 C21.7232652,27.3009135 21.2218591,26.9012744 20.969,26.348 C20.6729218,25.5278803 20.5529829,24.6545748 20.617,23.785 C20.615851,23.1830633 20.6549381,22.581723 20.734,21.985 C20.813,21.398 20.871,20.928 20.95,20.537 L21.028,20.165 L21.028,20.126 C21.0245813,20.0226142 20.9525645,19.93423 20.852,19.91 L19.482,19.695 L19.443,19.695 C19.3456455,19.697495 19.260014,19.7600259 19.228,19.852 C19.208,19.93 19.189,20.008 19.149,20.204 C19.071,20.615 18.993,21.004 18.915,21.574 C18.8284435,22.1966669 18.7760318,22.8236045 18.758,23.452 C18.7234586,23.8883174 18.7234586,24.3266826 18.758,24.763 C18.7476519,25.723309 18.9551885,26.6734639 19.365,27.542 C19.7693699,28.2631811 20.4346029,28.8020949 21.224,29.048 C22.4110551,29.3961007 23.6469725,29.5480992 24.883,29.498 L25.083,29.498 C26.3190275,29.5480992 27.5549449,29.3961007 28.742,29.048 C29.5374234,28.813934 30.2063449,28.2717403 30.6,27.542 C31.0075532,26.6726971 31.2149757,25.7230643 31.207,24.763 C31.2415414,24.3266826 31.2415414,23.8883174 31.207,23.452 C31.1889682,22.8236045 31.1365565,22.1966669 31.05,21.574 C30.972,21.006 30.894,20.615 30.815,20.204 C30.7949152,20.0854337 30.7688824,19.9679521 30.737,19.852 C30.711558,19.755354 30.621804,19.6898127 30.522,19.695 L30.483,19.695 L29.113,19.91 C29.0088467,19.9283251 28.9339107,20.0202921 28.937,20.126 L28.937,20.165 L29.015,20.537 C29.094,20.908 29.152,21.398 29.231,21.985 C29.3001213,22.5826619 29.3391705,23.1834192 29.348,23.785 C29.409847,24.6545051 29.2899696,25.5273624 28.996,26.348 C28.7482483,26.905244 28.2444652,27.3067777 27.646,27.424 C26.8424668,27.595085 26.0210802,27.6676195 25.2,27.64 L24.765,27.64 Z" id="Shape" fill="#50BBBF" fill-rule="nonzero"></path>
                </g>
            </g>
        </g>
    </g>
</svg>