<?xml version="1.0" encoding="UTF-8"?>
<svg width="130px" height="130px" viewBox="0 0 130 130" version="1.1" xmlns="http://www.w3.org/2000/svg" xmlns:xlink="http://www.w3.org/1999/xlink">
    <title>47C28EBC-89CB-46E7-B84F-EF5FF517479E</title>
    <g id="People" stroke="none" stroke-width="1" fill="none" fill-rule="evenodd">
        <g id="People---1920x1080" transform="translate(-333.000000, -12560.000000)">
            <g id="Integrations" transform="translate(0.000000, 11949.000000)">
                <g id="icon-app-power-bi" transform="translate(333.000000, 611.000000)">
                    <rect id="Rectangle" fill-opacity="0.7" fill="#1F2227" x="0" y="0" width="130" height="130" rx="28"></rect>
                    <path d="M43.2822,83.162 L41.496,83.162 C38.8991494,83.1591373 36.7942978,81.0554486 36.79,78.4586 L36.79,51 C36.7942942,48.4027288 38.8987288,46.2982942 41.496,46.294 L88.504,46.294 C91.101864,46.2968658 93.2071342,48.402136 93.21,51 L93.21,78.4586 C93.2057022,81.0554486 91.1008506,83.1591373 88.504,83.162 L86.7178,83.162 L86.7178,86.542 L88.504,86.542 C92.9691799,86.5405649 96.5885649,82.9211799 96.5900004,78.456 L96.5900004,51 C96.59069,48.855248 95.7389961,46.7981414 94.2224274,45.2815726 C92.7058586,43.7650039 90.648752,42.91331 88.504,42.9139996 L41.496,42.9139996 C39.351248,42.91331 37.2941414,43.7650039 35.7775726,45.2815726 C34.2610039,46.7981414 33.40931,48.855248 33.4099996,51 L33.4099996,78.4586 C33.4114351,82.9237799 37.0308201,86.5431649 41.496,86.5446 L43.2822,86.5446 L43.2822,83.1646 L43.2822,83.162 Z" id="Path" fill="#F1C80D" fill-rule="nonzero"></path>
                    <rect id="Rectangle" fill="#F1C80D" fill-rule="nonzero" x="47.1874" y="74.9226" width="6.0268" height="15.1424" rx="1.159"></rect>
                    <rect id="Rectangle" fill="#F1C80D" fill-rule="nonzero" x="57.0544" y="62.7104" width="6.0268" height="27.3546" rx="1.159"></rect>
                    <rect id="Rectangle" fill="#F1C80D" fill-rule="nonzero" x="66.9188" y="68.5812" width="6.0268" height="21.4812" rx="1.159"></rect>
                    <rect id="Rectangle" fill="#F1C80D" fill-rule="nonzero" x="76.7858" y="53.1892" width="6.0268" height="36.8758" rx="1.159"></rect>
                </g>
            </g>
        </g>
    </g>
</svg>