<?xml version="1.0" encoding="UTF-8"?>
<svg width="50px" height="50px" viewBox="0 0 50 50" version="1.1" xmlns="http://www.w3.org/2000/svg" xmlns:xlink="http://www.w3.org/1999/xlink">
    <title>A30F95DD-1D87-492A-A04A-842ADE5B0C09</title>
    <g id="People" stroke="none" stroke-width="1" fill="none" fill-rule="evenodd">
        <g id="People---1920x1080" transform="translate(-1307.000000, -12714.000000)">
            <g id="Integrations" transform="translate(0.000000, 11949.000000)">
                <g id="icon-app-intercom" transform="translate(1307.000000, 765.000000)">
                    <rect id="Rectangle" fill-opacity="0.7" fill="#1F2227" x="0" y="0" width="50" height="50" rx="12"></rect>
                    <polygon id="Path" points="12.48 12.5 37.48 12.5 37.48 37.5 12.48 37.5"></polygon>
                    <path d="M32.012,15.625 L17.949,15.625 C16.6544445,15.625 15.605,16.6744445 15.605,17.969 L15.605,32.031 C15.605,33.3255555 16.6544445,34.375 17.949,34.375 L32.012,34.375 C32.6335755,34.375 33.2296784,34.1280117 33.6691048,33.6883977 C34.1085313,33.2487836 34.3552653,32.6525755 34.3550002,32.031 L34.3550002,17.969 C34.3552653,17.3474245 34.1085313,16.7512164 33.6691048,16.3116023 C33.2296784,15.8719883 32.6335755,15.625 32.012,15.625 Z M27.48,19.063 C27.48,18.717822 27.759822,18.438 28.105,18.438 C28.450178,18.438 28.73,18.717822 28.73,19.063 L28.73,27.413 C28.73,27.758178 28.450178,28.038 28.105,28.038 C27.759822,28.038 27.48,27.758178 27.48,27.413 L27.48,19.063 Z M24.355,18.746 C24.355,18.400822 24.634822,18.121 24.98,18.121 C25.325178,18.121 25.605,18.400822 25.605,18.746 L25.605,27.809 C25.605,28.154178 25.325178,28.434 24.98,28.434 C24.634822,28.434 24.355,28.154178 24.355,27.809 L24.355,18.746 Z M21.231,19.063 C21.2218316,18.8339268 21.3388147,18.6182195 21.5358106,18.5009541 C21.7328066,18.3836886 21.9781934,18.3836886 22.1751894,18.5009541 C22.3721853,18.6182195 22.4891684,18.8339268 22.48,19.063 L22.48,27.413005 C22.4891684,27.6420732 22.3721853,27.8577805 22.1751894,27.9750459 C21.9781934,28.0923114 21.7328066,28.0923114 21.5358106,27.9750459 C21.3388147,27.8577805 21.2218316,27.6420732 21.231,27.413005 L21.231,19.063 Z M18.106,20.313 C18.0968316,20.0839268 18.2138147,19.8682195 18.4108106,19.7509541 C18.6078066,19.6336886 18.8531934,19.6336886 19.0501894,19.7509541 C19.2471853,19.8682195 19.3641684,20.0839268 19.355,20.313 L19.355,25.934 C19.3641684,26.1630732 19.2471853,26.3787805 19.0501894,26.4960459 C18.8531934,26.6133114 18.6078066,26.6133114 18.4108106,26.4960459 C18.2138147,26.3787805 18.0968316,26.1630732 18.106,25.934 L18.106,20.313 Z M31.637,29.846 C29.7084359,31.249555 27.3634607,31.9628755 24.98,31.871 C22.5968678,31.9627272 20.2522564,31.2494102 18.324,29.846 C18.0699868,29.6197159 18.0436032,29.2318319 18.264635,28.9732354 C18.4856669,28.714639 18.8729289,28.6803132 19.136,28.896 C20.8449914,30.0903598 22.8963635,30.6958726 24.98,30.621 C27.0643018,30.7060029 29.118437,30.1010805 30.824,28.9 C31.0869337,28.6856451 31.4728557,28.7201733 31.6935616,28.9777992 C31.9142674,29.2354251 31.8891647,29.6220746 31.637,29.849 L31.637,29.846 Z M31.855,25.934 C31.8641684,26.1630732 31.7471853,26.3787805 31.5501894,26.4960459 C31.3531934,26.6133114 31.1078066,26.6133114 30.9108106,26.4960459 C30.7138147,26.3787805 30.5968316,26.1630732 30.606,25.934 L30.606,20.313 C30.5968316,20.0839268 30.7138147,19.8682195 30.9108106,19.7509541 C31.1078066,19.6336886 31.3531934,19.6336886 31.5501894,19.7509541 C31.7471853,19.8682195 31.8641684,20.0839268 31.855,20.313 L31.855,25.934 Z" id="Shape" fill="#3371F1"></path>
                </g>
            </g>
        </g>
    </g>
</svg>