<?xml version="1.0" encoding="UTF-8"?>
<svg width="50px" height="50px" viewBox="0 0 50 50" version="1.1" xmlns="http://www.w3.org/2000/svg" xmlns:xlink="http://www.w3.org/1999/xlink">
    <title>BB292841-EAF5-4968-B6E1-60DD5184A6FF</title>
    <g id="People" stroke="none" stroke-width="1" fill="none" fill-rule="evenodd">
        <g id="People---1920x1080" transform="translate(-934.000000, -12149.000000)">
            <g id="Integrations" transform="translate(0.000000, 11949.000000)">
                <g id="icon-app-google-calendar" transform="translate(934.000000, 200.000000)">
                    <rect id="Rectangle" fill-opacity="0.7" fill="#1F2227" x="0" y="0" width="50" height="50" rx="12"></rect>
                    <path d="M20.132,15.4 C20.2902836,15.3658053 20.455218,15.3804506 20.605,15.442 C20.8209608,15.5375522 20.9784435,15.7303199 21.029,15.961 C21.0546562,16.1217631 21.0327582,16.2865198 20.966,16.435 C20.8176786,16.7415262 20.4764651,16.9040286 20.145,16.826 C19.8118628,16.7435263 19.577398,16.4451914 19.576,16.102 C19.5819655,15.769444 19.8096498,15.4819722 20.132,15.4 Z" id="Path" fill="#FFFFFF" fill-rule="nonzero"></path>
                    <path d="M29.515,15.4 C29.6751683,15.3668624 29.8416453,15.3836148 29.992,15.448 C30.2372062,15.5632283 30.4003905,15.8026418 30.418,16.073 C30.42352,16.2807813 30.3449118,16.4819895 30.2,16.631 C30.0317592,16.8023196 29.7896095,16.8792277 29.553348,16.8363802 C29.3170865,16.7935328 29.1173654,16.6364889 29.02,16.417 C28.9617094,16.2714718 28.9430755,16.113083 28.966,15.958 C29.0275895,15.6825109 29.2405487,15.4660606 29.515,15.4 Z" id="Path" fill="#FFFFFF" fill-rule="nonzero"></path>
                    <path d="M16.542,14.756 C16.779192,14.6648275 17.033532,14.6269326 17.287,14.645 L32.887,14.645 C33.2871513,14.6432125 33.6709036,14.803862 33.9504428,15.0901871 C34.2299821,15.3765123 34.3813828,15.7640066 34.37,16.164 C34.37,16.664 34.375,17.175 34.37,17.68 C34.2006421,17.6214053 34.0221546,17.593633 33.843,17.598 L16.189,17.598 C16.001723,17.5932549 15.8150187,17.6206517 15.637,17.679 C15.629,17.154 15.637,16.629 15.632,16.104 C15.6375576,15.5128339 15.9957862,14.9821831 16.542,14.756 Z M20.132,15.401 C19.8103544,15.4827744 19.5828563,15.7691929 19.576,16.101 C19.577398,16.4441914 19.8118628,16.7425263 20.145,16.825 C20.4764651,16.9030286 20.8176786,16.7405262 20.966,16.434 C21.0327582,16.2855198 21.0546562,16.1207631 21.029,15.96 C20.9784435,15.7293199 20.8209608,15.5365522 20.605,15.441 C20.4551146,15.3797853 20.290183,15.365489 20.132,15.4 L20.132,15.401 Z M29.515,15.401 C29.2405487,15.4670606 29.0275895,15.6835109 28.966,15.959 C28.9430755,16.114083 28.9617094,16.2724718 29.02,16.418 C29.1173654,16.6374889 29.3170865,16.7945328 29.553348,16.8373802 C29.7896095,16.8802277 30.0317592,16.8033196 30.2,16.632 C30.3449118,16.4829895 30.42352,16.2817813 30.418,16.074 C30.4003905,15.8036418 30.2372062,15.5642283 29.992,15.449 C29.8417503,15.3842787 29.67527,15.3671769 29.515,15.4 L29.515,15.401 Z" id="Shape" fill="#C7C7C7" fill-rule="nonzero"></path>
                    <path d="M15.637,17.679 C15.8150187,17.6206517 16.001723,17.5932549 16.189,17.598 L33.837,17.598 C34.0161546,17.593633 34.1946421,17.6214053 34.364,17.68 C34.8884884,17.864774 35.2646125,18.3286475 35.337,18.88 C35.2405041,18.499138 35.0046276,18.1683398 34.676,17.953 C34.4336788,17.799476 34.1528602,17.7176573 33.866,17.717 C27.964,17.721 22.064,17.721 16.166,17.717 C15.7141751,17.7074916 15.2821448,17.9021992 14.99,18.247 C14.8696322,18.4041675 14.768888,18.5754326 14.69,18.757 C14.7981918,18.2581725 15.1562701,17.8505607 15.637,17.679 Z" id="Path" fill="#4483EF" fill-rule="nonzero"></path>
                    <path d="M28.553,26.481 L28.573,26.481 L28.573,26.494 C28.579,27.969 28.573,29.444 28.573,30.919 L29.683,30.919 C29.683,29.444 29.683,27.969 29.683,26.494 L29.683,26.481 L29.701,26.481 C29.8646933,26.4933368 30.0289406,26.4966751 30.193,26.491 C31.583,26.491 32.973,26.491 34.363,26.491 C34.524,28.815 34.675,31.141 34.833,33.465 C34.8702169,33.7311095 34.8621022,34.0016 34.809,34.265 L34.803,34.274 C34.7406205,34.3545476 34.6879256,34.4421487 34.646,34.535 C34.3794841,34.9698319 33.9079842,35.2369396 33.398,35.242 C27.8526667,35.242 22.3076667,35.242 16.763,35.242 C16.5885071,35.2526173 16.4133743,35.240516 16.242,35.206 C15.851929,35.1032139 15.5192008,34.8486264 15.318,34.499 C15.2810436,34.4204004 15.2368531,34.3454105 15.186,34.275 L15.179,34.266 C15.1254914,33.9141655 15.1234702,33.5564166 15.173,33.204 C15.326,30.968 15.473,28.731 15.626,26.495 C17.474,26.4903333 19.322,26.4903333 21.17,26.495 C21.17,26.601 21.17,26.707 21.17,26.814 C21.760016,26.7602349 22.3548755,26.8189404 22.923,26.987 C23.3037393,27.1337219 23.5977712,27.4446606 23.723,27.833 C23.8531479,28.2658412 23.8401718,28.7291224 23.686,29.154 C23.5349707,29.54989 23.206955,29.8519901 22.8,29.97 C22.3089774,30.1202407 21.7810842,30.0958601 21.306,29.901 C20.9348521,29.7452191 20.651539,29.4333551 20.532,29.049 C20.481104,28.8799827 20.454834,28.7045122 20.454,28.528 C20.1,28.528 19.746,28.528 19.392,28.528 C19.3704794,29.4987943 19.9758076,30.3732918 20.892,30.695 C21.4711423,30.9128765 22.0972469,30.9752801 22.708,30.876 C23.3092879,30.7941811 23.8640576,30.5077914 24.279,30.065 C24.6396156,29.6465817 24.8457584,29.1171053 24.863,28.565 C24.9117938,28.0364537 24.7632538,27.5085491 24.446,27.083 C24.2514679,26.8479167 24.0138914,26.6520858 23.746,26.506 C23.8733111,26.4943283 24.0012289,26.4906545 24.129,26.495 C25.438,26.495 26.748,26.495 28.057,26.495 C28.224,26.487 28.389,26.5 28.553,26.481 Z" id="Path" fill="#448AFF" fill-rule="nonzero"></path>
                    <path d="M14.985,18.249 C15.2771448,17.9041992 15.7091751,17.7094916 16.161,17.719 C22.063,17.719 27.963,17.719 33.861,17.719 C34.1478602,17.7196573 34.4286788,17.801476 34.671,17.955 C34.9996276,18.1703398 35.2355041,18.501138 35.332,18.882 C35.3556718,19.0141264 35.3576982,19.1492231 35.338,19.282 C35.017,21.682 34.685,24.082 34.369,26.482 C33.035,26.482 31.701,26.482 30.369,26.482 C30.146,26.482 29.924,26.49 29.702,26.482 L29.684,26.482 C29.684,25.002 29.684,23.522 29.684,22.042 C29.5958462,22.0294868 29.5059751,22.0384053 29.422,22.068 C28.398,22.43 27.371,22.786 26.347,23.151 C26.347,23.485 26.347,23.819 26.347,24.151 C27.087,23.907 27.826,23.657 28.566,23.411 C28.566,24.4336667 28.566,25.4566667 28.566,26.48 L28.546,26.48 C26.996,26.491 25.446,26.48 23.895,26.486 C23.8184176,26.4977495 23.7402736,26.4943519 23.665,26.476 C23.5776601,26.4321284 23.4866457,26.3959904 23.393,26.368 C24.0749049,26.0901757 24.5726072,25.4896299 24.719,24.768 C24.773746,24.3119296 24.7142979,23.8494028 24.546,23.422 C24.3732731,22.9937319 24.0620446,22.6356783 23.662,22.405 C23.1527858,22.1308977 22.5772496,22.004155 22,22.039 C21.4147648,22.0543007 20.8482983,22.2487072 20.377,22.596 C19.964446,22.9045628 19.6698125,23.3449251 19.542,23.844 C19.4957176,24.0352902 19.4712285,24.2312031 19.469,24.428 C19.827,24.428 20.185,24.434 20.543,24.428 C20.5256567,23.9495273 20.7433731,23.4928082 21.126,23.205 C21.5348241,22.9434669 22.0282309,22.848292 22.505,22.939 C22.8621251,22.9794951 23.1872227,23.1640783 23.405,23.45 C23.6457939,23.837691 23.7361583,24.300186 23.659,24.75 C23.5922138,25.2175512 23.2862836,25.6163599 22.852,25.802 C22.3159504,25.9806281 21.7485049,26.0453427 21.186,25.992 L21.17,25.992 C21.176,26.16 21.17,26.328 21.17,26.492 C19.3213333,26.492 17.472,26.492 15.622,26.492 C15.3073333,24.1393333 14.9896667,21.7866667 14.669,19.434 C14.6252902,19.2122203 14.6276729,18.9838196 14.676,18.763 C14.7574174,18.5795838 14.8612051,18.4069403 14.985,18.249 Z" id="Path" fill="#1565C0" fill-rule="nonzero"></path>
                    <path d="M15.19,34.273 C15.2408531,34.3434105 15.2850436,34.4184004 15.322,34.497 C15.5232008,34.8466264 15.855929,35.1012139 16.246,35.204 C16.4173743,35.238516 16.5925071,35.2506173 16.767,35.24 C22.3123333,35.24 27.8573333,35.24 33.402,35.24 C33.9119842,35.2349396 34.3834841,34.9678319 34.65,34.533 C34.6919256,34.4401487 34.7446205,34.3525476 34.807,34.272 C34.6758134,34.7519946 34.3108568,35.1331298 33.837,35.285 C33.5730054,35.352601 33.299734,35.376584 33.028,35.356 L16.828,35.356 C16.6116287,35.3689119 16.3945811,35.3473084 16.185,35.292 C15.7002528,35.1459007 15.3245064,34.761091 15.19,34.273 Z" id="Path" fill="#3664D0" fill-rule="nonzero"></path>
                </g>
            </g>
        </g>
    </g>
</svg>