<?xml version="1.0" encoding="UTF-8"?>
<svg width="50px" height="50px" viewBox="0 0 50 50" version="1.1" xmlns="http://www.w3.org/2000/svg" xmlns:xlink="http://www.w3.org/1999/xlink">
    <title>A803C336-499C-4D1B-8F63-77B79E70C55E</title>
    <g id="People" stroke="none" stroke-width="1" fill="none" fill-rule="evenodd">
        <g id="People---1920x1080" transform="translate(-764.000000, -12538.000000)">
            <g id="Integrations" transform="translate(0.000000, 11949.000000)">
                <g id="icon-app-google" transform="translate(764.000000, 589.000000)">
                    <rect id="Rectangle" fill-opacity="0.7" fill="#1F2227" x="0" y="0" width="50" height="50" rx="12"></rect>
                    <path d="M28.748,29.468 C26.0888817,31.444837 22.3529414,31.0240493 20.2001783,28.5052391 C18.0474152,25.9864288 18.2136593,22.2305434 20.5805444,19.9117831 C22.9474295,17.5930228 26.7059371,17.5039567 29.18,19.708 L32.149,16.738 C27.9931013,12.8561531 21.5021629,12.9883886 17.5078113,17.0362751 C13.5134597,21.0841616 13.4676488,27.5762852 17.4044786,31.6801371 C21.3413083,35.7839891 27.8297343,36.007812 32.04,32.185 L28.748,29.468 Z" id="Path" fill="#4CAF50" fill-rule="nonzero"></path>
                    <path d="M35.3,22.355 L25,22.355 L25,26.512 L30.934,26.512 C30.5138239,27.6919002 29.7530637,28.7206317 28.748,29.468 L28.748,29.468 L32.04,32.185 C34.785576,29.7135767 36.0229906,25.9766227 35.295,22.355 L35.3,22.355 Z" id="Path" fill="#448AFF" fill-rule="nonzero"></path>
                    <path d="M19.161,22.054 C19.9249605,20.1536698 21.5667059,18.7445887 23.560909,18.2776358 C25.555112,17.810683 27.6517729,18.3443972 29.18,19.708 L32.149,16.738 C29.7604327,14.5028975 26.464979,13.5117182 23.2397452,14.058348 C20.0145114,14.6049779 17.2296959,16.6266737 15.711,19.524 L19.161,22.054 Z" id="Path" fill="#FF3D00" fill-rule="nonzero"></path>
                    <path d="M19.161,22.054 L19.161,22.054 L15.711,19.524 C14.1199613,22.5414578 14.0953446,26.1440818 15.645,29.183 L19.076,26.538 C18.5468085,25.0845909 18.577106,23.4863092 19.161,22.054 L19.161,22.054 Z" id="Path" fill="#FFC107" fill-rule="nonzero"></path>
                </g>
            </g>
        </g>
    </g>
</svg>