<?xml version="1.0" encoding="UTF-8"?>
<svg width="50px" height="50px" viewBox="0 0 50 50" version="1.1" xmlns="http://www.w3.org/2000/svg" xmlns:xlink="http://www.w3.org/1999/xlink">
    <title>4CD1CE3B-D5EA-42DA-B18E-9036C7AAC9AE</title>
    <g id="People" stroke="none" stroke-width="1" fill="none" fill-rule="evenodd">
        <g id="People---1920x1080" transform="translate(-325.000000, -13219.000000)">
            <g id="Integrations" transform="translate(0.000000, 11949.000000)">
                <g id="icon-app-recurly" transform="translate(325.000000, 1270.000000)">
                    <rect id="Rectangle" fill-opacity="0.7" fill="#1F2227" x="0" y="0" width="50" height="50" rx="12"></rect>
                    <rect id="Rectangle" x="12.5" y="11.5" width="25" height="25"></rect>
                    <path d="M24.174,19.529 C24.164,19.505 24.151,19.482 24.139,19.456 L22.129,19.456 C21.9985301,18.558289 22.5647969,17.7063031 23.443,17.479 C24.3451929,17.199506 25.3030652,17.1506841 26.229,17.337 C27.1745676,17.4754192 27.9092074,18.2317988 28.02,19.181 C28.0589683,19.3984236 28.0866719,19.6177162 28.103,19.838 C28.2667816,21.174074 27.5294919,22.4580171 26.293,22.99 C25.7161417,23.2305464 25.0947502,23.3457578 24.47,23.328 C22.652,23.328 20.835,23.328 19.019,23.328 L18.619,23.328 L18.619,33.586 L22.246,33.586 L22.246,26.007 C23.128524,25.8034958 24.0479496,26.1404355 24.59,26.866 C24.9950972,27.3519636 25.3755748,27.8579321 25.73,28.382 C26.806,30.021 27.863,31.682 28.914,33.335 C29.0109678,33.5214163 29.2119912,33.6296597 29.421,33.608 C30.541,33.595 31.661,33.602 32.781,33.602 L33.123,33.602 C32.729,33.002 32.377,32.462 32.016,31.918 C30.916,30.255 29.828,28.58 28.7,26.938 C28.2892675,26.3936072 27.8485876,25.8724698 27.38,25.377 C27.475,25.353 27.594,25.325 27.714,25.293 C29.3928215,24.9460377 30.7795909,23.7684142 31.394,22.168 C31.7349016,21.2441967 31.8570976,20.2539636 31.751,19.275 C31.7209552,17.2914448 30.4943279,15.5230308 28.647,14.8 C26.3534392,13.8971835 23.804083,13.8907575 21.506,14.782 C20.0981431,15.2557334 19.0597085,16.4581716 18.796,17.92 C18.686,18.42 18.657,18.937 18.584,19.483 L16.875,19.483 C18.158,20.554 19.368,21.566 20.587,22.583 C21.8,21.555 22.987,20.542 24.174,19.529 Z" id="Path" fill="#A95BC4" fill-rule="nonzero"></path>
                </g>
            </g>
        </g>
    </g>
</svg>