<?xml version="1.0" encoding="UTF-8"?>
<svg width="96px" height="96px" viewBox="0 0 96 96" version="1.1" xmlns="http://www.w3.org/2000/svg" xmlns:xlink="http://www.w3.org/1999/xlink">
    <title>D0247BB6-A12D-4774-BA83-8C4C05872612</title>
    <g id="People" stroke="none" stroke-width="1" fill="none" fill-rule="evenodd">
        <g id="People---1920x1080" transform="translate(-1458.000000, -12491.000000)">
            <g id="Integrations" transform="translate(0.000000, 11949.000000)">
                <g id="icon-app-ordrestyring" transform="translate(1458.000000, 542.000000)">
                    <rect id="Rectangle" fill-opacity="0.7" fill="#1F2227" x="0" y="0" width="96" height="96" rx="20"></rect>
                    <path d="M48,26.05632 C35.8808402,26.05632 26.05632,35.8808402 26.05632,48 C26.05632,60.1191598 35.8808402,69.94368 48,69.94368 C60.1191598,69.94368 69.94368,60.1191598 69.94368,48 C69.94368,42.1801742 67.6317632,36.5987133 63.5165249,32.4834751 C59.4012867,28.3682368 53.8198258,26.05632 48,26.05632 Z M48.01728,55.81632 C43.7451853,53.6711811 39.7298281,51.0490254 36.048,48 C39.7036371,44.9140071 43.7232905,42.2871114 48.01728,40.17792 C52.2889013,42.3251373 56.3036042,44.9492188 59.98464,48 C56.329058,51.0830022 52.3100955,53.7072887 48.01728,55.8144 L48.01728,55.81632 Z" id="Shape" fill="#46AF58" fill-rule="nonzero"></path>
                    <path d="M52.416,53.4528 C50.9977693,54.3309185 49.5261078,55.1196522 48.0096,55.8144 C48.0096,55.8144 63.85152,64.0128 66.42432,59.8848 C65.9712,60.35904 62.05824,63.71328 52.416,53.4528 Z" id="Path" fill="#339861" fill-rule="nonzero"></path>
                    <path d="M66.48192,59.83296 C66.4704,59.85408 66.44544,59.86368 66.432,59.8848 L66.48192,59.83296 Z" id="Path" fill="#339861" fill-rule="nonzero"></path>
                    <path d="M28.52736,57.75552 C28.5408,57.89184 28.55808,57.98016 28.55808,57.98016 C28.53696,57.9072 28.54272,57.82848 28.52736,57.75552 Z" id="Path" fill="#339861" fill-rule="nonzero"></path>
                    <path d="M36.048,48 C36.048,48 27.7248,53.78304 28.52736,57.7632 C28.41024,56.6496 28.49664,51.5328 39.9552,50.99712 L39.89184,50.94912 C38.63808,50.05824 37.3344,49.0752 36.048,48 Z" id="Path" fill="#339861" fill-rule="nonzero"></path>
                    <path d="M67.55136,38.14848 C67.66656,39.10848 67.77216,44.448 56.07744,44.9952 L56.13888,45.04128 C57.39456,45.9264 58.69824,46.90944 59.97888,47.9923275 C59.98464,48 68.44608,42.13056 67.55136,38.14848 Z" id="Path" fill="#339861" fill-rule="nonzero"></path>
                    <path d="M67.55136,38.14848 C67.53984,38.05056 67.52832,37.98336 67.52832,37.98336 C67.54368,38.0352 67.53984,38.09472 67.55136,38.14848 Z" id="Path" fill="#339861" fill-rule="nonzero"></path>
                    <path d="M43.584,42.55104 L43.584,42.55104 C45.0113625,41.6646792 46.4933613,40.8694915 48.02112,40.17024 C48.02112,40.17024 32.13888,31.99296 29.56608,36.12096 C30.02496,35.64672 33.94368,32.28672 43.584,42.55104 Z" id="Path" fill="#339861" fill-rule="nonzero"></path>
                    <path d="M29.51232,36.17472 C29.52576,36.1536 29.5488,36.14208 29.56224,36.12096 L29.51232,36.17472 Z" id="Path" fill="#339861" fill-rule="nonzero"></path>
                </g>
            </g>
        </g>
    </g>
</svg>