<?xml version="1.0" encoding="UTF-8"?>
<svg width="50px" height="50px" viewBox="0 0 50 50" version="1.1" xmlns="http://www.w3.org/2000/svg" xmlns:xlink="http://www.w3.org/1999/xlink">
    <title>4A7BD0C1-9119-4281-BE00-F4EC261E3F02</title>
    <g id="People" stroke="none" stroke-width="1" fill="none" fill-rule="evenodd">
        <g id="People---1920x1080" transform="translate(-1031.000000, -12616.000000)">
            <g id="Integrations" transform="translate(0.000000, 11949.000000)">
                <g id="icon-app-azure" transform="translate(1031.000000, 667.000000)">
                    <rect id="Rectangle" fill-opacity="0.7" fill="#1F2227" x="0" y="0" width="50" height="50" rx="12"></rect>
                    <polygon id="Path" fill="#00BEF2" fill-rule="nonzero" points="25 11.6 12.091 26.901 25 37.359 37.909 26.901"></polygon>
                    <path d="M31.67,24.323 C31.2008898,24.3247059 30.7474952,24.4922493 30.39,24.796 L26.59,20.356 C26.5793622,20.3461573 26.5679965,20.3371317 26.556,20.329 C27.2228719,19.5101337 27.1414958,18.3146552 26.3698091,17.5937114 C25.5981225,16.8727676 24.3998775,16.8727676 23.6281909,17.5937114 C22.8565042,18.3146552 22.7751281,19.5101337 23.442,20.329 C23.4300035,20.3371317 23.4186378,20.3461573 23.408,20.356 L19.608,24.796 C18.9859308,24.272671 18.1096121,24.1762777 17.3886625,24.5518774 C16.6677129,24.9274771 16.2445393,25.7008788 16.3169461,26.5105705 C16.3893528,27.3202622 16.9430378,28.0063082 17.7191913,28.2480292 C18.4953449,28.4897503 19.340656,28.2394001 19.86,27.614 L19.86,27.614 L23.458,30.1 C23.1584652,30.456325 22.993541,30.9065043 22.992,31.372 C22.992,32.4809878 23.8910122,33.38 25,33.38 C26.1089878,33.38 27.008,32.4809878 27.008,31.372 C27.006459,30.9065043 26.8415348,30.456325 26.542,30.1 L30.136,27.613 L30.136,27.613 C30.7333804,28.3198201 31.7376679,28.5244844 32.564007,28.1078047 C33.390346,27.6911251 33.8228926,26.7619404 33.6097496,25.8613694 C33.3966066,24.9607984 32.5934479,24.3240747 31.668,24.322 L31.67,24.323 Z M20.251,26.882 C20.4008895,26.4069782 20.3559252,25.8918675 20.126,25.45 C20.1655522,25.4286048 20.2013545,25.4009087 20.232,25.368 L24.05,20.9 C24.0615501,20.8829059 24.0715881,20.8648375 24.08,20.846 C24.2394445,20.9323777 24.4100571,20.9963154 24.587,21.036 C24.5830453,21.0501168 24.5800386,21.0644822 24.578,21.079 L24.578,29.363 C24.5800386,29.3775178 24.5830453,29.3918832 24.587,29.406 C24.4241918,29.4424209 24.2666186,29.499201 24.118,29.575 C24.0875028,29.525799 24.0473638,29.4832789 24,29.45 L20.346,26.922 C20.3161469,26.9047137 20.2842268,26.8912736 20.251,26.882 Z M29.651,26.922 L26,29.45 C25.9518675,29.48434 25.9113531,29.5282589 25.881,29.579 C25.7323814,29.503201 25.5748082,29.4464209 25.412,29.41 C25.4159547,29.3958832 25.4189614,29.3815178 25.421,29.367 L25.421,21.083 C25.4189614,21.0684822 25.4159547,21.0541168 25.412,21.04 C25.5889429,21.0003154 25.7595555,20.9363777 25.919,20.85 C25.9274119,20.8688375 25.9374499,20.8869059 25.949,20.904 L29.767,25.368 C29.7976455,25.4009087 29.8334478,25.4286048 29.873,25.45 C29.6430748,25.8918675 29.5981105,26.4069782 29.748,26.882 C29.7154631,26.8914305 29.6842238,26.9048667 29.655,26.922 L29.651,26.922 Z" id="Shape" fill="#FFFFFF" fill-rule="nonzero"></path>
                </g>
            </g>
        </g>
    </g>
</svg>