<?xml version="1.0" encoding="UTF-8"?>
<svg width="50px" height="50px" viewBox="0 0 50 50" version="1.1" xmlns="http://www.w3.org/2000/svg" xmlns:xlink="http://www.w3.org/1999/xlink">
    <title>028DD4BF-DEE8-434D-91EA-0C1C5FFE4AED</title>
    <g id="People" stroke="none" stroke-width="1" fill="none" fill-rule="evenodd">
        <g id="People---1920x1080" transform="translate(-571.000000, -12690.000000)">
            <g id="Integrations" transform="translate(0.000000, 11949.000000)">
                <g id="icon-app-google-sheets" transform="translate(571.000000, 741.000000)">
                    <rect id="Rectangle" fill-opacity="0.7" fill="#1F2227" x="0" y="0" width="50" height="50" rx="12"></rect>
                    <path d="M33.608,33.857 C33.6058017,34.7115769 32.9135769,35.4038017 32.059,35.406 L18.509,35.406 C17.6544231,35.4038017 16.9621983,34.7115769 16.96,33.857 L16.96,14.143 C16.9621983,13.2884231 17.6544231,12.5961983 18.509,12.594 L27.25,12.594 L33.608,18.952 L33.608,33.857 Z" id="Path" fill="#0F9D58" fill-rule="nonzero"></path>
                    <polygon id="Path" fill="#FFFFFF" fill-rule="nonzero" points="28.876 26.653 28.876 26.369 25.568 26.369 25.568 24.867 28.592 24.867 28.592 26.653 28.876 26.653 28.876 26.369 28.876 26.653 29.16 26.653 29.16 24.299 25 24.299 25 26.937 29.16 26.937 29.16 26.653"></polygon>
                    <polygon id="Path" fill="#FFFFFF" fill-rule="nonzero" points="28.876 28.722 28.876 28.438 25.568 28.438 25.568 26.937 28.592 26.937 28.592 28.722 28.876 28.722 28.876 28.438 28.876 28.722 29.16 28.722 29.16 26.369 25 26.369 25 29.006 29.16 29.006 29.16 28.722"></polygon>
                    <polygon id="Path" fill="#FFFFFF" fill-rule="nonzero" points="28.876 30.793 28.876 30.509 25.568 30.509 25.568 29.006 28.592 29.006 28.592 30.793 28.876 30.793 28.876 30.509 28.876 30.793 29.16 30.793 29.16 28.438 25 28.438 25 31.077 29.16 31.077 29.16 30.793"></polygon>
                    <polygon id="Path" fill="#FFFFFF" fill-rule="nonzero" points="25.284 26.653 25.284 26.369 21.976 26.369 21.976 24.867 25 24.867 25 26.653 25.284 26.653 25.284 26.369 25.284 26.653 25.568 26.653 25.568 24.299 21.408 24.299 21.408 26.937 25.568 26.937 25.568 26.653"></polygon>
                    <polygon id="Path" fill="#FFFFFF" fill-rule="nonzero" points="25.284 28.722 25.284 28.438 21.976 28.438 21.976 26.937 25 26.937 25 28.722 25.284 28.722 25.284 28.438 25.284 28.722 25.568 28.722 25.568 26.369 21.408 26.369 21.408 29.006 25.568 29.006 25.568 28.722"></polygon>
                    <polygon id="Path" fill="#FFFFFF" fill-rule="nonzero" points="25.284 30.793 25.284 30.509 21.976 30.509 21.976 29.006 25 29.006 25 30.793 25.284 30.793 25.284 30.509 25.284 30.793 25.568 30.793 25.568 28.438 21.408 28.438 21.408 31.077 25.568 31.077 25.568 30.793"></polygon>
                    <polygon id="Path" fill="#0D904F" fill-rule="nonzero" points="33.608 24.267 33.608 24.267 27.815 18.597 33.608 18.953"></polygon>
                    <path d="M33.608,18.952 L28.8,18.952 C27.944092,18.9497976 27.2510987,18.2559101 27.25,17.4 L27.25,12.594 L27.25,12.594 L33.608,18.952 Z" id="Path" fill="#85D4AC" fill-rule="nonzero"></path>
                </g>
            </g>
        </g>
    </g>
</svg>