<?xml version="1.0" encoding="UTF-8"?>
<svg width="50px" height="50px" viewBox="0 0 50 50" version="1.1" xmlns="http://www.w3.org/2000/svg" xmlns:xlink="http://www.w3.org/1999/xlink">
    <title>6DE62847-83D6-4173-96F6-AB57E5730A75</title>
    <defs>
        <linearGradient x1="50.0073849%" y1="0.71796027%" x2="50.0073849%" y2="100.312769%" id="linearGradient-1">
            <stop stop-color="#B68EDF" offset="0%"></stop>
            <stop stop-color="#B891F2" offset="19%"></stop>
            <stop stop-color="#9F8BEF" offset="45.7%"></stop>
            <stop stop-color="#5D6BD9" offset="76.9%"></stop>
            <stop stop-color="#4570D9" offset="100%"></stop>
        </linearGradient>
        <linearGradient x1="49.9847084%" y1="-148.188258%" x2="49.9847084%" y2="821.472366%" id="linearGradient-2">
            <stop stop-color="#764E9F" offset="0%"></stop>
            <stop stop-color="#6F4E9F" offset="19%"></stop>
            <stop stop-color="#5D4C9F" offset="45.7%"></stop>
            <stop stop-color="#3F4A9F" offset="76.9%"></stop>
            <stop stop-color="#24489F" offset="100%"></stop>
        </linearGradient>
    </defs>
    <g id="People" stroke="none" stroke-width="1" fill="none" fill-rule="evenodd">
        <g id="People---1920x1080" transform="translate(-596.000000, -13431.000000)">
            <g id="Integrations" transform="translate(0.000000, 11949.000000)">
                <g id="icon-app-hp" transform="translate(596.000000, 1482.000000)">
                    <rect id="Rectangle" fill-opacity="0.7" fill="#1F2227" x="0" y="0" width="50" height="50" rx="12"></rect>
                    <path d="M23.106,22.8 C22.476,22.174 21.873,21.572 21.266,20.972 C20.7054692,20.4272438 20.2629688,19.7730239 19.966,19.05 C19.1566382,17.0872522 19.5663548,14.8327672 21.0145518,13.2802947 C22.4627488,11.7278222 24.6833537,11.1625929 26.6975507,11.8337529 C28.7117477,12.5049129 30.1494751,14.2891524 30.377,16.4 C30.5818966,18.0975973 29.9688368,19.791676 28.725,20.965 C26.5083333,23.1883333 24.2883333,25.408 22.065,27.624 C21.732,27.957 21.726,28.005 21.959,28.402 C22.883,29.9753333 23.8076667,31.549 24.733,33.123 C24.941,33.476 25.049,33.476 25.258,33.123 C26.1913333,31.5336667 27.1246667,29.944 28.058,28.354 C28.252,28.023 28.241,27.944 27.958,27.663 L25.329,25.035 C25.261,24.967 25.196,24.895 25.074,24.767 L25.446,24.767 C26.528,24.76 27.611,24.751 28.693,24.751 C28.781508,24.7585809 28.8646068,24.7967711 28.928,24.859 C29.595,25.517 30.262,26.173 30.916,26.844 C31.356626,27.296671 31.4160816,27.9975773 31.058,28.518 C29.6993333,30.8373333 28.3396667,33.1556667 26.979,35.473 C26.71,35.932 26.446,36.393 26.171,36.849 C25.9420862,37.283141 25.492684,37.5559293 25.0018964,37.5586694 C24.5111087,37.5613685 24.058711,37.2935774 23.825,36.862 C22.1836667,34.082 20.5503333,31.297 18.925,28.507 C18.5605263,27.9416765 18.6614681,27.195216 19.163,26.747 C20.3876667,25.5156667 21.6156667,24.2893333 22.847,23.068 C22.925,22.991 23,22.91 23.106,22.8 Z M25.267,14.231 C24.1075797,14.1132049 23.0008664,14.743032 22.51,15.8 C22.0018264,16.7874322 22.1613635,17.9867524 22.91,18.807 C23.501,19.482 24.17,20.09 24.803,20.729 C24.8467466,20.7901499 24.917313,20.8264318 24.9925,20.8264318 C25.067687,20.8264318 25.1382534,20.7901499 25.182,20.729 C25.815,20.09 26.482,19.483 27.074,18.807 C27.8275415,17.9886459 27.9874888,16.7858422 27.474,15.799 C27.1120675,14.8862743 26.2479186,14.2711506 25.267,14.228 L25.267,14.231 Z" id="Shape" fill="url(#linearGradient-1)" fill-rule="nonzero"></path>
                    <path d="M25.013,18.37 C24.6560867,18.3816241 24.3101073,18.2459172 24.0562771,17.994735 C23.802447,17.7435528 23.6631193,17.3990156 23.671,17.042 C23.6636355,16.6852657 23.8015512,16.3408533 24.0530988,16.0877972 C24.3046464,15.8347411 24.6482281,15.6947686 25.005,15.7 C25.7376091,15.7004283 26.3349178,16.2875076 26.348,17.02 C26.3530981,17.3769782 26.2145712,17.7210392 25.9635379,17.9748931 C25.7125047,18.2287469 25.3700129,18.3711093 25.013,18.37 Z" id="Path" fill="url(#linearGradient-2)" fill-rule="nonzero"></path>
                </g>
            </g>
        </g>
    </g>
</svg>