<?xml version="1.0" encoding="UTF-8"?>
<svg width="80px" height="80px" viewBox="0 0 80 80" version="1.1" xmlns="http://www.w3.org/2000/svg" xmlns:xlink="http://www.w3.org/1999/xlink">
    <title>F2130E07-4567-45B7-8058-C58D7CE25E8A</title>
    <g id="People" stroke="none" stroke-width="1" fill="none" fill-rule="evenodd">
        <g id="People---1920x1080" transform="translate(-1580.000000, -12261.000000)">
            <g id="Integrations" transform="translate(0.000000, 11949.000000)">
                <g id="icon-app-mandrill" transform="translate(1580.000000, 312.000000)">
                    <rect id="Rectangle" fill-opacity="0.7" fill="#1F2227" x="0" y="0" width="80" height="80" rx="16"></rect>
                    <polygon id="Path" fill="#FFFFFF" fill-rule="nonzero" points="40.0096 40.5616 30.648 26.8224 30.648 38.616 35.9936 46.4688 40.0016 40.5744"></polygon>
                    <polygon id="Path" fill="#F7A343" fill-rule="nonzero" points="40.0096 40.5616 44.0416 46.4816 49.3536 38.7152 49.3536 26.8224"></polygon>
                    <polygon id="Path" fill="#C77D2A" fill-rule="nonzero" points="40.0016 40.5744 35.9936 46.4688 40.0144 52.3712 44.0416 46.4816 40.0096 40.5616"></polygon>
                    <polygon id="Path" fill="#43B9E4" fill-rule="nonzero" points="24 52.3872 30.648 52.3872 30.648 38.616 24 28.8576"></polygon>
                    <polygon id="Path" fill="#038CC0" fill-rule="nonzero" points="24 26.8224 24 28.8576 30.648 38.616 30.648 26.8224"></polygon>
                    <polygon id="Path" fill="#D21F38" fill-rule="nonzero" points="49.3536 38.7152 49.3536 52.3872 56 52.3872 56 28.9984"></polygon>
                    <polygon id="Path" fill="#A11D2E" fill-rule="nonzero" points="56 26.8224 49.3536 26.8224 49.3536 38.7152 56 28.9984"></polygon>
                </g>
            </g>
        </g>
    </g>
</svg>