<?xml version="1.0" encoding="UTF-8"?>
<svg width="50px" height="50px" viewBox="0 0 50 50" version="1.1" xmlns="http://www.w3.org/2000/svg" xmlns:xlink="http://www.w3.org/1999/xlink">
    <title>020DE885-3F7A-4D68-AE23-5C69A0E57C56</title>
    <g id="People" stroke="none" stroke-width="1" fill="none" fill-rule="evenodd">
        <g id="People---1920x1080" transform="translate(-1307.000000, -13323.000000)">
            <g id="Integrations" transform="translate(0.000000, 11949.000000)">
                <g id="icon-app-dropbox" transform="translate(1307.000000, 1374.000000)">
                    <rect id="Rectangle" fill-opacity="0.7" fill="#1F2227" x="0" y="0" width="50" height="50" rx="12"></rect>
                    <polygon id="Path" fill="#007EE5" fill-rule="nonzero" points="20.142 15.235 13.199 19.737 18 23.555 25 19.262"></polygon>
                    <polygon id="Path" fill="#007EE5" fill-rule="nonzero" points="13.199 27.373 20.142 31.875 25 27.848 18 23.555"></polygon>
                    <polygon id="Path" fill="#007EE5" fill-rule="nonzero" points="25 27.848 29.858 31.875 36.801 27.373 32 23.555"></polygon>
                    <polygon id="Path" fill="#007EE5" fill-rule="nonzero" points="36.801 19.737 29.858 15.235 25 19.262 32 23.555"></polygon>
                    <polygon id="Path" fill="#007EE5" fill-rule="nonzero" points="25.014 29.428 20.142 33.444 18.057 32.092 18.057 33.607 25.014 37.751 31.971 33.607 31.971 32.092 29.887 33.444"></polygon>
                </g>
            </g>
        </g>
    </g>
</svg>