<?xml version="1.0" encoding="UTF-8"?>
<svg width="130px" height="130px" viewBox="0 0 130 130" version="1.1" xmlns="http://www.w3.org/2000/svg" xmlns:xlink="http://www.w3.org/1999/xlink">
    <title>280C97EF-EA2F-4E90-8B6F-F6FD14E130E3</title>
    <g id="People" stroke="none" stroke-width="1" fill="none" fill-rule="evenodd">
        <g id="People---1920x1080" transform="translate(-346.000000, -13489.000000)">
            <g id="Integrations" transform="translate(0.000000, 11949.000000)">
                <g id="icon-app-danmarks-statistik" transform="translate(346.000000, 1540.000000)">
                    <rect id="Rectangle" fill-opacity="0.7" fill="#1F2227" x="0" y="0" width="130" height="130" rx="28"></rect>
                    <path d="M90.5294,53.5054 C88.4196058,52.4238569 85.9328442,52.3588185 83.7694,53.3286 C82.7963907,52.2145413 81.4782894,51.4584638 80.0254,51.181 C74.7344,50.1644 71.019,55.4346 66.7654,55.458 C66.6015877,54.7391179 66.3923,54.031361 66.1388,53.339 C68.2100709,52.8103382 69.6258886,50.9004814 69.5296211,48.764977 C69.4333535,46.6294726 67.8514367,44.8547523 65.741,44.5146 L65.741,42.1408 L67.6104,42.1408 C67.9398608,42.7811491 68.6648286,43.112768 69.3647315,42.9432762 C70.0646343,42.7737844 70.557567,42.1472329 70.557567,41.4271 C70.557567,40.7069671 70.0646343,40.0804156 69.3647315,39.9109238 C68.6648286,39.741432 67.9398608,40.0730509 67.6104,40.7134 L65.741,40.7134 L65.741,38.8492 C66.3424983,38.4982822 66.6385636,37.7911953 66.4665444,37.1163969 C66.2945251,36.4415985 65.6960876,35.9625378 65,35.9424 C64.1384358,35.9424 63.44,36.6408358 63.44,37.5024 C63.4425711,38.065503 63.7514197,38.5825754 64.246,38.8518 L64.246,40.716 L62.387,40.716 C62.0680438,40.0703767 61.3486148,39.7269678 60.646053,39.8849845 C59.9434911,40.0430011 59.4403818,40.661377 59.4285783,41.3813931 C59.4167747,42.1014091 59.8993445,42.7359438 60.5963494,42.9169041 C61.2933542,43.0978644 62.0236529,42.7782216 62.3636,42.1434 L64.22,42.1434 L64.22,44.5198 C62.1122437,44.8642158 60.5353449,46.6402839 60.4428758,48.7739915 C60.3504068,50.9076992 61.7677422,52.8135292 63.8378,53.339 C63.5824101,54.0318502 63.3722355,54.7405383 63.2086,55.4606 C58.9654,55.4372 55.25,50.167 49.9486,51.1836 C48.495922,51.4616345 47.1779952,52.217612 46.2046,53.3312 C44.0411558,52.3614185 41.5543942,52.4264569 39.4446,53.508 C34.2238,56.2666 34.8504,62.2362 38.909,67.3608 C41.2946762,70.075754 42.7280559,73.4957798 42.991,77.1004 L42.991,78.9698 C43.0326,79.521 43.316,79.6198 43.6904,79.6198 L86.2836,79.6198 C86.658,79.6198 86.9414,79.521 86.983,78.9698 L86.983,77.077 C87.251865,73.4807818 88.6848121,70.0700027 91.065,67.3608 C95.1236,62.2336 95.7502,56.264 90.5294,53.5054 Z M51.8518,74.1234 C50.0776077,74.5411889 48.3389371,75.0975635 46.6518,75.7874 C46.462,75.8654 46.3684,75.608 46.4932,75.3922 C47.6172426,73.3234267 47.7962811,70.8708834 46.9846,68.6608 C46.1708,68.9754 44.9046,69.5734 44.9046,69.5734 C44.0154,66.5678 36.4858,61.1286 40.859,56.524 C41.938591,55.513573 43.4799779,55.1655179 44.889,55.614 C44.0431425,58.6513114 44.7720469,61.910402 46.8312,64.298 C48.7942,66.9448 51.7842,70.1766 52.091,73.658 C52.1365194,73.8508422 52.0351023,74.0481645 51.8518,74.1234 L51.8518,74.1234 Z M62.8212,72.735 C60.7114223,72.7998727 58.6066892,72.9786666 56.5162,73.2706 C56.2744,73.3044 55.9104,73.19 56.1756,72.8156 C57.4204297,70.7654809 57.8238534,68.3132613 57.3014,65.9724 C55.7414,66.17 53.5444,66.6562 53.5444,66.6562 C52.4472,63.5362 45.851,59.1162 49.4494,55.1694 C52.8424,51.6594 56.8984,57.8812 62.7224,58.1334 C62.2494013,60.5652132 62.015155,63.0374261 62.023,65.5148 C62.023,65.5148 60.8036,65.5798 60.268,65.6344 C60.2813294,68.0980186 61.2475369,70.4608945 62.9642,72.228 C63.2632,72.4984 63.076,72.7116 62.8212,72.735 L62.8212,72.735 Z M73.8244,72.8156 C74.0844,73.19 73.7282,73.3044 73.4838,73.2706 C71.3933108,72.9786666 69.2885777,72.7998727 67.1788,72.735 C66.9188,72.7116 66.7368,72.4984 67.0384,72.215 C68.7531915,70.4468803 69.7182891,68.0844407 69.732,65.6214 C69.1964,65.5668 67.977,65.5018 67.977,65.5018 C67.984845,63.0244261 67.7505987,60.5522132 67.2776,58.1204 C73.1016,57.8604 77.1576,51.6464 80.5506,55.1564 C84.1516,59.098 77.5528,63.5284 76.4556,66.6432 C76.4556,66.6432 74.2586,66.157 72.6986,65.9594 C72.1740256,68.3044194 72.5774765,70.7614636 73.8244,72.8156 L73.8244,72.8156 Z M85.0694,69.5734 C85.0694,69.5734 83.8162,68.9754 82.9894,68.6608 C82.1793299,70.8750375 82.3631493,73.3310171 83.4938,75.4 C83.6186,75.6158 83.525,75.8732 83.3352,75.7952 C81.6480629,75.1053635 79.9093923,74.5489889 78.1352,74.1312 C77.9459895,74.0639922 77.8351188,73.8677511 77.8752,73.671 C78.182,70.1844 81.1746,66.9526 83.135,64.311 C85.1941531,61.923402 85.9230575,58.6643114 85.0772,55.627 C86.4862221,55.1785179 88.027609,55.526573 89.1072,56.537 C93.4882,61.1286 85.9586,66.56 85.0694,69.5734 L85.0694,69.5734 Z" id="Shape" fill="#0076BA" fill-rule="nonzero"></path>
                    <path d="M43.5812,83.6472 L86.424,83.6472 C86.572256,83.6472 86.7144399,83.7060945 86.8192727,83.8109273 C86.9241055,83.9157601 86.983,84.057944 86.983,84.2062 L86.983,89.5284 C86.983,89.8342553 86.7350553,90.0822 86.4292,90.0822 L43.5786,90.0822 C43.2727447,90.0822 43.0248,89.8342553 43.0248,89.5284 L43.0248,84.2062 C43.0248,83.8984853 43.2734887,83.6486312 43.5812,83.6472 L43.5812,83.6472 Z" id="Path" fill="#0076BA" fill-rule="nonzero"></path>
                </g>
            </g>
        </g>
    </g>
</svg>