<?xml version="1.0" encoding="UTF-8"?>
<svg width="50px" height="50px" viewBox="0 0 50 50" version="1.1" xmlns="http://www.w3.org/2000/svg" xmlns:xlink="http://www.w3.org/1999/xlink">
    <title>9CEAD84C-F86D-4C44-9336-1E667AC91EB3</title>
    <g id="People" stroke="none" stroke-width="1" fill="none" fill-rule="evenodd">
        <g id="People---1920x1080" transform="translate(-700.000000, -12260.000000)">
            <g id="Integrations" transform="translate(0.000000, 11949.000000)">
                <g id="icon-app-nem-refusion" transform="translate(700.000000, 311.000000)">
                    <rect id="Rectangle" fill-opacity="0.7" fill="#1F2227" x="0" y="0" width="50" height="50" rx="12"></rect>
                    <path d="M35.047,19.047 C33.0085915,19.0474931 31.1126603,20.0926521 30.024,21.816 C28.9353266,20.0921408 27.0388478,19.0468202 25,19.0468202 C22.9611522,19.0468202 21.0646734,20.0921408 19.976,21.816 C18.5589721,19.5774405 15.833094,18.5447319 13.2885046,19.2824185 C10.7439152,20.0201052 8.99305437,22.3506384 8.99305437,25 C8.99305437,27.6493616 10.7439152,29.9798948 13.2885046,30.7175815 C15.833094,31.4552681 18.5589721,30.4225595 19.976,28.184 C21.0646734,29.9078592 22.9611522,30.9531798 25,30.9531798 C27.0388478,30.9531798 28.9353266,29.9078592 30.024,28.184 C31.5538122,30.5974681 34.5830672,31.5829241 37.2400609,30.5314785 C39.8970547,29.4800329 41.4316631,26.6885304 40.8956885,23.8817734 C40.3597138,21.0750164 37.9044728,19.0454103 35.047,19.047 L35.047,19.047 Z M17.147,27.607 L16.406,27.607 L13.627,24.022 L13.627,27.607 L12.756,27.607 L12.756,22.568 L13.577,22.568 L16.277,26.052 L16.277,22.568 L17.148,22.568 L17.147,27.607 Z M25.647,28.183 L22.084,24.619 L24.726,21.978 L25.285,22.537 L23.27,24.553 L24.196,25.48 L25.983,23.693 L26.543,24.253 L24.753,26.04 L25.71,27 L27.751,24.958 L28.311,25.518 L25.647,28.183 Z M37.527,27.607 L36.641,27.607 L36.641,23.994 L35.05,26.369 L35.022,26.369 L33.445,24.008 L33.445,27.608 L32.574,27.608 L32.574,22.568 L33.517,22.568 L35.05,24.951 L36.584,22.568 L37.527,22.568 L37.527,27.607 Z" id="Shape" fill="#A9DAF8" fill-rule="nonzero"></path>
                </g>
            </g>
        </g>
    </g>
</svg>