<?xml version="1.0" encoding="UTF-8"?>
<svg width="80px" height="80px" viewBox="0 0 80 80" version="1.1" xmlns="http://www.w3.org/2000/svg" xmlns:xlink="http://www.w3.org/1999/xlink">
    <title>B4AE142C-0DC2-4794-BBBB-28F02ACA48E5</title>
    <g id="People" stroke="none" stroke-width="1" fill="none" fill-rule="evenodd">
        <g id="People---1920x1080" transform="translate(-1091.000000, -13243.000000)">
            <g id="Integrations" transform="translate(0.000000, 11949.000000)">
                <g id="icon-app-onedrive" transform="translate(1091.000000, 1294.000000)">
                    <rect id="Rectangle" fill-opacity="0.7" fill="#1F2227" x="0" y="0" width="80" height="80" rx="16"></rect>
                    <path d="M57.5248,43.1168 C57.5344,42.9696 57.5424,42.8224 57.5424,42.672 C57.5432593,40.4071776 56.3015558,38.3244462 54.3087877,37.2482044 C52.3160195,36.1719626 49.8934522,36.2757174 48,37.5184 C46.511144,34.6123382 43.2255802,33.1042007 40.0513529,33.8698167 C36.8771255,34.6354328 34.6403493,37.4755455 34.64,40.7408 C34.64,40.8864 34.64,41.0304 34.6544,41.1744 C34.4944,41.1616 34.3456,41.1536 34.1888,41.1536 C31.1061939,41.1949824 28.6262502,43.7006198 28.6166142,46.7834887 C28.6070341,49.8663576 31.0713117,52.3874041 34.1536,52.448 L58.5984,52.448 C58.7232,52.3968 58.8448,52.3424 58.9632,52.288 C60.853054,51.3349361 61.9117123,49.271024 61.5832368,47.1800953 C61.2547614,45.0891666 59.6142533,43.4492814 57.5232,43.1216 L57.5248,43.1168 Z" id="Path" fill="#0070B5" fill-rule="nonzero"></path>
                    <path d="M32.96,39.5296 C33.2917293,36.0852026 35.7207477,33.2057166 39.0599977,32.2983427 C42.3992477,31.3909687 45.9515103,32.6451619 47.9808,35.448 C48.9050028,35.0499016 49.900904,34.8451674 50.9072,34.8464 C50.9728,34.8464 51.0368,34.8464 51.1008,34.8464 C50.688778,30.8140457 47.660944,27.5395363 43.6731296,26.8136028 C39.6853151,26.0876694 35.6977851,28.0851163 33.8912,31.7136 C31.6579859,30.2072897 28.7324475,30.2132893 26.5054302,31.7287465 C24.278413,33.2442037 23.1991741,35.9634047 23.7808,38.5936 C20.6453831,38.8259702 18.2548107,41.4958102 18.3688677,44.6377564 C18.4829246,47.7797026 21.0607874,50.2691817 24.2048,50.2736 L28.0448,50.2736 C26.6760019,48.2780979 26.4544478,45.7107762 27.4611404,43.5102747 C28.467833,41.3097732 30.5551703,39.7987306 32.96,39.5296 Z" id="Path" fill="#0070B5" fill-rule="nonzero"></path>
                </g>
            </g>
        </g>
    </g>
</svg>