<?xml version="1.0" encoding="UTF-8"?>
<svg width="80px" height="80px" viewBox="0 0 80 80" version="1.1" xmlns="http://www.w3.org/2000/svg" xmlns:xlink="http://www.w3.org/1999/xlink">
    <title>741FB86E-CF20-4D7B-9445-A6531FE221F5</title>
    <defs>
        <radialGradient cx="49.9743163%" cy="54.6686137%" fx="49.9743163%" fy="54.6686137%" r="71.7194205%" gradientTransform="translate(0.499743,0.546686),scale(0.924350,1.000000),translate(-0.499743,-0.546686)" id="radialGradient-1">
            <stop stop-color="#FFB900" offset="0%"></stop>
            <stop stop-color="#F95D8F" offset="60%"></stop>
            <stop stop-color="#F95353" offset="99.9%"></stop>
        </radialGradient>
    </defs>
    <g id="People" stroke="none" stroke-width="1" fill="none" fill-rule="evenodd">
        <g id="People---1920x1080" transform="translate(-1220.000000, -13724.000000)">
            <g id="Integrations" transform="translate(0.000000, 11949.000000)">
                <g id="icon-app-asana" transform="translate(1220.000000, 1775.000000)">
                    <rect id="Rectangle" fill-opacity="0.7" fill="#1F2227" x="0" y="0" width="80" height="80" rx="16"></rect>
                    <polygon id="Path" points="20 20 60 20 60 60 20 60"></polygon>
                    <path d="M49.04,40.2432 C46.2246516,40.2432003 43.6865809,41.9392963 42.6094929,44.5404629 C41.5324049,47.1416296 42.1284597,50.1355006 44.1196693,52.1257947 C46.1108789,54.1160888 49.1050237,54.7107667 51.7056947,53.6324827 C54.3063658,52.5541986 56.0012944,50.0153481 56.0000007,47.2 C56.0000007,45.3542403 55.2666654,43.5841015 53.9613662,42.2791024 C52.656067,40.9741033 50.8857596,40.2411756 49.04,40.2415998 L49.04,40.2432 Z M30.96,40.2432 C28.1446516,40.2432003 25.6065809,41.9392963 24.5294929,44.5404629 C23.4524049,47.1416296 24.0484597,50.1355006 26.0396693,52.1257947 C28.0308789,54.1160888 31.0250237,54.7107667 33.6256947,53.6324827 C36.2263658,52.5541986 37.9212944,50.0153481 37.9200007,47.2 C37.9191165,43.356723 34.8032771,40.2416 30.96,40.2416 L30.96,40.2432 Z M46.9600002,31.5424 C46.9606472,34.3576027 45.265308,36.8959623 42.6645855,37.9737422 C40.0638631,39.0515221 37.0699806,38.4564491 35.0791028,36.4660289 C33.0882249,34.4756088 32.4924636,31.4818632 33.5696455,28.880893 C34.6468275,26.2799228 37.1847972,24.584 40,24.584 C43.8432771,24.584 46.9591165,27.699123 46.9600002,31.5424 L46.9600002,31.5424 Z" id="Shape" fill="url(#radialGradient-1)" fill-rule="nonzero"></path>
                </g>
            </g>
        </g>
    </g>
</svg>