<?xml version="1.0" encoding="UTF-8"?>
<svg width="130px" height="130px" viewBox="0 0 130 130" version="1.1" xmlns="http://www.w3.org/2000/svg" xmlns:xlink="http://www.w3.org/1999/xlink">
    <title>0FA7A6B7-7A08-4B65-B115-ACEA94145E91</title>
    <g id="People" stroke="none" stroke-width="1" fill="none" fill-rule="evenodd">
        <g id="People---1920x1080" transform="translate(-252.000000, -12896.000000)">
            <g id="Integrations" transform="translate(0.000000, 11949.000000)">
                <g id="icon-app-dinero" transform="translate(252.000000, 947.000000)">
                    <rect id="Rectangle" fill-opacity="0.7" fill="#1F2227" x="0" y="0" width="130" height="130" rx="28"></rect>
                    <ellipse id="Oval" fill="#008EBE" fill-rule="nonzero" cx="65" cy="65.8164" rx="28.0202" ry="27.8278"></ellipse>
                    <path d="M65.1976,85.0202731 C62.3574349,85.037968 59.5824785,84.1690331 57.2598,82.5344 C53.943628,80.4096733 51.9422982,76.738444 51.9532,72.8 C51.883,67.7118 51.9012,62.14 52.0078,55.2734 C52.0490937,53.3465559 52.7440276,51.4909541 53.9786,50.011 C55.237126,48.4768157 56.9230328,47.351068 58.8224,46.7766 C59.7965444,46.4745098 60.8106904,46.321117 61.8306,46.3216 C66.1707892,46.2545878 70.049055,49.0210138 71.3986,53.1466 C71.666762,54.0763639 71.8041479,55.0389406 71.8068,56.0066 C71.825,58.994 71.8224,62.0308 71.8198,64.9688 L71.8198,71.9888 C71.9564334,74.2413823 70.7653919,76.3663549 68.7726,77.4254 C67.8237055,77.9743538 66.7487981,78.2681618 65.6526,78.2782 C64.4576123,78.2634662 63.2891755,77.9237207 62.2726,77.2954 C60.4006787,76.2943297 59.2581379,74.3185603 59.3242,72.1968 C59.3242,70.252 59.3242,60.9388 59.3242,60.9388 C59.284758,60.2623078 59.526461,59.5995612 59.9921498,59.1072897 C60.4578387,58.6150182 61.1061616,58.3369341 61.7838,58.3388 C61.9520671,58.33814 62.1200392,58.3529355 62.2856,58.383 C63.498687,58.6103281 64.3617993,59.692538 64.3136,60.9258 L64.3136,72.1812 C64.3136,72.839 64.8336,73.2654 65.6474,73.2654 C66.3858,73.2654 66.7446,72.9222 66.7446,72.2254 L66.7446,66.3468 C66.7446,62.9148 66.7446,59.384 66.7732,55.9078 C66.667161,53.4011569 64.6474975,51.3996274 62.14,51.3162 L61.789,51.3162 C59.6704058,51.2335803 57.7565272,52.5732953 57.109,54.5922 C57.0000851,54.9727118 56.9440924,55.3664104 56.9426,55.7622 C56.9426,57.6498 56.9426,59.566 56.9426,61.4198 C56.9426,64.9454 56.9426,68.588 56.8906,72.1708 C56.8179794,74.1785122 57.5694622,76.1286101 58.9706,77.5684 C60.3096559,78.9021717 62.0629191,79.7402902 63.9418,79.9448 C64.4303099,80.0012777 64.9216367,80.0299239 65.4134,80.0306 C67.1114701,80.0421735 68.7869957,79.6415819 70.2962,78.8632 C72.7711226,77.7264631 74.319024,75.2122774 74.2196,72.4906 L74.2196,34.3694 C74.2290701,34.0024246 74.2761158,33.6373851 74.36,33.28 C74.6051785,32.1377411 75.6149245,31.3221999 76.7832,31.3221999 C77.9340522,31.3301717 78.9319099,32.1200977 79.2038,33.2384 C79.2693153,33.5504445 79.3015622,33.8685558 79.3,34.1874 L79.3,40.2116 C79.3,50.7104 79.3,61.568 79.3,72.2462 C79.4405336,78.2391009 75.1927563,83.4403933 69.2926,84.5 C67.952943,84.8345363 66.5783521,85.0090876 65.1976,85.0202731 L65.1976,85.0202731 Z" id="Path" fill="#FFFFFF" fill-rule="nonzero"></path>
                    <path d="M76.7806,31.6342 L76.7962,31.6342 C77.7894167,31.6477534 78.646426,32.334432 78.8762,33.3008 C78.939332,33.5876444 78.9698589,33.8807024 78.9672,34.1744 L78.9672,40.196 C78.9672,50.6974 78.9672,61.555 78.9672,72.2332 C79.1053458,78.0758765 74.9643131,83.1473171 69.212,84.1802 C67.8963455,84.5036529 66.5472067,84.6712044 65.1924,84.6796286 C62.418788,84.6956267 59.7089521,83.8477807 57.4392,82.2536 C54.2198161,80.1882179 52.2745213,76.6249474 52.2782,72.8 C52.208,67.6858 52.2262,62.1192 52.3328,55.2812 C52.3729735,53.428149 53.0423028,51.6438821 54.2308,50.2216 C55.4482291,48.742 57.0767734,47.6563038 58.9108,47.1016 C59.8539855,46.8101332 60.8356062,46.6620136 61.8228,46.6622 C66.0202467,46.5950218 69.7723104,49.2688942 71.0788,53.2584 C71.3380805,54.1551016 71.4710939,55.0835699 71.474,56.017 C71.4922,59.0044 71.4896,62.0412 71.487,64.9766 C71.487,67.2776 71.487,69.6566 71.487,71.9966 C71.6182612,74.1301542 70.4924148,76.144078 68.6062,77.1498 C67.7079538,77.670045 66.6905635,77.9494691 65.6526,77.961 C64.5194452,77.9448108 63.412092,77.6203347 62.4494,77.0224 C60.6792416,76.0773607 59.5980916,74.2102861 59.6596,72.2046 C59.6596,70.2572 59.6596,68.2812 59.6596,66.3676 C59.6596,64.5918 59.6596,62.7562 59.6596,60.9518 C59.620111,60.3601293 59.8270198,59.7784625 60.2312922,59.3446452 C60.6355645,58.910828 61.2012174,58.6634732 61.7942,58.6612 C61.9423842,58.661388 62.0902724,58.674437 62.2362,58.7002 C63.2946879,58.9018112 64.0451287,59.8492704 63.999,60.9258 C63.999,62.335 63.999,63.765 63.999,65.1508 C63.999,65.7228 63.999,66.2965333 63.999,66.872 L63.999,68.458 C63.999,69.6973333 63.999,70.9375333 63.999,72.1786 C64.0114823,72.5930727 64.1991662,72.9828045 64.5154302,73.2509845 C64.8316942,73.5191645 65.2468605,73.6406269 65.6578,73.5852 C66.0375011,73.6376227 66.4203538,73.5137642 66.6973995,73.2488741 C66.9744452,72.9839839 67.1153452,72.6070697 67.08,72.2254 C67.08,70.4764667 67.08,68.7284 67.08,66.9812 C67.08,63.3594 67.08,59.6128 67.106,55.9286 C67.0014183,53.2483116 64.8467059,51.1026716 62.166,51.0094 C62.0438,51.0094 61.919,51.0094 61.7968,51.0094 C59.5332203,50.925061 57.4913023,52.3607846 56.8048,54.5194 C56.6868804,54.9285064 56.6265006,55.3520397 56.6254,55.7778 C56.6254,57.6628 56.6254,59.5816 56.6254,61.4354 C56.6254,64.9584 56.6254,68.5984 56.5734,72.1812 C56.4973278,74.2781403 57.2860182,76.3142588 58.7548,77.8128 C60.1449794,79.199451 61.9663708,80.0707108 63.9184,80.2828 C64.4197537,80.3422774 64.9241319,80.3726617 65.429,80.3738 C67.1786838,80.3853768 68.9050569,79.9722963 70.46,79.17 C73.0467974,77.9802908 74.6642378,75.3515655 74.5602,72.5062 C74.5602,67.873 74.5602,63.2406667 74.5602,58.6092 L74.5602,49.6262 C74.5602,44.5406 74.5602,39.4541333 74.5602,34.3668 C74.5529978,34.0182207 74.5808714,33.6698008 74.6434,33.3268 C74.8567169,32.3343718 75.7343052,31.6258005 76.7494,31.6263996 M76.7494,30.9764 C75.4271552,30.9764 74.2849787,31.901077 74.009,33.1942 C73.9363744,33.5780737 73.9032682,33.9683781 73.9102,34.359 L73.9102,72.4776 C74.0113924,75.0683337 72.5491638,77.4671264 70.2,78.5642 C68.7371335,79.3177701 67.1135192,79.7058318 65.468,79.6952 C64.9883776,79.6932842 64.5092346,79.6646398 64.0328,79.6094 C62.2286066,79.4142646 60.5448188,78.6099716 59.2592,77.3292 C57.9143445,75.9542166 57.1925361,74.0876652 57.2624,72.1656 C57.3248,68.5854 57.3196,64.948 57.3144,61.4302 C57.3144,59.553 57.3144,57.6368 57.3144,55.7518 C57.3157812,55.3859445 57.3673967,55.0220115 57.4678,54.6702 C58.0772795,52.7920349 59.8628916,51.5495464 61.8358,51.6308 C61.945,51.6308 62.0568,51.6308 62.166,51.6308 C64.5007823,51.7048086 66.3837362,53.5662237 66.4846,55.9 C66.4508,59.5868 66.4534,63.336 66.4586,66.9604 L66.4586,72.202 C66.4586,72.6414 66.3286,72.9144 65.6786,72.9144 C65.4446,72.9144 64.6724,72.8598 64.6724,72.1578 L64.6724,65.1378 C64.6724,63.752 64.6724,62.3194 64.6724,60.9102 C64.7211399,59.5189316 63.743162,58.3019909 62.374,58.0502 C62.1903705,58.017227 62.0041664,58.0006949 61.8176,58.0008 C61.0538608,58.0063448 60.325331,58.3227518 59.7999372,58.8770888 C59.2745433,59.4314259 58.9976206,60.1758606 59.033,60.9388 C59.033,62.7588 59.033,64.5788 59.033,66.3572 C59.033,68.2708 59.033,70.2572 59.033,72.1916 C58.9651315,74.4328883 60.1743106,76.5187221 62.153,77.5736 C63.215837,78.2338621 64.4379379,78.5933035 65.689,78.6136 C66.8379166,78.6032776 67.9646463,78.2960691 68.9598,77.7218 C71.0563158,76.6065119 72.3114271,74.372495 72.1734,72.0018 C72.1734,69.719 72.1734,67.3998 72.1734,65.1534 L72.1734,64.987 C72.1734,62.049 72.1734,59.007 72.1604,56.0222 C72.156514,55.0272491 72.0147658,54.0376365 71.7392,53.0816 C70.3477248,48.8183968 66.3432654,45.9573159 61.8592,46.0226 C60.8068454,46.0228308 59.7604525,46.1805784 58.7548,46.4906 C56.7941591,47.0846552 55.054035,48.2474527 53.755,49.8316 C52.4759939,51.3681535 51.755598,53.2928754 51.7114,55.2916 C51.6048,62.1452 51.5866,67.717 51.6568,72.8312 C51.6510355,76.8735872 53.710214,80.638942 57.1168,82.8152 C59.4941065,84.4865375 62.3332313,85.3753545 65.2392,85.3582494 C66.6413829,85.3472243 68.0375087,85.1727086 69.3992,84.838 C75.4491176,83.7433347 79.8005091,78.4055984 79.6536,72.2592 C79.6536,61.581 79.6536,50.7234 79.6536,40.222 L79.6536,34.177 C79.656186,33.8343544 79.6204303,33.4924949 79.547,33.1578 C79.2475815,31.8969953 78.1283829,31.0018509 76.8326,30.9868 L76.8118,30.9868 L76.7494,30.9764 Z" id="Shape" fill="#008EBE" fill-rule="nonzero"></path>
                </g>
            </g>
        </g>
    </g>
</svg>