<?xml version="1.0" encoding="UTF-8"?>
<svg width="130px" height="130px" viewBox="0 0 130 130" version="1.1" xmlns="http://www.w3.org/2000/svg" xmlns:xlink="http://www.w3.org/1999/xlink">
    <title>51584289-747F-4C5C-94A8-4C78DE7D90E3</title>
    <g id="People" stroke="none" stroke-width="1" fill="none" fill-rule="evenodd">
        <g id="People---1920x1080" transform="translate(-1150.000000, -12382.000000)">
            <g id="Integrations" transform="translate(0.000000, 11949.000000)">
                <g id="icon-app-planday" transform="translate(1150.000000, 433.000000)">
                    <rect id="Rectangle" fill-opacity="0.7" fill="#1F2227" x="0" y="0" width="130" height="130" rx="28"></rect>
                    <path d="M83.2,62.2596 C81.6469201,55.3485559 76.3147246,49.9127315 69.4348507,48.2269309 C62.5549769,46.5411304 55.3137864,48.8960522 50.7416,54.3062 L50.7416,54.3062 L27.0816,82.5032 C26.0959149,83.47352 25.7453367,84.91865 26.1768333,86.2327682 C26.6083299,87.5468863 27.7473361,88.5029046 29.1163619,88.7000446 C30.4853877,88.8971847 31.8478568,88.3013794 32.6326,87.1624 L46.8,70.2806 L46.8,70.2806 L56.2276,59.0434 L56.2276,59.0434 L56.29,58.9654 C56.42,58.812 56.55,58.6638 56.6852,58.5182 L56.7502,58.448 C60.864448,54.017119 67.7356699,53.6048456 72.3502,57.512 L72.4282,57.5562 C74.7301897,59.505553 76.1596489,62.2925137 76.3997717,65.2994182 C76.6398946,68.3063227 75.6708487,71.2848212 73.7074,73.5748 C73.58,73.7282 73.268,74.0688 73.2472,74.0948 C69.1074716,78.5448051 62.1948688,78.9382053 57.577,74.9866 C56.6549982,74.2074975 55.8594681,73.2900505 55.2188,72.267 C54.8769916,71.7162589 54.2916745,71.3629775 53.6451069,71.3171618 C52.9985393,71.2713462 52.369254,71.538561 51.9532,72.0356 L48.919,75.6756 C50.0090632,77.5099733 51.4025108,79.1460654 53.04,80.5142 C56.8021134,83.7238956 61.6947522,85.2899071 66.6214055,84.8612687 C71.5480587,84.4326303 76.0967313,82.0451873 79.248,78.234 C82.6383035,73.6471229 84.0605808,67.8981282 83.2,62.2596 Z" id="Path" fill="#199BD7" fill-rule="nonzero"></path>
                    <g id="Group" opacity="0.75" transform="translate(48.911200, 43.797504)" fill="#7DC3DD" fill-rule="nonzero">
                        <path d="M34.2888,18.4672955 L48.4562,1.58289552 C49.2390862,0.440103302 50.6027643,-0.159268723 51.9740707,0.0366997452 C53.3453771,0.232668213 54.4865915,1.19000541 54.9180533,2.50633575 C55.3495152,3.82266609 54.9964292,5.26979948 54.0072,6.23949552 L30.3472,34.4364955 C27.1959313,38.2476828 22.6472587,40.6351258 17.7206055,41.0637642 C12.7939522,41.4924026 7.90131342,39.9263911 4.1392,36.7166955 C2.4938426,35.3454012 1.09409056,33.7038578 -9.23705556e-15,31.8624955 L3.0342,28.2224955 C3.45025399,27.7254565 4.07953934,27.4582417 4.72610692,27.5040574 C5.37267451,27.5498731 5.95799157,27.9031545 6.2998,28.4538955 C6.94425298,29.4779938 7.74323161,30.3962491 8.6684,31.1760955 C13.2821255,35.1200276 20.1845036,34.7267526 24.3204,30.2842955 C24.3204,30.2842955 24.687,29.8812955 24.7806,29.7642955 L34.2888,18.4672955 Z" id="Path"></path>
                    </g>
                </g>
            </g>
        </g>
    </g>
</svg>