<?xml version="1.0" encoding="UTF-8"?>
<svg width="130px" height="130px" viewBox="0 0 130 130" version="1.1" xmlns="http://www.w3.org/2000/svg" xmlns:xlink="http://www.w3.org/1999/xlink">
    <title>D8AC2D6B-0880-4F19-8DC9-CADB6BF1C149</title>
    <g id="People" stroke="none" stroke-width="1" fill="none" fill-rule="evenodd">
        <g id="People---1920x1080" transform="translate(-1401.000000, -13541.000000)">
            <g id="Integrations" transform="translate(0.000000, 11949.000000)">
                <g id="icon-app-billy" transform="translate(1401.000000, 1592.000000)">
                    <rect id="Rectangle" fill-opacity="0.7" fill="#1F2227" x="0" y="0" width="130" height="130" rx="28"></rect>
                    <g id="icon" transform="translate(36.400000, 37.750378)">
                        <circle id="Oval" fill="#FFD4CC" fill-rule="nonzero" cx="28.5116" cy="31.784022" r="27.2064"></circle>
                        <polygon id="Path" fill="#FFFFFF" fill-rule="nonzero" points="23.7172 34.521822 18.8968 37.766622 10.0204 37.766622 7.0616 33.661222 6.9186 24.498822 16.2734 23.066222 25.961 26.121222"></polygon>
                        <polygon id="Path" fill="#FFFFFF" fill-rule="nonzero" points="33.5062 34.521822 38.3266 37.766622 47.203 37.766622 50.1618 33.661222 50.3048 24.498822 40.95 23.066222 31.2624 26.121222"></polygon>
                        <circle id="Oval" fill="#595959" fill-rule="nonzero" cx="16.5854" cy="29.891222" r="2.3114"></circle>
                        <circle id="Oval" fill="#595959" fill-rule="nonzero" cx="40.391" cy="29.891222" r="2.3114"></circle>
                        <path d="M16.9208,45.379422 C24.3294651,48.5882228 32.7613705,48.4499017 40.0608,44.999822" id="Path" stroke="#595959" stroke-width="0.65"></path>
                        <path d="M42.6244,38.689622 C41.2594,38.546622 39.8736,38.515422 38.5372,38.242422 C34.3715265,37.4840855 31.2515252,33.9957656 30.9608,29.771622 C30.8458451,28.8801924 30.2759967,28.1125092 29.4560144,27.7444188 C28.6360321,27.3763284 27.683695,27.460702 26.9412,27.967222 C26.5767249,28.2828111 26.3150321,28.700252 26.1898,29.165822 C26.052659,29.7187067 25.9450402,30.2784984 25.8674,30.842822 C25.174634,35.062785 21.6242207,38.2229239 17.3524,38.421822 C15.1866859,38.5747175 13.0117561,38.5381787 10.8524,38.312622 C8.94826959,38.1881068 7.306526,36.9290946 6.6924,35.122422 C6.19308749,33.6285863 5.78927269,32.1045111 5.4834,30.559422 C5.2387383,29.2139838 4.73067786,27.9301372 3.9884,26.781622 C3.5438,26.149822 3.8376,24.992822 3.8298,24.075022 C3.8298,23.997022 4.0586,23.869622 4.1964,23.843622 C10.400397,22.2649038 16.8940103,22.2087091 23.1244,23.679822 C24.199279,24.1176044 25.3024465,24.4824315 26.4264,24.771822 C28.5805325,25.1549777 30.7990373,24.9233953 32.8276,24.103622 C36.2050756,22.7972044 39.8425479,22.3037765 43.446,22.663222 C46.3866,22.850422 49.3064,23.349622 52.2392,23.687622 C53.0192,23.776022 53.3572,24.064622 53.2974,24.914822 C53.3311181,25.5028057 53.3311181,26.0922384 53.2974,26.680222 C53.248,27.111822 52.8138,27.213222 52.5668,27.647422 C52.0112779,28.9223472 51.6156714,30.2611218 51.389,31.633222 C51.129,32.582222 50.973,33.559822 50.6558,34.493222 C49.9505149,36.8375143 47.8049145,38.452505 45.357,38.481622 C44.4513858,38.6080916 43.5387228,38.6775616 42.6244,38.689622 L42.6244,38.689622 Z M16.315,24.415622 C14.7732679,24.4069489 13.2336304,24.5304678 11.713,24.784822 C10.4706735,24.8192099 9.29786521,25.3657834 8.47255913,26.2949914 C7.64725305,27.2241994 7.24292118,28.4533201 7.3554,29.691022 C7.41748284,30.8014944 7.5494777,31.9069514 7.7506,33.000822 C7.96924188,35.1585014 9.68592717,36.8588373 11.8456,37.056822 C14.2298383,37.4859381 16.6823673,37.3343273 18.9956,36.614822 C21.6756056,35.900379 23.7078443,33.7114254 24.2216,30.985822 C24.401,30.205822 24.4816,29.402422 24.5778,28.606822 C24.7985408,27.3512053 24.0892033,26.1175274 22.893,25.676622 C22.3899184,25.4091209 21.8516141,25.2139309 21.294,25.096822 C19.6558978,24.7317709 17.9906779,24.5013358 16.315,24.407822 L16.315,24.415622 Z M41.6962,24.454622 C40.5269098,24.4530997 39.3584827,24.5182052 38.1966,24.649622 C36.7975569,24.8810977 35.422532,25.2396485 34.0886,25.720822 C32.893554,26.114658 32.1965291,27.3553171 32.4818,28.580822 C32.5234,28.840822 32.5104,29.100822 32.5416,29.360822 C32.5718713,31.8218692 33.7928955,34.1156503 35.8176,35.515022 C39.0031465,37.4177033 42.858397,37.8418473 46.3814,36.677222 C47.7355113,36.335891 48.774977,35.2499575 49.0568,33.882222 C49.3924136,32.3957578 49.5882665,30.8811622 49.6418,29.358222 C49.8319168,27.1362731 48.2178458,25.1671065 46.0018,24.917422 C44.46,24.623622 42.8766,24.571622 41.6962,24.446822 L41.6962,24.454622 Z" id="Shape" fill="#595959" fill-rule="nonzero"></path>
                        <path d="M45.1516,8.39702203 L49.114,8.46982203 L47.242,10.549822 L57.2,16.212622 L55.7206,31.552622 C55.7146127,23.7963266 52.3133737,16.4314091 46.4126,11.397422 C44.4663273,12.9753312 42.3350994,14.3102954 40.066,15.372822 C35.8210051,16.6556605 31.2690056,16.4826955 27.1336,14.881422 C24.6836182,13.4342206 22.3681693,11.7705083 20.215,9.91022203 C15.8241662,10.0901106 11.5856018,11.5696266 8.0366,14.161222 C2.5168,19.127222 1.3,30.629622 1.3,30.629622 L0,16.178822 L5.8032,12.798822 L4.0716,10.562822 L7.6752,10.562822 L7.6752,7.67682203 L10.4858,10.557622 C10.4858,10.557622 24.2398,1.93342203 31.6758,0.116022028 C32.7753858,-0.0386740093 33.8912142,-0.0386740093 34.9908,0.116022028 C41.2456804,1.04255841 47.3836106,2.63500352 53.3,4.86622203 L45.1516,8.39702203 Z" id="Path" fill="#735F50" fill-rule="nonzero"></path>
                    </g>
                </g>
            </g>
        </g>
    </g>
</svg>