<?xml version="1.0" encoding="UTF-8"?>
<svg width="50px" height="50px" viewBox="0 0 50 50" version="1.1" xmlns="http://www.w3.org/2000/svg" xmlns:xlink="http://www.w3.org/1999/xlink">
    <title>60E585B5-E13D-4DEB-B8BC-3BBCE2D95E2A</title>
    <g id="People" stroke="none" stroke-width="1" fill="none" fill-rule="evenodd">
        <g id="People---1920x1080" transform="translate(-283.000000, -12199.000000)">
            <g id="Integrations" transform="translate(0.000000, 11949.000000)">
                <g id="icon-app-pipedrive" transform="translate(283.000000, 250.000000)">
                    <rect id="Rectangle" fill-opacity="0.7" fill="#1F2227" x="0" y="0" width="50" height="50" rx="12"></rect>
                    <path d="M23.628,23.161 C23.628,20.255 25.203,19.221 26.676,19.221 C28.483,19.221 29.6980019,20.793 29.6980019,23.134 C29.7,25.805 28.153,27 26.625,27 C24.565,27 23.628,25.007 23.628,23.161 Z M27.4,15.8 C25.8918804,15.7385501 24.4324428,16.3403763 23.406,17.447 C23.334,16.867 22.956,16.115 21.477,16.115 L18.268,16.115 L18.268,19.507 L19.584,19.507 C19.807,19.507 19.884,19.578 19.884,19.807 L19.884,35.294 L23.711,35.294 L23.711,29.481 C23.711,29.324 23.711,29.181 23.704,29.046 C24.6660426,29.9204562 25.9272452,30.3919305 27.227,30.363 C30.968,30.363 33.585,27.37 33.585,23.083 C33.585,18.728 31.101,15.802 27.407,15.802" id="Shape" fill="#FFFFFF" fill-rule="nonzero"></path>
                </g>
            </g>
        </g>
    </g>
</svg>