<?xml version="1.0" encoding="UTF-8"?>
<svg width="80px" height="80px" viewBox="0 0 80 80" version="1.1" xmlns="http://www.w3.org/2000/svg" xmlns:xlink="http://www.w3.org/1999/xlink">
    <title>57D73797-7606-4F69-98B3-003C14F61FF6</title>
    <g id="People" stroke="none" stroke-width="1" fill="none" fill-rule="evenodd">
        <g id="People---1920x1080" transform="translate(-904.000000, -12342.000000)">
            <g id="Integrations" transform="translate(0.000000, 11949.000000)">
                <g id="icon-app-box" transform="translate(904.000000, 393.000000)">
                    <rect id="Rectangle" fill-opacity="0.7" fill="#1F2227" x="0" y="0" width="80" height="80" rx="16"></rect>
                    <path d="M41.552,33.848 C38.5615549,33.8472402 35.8154306,35.4988546 34.4144,38.1408 C33.3083411,36.054916 31.3449725,34.5574278 29.0408571,34.0423251 C26.7367418,33.5272224 24.3226024,34.046085 22.4336,35.4624 L22.4336,28.6576 L22.4336,28.6576 C22.4336,27.7651078 21.7100922,27.0416 20.8176,27.0416 C19.9251078,27.0416 19.2016,27.7651078 19.2016,28.6576 L19.2016,28.6576 L19.2016,42.0608 L19.2016,42.0608 C19.2622353,45.7452564 21.8089735,48.9215325 25.3921499,49.7816154 C28.9753263,50.6416984 32.686343,48.9674941 34.4128,45.712 C36.2669754,49.2074411 40.3800443,50.8454491 44.1295623,49.5816495 C47.8790803,48.3178498 50.1613864,44.5242387 49.5213089,40.619578 C48.8812315,36.7149172 45.5071758,33.8485338 41.5504,33.848 L41.552,33.848 Z M27.2784,46.7728003 C24.6026408,46.7728003 22.433181,44.6042894 22.4320042,41.9285305 C22.4308284,39.2527716 24.5983808,37.0823568 27.274139,37.08 C29.9498971,37.077647 32.1212665,39.2442432 32.1248066,41.92 C32.1269246,43.2065837 31.6172101,44.4411766 30.7080573,45.35153 C29.7989045,46.2618833 28.5649854,46.7732267 27.2784,46.7728003 L27.2784,46.7728003 Z M41.552,46.7728003 C38.8764493,46.7719144 36.7077917,44.603015 36.7072042,41.9274642 C36.706617,39.2519134 38.874322,37.0820621 41.5498721,37.0800002 C44.2254222,37.0779413 46.3964666,39.2444514 46.4000042,41.92 C46.4016993,43.206731 45.8916285,44.4413194 44.9822218,45.3516265 C44.0728151,46.2619336 42.838732,46.7732259 41.552,46.7728003 L41.552,46.7728003 Z" id="Shape" fill="#0064BF" fill-rule="nonzero"></path>
                    <path d="M60.4976,47.4624 L56.36,41.9328 L60.4976,36.4016 L60.4976,36.4016 C60.9720444,35.6889845 60.8084063,34.7300143 60.1244902,34.2150607 C59.4405741,33.7001072 58.4737311,33.8078833 57.92,34.4608 L57.92,34.4608 L54.3488,39.2336 L50.7776,34.4608 L50.7776,34.4608 C50.2370514,33.7617877 49.2352844,33.6265617 48.528744,34.1572326 C47.8222036,34.6879035 47.6729116,35.687671 48.1936,36.4016 L48.1936,36.4016 L52.32,41.9328 L48.1824,47.4624 L48.1824,47.4624 C47.6772188,48.1765685 47.8320407,49.1630636 48.5317108,49.6881411 C49.2313809,50.2132186 50.221842,50.0862176 50.7664,49.4016 L50.7664,49.4016 L54.3376,44.6272 L57.92,49.4048 L57.92,49.4048 C58.4605486,50.1038123 59.4623156,50.2390383 60.168856,49.7083674 C60.8753964,49.1776965 61.0246884,48.177929 60.504,47.464 L60.4976,47.4624 Z" id="Path" fill="#0064BF" fill-rule="nonzero"></path>
                </g>
            </g>
        </g>
    </g>
</svg>