<?xml version="1.0" encoding="UTF-8"?>
<svg width="130px" height="130px" viewBox="0 0 130 130" version="1.1" xmlns="http://www.w3.org/2000/svg" xmlns:xlink="http://www.w3.org/1999/xlink">
    <title>C18BE0EE-76F4-475F-804D-AF2144A8C420</title>
    <g id="People" stroke="none" stroke-width="1" fill="none" fill-rule="evenodd">
        <g id="People---1920x1080" transform="translate(-1538.000000, -13115.000000)">
            <g id="Integrations" transform="translate(0.000000, 11949.000000)">
                <g id="icon-app-economic" transform="translate(1538.000000, 1166.000000)">
                    <rect id="Rectangle" fill-opacity="0.7" fill="#1F2227" x="0" y="0" width="130" height="130" rx="28"></rect>
                    <g id="dfJDZv.tif" transform="translate(44.817879, 38.497342)" fill="#F58220" fill-rule="nonzero">
                        <path d="M33.7411208,21.1154584 C32.1135208,21.1154584 29.6929208,21.0374584 27.2801208,21.1336584 C24.1710265,21.2014479 21.4728514,23.2966257 20.6371208,26.2920584 C20.3771208,27.0200584 20.1951208,27.7844584 19.9741208,28.5332584 C18.8303944,32.3492699 14.8097323,34.5155849 10.9937208,33.3718584 C7.17770936,32.228132 5.01139435,28.2074699 6.15512084,24.3914584 C6.55094545,23.062553 6.87725452,21.7139245 7.13272084,20.3510584 C7.45502602,18.8650319 6.74534172,17.3467118 5.39852084,16.6408584 C4.50152084,16.0896584 3.51612084,15.6866584 2.59832084,15.1666584 C0.541618292,13.9986007 -0.450513829,11.5762522 0.195920842,9.30105845 C0.834620091,7.06363769 2.88192973,5.52284605 5.20872084,5.52845845 C7.54174602,5.48567506 9.59925788,7.04951314 10.1825208,9.30885845 C10.3321181,10.237612 10.3373801,11.1838986 10.1981208,12.1142584 C10.1149208,13.1230584 9.82632084,14.1136584 9.75872084,15.1224584 C9.58063564,16.7468863 10.5413527,18.2810213 12.0805208,18.8300584 C14.3074591,19.8367779 16.7966667,20.109917 19.1889208,19.6100584 C21.240613,19.1478282 22.8771857,17.6039481 23.4581208,15.5826584 C24.0858419,13.5129395 24.5492143,11.3969013 24.8439208,9.25425845 C25.5907484,3.85144042 30.2744289,-0.129862093 35.7269951,0.00324094961 C41.1795612,0.136343992 45.663403,4.34143565 46.1457208,9.77425845 C46.3522857,13.0340545 45.0703707,16.21183 42.6597076,18.415836 C40.2490444,20.619842 36.9694041,21.6125767 33.7411208,21.1154584 Z" id="Path"></path>
                    </g>
                    <ellipse id="Oval" fill="#F58220" fill-rule="nonzero" cx="68.5126" cy="84.682" rx="8.788" ry="8.7256"></ellipse>
                    <ellipse id="Oval" fill="#F58220" fill-rule="nonzero" cx="43.1938" cy="76.57" rx="4.1938" ry="4.1652"></ellipse>
                </g>
            </g>
        </g>
    </g>
</svg>