<?xml version="1.0" encoding="UTF-8"?>
<svg width="50px" height="50px" viewBox="0 0 50 50" version="1.1" xmlns="http://www.w3.org/2000/svg" xmlns:xlink="http://www.w3.org/1999/xlink">
    <title>B7719156-6C41-4E51-8BB6-8F6081689D25</title>
    <g id="People" stroke="none" stroke-width="1" fill="none" fill-rule="evenodd">
        <g id="People---1920x1080" transform="translate(-1539.000000, -13394.000000)">
            <g id="Integrations" transform="translate(0.000000, 11949.000000)">
                <g id="icon-app-evernote" transform="translate(1539.000000, 1445.000000)">
                    <rect id="Rectangle" fill-opacity="0.7" fill="#1F2227" x="0" y="0" width="50" height="50" rx="12"></rect>
                    <path d="M29.628,24.044 C28.702,24.012 28.441,24.788 28.363,25.421 C28.6562062,25.3741902 28.9532807,25.3561045 29.25,25.367 C29.7830333,25.3793456 30.3089303,25.4923287 30.8,25.7 C30.8,25.047 30.652,24.079 29.628,24.044 Z" id="Path"></path>
                    <path d="M16.857,18.952 L19.014,18.952 C19.1371595,18.952 19.237,18.8521595 19.237,18.729 C19.237,18.729 19.211,16.88 19.211,16.367 L19.211,16.361 C19.2049037,15.9803797 19.2881308,15.6036316 19.454,15.261 L19.528,15.122 C19.518627,15.1245024 19.5100313,15.129316 19.503,15.136 L15.315,19.289 C15.3072103,19.2954787 15.3016204,19.3042129 15.299,19.314 C15.386,19.271 15.504,19.214 15.521,19.205 C15.9432022,19.02638 16.3987221,18.9401176 16.857,18.952 L16.857,18.952 Z" id="Path" fill="#47BD5C" fill-rule="nonzero"></path>
                    <path d="M33.63,18.5 C33.5426135,17.8012793 33.0780556,17.2072292 32.421,16.954 C31.4524803,16.677726 30.4601019,16.4932454 29.457,16.403 C28.4123663,16.3000618 27.3619176,16.2686553 26.313,16.309 C26.2256648,15.6925874 25.836196,15.1605385 25.275,14.891 C24.0124531,14.4843376 22.6690267,14.3957148 21.364,14.633 C20.9136117,14.7421954 20.5122605,14.9979205 20.223,15.36 C20.0238196,15.6567155 19.9237018,16.0088781 19.937,16.366 C19.937,16.616 19.944,17.206 19.95,17.73 C19.956,18.254 19.964,18.73 19.964,18.73 C19.9634482,19.1990515 19.5830518,19.5790003 19.114,19.579 L16.958,19.579 C16.5878154,19.5673443 16.2194628,19.6355578 15.878,19.779 C15.6396009,19.8844717 15.432805,20.050253 15.278,20.26 C15.0208044,20.6609291 14.9024042,21.1352326 14.941,21.61 C14.9545138,22.0007767 14.9878902,22.3906134 15.041,22.778 C15.3018153,24.8225469 15.7503763,26.8387283 16.381,28.801 C16.5264507,29.2140105 16.8400113,29.5461014 17.244,29.715 C18.7149796,30.2271229 20.2335609,30.5906042 21.777,30.8 C22.89,30.942 23.588,31.241 24.004,30.368 C24.004,30.368 24.088,30.152 24.204,29.835 C24.4905643,28.9404449 24.6297145,28.0052337 24.616,27.066 C24.6099381,27.044779 24.6179321,27.0220431 24.6359409,27.0092854 C24.6539498,26.9965277 24.6780502,26.9965277 24.6960591,27.0092854 C24.7140679,27.0220431 24.7220619,27.044779 24.716,27.066 C24.716,27.566 24.621,29.319 25.949,29.79 C26.8384135,30.0284276 27.746809,30.1893625 28.664,30.271 C29.664,30.386 30.387,30.778 30.387,33.34 C30.387,34.899 30.059,35.112 28.348,35.112 C26.961,35.112 26.432,35.148 26.432,34.047 C26.432,33.156 27.313,33.247 27.966,33.247 C28.258,33.247 28.046,33.031 28.046,32.481 C28.046,31.931 28.388,31.618 28.064,31.61 C25.807,31.547 24.478,31.61 24.478,34.431 C24.478,36.994 25.459,37.47 28.664,37.47 C31.176,37.47 32.064,37.388 33.099,34.17 C33.6251089,32.2646965 33.9600963,30.3117195 34.099,28.34 C34.1954087,25.0528246 34.0386121,21.7631048 33.63,18.5 L33.63,18.5 Z M29.25,25.367 C28.9532807,25.3561045 28.6562062,25.3741902 28.363,25.421 C28.442,24.788 28.703,24.011 29.628,24.044 C30.652,24.079 30.796,25.044 30.799,25.703 C30.3084429,25.4944217 29.7828893,25.3804217 29.25,25.367 L29.25,25.367 Z" id="Shape" fill="#47BD5C" fill-rule="nonzero"></path>
                </g>
            </g>
        </g>
    </g>
</svg>