<?xml version="1.0" encoding="UTF-8"?>
<svg width="130px" height="130px" viewBox="0 0 130 130" version="1.1" xmlns="http://www.w3.org/2000/svg" xmlns:xlink="http://www.w3.org/1999/xlink">
    <title>DE74D8DD-2E2A-4F60-BC82-54447943B305</title>
    <g id="People" stroke="none" stroke-width="1" fill="none" fill-rule="evenodd">
        <g id="People---1920x1080" transform="translate(-518.000000, -13144.000000)">
            <g id="Integrations" transform="translate(0.000000, 11949.000000)">
                <g id="icon-app-slack" transform="translate(518.000000, 1195.000000)">
                    <rect id="Rectangle" fill-opacity="0.7" fill="#1F2227" x="0" y="0" width="130" height="130" rx="28"></rect>
                    <polygon id="Path" points="32.5 32.5 97.5 32.5 97.5 97.5 32.5 97.5"></polygon>
                    <path d="M73.8556,38.8076 C72.8533816,36.1376878 69.9286889,34.7280066 67.2157969,35.6072619 C64.5029048,36.4865172 62.9611422,39.3437879 63.7156,42.094 L77.4956,84.474 C78.4534048,87.1016603 81.2831241,88.5381122 83.9696,87.7604 C85.3334941,87.3881418 86.4886409,86.4796861 87.1719054,85.2419733 C87.8551698,84.0042605 88.0083672,82.5426907 87.5966,81.1902 C87.5862,81.081 73.8556,38.8076 73.8556,38.8076 Z" id="Path" fill="#ECB32D" fill-rule="nonzero"></path>
                    <path d="M52.52,45.7236 C52.0033115,43.8263881 50.4849513,42.3671652 48.5687199,41.9262148 C46.6524885,41.4852644 44.6490422,42.1340728 43.3550839,43.6146308 C42.0611256,45.0951887 41.6864297,47.1674706 42.38,49.0074 L56.16,91.3874 C57.1198552,94.0131159 59.9483791,95.447825 62.634,94.6712 C64.0002889,94.3017779 65.1585786,93.3944948 65.8444774,92.1564476 C66.5303761,90.9184003 66.6853411,89.4552587 66.274,88.101 C66.2558,87.9944 52.52,45.7236 52.52,45.7236 Z" id="Path" fill="#63C1A0" fill-rule="nonzero"></path>
                    <path d="M91.2158,73.8712 C93.110065,73.3515517 94.5655823,71.8330726 95.0045948,69.918512 C95.4436072,68.0039513 94.7950986,66.003015 93.3164898,64.7099603 C91.837881,63.4169056 89.7683569,63.0409015 87.9294,63.7312 L45.5,77.5502 C42.8745279,78.50897 41.4388293,81.3360695 42.2136,84.0216 C42.5836135,85.388081 43.4914076,86.546384 44.7298672,87.2322398 C45.9683268,87.9180956 47.4318028,88.0729959 48.7864,87.6616 C48.8956,87.6512 91.2158,73.8712 91.2158,73.8712 Z" id="Path" fill="#E01A59" fill-rule="nonzero"></path>
                    <path d="M54.34,85.8858 C57.0882,85.0044 60.6658,83.8266 64.48,82.5994 C63.596,79.8538 62.4182,76.2736 61.1936,72.4594 L51.0536,75.7458 L54.34,85.8858 Z" id="Path" fill="#331433" fill-rule="nonzero"></path>
                    <path d="M75.7198,78.923 C79.5444,77.6958 83.1246,76.5206 85.8598,75.6366 C84.9784,72.891 83.8006,69.3108 82.576,65.4966 L72.436,68.783 L75.7198,78.923 Z" id="Path" fill="#D62027" fill-rule="nonzero"></path>
                    <path d="M84.253,52.5382 C86.147265,52.0185517 87.6027823,50.5000726 88.0417948,48.585512 C88.4808072,46.6709513 87.8322986,44.670015 86.3536898,43.3769603 C84.875081,42.0839056 82.8055569,41.7079015 80.9666,42.3982 L38.5866,56.1782 C35.9598504,57.1370319 34.5238544,59.9658531 35.3002,62.6522 C35.6702625,64.0180806 36.5776531,65.1758967 37.815502,65.8616855 C39.0533508,66.5474743 40.5161479,66.7027816 41.8704,66.2922 C41.9796,66.2714 84.253,52.5382 84.253,52.5382 Z" id="Path" fill="#89D3DF" fill-rule="nonzero"></path>
                    <path d="M47.424,64.506 C50.1696,63.622 53.7498,62.4442 57.564,61.2196 C56.3394,57.395 55.1616,53.8148 54.2776,51.0796 L44.1376,54.3634 L47.424,64.506 Z" id="Path" fill="#258B74" fill-rule="nonzero"></path>
                    <path d="M68.757,57.59 C72.5816,56.3654 76.1618,55.1876 78.897,54.3036 C77.6698,50.479 76.4946,46.8988 75.6106,44.1636 L65.4706,47.45 L68.757,57.59 Z" id="Path" fill="#819C3C" fill-rule="nonzero"></path>
                </g>
            </g>
        </g>
    </g>
</svg>