<?xml version="1.0" encoding="UTF-8"?>
<svg width="50px" height="50px" viewBox="0 0 50 50" version="1.1" xmlns="http://www.w3.org/2000/svg" xmlns:xlink="http://www.w3.org/1999/xlink">
    <title>A49C90C4-9412-43AD-AAAF-99DC1F8CBC1E</title>
    <g id="People" stroke="none" stroke-width="1" fill="none" fill-rule="evenodd">
        <g id="People---1920x1080" transform="translate(-1130.000000, -13582.000000)">
            <g id="Integrations" transform="translate(0.000000, 11949.000000)">
                <g id="icon-app-cpr" transform="translate(1130.000000, 1633.000000)">
                    <rect id="Rectangle" fill-opacity="0.7" fill="#1F2227" x="0" y="0" width="50" height="50" rx="12"></rect>
                    <path d="M16.558,26.833 C16.930701,26.8507902 17.2949414,26.7182081 17.569,26.465 C17.8291261,26.2058448 17.9675245,25.8487695 17.95,25.482 L20.086,25.482 L20.11,25.53 C20.1433959,26.386186 19.7731762,27.208444 19.11,27.751 C18.3985333,28.3566713 17.4868615,28.6754177 16.553,28.645 C15.4109288,28.7136702 14.2998574,28.2579027 13.535,27.407 C12.804566,26.5127434 12.4274245,25.3816747 12.475,24.228 L12.475,23.985 C12.4294632,22.8263924 12.8177789,21.6924678 13.564,20.805 C14.3581047,19.9456696 15.4960746,19.4882791 16.664,19.559 C17.3111529,19.5496193 17.9547215,19.6566549 18.564,19.875 C19.0913029,20.0633368 19.569693,20.3674562 19.964,20.765 L19.997,23.103 L18.087,23.103 L17.7,21.736 C17.5701428,21.626415 17.4222925,21.5401409 17.263,21.481 C17.0739173,21.4112626 16.8735,21.3773511 16.672,21.381 C16.0994894,21.3308945 15.5490945,21.6140659 15.257,22.109 C14.959402,22.6884492 14.8171066,23.3351523 14.844,23.986 L14.844,24.229 C14.8163386,24.8801084 14.9467188,25.5282352 15.224,26.118 C15.4870362,26.6002861 16.0107476,26.8809859 16.558,26.833 L16.558,26.833 Z" id="Path" fill="#FFFFFF" fill-rule="nonzero"></path>
                    <path d="M21,21.145 L21,19.721 L24.43,19.721 L24.544,20.741 C24.7825869,20.3819603 25.1008534,20.0828583 25.474,19.867 C25.8604019,19.6555013 26.2956095,19.5492858 26.736,19.559 C27.7403022,19.5186807 28.6943984,19.9991309 29.26,20.83 C29.9010252,21.8225815 30.2157025,22.9907337 30.16,24.171 L30.16,24.341 C30.2143056,25.4529639 29.897733,26.5514708 29.26,27.464 C28.6706057,28.2480242 27.7318195,28.6900922 26.752,28.645 C26.3310036,28.6528896 25.9136489,28.5657271 25.531,28.39 C25.1709363,28.2168527 24.8572839,27.9604462 24.616,27.642 L24.616,30.174 L25.757,30.417 L25.757,31.841 L21.121,31.841 L21.121,30.417 L22.262,30.174 L22.262,21.388 L21,21.145 Z M27.8,24.171 C27.8286095,23.4786078 27.6867921,22.7897801 27.387,22.165 C27.15766,21.6796363 26.6614932,21.3772969 26.125,21.396 C25.8075615,21.3865137 25.4933654,21.4621279 25.215,21.615 C24.962192,21.7623451 24.7559881,21.977906 24.62,22.237 L24.62,26.072 C24.7594961,26.3144309 24.9661317,26.5113424 25.215,26.639 C25.5038338,26.7764247 25.8212941,26.8429337 26.141,26.833 C26.6536792,26.864952 27.14051,26.6048961 27.399,26.161 C27.6924329,25.6009261 27.8305489,24.9724985 27.799,24.341 L27.8,24.171 Z" id="Shape" fill="#FFFFFF" fill-rule="nonzero"></path>
                    <path d="M31.388,27.059 L32.521,26.817 L32.521,21.388 L31.267,21.145 L31.267,19.721 L34.722,19.721 L34.822,21 C34.9960417,20.5873458 35.2682678,20.2234622 35.615,19.94 C35.9345358,19.6872114 36.3316127,19.5526151 36.739,19.559 C36.8705072,19.5597137 37.0018124,19.5694029 37.132,19.588 C37.2478598,19.6026245 37.3624976,19.6256858 37.475,19.657 L37.225,21.809 L36.254,21.784 C35.9551876,21.7719713 35.6586947,21.8410839 35.396,21.984 C35.1696357,22.1190059 34.9891417,22.3190127 34.878,22.558 L34.878,26.814 L36.011,27.056 L36.011,28.472 L31.388,28.472 L31.388,27.059 Z" id="Path" fill="#FFFFFF" fill-rule="nonzero"></path>
                </g>
            </g>
        </g>
    </g>
</svg>