<?xml version="1.0" encoding="UTF-8"?>
<svg width="80px" height="80px" viewBox="0 0 80 80" version="1.1" xmlns="http://www.w3.org/2000/svg" xmlns:xlink="http://www.w3.org/1999/xlink">
    <title>6355DE70-BBA4-49E5-8F4F-B4FE3DC04193</title>
    <g id="People" stroke="none" stroke-width="1" fill="none" fill-rule="evenodd">
        <g id="People---1920x1080" transform="translate(-476.000000, -12335.000000)">
            <g id="Integrations" transform="translate(0.000000, 11949.000000)">
                <g id="icon-app-usiness-central" transform="translate(476.000000, 386.000000)">
                    <rect id="Rectangle" fill-opacity="0.7" fill="#1F2227" x="0" y="0" width="80" height="80" rx="16"></rect>
                    <path d="M56.64,35.84 C54.817741,35.8441556 53.2116828,37.0373387 52.6816,38.7808 L43.9584,38.7808 C43.3551722,36.8115092 41.4017391,35.5800831 39.3648346,35.8850591 C37.3279302,36.190035 35.8208252,37.9395908 35.8208252,39.9992 C35.8208252,42.0588092 37.3279302,43.808365 39.3648346,44.1133409 C41.4017391,44.4183169 43.3551722,43.1868908 43.9584,41.2176 L52.68,41.2176 C53.3065325,43.2643707 55.383996,44.5016078 57.4820741,44.0774839 C59.5801523,43.65336 61.0139205,41.7063317 60.7962412,39.5769119 C60.578562,37.4474921 58.7804974,35.8308369 56.64,35.84 L56.64,35.84 Z M40,41.7248 C39.0474193,41.7248 38.2752,40.9525807 38.2752,40 C38.2752,39.0474193 39.0474193,38.2752 40,38.2752 C40.9525807,38.2752 41.7248,39.0474193 41.7248,40 C41.7221631,40.9514863 40.9514863,41.7221631 40,41.7248 L40,41.7248 Z M56.64,41.7248007 C55.9422383,41.7254473 55.3128227,41.3056239 55.0453523,40.6611618 C54.7778818,40.0166997 54.9250532,39.2745702 55.4182164,38.780949 C55.9113797,38.2873279 56.6533723,38.1394678 57.2980823,38.4063401 C57.9427923,38.6732123 58.3632,39.302238 58.3632,40 C58.3614421,40.9512275 57.5912254,41.7221593 56.64,41.7248007 L56.64,41.7248007 Z" id="Shape" fill="#3B63D6" fill-rule="nonzero"></path>
                    <path d="M45.8048,44.5328 C43.8817235,46.9934861 40.615089,47.972602 37.6555681,46.9753882 C34.6960472,45.9781744 32.6880966,43.2217812 32.646359,40.0990489 C32.6046214,36.9763166 34.5381854,34.1672422 37.4699969,33.0912864 C40.4018083,32.0153306 43.6934444,32.9067904 45.6816,35.3152 L47.5616,33.7664 C45.970804,31.8352232 43.700511,30.5869915 41.2176,30.2784 L41.2176,27.3184 C43.1871638,26.7155218 44.4189974,24.7620954 44.1142029,22.7250034 C43.8094083,20.6879114 42.0597679,19.1805802 40,19.1805802 C37.9402321,19.1805802 36.1905917,20.6879114 35.8857971,22.7250034 C35.5810026,24.7620954 36.8128362,26.7155218 38.7824,27.3184 L38.7824,30.2816 C34.3395116,30.8373816 30.8398181,34.3364163 30.2832,38.7792 L27.32,38.7792 C26.7167722,36.8099092 24.7633391,35.5784831 22.7264346,35.8834591 C20.6895302,36.188435 19.1824252,37.9379908 19.1824252,39.9976 C19.1824252,42.0572092 20.6895302,43.806765 22.7264346,44.1117409 C24.7633391,44.4167169 26.7167722,43.1852908 27.32,41.216 L30.2832,41.216 C30.8402213,45.6588781 34.3395219,49.1581787 38.7824,49.7152 L38.7824,52.6784 C36.8128362,53.2812782 35.5810026,55.2347046 35.8857971,57.2717966 C36.1905917,59.3088886 37.9402321,60.8162198 40,60.8162198 C42.0597679,60.8162198 43.8094083,59.3088886 44.1142029,57.2717966 C44.4189974,55.2347046 43.1871638,53.2812782 41.2176,52.6784 L41.2176,49.7184 C43.7866657,49.3992586 46.1249773,48.0762287 47.7216,46.0384 L45.8016,44.536 L45.8048,44.5328 Z M38.2735993,23.36 C38.2729527,22.6615911 38.6931659,22.0315922 39.3382259,21.7638741 C39.9832859,21.4961559 40.7261036,21.6434642 41.2201823,22.137085 C41.7142611,22.6307059 41.862258,23.3733867 41.5951381,24.0186946 C41.3280182,24.6640025 40.6984092,25.0848 40,25.0848 C39.0475249,25.0839197 38.2753634,24.3124739 38.2735993,23.36 Z M23.36,41.7248 C22.407628,41.7239165 21.6362115,40.9513065 21.6368,39.9989343 C21.6373892,39.0465621 22.4097605,38.2749066 23.3621328,38.2752007 C24.3145052,38.275495 25.0864,39.0476276 25.0864,40 C25.0846366,40.9524739 24.3124751,41.7239197 23.36,41.7248 L23.36,41.7248 Z M40,58.3632 C39.302238,58.3632 38.6732123,57.9427923 38.4063401,57.2980823 C38.1394678,56.6533723 38.2873279,55.9113797 38.780949,55.4182164 C39.2745702,54.9250532 40.0166997,54.7778818 40.6611618,55.0453523 C41.3056239,55.3128227 41.7254473,55.9422383 41.7248007,56.64 C41.7212852,57.5908614 40.9508643,58.3605676 40,58.3632 Z" id="Shape" fill="#3B63D6" fill-rule="nonzero"></path>
                </g>
            </g>
        </g>
    </g>
</svg>