<?xml version="1.0" encoding="UTF-8"?>
<svg width="50px" height="50px" viewBox="0 0 50 50" version="1.1" xmlns="http://www.w3.org/2000/svg" xmlns:xlink="http://www.w3.org/1999/xlink">
    <title>CCEA8248-4491-4B07-BAD5-F66A61A606F0</title>
    <g id="People" stroke="none" stroke-width="1" fill="none" fill-rule="evenodd">
        <g id="People---1920x1080" transform="translate(-1357.000000, -13060.000000)">
            <g id="Integrations" transform="translate(0.000000, 11949.000000)">
                <g id="icon-app-mailchimp" transform="translate(1357.000000, 1111.000000)">
                    <rect id="Rectangle" fill-opacity="0.7" fill="#1F2227" x="0" y="0" width="50" height="50" rx="12"></rect>
                    <path d="M35.373,30.6 C35.354,30.659 33.638,37.212 26.892,37.2100005 C23.354948,37.1112346 20.1138503,35.2111637 18.3,32.173 C17.8875112,32.1951567 17.474823,32.1332364 17.087,31.991 C15.4060867,31.3511606 14.5440467,29.4858499 15.146,27.791 L14.205,27.077 C10.563,24.322 20.881,11.713 24.529,14.566 C24.548,14.58 25.4,15.266 25.4,15.266 C26.4933804,14.547222 27.7559238,14.1272935 29.062,14.048 C29.7294783,14.0073008 30.3831272,14.2502403 30.862,14.717 C31.809,15.736 31.468,17.68 30.175,19.649 C30.4572409,19.9288208 30.6853977,20.258343 30.848,20.621 C31.2897979,20.9886099 31.5786173,21.5077717 31.658,22.077 C31.806,22.812 31.836,23.86 31.929,24.31 C32.277,24.466 32.129,24.394 32.501,24.578 C33.008889,24.8090434 33.4754211,25.1218666 33.882,25.504 C34.290651,25.570602 34.634003,25.8475378 34.7856145,26.2328239 C34.9372261,26.6181101 34.8746765,27.0547696 34.621,27.382 C34.606,27.4 34.541,27.482 34.473,27.553 C34.6223931,27.8404726 34.7307796,28.1474555 34.795,28.465 C35.1666111,28.5423409 35.4811184,28.7881075 35.646,29.13 C35.7716244,29.63643 35.672079,30.1724435 35.373,30.6 Z" id="Path" fill="#684C46" fill-rule="nonzero"></path>
                    <path d="M19.673,28.132 L19.673,28.132 C19.7606958,27.9114973 19.8345067,27.6857227 19.894,27.456 C20.0677697,27.9675493 20.1427662,28.5074561 20.115,29.047 L20.115,29.047 C20.227421,28.8792418 20.3241624,28.701492 20.404,28.516 C20.5392292,29.4891958 20.0557787,30.4440195 19.1913267,30.9110524 C18.3268748,31.3780852 17.2632722,31.2590796 16.5234167,30.6125421 C15.7835612,29.9660046 15.5230929,28.9279444 15.8700655,28.0087018 C16.217038,27.0894592 17.0984604,26.4824112 18.081,26.4859842 C18.4089984,26.4856677 18.733149,26.5566396 19.031,26.694 C19.031,26.694 19.532,26.945 19.673,28.132 Z M32.514,33.479 C33.5768145,32.6823466 34.3438799,31.5542679 34.694,30.273 C35.144,29.736 35.021,29.208 34.427,29.208 C34.3144268,29.20758 34.2024562,29.2244431 34.095,29.258 C34.0859915,28.7717939 33.9615738,28.294688 33.732,27.866 C33.124426,28.4554591 32.419336,28.9352179 31.648,29.284 C30.4476227,29.8424565 29.1454568,30.1487684 27.822,30.184 L27.822,30.184 C27.378,30.203 27.103,30.131 26.948,30.646 C26.9061941,30.8202547 26.9092908,31.0022683 26.957,31.175 C27.0858214,31.5654152 27.4312092,31.8443071 27.84,31.888 C28.0613554,31.9359994 28.2866153,31.9637803 28.513,31.971 C30.6827607,31.8801965 32.749686,31.0214585 34.345,29.548 C34.3643049,29.5331486 34.3826733,29.5171181 34.4,29.5 L34.368,29.573 C33.903,30.611 31.213,32.493 28.534,32.439 L28.525,32.439 C27.8711545,32.4824101 27.2292911,32.2482462 26.757,31.794 C26.136,31.03 26.457,29.759 27.448,29.729 L27.778,29.721 C30.1661683,29.7284785 32.4386103,28.6930601 34,26.886 C34.217,26.619 33.975,26.252 33.506,26.241 L33.495,26.241 C33.074979,25.8052864 32.5716828,25.45842 32.015,25.221 C31.104,24.76 31.189,25.159 30.977,22.921 C30.92,22.321 30.805,21.495 30.271,21.18 C30.1342984,21.1001343 29.9782993,21.0593186 29.82,21.0618759 C29.7305783,21.0611483 29.6415513,21.0739628 29.556,21.1 C29.2980308,21.1732307 29.0665206,21.3190093 28.889,21.52 C27.906,22.42 27.119,22.176 25.946,22.166 C24.8144342,22.1473767 23.845449,22.9728561 23.684,24.093 L23.684,24.093 C23.6018292,24.5981326 23.6239501,25.1147405 23.749,25.611 C23.5875059,25.5048728 23.4391405,25.3800042 23.307,25.239 C23.4707554,25.9477277 23.8807638,26.5753205 24.464,27.01 C24.3392291,27.0315328 24.2123883,27.0385795 24.086,27.031 C24.4045219,27.2792688 24.7575769,27.4797151 25.134,27.626 C24.6452312,28.0530003 24.2677048,28.5925198 24.034,29.198 C23.8458477,29.7723325 23.7831024,30.3803472 23.85,30.981 L24.119,30.581 C24.0235975,31.1678583 24.0804099,31.7693809 24.284,32.328 C24.396,32.072 24.643,31.616 24.643,31.616 C24.6341969,32.2202542 24.7797936,32.8167533 25.066,33.349 C25.077,33.169 25.147,32.71 25.147,32.71 C25.3319115,33.2306464 25.6316541,33.7029888 26.024,34.092 C27.17,35.1 30.205,35.281 32.514,33.479 L32.514,33.479 Z" id="Shape" fill="#F5DCBA" fill-rule="nonzero"></path>
                    <path d="M15.5,27.1 C15.1355352,26.8487301 14.7962825,26.5627263 14.487,26.246 C13.748,25.007 15.034,22.462 15.949,21.016 C18.211,17.44 21.976,14.616 23.686,15.022 L25.442,15.922 C24.8321043,16.2822783 24.2498333,16.6873944 23.7,17.134 L23.326,17.445 C23.326,17.445 22.235,18.175 21.692,18.635 C19.3381012,20.6043322 17.5698736,23.1819597 16.58,26.087 C16.1410136,26.329123 15.7697037,26.677398 15.5,27.1 Z" id="Path" fill="#0788BF" fill-rule="nonzero"></path>
                    <path d="M23.682,15.021 L23.682,15.021 C21.972,14.621 18.207,17.439 15.945,21.014 L15.945,21.014 L15.954,21.014 L17.754,22.423 C18.9345926,20.5461605 20.4764671,18.9227053 22.29,17.647 L22.004,15.738 L22.54,15.483 L23.614,15.829 L23.532,15.472 L23.681,15.016 L23.682,15.021 Z" id="Path" fill="#46B8E3" fill-rule="nonzero"></path>
                    <polygon id="Path" fill="#FFD14F" fill-rule="nonzero" points="25.438 15.921 23.7 17.134 23.578 17.228 22.038 15.979 22.003 15.743 22.538 15.488 23.613 15.834 23.631 15.171 23.68 15.021 24.15 14.842"></polygon>
                    <path d="M28.864,14.732 C27.6402222,14.8341049 26.4619246,15.2430354 25.438,15.921 C25.299,16.002 25.162,16.087 25.027,16.174 L24.509,15.743 L24.697,16.391 L24.489,16.536 L23.42,16.212 L24.127,16.8 C23.966,16.922 23.821,17.036 23.702,17.134 L22.002,15.743 L22.092,16.366 L23.325,17.445 C23.325,17.445 22.234,18.175 21.691,18.635 C19.3371777,20.6044018 17.5689661,23.182006 16.579,26.087 L16.624,26.062 L16.643,26.053 L16.709,26.019 L16.754,26 L16.823,25.969 L16.863,25.951 L16.937,25.922 L16.971,25.909 C17.007,25.896 17.043,25.885 17.078,25.874 C17.7784927,25.649177 18.5365887,25.684685 19.213,25.974 C19.6448055,24.816292 20.2376369,23.7252264 20.974,22.733 C21.5176388,21.9232639 22.2156204,21.2286805 23.028,20.689 C24.469,19.345 28.351,17.92 29.595,19.155 C29.8990293,18.6823438 30.1536994,18.1797055 30.355,17.655 C30.874,16.293 30.883,14.732 28.864,14.732 Z" id="Path" fill="#122030" fill-rule="nonzero"></path>
                    <polygon id="Path" fill="#122030" fill-rule="nonzero" points="23.936 15.937 23.682 15.021 23.533 15.477 23.622 15.836"></polygon>
                    <path d="M34.1,29.257 C34.0908773,28.7708096 33.9664665,28.29373 33.737,27.865 C33.1299181,28.4545992 32.4251301,28.9343829 31.654,29.283 C30.4532221,29.8413203 29.1507588,30.1476221 27.827,30.183 L27.827,30.183 C27.383,30.202 27.108,30.13 26.953,30.645 C26.940628,30.6921682 26.9325945,30.7403689 26.929,30.789 L26.929,30.8 L26.929,30.8 L26.929,30.849 C26.929,30.896 26.929,30.937 26.929,30.973 L26.929,30.984 C26.929,31.007 26.929,31.028 26.935,31.049 L26.935,31.055 C26.939081,31.0974437 26.9488345,31.1391486 26.964,31.179 L26.964,31.179 L26.964,31.186 C27.0950851,31.5730133 27.4387838,31.8488304 27.845,31.893 C28.0664341,31.9403785 28.2916679,31.9678215 28.518,31.975 C30.5715688,31.9098618 32.5391466,31.1352694 34.086,29.783 C34.1005253,29.6080678 34.1051993,29.4324571 34.1,29.257 L34.1,29.257 Z M26.553,15.329 C27.1666192,15.032498 27.8240741,14.8369836 28.5,14.75 C27.6681506,14.9677673 26.8764851,15.3171804 26.155,15.785 C24.9152561,16.6156778 23.7414404,17.5407556 22.644,18.552 C21.924,19.262 19.029,22.709 19.030999,22.706002 C19.5072572,21.8024064 20.0824538,20.9545364 20.746,20.178 C21.22,19.586 21.725,19.011 22.246,18.478 C22.42,18.299 22.595,18.125 22.771,17.958 L22.771,17.958 C23.8812238,16.8829383 25.1584759,15.9950758 26.553,15.329 L26.553,15.329 Z" id="Shape" fill="#FFFFFF" fill-rule="nonzero"></path>
                    <path d="M32.514,33.479 C32.2085698,33.7174697 31.8818614,33.927353 31.538,34.106 C31.0521318,33.9114421 30.6232217,33.5974125 30.291,33.193 C30.8272568,33.0488243 31.3465464,32.8476792 31.84,32.593 C32.9494849,32.0389163 33.923762,31.2479562 34.694,30.276 C34.3432784,31.5561719 33.5762676,32.6831148 32.514,33.479 Z M30.414,25.191 C30.2171818,25.0719925 29.9778331,25.0460434 29.7600832,25.1201054 C29.5423334,25.1941673 29.3684419,25.3606693 29.285,25.575 C29.501,25.585 29.731,25.748 29.717,25.956 C29.8738286,25.8078528 30.0822864,25.7267659 30.298,25.73 C30.1950473,25.5476434 30.2429221,25.3172463 30.41,25.191 L30.414,25.191 Z M26.492,30.524 C26.588494,30.0674176 26.985502,29.7365776 27.452,29.724 L27.782,29.716 C30.1679725,29.7235657 32.4385892,28.6901393 34,26.886 C34.217,26.619 33.975,26.252 33.506,26.241 L33.5,26.241 C33.4176401,26.3914916 33.3428795,26.546019 33.276,26.704 C32.7934653,27.4529585 32.08435,28.0282389 31.252,28.346 C28.545,29.684 27.141,29.061 26.578,29.881 C26.435913,30.0642257 26.4023677,30.3093353 26.49,30.524 L26.492,30.524 Z M31.392,24.911 C31.133,24.727 31.123,24.405 30.982,22.911 C30.9700222,22.3908933 30.8261963,21.8823413 30.564,21.433 C30.4918562,21.3634048 30.3962113,21.3234338 30.296,21.321 C30.111,21.312 29.902,21.503 29.783,21.633 C29.4846911,22.1004048 29.0570305,22.4710903 28.552,22.7 C28.0229107,22.942022 27.4443839,23.0564257 26.863,23.034 C26.448,23.021 26.085,22.953 25.728,22.949 C25.092796,22.9077913 24.4772679,23.1782507 24.078,23.674 C23.8107478,24.0148031 23.6578236,24.4312328 23.641,24.864 C23.641,24.918 23.641,24.969 23.648,25.018 C23.648,25.089 23.659,25.158 23.667,25.218 C23.6794816,25.3360039 23.7032572,25.4525379 23.738,25.566 L23.738,25.571 L23.749,25.603 C23.5873775,25.4966598 23.4389986,25.3714441 23.307,25.23 C23.4579351,25.9100673 23.8408331,26.5164108 24.39,26.945 L24.43,26.976 L24.43,26.976 L24.46,26.999 C24.3352291,27.0205328 24.2083883,27.0275795 24.082,27.02 C24.4009487,27.2681749 24.7543188,27.4686089 25.131,27.615 C25.6947261,27.1522175 26.3838634,26.8684141 27.11,26.8 C27.474,26.576 27.866,26.355 28.286,26.142 C28.2572613,25.727977 28.3956499,25.3197066 28.6702169,25.008493 C28.944784,24.6972794 29.3326233,24.5090861 29.747,24.486 C30.2310617,24.421368 30.7089639,24.6418184 30.974,25.052 C31.1,25.012 31.244,24.968 31.404,24.921 C31.3975633,24.9185218 31.3915046,24.9151559 31.386,24.911 L31.392,24.911 Z M31.711,30.211 C31.7026799,30.2103355 31.6943201,30.2103355 31.686,30.211 C31.419,30.273 28.669,31.331 26.93,30.788 C26.9172223,30.9156163 26.9284145,31.0444968 26.963,31.168 L26.963,31.168 C27.2867559,31.2285463 27.6156483,31.2573495 27.945,31.254 C29.2774781,31.3212437 30.5961036,30.9568682 31.705,30.215 L31.711,30.211 Z M18.9,30 L18.9,30 C19.0378455,29.8500549 19.0987382,29.6448648 19.065,29.444 C19.013,29.158 18.687,29.1 18.471,28.878 L18.461,28.868 L18.45,28.856 L18.45,28.856 C18.3636088,28.7610166 18.3192528,28.6351611 18.327,28.507 C18.3242107,28.4033633 18.3710331,28.3046144 18.4530385,28.2411838 C18.5350439,28.1777531 18.6423911,28.1572527 18.742,28.186 C18.8581973,28.2224688 18.9588665,28.2967387 19.028,28.397 L19.028,28.397 C19.0126077,28.2939959 18.9739643,28.1958486 18.915,28.11 C18.6659545,27.7940644 18.2518363,27.6581265 17.864,27.765 L17.864,27.765 C17.8172269,27.7733732 17.77111,27.7850695 17.726,27.8 C17.7124346,27.8035836 17.6990803,27.8079237 17.686,27.813 C17.656,27.827 17.629,27.837 17.602,27.851 L17.602,27.851 C17.5365087,27.8825945 17.4742199,27.9204366 17.416,27.964 C16.833,28.717 17.828,30.082 18.9,30 Z" id="Shape" fill="#EABE8D" fill-rule="nonzero"></path>
                    <path d="M27.558,25.371 C27.608,25.443 27.621,25.497 27.601,25.52 C27.561,25.566 27.419,25.504 27.208,25.42 C26.6814178,25.199168 26.0859711,25.2115201 25.569,25.454 C25.4546661,25.5109405 25.3316518,25.5484531 25.205,25.565 C25.105,25.55 25.205,25.371 25.417,25.197 C25.850605,24.8512286 26.4313684,24.7522949 26.955,24.935 C27.1936524,25.0194997 27.4029705,25.1708475 27.558,25.371 Z M27.452,25.918 C27.2452378,25.7833381 26.9945265,25.733554 26.752,25.779 C26.6953218,25.7897207 26.6392448,25.8034061 26.584,25.82 C26.5645546,25.8253222 26.5455077,25.8320054 26.527,25.84 C26.4097024,25.8855611 26.3023789,25.9534873 26.211,26.04 C26.099,26.148 26.067,26.248 26.099,26.273 C26.131,26.298 26.209,26.261 26.33,26.212 C26.631955,26.0808212 26.9622904,26.0285181 27.29,26.06 C27.422,26.069 27.509,26.077 27.53,26.041 C27.551,26.005 27.515,25.966 27.452,25.918 L27.452,25.918 Z M18.765,27.973 L18.765,27.973 C18.824015,28.0194563 18.876194,28.0739918 18.92,28.135 C19.044,28.309 19.005,28.411 19.056,28.46 C19.0742718,28.478634 19.1022561,28.483831 19.126,28.473 C19.197,28.444 19.231,28.333 19.238,28.256 L19.238,28.256 C19.2407884,28.0538047 19.1643365,27.8585471 19.025,27.712 L19.025,27.712 C18.936114,27.6116534 18.8305622,27.5274149 18.713,27.463 C18.577911,27.3892978 18.431072,27.339562 18.279,27.316 C18.0693775,27.2868361 17.8560836,27.2987235 17.651,27.351 L17.651,27.351 C17.6070731,27.3611435 17.5636848,27.3734925 17.521,27.388 C17.0957855,27.5390913 16.76718,27.8825323 16.635,28.314 L16.635,28.314 C16.5564098,28.5770465 16.5457447,28.8557162 16.604,29.124 L16.604,29.124 C16.6390417,29.3085454 16.7213947,29.480832 16.843,29.624 L16.843,29.624 C16.996,29.788 17.164,29.757 17.092,29.604 C17.0150645,29.4380433 16.9735166,29.2578888 16.97,29.075 C16.9611897,28.86566 16.9952181,28.6567256 17.07,28.461 C17.1125012,28.3527791 17.1711682,28.2516291 17.244,28.161 C17.3450975,28.0420939 17.4697112,27.9453991 17.61,27.877 L17.61,27.877 C17.637,27.863 17.664,27.854 17.694,27.84 C17.7070803,27.8349237 17.7204346,27.8305836 17.734,27.827 C17.7792244,27.8122026 17.8253102,27.8001802 17.872,27.791 L17.872,27.791 C18.1818824,27.7139298 18.5099965,27.7808019 18.765,27.973 Z M18.688,28.673 C18.6442101,28.6436575 18.6128557,28.5991201 18.6,28.548 C18.5696146,28.4709792 18.6002516,28.3833235 18.672,28.342 C18.734,28.3 18.785,28.279 18.785,28.253 C18.785,28.202 18.578,28.153 18.432,28.293 C18.2876165,28.4720698 18.3023112,28.7313876 18.466,28.893 C18.682,29.125 19.017,29.179 19.066,29.47 C19.0742626,29.5134816 19.076951,29.5578388 19.074,29.602 C19.0724403,29.6464922 19.06641,29.6907147 19.056,29.734 C18.9738628,30.0800724 18.6274242,30.2946409 18.281,30.214 C18.199,30.203 18.146,30.193 18.13,30.214 C18.096,30.261 18.286,30.477 18.63,30.469 C19.0018672,30.4470067 19.3180039,30.1896675 19.415,29.83 C19.4343743,29.7618063 19.4464422,29.6917458 19.451,29.621 C19.4565126,29.5467508 19.452141,29.4720983 19.438,29.399 C19.357,28.913 18.869,28.813 18.688,28.669 L18.688,28.673 Z M30.527,25.193 C30.393,25.172 30.261,25.303 30.227,25.486 C30.1814004,25.6403189 30.2656741,25.8031303 30.418,25.855 C30.552,25.876 30.684,25.744 30.718,25.562 C30.7661133,25.4064354 30.6813449,25.240893 30.527,25.189 L30.527,25.193 Z M29.052,25.726 C28.978,25.86 29.068,26.05 29.252,26.15 C29.3991655,26.2575134 29.6047158,26.2311608 29.72,26.09 C29.7775505,25.9179178 29.6893967,25.7310317 29.52,25.666 C29.3738475,25.557552 29.1684393,25.5821308 29.052,25.722 L29.052,25.726 Z M23.652,20.317 C26.192,18.682 28.729,18.494 29.599,19.158 L29.599,19.158 C29.599,19.158 29.583,19.116 29.578,19.105 L29.578,19.105 C29.320795,18.646802 28.8871265,18.3139614 28.378,18.184 C28.4716238,18.2825365 28.5535041,18.3915983 28.622,18.509 C28.2320094,18.2474132 27.7954514,18.0630811 27.336,17.966 C27.336,17.966 27.393,18.007 27.403,18.016 C27.5150282,18.1147359 27.608205,18.2329858 27.678,18.365 C27.1927601,18.1633497 26.6618486,18.0973314 26.142,18.174 L26.08,18.189 L26.159,18.209 C26.3487607,18.2560708 26.5218061,18.3547067 26.659,18.494 C25.9067555,18.3595247 25.1313518,18.4597232 24.438,18.781 C24.501,18.781 24.5,18.781 24.554,18.781 C24.7913673,18.775806 25.0273622,18.8183122 25.248,18.906 C24.6453458,19.0072631 24.0724205,19.2401207 23.57,19.588 C23.7832167,19.5574415 23.9987765,19.5463957 24.214,19.555 C22.8750577,20.3172388 21.7569236,21.4140095 20.969,22.738 L20.969,22.738 C21.7153006,21.7810622 22.6216946,20.9606047 23.648,20.313 L23.652,20.317 Z" id="Shape" fill="#9C7356" fill-rule="nonzero"></path>
                    <path d="M29.641,23.885 C29.641,23.712 29.665,23.424 29.83,23.371 L29.83,23.371 C30.112,23.271 30.485,23.99 30.502,24.626 C30.2678846,24.5135994 30.0075191,24.4672661 29.749,24.492 C29.6837664,24.2959716 29.6473858,24.0914988 29.641,23.885 Z" id="Path" fill="#684C46" fill-rule="nonzero"></path>
                </g>
            </g>
        </g>
    </g>
</svg>