<?xml version="1.0" encoding="UTF-8"?>
<svg width="50px" height="50px" viewBox="0 0 50 50" version="1.1" xmlns="http://www.w3.org/2000/svg" xmlns:xlink="http://www.w3.org/1999/xlink">
    <title>07F71BED-731C-4D98-B2E4-123B254F4FDC</title>
    <g id="People" stroke="none" stroke-width="1" fill="none" fill-rule="evenodd">
        <g id="People---1920x1080" transform="translate(-1328.000000, -12249.000000)">
            <g id="Integrations" transform="translate(0.000000, 11949.000000)">
                <g id="icon-app-twillio" transform="translate(1328.000000, 300.000000)">
                    <rect id="Rectangle" fill-opacity="0.7" fill="#1F2227" x="0" y="0" width="50" height="50" rx="12"></rect>
                    <polygon id="Path" points="12.5 12.5 37.5 12.5 37.5 37.5 12.5 37.5"></polygon>
                    <path d="M25,32.977 C20.6783718,32.977 17.175,29.4736282 17.175,25.152 C17.175,20.8303718 20.6783718,17.327 25,17.327 C29.3216282,17.327 32.825,20.8303718 32.825,25.152 C32.825,29.4736282 29.3216282,32.977 25,32.977 Z M25,14.527 C19.1319745,14.527 14.375,19.2839745 14.375,25.152 C14.375,31.0200255 19.1319745,35.777 25,35.777 C30.8680255,35.777 35.625,31.0200255 35.625,25.152 C35.625,22.3340748 34.5055836,19.6315645 32.5130096,17.6389904 C30.5204355,15.6464164 27.8179252,14.527 25,14.527 Z" id="Shape" fill="#E0434B" fill-rule="nonzero"></path>
                    <path d="M25.437,22.506 C25.437,21.286003 26.426003,20.297 27.646,20.297 C28.865997,20.297 29.855,21.286003 29.855,22.506 C29.855,23.725997 28.865997,24.715 27.646,24.715 C26.426003,24.715 25.437,23.725997 25.437,22.506 M25.437,27.798 C25.437,26.578003 26.426003,25.589 27.646,25.589 C28.865997,25.589 29.855,26.578003 29.855,27.798 C29.855,29.017997 28.865997,30.007 27.646,30.007 C26.4267836,30.007 25.4381039,29.0192159 25.437,27.8 M20.145,27.8 C20.145,26.580003 21.134003,25.591 22.354,25.591 C23.573997,25.591 24.563,26.580003 24.563,27.8 C24.563,29.019997 23.573997,30.009 22.354,30.009 C21.7681368,30.009 21.206269,29.7762667 20.7920011,29.3619989 C20.3777333,28.947731 20.145,28.3858632 20.145,27.8 M20.145,22.508 C20.145,21.288003 21.134003,20.299 22.354,20.299 C23.573997,20.299 24.563,21.288003 24.563,22.508 C24.563,23.727997 23.573997,24.717 22.354,24.717 C21.134003,24.717 20.145,23.727997 20.145,22.508" id="Shape" fill="#E0434B" fill-rule="nonzero"></path>
                </g>
            </g>
        </g>
    </g>
</svg>