<?xml version="1.0" encoding="UTF-8"?>
<svg width="160px" height="160px" viewBox="0 0 160 160" version="1.1" xmlns="http://www.w3.org/2000/svg" xmlns:xlink="http://www.w3.org/1999/xlink">
    <title>icon-products</title>
    <g id="Numbers" stroke="none" stroke-width="1" fill="none" fill-rule="evenodd">
        <g id="Numbers---1920x1080" transform="translate(-878.000000, -5150.000000)" fill="#FFFFFF" fill-rule="nonzero">
            <g id="Why-Expense" transform="translate(0.000000, 2040.000000)">
                <g id="card-small-icon-copy-3" transform="translate(730.000000, 2684.000000)">
                    <g id="icon-products" transform="translate(148.000000, 426.000000)">
                        <path d="M70.7505072,160 L0,90 L86.6531439,4.19354838 L130.141988,0 L160,29.6774193 L157.403651,73.8709677 L70.7505072,160 Z M7.13995943,90.0000002 L70.7505072,152.903226 L152.535498,71.9354838 L155.131846,31.6129032 L128.51927,5.16129032 L88.6004062,8.70967739 L7.13995943,90.0000002 Z" id="Shape"></path>
                        <polygon id="Rectangle" transform="translate(69.291097, 91.282612) rotate(-44.732605) translate(-69.291097, -91.282612) " points="66.7838313 64.7438731 71.6374069 64.7585947 71.7983634 117.82135 66.9447877 117.806629"></polygon>
                        <polygon id="Rectangle" transform="translate(57.280214, 103.232437) rotate(-44.724503) translate(-57.280214, -103.232437) " points="54.7729441 76.6937033 59.6265271 76.7084249 59.7874832 129.771171 54.9339002 129.756449"></polygon>
                        <path d="M119.756592,54.1935484 C111.967546,54.1935484 105.801217,47.7419355 105.801217,40 C105.801217,32.2580645 112.29209,25.8064516 119.756592,25.8064516 C127.221095,25.8064516 134.036511,32.2580645 134.036511,40 C134.036511,47.7419355 127.545639,54.1935484 119.756592,54.1935484 Z M119.756592,30.6451613 C114.563895,30.6451613 110.669371,34.8387097 110.669371,40 C110.669371,45.1612903 114.563895,49.3548387 119.756592,49.3548387 C124.94929,49.3548387 129.168357,45.1612903 129.168357,40 C129.168357,34.8387097 124.94929,30.6451613 119.756592,30.6451613 Z" id="Shape"></path>
                    </g>
                </g>
            </g>
        </g>
    </g>
</svg>