<?xml version="1.0" encoding="UTF-8"?>
<svg width="208px" height="155px" viewBox="0 0 208 155" version="1.1" xmlns="http://www.w3.org/2000/svg" xmlns:xlink="http://www.w3.org/1999/xlink">
    <title>F473CE7C-231B-4A6D-8253-DA16D6273A41</title>
    <g id="Expense" stroke="none" stroke-width="1" fill="none" fill-rule="evenodd">
        <g id="Expense---1920x1080" transform="translate(-856.000000, -5293.000000)" fill="#FFFFFF" fill-rule="nonzero">
            <g id="Why-Expense" transform="translate(0.000000, 2145.000000)">
                <g id="card-small-icon-copy-3" transform="translate(732.000000, 2746.000000)">
                    <g id="icon-card-infrastructure" transform="translate(124.000000, 402.000000)">
                        <path d="M99.9084949,61.1308622 L78.1984681,87.7299017 L71.8107102,81.8422022 L104.0835,42.2985752 L136.64854,82.0927426 L130.135532,87.8551719 L108.467256,61.1308622 L108.467256,129.069068 L99.9084949,129.069068 L99.9084949,61.1308622 Z M160.61307,146.440105 L47.8879306,146.440105 C27.6576629,146.509602 10.7262606,131.109837 8.87999967,110.960647 C7.03373871,90.8114574 20.8844655,72.5902367 40.7904218,68.9811282 L47.5539301,67.7701829 L47.9296806,60.9220785 C49.5579891,31.0477024 74.253055,7.65845146 104.167,7.65845146 C134.080945,7.65845146 158.776011,31.0477024 160.40432,60.9220785 L160.78007,67.7701829 L167.543579,68.9811282 C187.417448,72.5850598 201.260605,90.7565443 199.460333,110.877266 C197.66006,130.997988 180.810955,146.422448 160.61307,146.440105 M168.96308,60.4209977 C166.55381,26.4062928 138.278016,0.0329978893 104.183539,3.0821343e-05 C70.089062,-0.0328744883 41.7623825,26.2857409 39.2874199,60.2957275 C14.9783943,64.6620905 -1.98279499,86.8582783 0.186733856,111.464673 C2.3562627,136.071068 22.9395395,154.955926 47.6374302,155 L160.36257,155 C185.060461,154.955926 205.643737,136.071068 207.813266,111.464673 C209.982795,86.8582783 193.021606,64.6620905 168.71258,60.2957275" id="Shape"></path>
                    </g>
                </g>
            </g>
        </g>
    </g>
</svg>