<?xml version="1.0" encoding="UTF-8"?>
<svg width="160px" height="160px" viewBox="0 0 160 160" version="1.1" xmlns="http://www.w3.org/2000/svg" xmlns:xlink="http://www.w3.org/1999/xlink">
    <title>icon-workflow</title>
    <g id="Numbers" stroke="none" stroke-width="1" fill="none" fill-rule="evenodd">
        <g id="Numbers---1920x1080" transform="translate(-1360.000000, -3626.000000)" fill="#3BA0DD" fill-rule="nonzero">
            <g id="Why-Expense" transform="translate(0.000000, 2040.000000)">
                <g id="card-small-icon" transform="translate(1212.000000, 1196.000000)">
                    <g id="icon-workflow" transform="translate(148.000000, 390.000000)">
                        <path d="M90.5998555,4.82819667 L92.9189753,18.511306 L93.4264836,21.5112256 L96.3430499,22.3448942 C100.754874,23.6483454 105.014798,25.4212723 109.050028,27.6333789 L111.642175,29.033556 L114.067293,27.3597811 L125.73677,19.3127867 L140.688991,34.540919 L132.424315,45.9290255 L130.574159,48.4783133 L132.157713,51.2014163 C134.424709,55.1231677 136.164653,59.3279005 137.33237,63.7064456 L138.132177,66.7160216 L141.196499,67.2245916 L155.169036,69.55822 L155.169036,90.7089402 L141.601221,92.7625332 L138.479081,93.2324777 L137.663214,96.2935544 C136.430171,100.707198 134.667807,104.9548 132.414679,108.94343 L130.991729,111.586063 L132.726251,114.02913 L141.032683,125.735898 L126.141492,140.661463 L114.459166,132.337652 L112.0212,130.599501 L109.384084,132.018991 C105.351806,134.235895 101.093954,136.013172 96.6835301,137.320351 L93.7573276,138.157238 L93.2530314,141.170033 L90.9274874,155.171803 L69.7277764,155.171803 L67.4086565,141.488694 L66.8915121,138.430836 L63.8978559,137.632574 C59.3884452,136.394359 55.0403579,134.627933 50.9435477,132.36984 L48.3064322,130.943912 L45.8652534,132.682063 L34.1861399,141.005874 L19.2788886,126.070653 L27.594957,114.363885 L29.3294788,111.917599 L27.9097406,109.278185 C25.6542072,105.288816 23.8896788,101.040116 22.654782,96.6250905 L21.8421264,93.6187334 L18.7810166,93.1069446 L4.81811612,90.7700974 L4.81811612,69.6354712 L18.7071388,67.5722218 L21.8389143,67.1087149 L22.654782,64.0412006 C23.8935368,59.5219007 25.6572513,55.1638872 27.9097406,51.0565704 L29.3455392,48.3849682 L27.5660483,45.9290255 L19.3399181,34.5956385 L34.5137718,19.6346665 L45.894162,27.6816609 L48.3289167,29.4004989 L50.953184,27.9842279 C54.933013,25.7269301 59.170484,23.9598748 63.5734361,22.7214935 L66.5767285,21.9200129 L67.0874488,18.8524986 L69.4162049,4.82819667 L90.5998555,4.82819667 M70.9451538,105.708538 L78.711957,99.6861672 L99.1793142,83.820713 L104.103429,80 L99.1793142,76.179287 L78.711957,60.310614 L70.9451538,54.2882433 L70.9451538,105.708538 M94.6695575,0 L65.3336545,0 L62.3335742,18.0252676 C57.5685189,19.3661176 52.9802528,21.2722598 48.6661849,23.7032268 L33.9998394,13.3612296 L12.9992773,34.0709745 L23.6665864,48.7680052 C21.2358024,53.2078172 19.3299479,57.9165283 17.9876335,62.7987447 L0,65.4703468 L0,94.8644081 L17.9876335,97.8707653 C19.3256841,102.64579 21.2278465,107.243656 23.6537381,111.56675 L12.986429,126.598535 L33.652935,147.30828 L48.6533365,136.618653 C53.0844594,139.050074 57.783319,140.955587 62.654782,142.296612 L65.6548623,160 L94.9875532,160 L97.9876335,141.974732 C102.732201,140.575191 107.313994,138.671738 111.655023,136.296773 L126.655424,146.986401 L147.32193,126.276656 L136.654621,111.24487 C139.086923,106.916545 140.993469,102.312027 142.333574,97.5295727 L160,94.8579705 L160,65.4703468 L142.012366,62.4639897 C140.737324,57.6673362 138.831951,53.0617096 136.346262,48.7680052 L147.013571,34.0709745 L126.334217,13.0264746 L111.333815,23.3813471 C106.992141,21.0077322 102.410495,19.1043402 97.6664258,17.7033878 L94.6695575,0 Z M75.7632699,95.8718918 L75.7632699,64.1313269 L96.2306272,80 L75.7632699,95.8718918 Z" id="Shape"></path>
                    </g>
                </g>
            </g>
        </g>
    </g>
</svg>