<?xml version="1.0" encoding="UTF-8"?>
<svg width="160px" height="128px" viewBox="0 0 160 128" version="1.1" xmlns="http://www.w3.org/2000/svg" xmlns:xlink="http://www.w3.org/1999/xlink">
    <title>icon-document-management</title>
    <g id="Frontpage" stroke="none" stroke-width="1" fill="none" fill-rule="evenodd">
        <g id="Frontpage---1920x1080" transform="translate(-860.000000, -13519.000000)" fill="#FFFFFF" fill-rule="nonzero">
            <g id="Accounts-Section" transform="translate(0.000000, 12637.000000)">
                <g id="card-small-icon-copy" transform="translate(732.000000, 698.000000)">
                    <g id="icon-document-management" transform="translate(128.000000, 184.000000)">
                        <path d="M160,17.0928 L104.2496,17.0928 C103.077339,7.34208659 94.8065264,0.00345752576 84.9856,1.42108547e-15 L75.3856,1.42108547e-15 C65.5641282,0.00202167125 57.2925,7.34137418 56.1216,17.0928 L0,17.0928 L0,53.2672 C0.00635300868,59.154464 1.66979078,64.9210483 4.8,69.9072 L4.8,128 L155.2,128 L155.2,69.8992 C158.330209,64.9130483 159.993647,59.146464 160,53.2592 L160,17.0928 Z M65.0752,9.04 C67.8119579,6.30972826 71.5198236,4.77629219 75.3856,4.776 L84.9856,4.776 C88.8505462,4.77573746 92.5576203,6.30932213 95.2928,9.04 C97.4751645,11.2199973 98.9007292,14.0425257 99.36,17.0928 L61.008,17.0928 C61.4699833,14.043391 62.8951418,11.2216668 65.0752,9.04 L65.0752,9.04 Z M9.6,123.2304 L9.6,75.9056 C15.5780045,81.7762352 23.6214026,85.0659851 32,85.0672 L40.4,85.0672 L40.4,94.608 L45.2,94.608 L45.2,85.0688 L114.4,85.0688 L114.4,94.608 L119.2,94.608 L119.2,85.0688 L128,85.0688 C136.378597,85.0675851 144.421996,81.7778352 150.4,75.9072 L150.4,123.2304 L9.6,123.2304 Z M155.2,53.2672 C155.136507,68.2355445 142.968449,80.3277316 128,80.2976562 L119.2,80.2976562 L119.2,72.3472 L114.4,72.3472 L114.4,80.2976562 L45.2,80.2976562 L45.2,72.3472 L40.4,72.3472 L40.4,80.2976562 L32,80.2976562 C17.0315511,80.3277316 4.86349263,68.2355445 4.8,53.2672 L4.8,21.864 L155.2,21.864 L155.2,53.2672 Z" id="Path_348"></path>
                    </g>
                </g>
            </g>
        </g>
    </g>
</svg>