<?xml version="1.0" encoding="UTF-8"?>
<svg width="280px" height="280px" viewBox="0 0 280 280" version="1.1" xmlns="http://www.w3.org/2000/svg" xmlns:xlink="http://www.w3.org/1999/xlink">
    <title>2AC38646-2255-4C17-9BB0-0D3A578FD3A9</title>
    <g id="People" stroke="none" stroke-width="1" fill="none" fill-rule="evenodd">
        <g id="People---1920x1080" transform="translate(-812.000000, -5441.000000)">
            <g id="Why-People" transform="translate(0.000000, 2343.000000)">
                <g id="card-small-icon-copy-2" transform="translate(732.000000, 2746.000000)">
                    <g id="icon-card-union-agreements" transform="translate(80.000000, 352.000000)">
                        <rect id="Rectangle_1082" opacity="0.8" x="0" y="0" width="280" height="280"></rect>
                        <path d="M138.409091,141.060606 C117.028977,141.060606 99.6969697,123.728599 99.6969697,102.348485 C99.6969697,80.9683707 117.028977,63.6363636 138.409091,63.6363636 C159.789205,63.6363636 177.121212,80.9683707 177.121212,102.348485 C177.114845,123.725961 159.786567,141.054239 138.409091,141.060606 L138.409091,141.060606 Z M138.409091,70.0903064 C120.593391,70.0903064 106.150912,84.5327848 106.150912,102.348485 C106.150912,120.164185 120.593391,134.606663 138.409091,134.606663 C156.224791,134.606663 170.667269,120.164185 170.667269,102.348485 C170.613431,84.555133 156.202443,70.1441444 138.409091,70.0903064 Z" id="Path_304" fill="#CF4E95" fill-rule="nonzero"></path>
                        <path d="M214.242424,218.484848 L207.771428,218.484848 C207.771428,181.641479 177.903976,151.774026 141.060606,151.774026 C104.217236,151.774026 74.3497839,181.641479 74.3497839,218.484848 L67.8787879,218.484848 C67.8787879,178.067646 100.643404,145.30303 141.060606,145.30303 C181.477808,145.30303 214.242424,178.067646 214.242424,218.484848 Z" id="Path_305" fill="#CF4E95" fill-rule="nonzero"></path>
                        <path d="M210,160.151515 C194.184573,160.151515 181.363636,147.330578 181.363636,131.515152 C181.363636,115.699725 194.184573,102.878788 210,102.878788 C225.815427,102.878788 238.636364,115.699725 238.636364,131.515152 C238.619763,147.323697 225.808546,160.134915 210,160.151515 Z M210,110.034867 C197.903893,110.034867 188.098061,119.840699 188.098061,131.936806 C188.098061,144.032913 197.903893,153.838745 210,153.838745 C222.096107,153.838745 231.901939,144.032913 231.901939,131.936806 C231.695939,119.927062 222.009744,110.240867 210,110.034867 L210,110.034867 Z" id="Path_306" fill="#CF4E95" fill-rule="nonzero"></path>
                        <path d="M235.46995,176.060606 C227.966929,170.310437 219.062499,167.224466 209.938954,167.212437 C202.589746,167.333052 195.360789,169.297247 188.795296,172.957427 L185.606061,166.770029 C192.952702,162.364308 201.185723,160.088034 209.539586,160.152862 C219.94364,160.198958 230.089944,163.742801 238.636364,170.315616 L235.46995,176.060606 Z" id="Path_307" fill="#CF4E95" fill-rule="nonzero"></path>
                        <path d="M66.8181818,160.151515 C51.0027549,160.151515 38.1818182,147.330578 38.1818182,131.515152 C38.1818182,115.699725 51.0027549,102.878788 66.8181818,102.878788 C82.6336087,102.878788 95.4545455,115.699725 95.4545455,131.515152 C95.4379451,147.323697 82.6267275,160.134915 66.8181818,160.151515 Z M66.8181818,110.034867 C57.9591263,110.034867 49.9725037,115.371755 46.582853,123.556689 C43.1932022,131.741622 45.0681434,141.162509 51.3333031,147.425945 C57.5984629,153.689382 67.0198651,155.561732 75.2038657,152.16983 C83.3878663,148.777928 88.7225573,140.789838 88.7201209,131.930782 C88.758944,126.110764 86.4636992,120.51795 82.3476669,116.40305 C78.2316347,112.288149 72.6381896,109.994443 66.8181818,110.034867 Z" id="Path_308" fill="#CF4E95" fill-rule="nonzero"></path>
                        <path d="M42.8843132,176.060606 L39.2424242,170.151227 C47.7180454,163.669133 57.7288391,160.186602 67.9838179,160.15274 C76.4627312,160.090046 84.8180623,162.435944 92.2727273,166.972254 L89.036136,173.336701 C82.4605305,169.3124 75.0662904,167.276043 67.5785202,167.427322 C58.7986355,167.713944 50.2571274,170.700121 42.8843132,176.060606 L42.8843132,176.060606 Z" id="Path_309" fill="#CF4E95" fill-rule="nonzero"></path>
                    </g>
                </g>
            </g>
        </g>
    </g>
</svg>