<?xml version="1.0" encoding="UTF-8"?>
<svg width="380px" height="380px" viewBox="0 0 380 380" version="1.1" xmlns="http://www.w3.org/2000/svg" xmlns:xlink="http://www.w3.org/1999/xlink">
    <title>app-store-icon-ACCOUNTS</title>
    <defs>
        <filter color-interpolation-filters="auto" id="filter-1">
            <feColorMatrix in="SourceGraphic" type="matrix" values="0 0 0 0 0.964706 0 0 0 0 0.968627 0 0 0 0 0.976471 0 0 0 1.000000 0"></feColorMatrix>
        </filter>
        <linearGradient x1="71.9594322%" y1="100.609545%" x2="27.9573885%" y2="-0.611044688%" id="linearGradient-2">
            <stop stop-color="#3E9ED8" offset="10.95%"></stop>
            <stop stop-color="#CF4E95" offset="89.95%"></stop>
        </linearGradient>
    </defs>
    <g id="app-store-icon-ACCOUNTS" stroke="none" stroke-width="1" fill="none" fill-rule="evenodd">
        <g id="app-store-icon">
            <path d="M0,264.1 L0,115.9 C0,79.1666667 1.26666667,49.4 25.3333333,25.3333333 C49.4,1.26666667 79.1666667,0 115.9,0 L264.1,0 C300.833333,0 330.6,1.26666667 354.666667,25.3333333 C378.733333,49.4 380,79.1666667 380,115.9 L380,264.1 C380,300.833333 378.733333,330.6 354.666667,354.666667 C330.6,378.733333 300.833333,380 264.1,380 L115.9,380 C79.1666667,380 49.4,378.733333 25.3333333,354.666667 C1.26666667,330.6 0,300.833333 0,264.1 Z" id="app-icon-base" fill="#AAAAAA"></path>
            <path d="M12,259.42 L12,120.58 C12,86.1666667 13.1866667,58.28 35.7333333,35.7333333 C58.28,13.1866667 86.1666667,12 120.58,12 L259.42,12 C293.833333,12 321.72,13.1866667 344.266667,35.7333333 C366.813333,58.28 368,86.1666667 368,120.58 L368,259.42 C368,293.833333 366.813333,321.72 344.266667,344.266667 C321.72,366.813333 293.833333,368 259.42,368 L120.58,368 C86.1666667,368 58.28,366.813333 35.7333333,344.266667 C13.1866667,321.72 12,293.833333 12,259.42 Z" id="app-icon-base" fill="#1F2227"></path>
        </g>
        <g id="Z-Zenegy" transform="translate(91.000000, 65.000000)" filter="url(#filter-1)">
            <g fill="url(#linearGradient-2)" fill-rule="nonzero" id="Shape">
                <path d="M36.3665107,249.995418 C21.0787798,250.245409 7.22427369,240.245775 2.20798698,224.996334 C-3.04717051,209.996884 1.73024539,193.247498 13.912656,183.747846 L174.19496,54.2525935 C181.361084,48.7527951 184.227533,38.7531617 181.122213,30.0034824 C178.255763,21.0038123 169.895285,15.0040323 160.818195,15.2540231 L36.3665107,15.2540231 C27.2894205,15.0040323 19.1678135,21.0038123 16.0624931,30.0034824 C12.9571728,38.7531617 15.8236223,48.7527951 22.9897462,54.5025843 L43.054893,70.7519886 C46.1602133,73.251897 46.6379549,78.0017229 44.249247,81.2516037 C44.249247,81.2516037 44.249247,81.2516037 44.249247,81.2516037 C41.6216682,84.5014846 37.0831231,85.0014663 33.9778028,82.5015579 L13.912656,66.2521536 C1.73024539,56.502511 -3.04717051,39.753125 1.96911619,25.0036657 C7.22427369,9.75422471 20.839909,-0.245408724 36.3665107,0.00458211182 L160.818195,0.00458211182 C176.105926,-0.245408724 189.721561,10.0042155 194.737848,25.0036657 C199.993006,40.0031158 195.21559,56.7525018 183.033179,66.2521536 L22.9897462,195.747407 C15.8236223,201.247205 12.9571728,211.246838 16.0624931,219.996518 C18.9289427,228.996188 27.2894205,234.995968 36.3665107,234.745977 L160.818195,234.745977 C169.895285,234.995968 178.016892,228.996188 181.122213,219.996518 C184.227533,211.246838 181.361084,201.247205 174.19496,195.747407 L153.4132,178.998021 C150.30788,176.498112 149.591268,171.748286 151.979976,168.498405 C151.979976,168.498405 151.979976,168.498405 151.979976,168.248415 C154.368684,164.748543 159.1461,163.99857 162.490291,166.498479 L183.27205,183.247865 C195.45446,192.997507 200.231876,209.996884 194.737848,224.996334 C189.721561,239.995784 176.105926,249.995418 161.057066,249.995418 L36.3665107,249.995418 Z M22.5120046,142.749349 C20.3621674,142.749349 18.2123303,141.749386 16.7791055,139.99945 C14.6292683,136.749569 15.1070099,132.249734 17.9734595,129.749826 L104.683558,59.7523919 L71.2416468,59.7523919 C67.1808433,60.2523735 63.5977814,57.2524835 63.1200398,53.0026393 C62.6422982,48.7527951 65.5087478,45.0029326 69.5695513,44.5029509 C70.0472929,44.5029509 70.5250345,44.5029509 71.2416468,44.5029509 L119.971289,44.5029509 C124.032093,44.5029509 127.376284,47.0028592 128.809509,51.0027126 C130.242733,54.7525751 129.048379,59.2524102 125.704188,61.7523185 L26.5728081,140.999413 C25.3784541,141.999377 23.9452294,142.499359 22.5120046,142.749349 Z M76.4968043,205.247058 C72.4360008,205.247058 69.0918097,202.74715 67.6585849,198.747297 C66.2253601,194.747443 67.6585849,190.497599 70.7639053,187.997691 L169.656415,108.000623 C172.761735,105.500715 177.539151,106.000696 179.927859,109.250577 C182.555437,112.500458 182.077696,117.250284 178.972376,119.750192 C178.733505,120.000183 178.494634,120.000183 178.494634,120.250174 L91.7845352,190.247608 L122.359997,190.247608 C126.420801,189.747626 130.003863,192.747516 130.481604,196.997361 C130.959346,201.247205 128.092896,204.997067 124.032093,205.497049 C123.554351,205.497049 123.076609,205.497049 122.359997,205.497049 L76.4968043,205.247058 Z"></path>
            </g>
        </g>
    </g>
</svg>