<?xml version="1.0" encoding="UTF-8"?>
<svg width="160px" height="160px" viewBox="0 0 160 160" version="1.1" xmlns="http://www.w3.org/2000/svg" xmlns:xlink="http://www.w3.org/1999/xlink">
    <title>16375018-524C-4C6F-BA27-9745C898195E</title>
    <g id="Numbers" stroke="none" stroke-width="1" fill="none" fill-rule="evenodd">
        <g id="Numbers---1920x1080" transform="translate(-1360.000000, -3794.000000)" fill="#3BA0DD" fill-rule="nonzero">
            <g id="Why-Expense" transform="translate(0.000000, 2208.000000)">
                <g id="card-small-icon" transform="translate(1212.000000, 1196.000000)">
                    <g id="icon-card-automation" transform="translate(148.000000, 390.000000)">
                        <path d="M90.5998555,4.81811612 L92.9189753,18.4726572 L93.4264836,21.4663133 L96.3430499,22.2982414 C100.754874,23.5989712 105.014798,25.3681965 109.050028,27.5756846 L111.642175,28.9729382 L114.067293,27.302658 L125.73677,19.2724645 L140.688991,34.4688027 L132.424315,45.8331326 L130.574159,48.3770979 L132.157713,51.0945154 C134.424709,55.0080788 136.164653,59.2040327 137.33237,63.5734361 L138.132177,66.5767285 L141.196499,67.0842367 L155.169036,69.4129929 L155.169036,90.5195535 L141.601221,92.5688589 L138.479081,93.0378222 L137.663214,96.0925078 C136.430171,100.496937 134.667807,104.73567 132.414679,108.715972 L130.991729,111.353088 L132.726251,113.791054 L141.032683,125.47338 L126.141492,140.367783 L114.459166,132.061351 L112.0212,130.326829 L109.384084,131.743355 C105.351806,133.955631 101.093954,135.729197 96.6835301,137.033647 L93.7573276,137.868787 L93.2530314,140.875291 L90.9274874,154.847828 L69.7277764,154.847828 L67.4086565,141.193287 L66.8915121,138.141813 L63.8978559,137.345218 C59.3884452,136.109588 55.0403579,134.34685 50.9435477,132.093471 L48.3064322,130.670521 L45.8652534,132.405043 L34.1861399,140.711475 L19.2788886,125.807436 L27.594957,114.12511 L29.3294788,111.683932 L27.9097406,109.050028 C25.6542072,105.068989 23.8896788,100.829159 22.654782,96.4233518 L21.8421264,93.4232715 L18.7810166,92.9125512 L4.81811612,90.580583 L4.81811612,69.4900827 L18.7071388,67.4311411 L21.8389143,66.9686019 L22.654782,63.9074922 C23.8935368,59.3976279 25.6572513,55.0487133 27.9097406,50.9499719 L29.3455392,48.2839476 L27.5660483,45.8331326 L19.3399181,34.523408 L34.5137718,19.5936722 L45.894162,27.6238657 L48.3289167,29.3391151 L50.953184,27.925801 C54.933013,25.6732161 59.170484,23.9098501 63.5734361,22.6740544 L66.5767285,21.8742472 L67.0874488,18.8131374 L69.4162049,4.81811612 L90.5998555,4.81811612 M70.9451538,105.487834 L78.711957,99.4780374 L99.1793142,83.6457079 L104.103429,79.832972 L99.1793142,76.0202361 L78.711957,60.1846945 L70.9451538,54.1748976 L70.9451538,105.487834 M94.6695575,0 L65.3336545,0 L62.3335742,17.9876335 C57.5685189,19.3256841 52.9802528,21.2278465 48.6661849,23.6537381 L33.9998394,13.3333333 L12.9992773,33.9998394 L23.6665864,48.6661849 C21.2358024,53.0967273 19.3299479,57.7956073 17.9876335,62.6676303 L0,65.3336545 L0,94.6663455 L17.9876335,97.6664258 C19.3256841,102.431481 21.2278465,107.019747 23.6537381,111.333815 L12.986429,126.334217 L33.652935,147.000723 L48.6533365,136.333414 C53.0844594,138.759759 57.783319,140.661293 62.654782,141.999518 L65.6548623,159.665944 L94.9875532,159.665944 L97.9876335,141.67831 C102.732201,140.281691 107.313994,138.382212 111.655023,136.012206 L126.655424,146.679515 L147.32193,126.013009 L136.654621,111.012607 C139.086923,106.693319 140.993469,102.098415 142.333574,97.3259456 L160,94.6599213 L160,65.3336545 L142.012366,62.3335742 C140.737324,57.5469355 138.831951,52.9509247 136.346262,48.6661849 L147.013571,33.9998394 L126.334217,12.9992773 L111.333815,23.3325303 C106.992141,20.9638712 102.410495,19.0644532 97.6664258,17.6664258 L94.6695575,0 Z M75.7632699,95.6717257 L75.7632699,63.9974303 L96.2306272,79.832972 L75.7632699,95.6717257 Z" id="Shape"></path>
                    </g>
                </g>
            </g>
        </g>
    </g>
</svg>