<?xml version="1.0" encoding="UTF-8"?>
<svg width="160px" height="141px" viewBox="0 0 160 141" version="1.1" xmlns="http://www.w3.org/2000/svg" xmlns:xlink="http://www.w3.org/1999/xlink">
    <title>59D08A67-5AA8-4266-B8E5-996F03C73297</title>
    <g id="Accounts" stroke="none" stroke-width="1" fill="none" fill-rule="evenodd">
        <g id="Accounts---1920x1080" transform="translate(-392.000000, -3874.000000)" fill="#979797" fill-rule="nonzero">
            <g id="Why-Expense" transform="translate(0.000000, 2208.000000)">
                <g id="card-small-icon" transform="translate(252.000000, 1196.000000)">
                    <g id="icon-card-reporting" transform="translate(140.000000, 470.000000)">
                        <rect id="Rectangle" x="2" y="111" width="157" height="5"></rect>
                        <rect id="Rectangle" x="2" y="136" width="157" height="5"></rect>
                        <g id="Group">
                            <path d="M15.7377049,92 C6.8852459,92 0,85.1 0,76.5571429 C0,68.0142857 7.21311475,60.7857143 15.7377049,60.7857143 C24.2622951,60.7857143 31.4754098,67.6857143 31.4754098,76.2285714 C31.4754098,84.7714286 24.5901639,92 15.7377049,92 Z M15.7377049,65.7142857 C9.83606557,65.7142857 4.91803279,70.3142857 4.91803279,76.2285714 C4.91803279,82.1428571 9.83606557,87.0714286 15.7377049,87.0714286 C21.6393443,87.0714286 26.557377,82.4714286 26.557377,76.5571429 C26.557377,70.6428571 21.6393443,65.7142857 15.7377049,65.7142857 Z" id="Shape"></path>
                            <path d="M58.6885246,40.4142857 C49.8360656,40.4142857 42.9508197,33.5142857 42.9508197,24.9714286 C42.9508197,16.4285714 50.1639344,9.52857143 58.6885246,9.52857143 C67.2131148,9.52857143 74.4262295,16.4285714 74.4262295,24.9714286 C74.4262295,33.5142857 67.2131148,40.4142857 58.6885246,40.4142857 Z M58.6885246,14.4571429 C52.7868852,14.4571429 47.8688525,19.0571429 47.8688525,24.9714286 C47.8688525,30.8857143 52.7868852,35.4857143 58.6885246,35.4857143 C64.5901639,35.4857143 69.5081967,30.8857143 69.5081967,24.9714286 C69.5081967,19.0571429 64.5901639,14.4571429 58.6885246,14.4571429 Z" id="Shape"></path>
                            <path d="M101.311475,72.9428571 C92.4590164,72.9428571 85.5737705,66.0428571 85.5737705,57.5 C85.5737705,48.9571429 92.7868852,42.0571429 101.311475,42.0571429 C109.836066,42.0571429 117.04918,48.9571429 117.04918,57.5 C117.04918,66.0428571 110.163934,72.9428571 101.311475,72.9428571 Z M101.311475,46.9857143 C95.4098361,46.9857143 90.4918033,51.5857143 90.4918033,57.5 C90.4918033,63.4142857 95.4098361,68.0142857 101.311475,68.0142857 C107.213115,68.0142857 112.131148,63.4142857 112.131148,57.5 C112.131148,51.5857143 107.540984,46.9857143 101.311475,46.9857143 Z" id="Shape"></path>
                            <path d="M144.262295,30.8857143 C135.409836,30.8857143 128.52459,23.9857143 128.52459,15.4428571 C128.52459,6.9 135.737705,0 144.262295,0 C152.786885,0 160,6.9 160,15.4428571 C160,23.9857143 152.786885,30.8857143 144.262295,30.8857143 Z M144.262295,4.6 C138.360656,4.6 133.442623,9.2 133.442623,15.1142857 C133.442623,21.0285714 138.360656,25.6285714 144.262295,25.6285714 C150.163934,25.6285714 155.081967,21.0285714 155.081967,15.1142857 C155.081967,9.2 150.163934,4.6 144.262295,4.6 Z" id="Shape"></path>
                            <polygon id="Rectangle" transform="translate(36.586770, 50.153636) rotate(-52.136574) translate(-36.586770, -50.153636) " points="16.2336878 47.7136677 56.94496 47.6714514 56.9398532 52.5936037 16.228581 52.6358201"></polygon>
                            <polygon id="Rectangle" transform="translate(79.307754, 42.310225) rotate(-54.302468) translate(-79.307754, -42.310225) " points="76.8592717 28.5323302 81.7842024 28.5273364 81.7562365 56.0881198 76.8313058 56.0931136"></polygon>
                            <polygon id="Rectangle" transform="translate(123.156541, 36.560554) rotate(-42.913092) translate(-123.156541, -36.560554) " points="106.256856 34.1167119 140.061481 34.0806245 140.056226 39.0043953 106.251601 39.0404826"></polygon>
                        </g>
                    </g>
                </g>
            </g>
        </g>
    </g>
</svg>