<?xml version="1.0" encoding="UTF-8"?>
<svg width="160px" height="120px" viewBox="0 0 160 120" version="1.1" xmlns="http://www.w3.org/2000/svg" xmlns:xlink="http://www.w3.org/1999/xlink">
    <title>icon-infrastructure</title>
    <g id="Expense" stroke="none" stroke-width="1" fill="none" fill-rule="evenodd">
        <g id="Expense---1920x1080" transform="translate(-880.000000, -5178.000000)" fill="#FFFFFF" fill-rule="nonzero">
            <g id="Why-Expense" transform="translate(0.000000, 1975.000000)">
                <g id="card-small-icon-copy-3" transform="translate(732.000000, 2746.000000)">
                    <g id="icon-infrastructure" transform="translate(148.000000, 457.000000)">
                        <path d="M76.8526884,47.3271191 L60.1526677,67.9199239 L55.2390078,63.3617049 L80.0642308,32.747284 L105.114262,63.5556717 L100.104256,68.0169073 L83.4363504,47.3271191 L83.4363504,99.9244399 L76.8526884,99.9244399 L76.8526884,47.3271191 Z M123.548515,113.372985 L36.8368697,113.372985 C21.2751253,113.426789 8.25096972,101.50439 6.83076898,85.905017 C5.41056824,70.3056444 16.0649734,56.1988929 31.3772475,53.4047444 L36.5799463,52.4672384 L36.8689851,47.1654802 C38.1215301,24.0369309 57.1177346,5.92912371 80.1284617,5.92912371 C103.139189,5.92912371 122.135393,24.0369309 123.387938,47.1654802 L123.676977,52.4672384 L128.879676,53.4047444 C144.167268,56.194885 154.81585,70.2631311 153.431025,85.8404642 C152.0462,101.417797 139.08535,113.359314 123.548515,113.372985 M129.9716,46.7775466 C128.118316,20.4435815 106.367705,0.025546753 80.141184,2.38616849e-05 C53.9146631,-0.0254512167 32.1249096,20.350251 30.2210922,46.6805632 C11.5218418,50.0609733 -1.52522691,67.2451187 0.143641428,86.2952308 C1.81250977,105.345343 17.6457996,119.965878 36.6441771,120 L123.355823,120 C142.3542,119.965878 158.18749,105.345343 159.856359,86.2952308 C161.525227,67.2451187 148.478158,50.0609733 129.778908,46.6805632" id="Shape"></path>
                    </g>
                </g>
            </g>
        </g>
    </g>
</svg>