<?xml version="1.0" encoding="UTF-8"?>
<svg width="160px" height="124px" viewBox="0 0 160 124" version="1.1" xmlns="http://www.w3.org/2000/svg" xmlns:xlink="http://www.w3.org/1999/xlink">
    <title>icon-union-agreements</title>
    <g id="People" stroke="none" stroke-width="1" fill="none" fill-rule="evenodd">
        <g id="People---1920x1080" transform="translate(-880.000000, -5158.000000)" fill="#CF4E95" fill-rule="nonzero">
            <g id="Why-People" transform="translate(0.000000, 1980.000000)">
                <g id="card-small-icon-copy-2" transform="translate(732.000000, 2684.000000)">
                    <g id="icon-union-agreements" transform="translate(148.000000, 494.000000)">
                        <path d="M80,62 C62.9346934,62 49.1005291,48.1208272 49.1005291,31 C49.1005291,13.8791728 62.9346934,0 80,0 C97.0653066,0 110.899471,13.8791728 110.899471,31 C110.894389,48.1187149 97.063201,61.9949014 80,62 L80,62 Z M80,5.1682062 C65.7797587,5.1682062 54.2519755,16.7334942 54.2519755,31 C54.2519755,45.2665058 65.7797587,56.8317938 80,56.8317938 C94.2202413,56.8317938 105.748025,45.2665058 105.748025,31 C105.705052,16.7513902 94.2024033,5.21131878 80,5.1682062 Z" id="Path_304"></path>
                        <path d="M140.529101,124 L135.364042,124 C135.364042,94.496464 111.524262,70.5791224 82.1164021,70.5791224 C52.7085424,70.5791224 28.8687617,94.496464 28.8687617,124 L23.7037037,124 C23.7037037,91.6346006 49.8559596,65.3972603 82.1164021,65.3972603 C114.376845,65.3972603 140.529101,91.6346006 140.529101,124 Z" id="Path_305"></path>
                        <path d="M137.142857,77.2876712 C124.519206,77.2876712 114.285714,67.0208859 114.285714,54.3561644 C114.285714,41.6914429 124.519206,31.4246575 137.142857,31.4246575 C149.766509,31.4246575 160,41.6914429 160,54.3561644 C159.98675,67.0153755 149.761016,77.2743779 137.142857,77.2876712 Z M137.142857,37.1551224 C127.487915,37.1551224 119.661037,45.0074639 119.661037,54.693818 C119.661037,64.3801722 127.487915,72.2325136 137.142857,72.2325136 C146.7978,72.2325136 154.624677,64.3801722 154.624677,54.693818 C154.460251,45.0766218 146.728866,37.3200837 137.142857,37.1551224 L137.142857,37.1551224 Z" id="Path_306"></path>
                        <path d="M157.472613,90.0273973 C151.483807,85.4227605 144.376416,82.9515683 137.094131,82.9419358 C131.228097,83.0385219 125.458045,84.6114162 120.21756,87.5424247 L117.671958,82.5876628 C123.535944,79.0596378 130.107425,77.2368365 136.775361,77.2887498 C145.079731,77.3256628 153.178368,80.1635108 160,85.4269084 L157.472613,90.0273973 Z" id="Path_307"></path>
                        <path d="M22.8571429,77.2876712 C10.2334914,77.2876712 1.58800662e-14,67.0208859 1.58800662e-14,54.3561644 C1.58800662e-14,41.6914429 10.2334914,31.4246575 22.8571429,31.4246575 C35.4807943,31.4246575 45.7142857,41.6914429 45.7142857,54.3561644 C45.7010355,67.0153755 35.4753018,77.2743779 22.8571429,77.2876712 Z M22.8571429,37.1551224 C15.7859693,37.1551227 9.41115946,41.4288108 6.70558786,47.9831644 C4.00001626,54.537518 5.496568,62.081602 10.4973304,67.0972542 C15.4980928,72.1129063 23.0181236,73.6122518 29.5504778,70.8960751 C36.082832,68.1798983 40.3409074,61.7831732 40.3389627,54.6889944 C40.3699508,50.0284237 38.5379186,45.5497946 35.2525595,42.2546533 C31.9672005,38.9595121 27.5025913,37.1227515 22.8571429,37.1551224 Z" id="Path_308"></path>
                        <path d="M3.75346538,90.0273973 L0.846560847,85.2952682 C7.61168251,80.1045192 15.6021573,77.3157683 23.7875372,77.2886517 C30.5552866,77.2384481 37.2243944,79.1170027 43.1746032,82.7496015 L40.5912015,87.8461409 C35.3426457,84.6235504 29.4406672,82.9928707 23.4640343,83.1140118 C16.4560537,83.3435341 9.63834206,85.734813 3.75346538,90.0273973 L3.75346538,90.0273973 Z" id="Path_309"></path>
                    </g>
                </g>
            </g>
        </g>
    </g>
</svg>