<svg height="254" viewBox="0 0 219 254" width="219" xmlns="http://www.w3.org/2000/svg"><g fill="none" fill-rule="evenodd"><g transform="translate(0 144)"><path d="m0 50.04v-28.08c0-6.96.24-12.6 4.8-17.16 4.56-4.56 10.2-4.8 17.16-4.8h28.08c6.96 0 12.6.24 17.16 4.8s4.8 10.2 4.8 17.16v28.08c0 6.96-.24 12.6-4.8 17.16s-10.2 4.8-17.16 4.8h-28.08c-6.96 0-12.6-.24-17.16-4.8-4.56-4.56-4.8-10.2-4.8-17.16z" fill="#a358d0"/><path d="m2.274 49.1532v-26.3064c0-6.5208.2244-11.8044 4.4964-16.08s9.5568-4.4928 16.0764-4.4928h26.3064c6.5208 0 11.8044.2244 16.08 4.4964s4.4964 9.5556 4.4964 16.08v26.3028c0 6.5208-.2244 11.8044-4.4964 16.08s-9.5556 4.4964-16.08 4.4964h-26.3064c-6.5208 0-11.8044-.2244-16.08-4.4964s-4.4928-9.5592-4.4928-16.08z" fill="#1f2227"/><g fill-rule="nonzero"><path d="m6.9208354 47.998784c-2.97632628.0124678-5.61291071-1.9340047-6.50113512-4.7994975-1.00595846-2.8497933-.11008061-6.0295459 2.23133712-7.9197181l30.4985571-24.8632699c1.3827617-1.1068378 1.91556-2.9776294 1.3260242-4.65601113-.5225133-1.70450429-2.0962263-2.85769562-3.8647578-2.83203186h-23.6900255c-1.76423378-.01207555-3.33076214 1.13585101-3.86475787 2.83203186-.58444715 1.6919416-.05745037 3.57194763 1.31879136 4.70465063l3.82136072 3.1190046c.58870227.5075806.68818473 1.3878976.22783507 2.0161051-.2258347.2959221-.55979962.4882288-.9272385.5339306-.36743889.0457019-.73771125-.059012-1.02804449-.2907334l-3.81774429-3.1226525c-2.32240578-1.9023565-3.23006532-5.05911948-2.27714523-7.91971814.908098-2.87124751 3.55920031-4.81523607 6.54694323-4.80079434h23.6876145c2.959355.0088659 5.5718888 1.95090674 6.4565325 4.79957835 1.0073448 2.84937792.1129111 6.02964663-2.2277207 7.92093413l-30.46239281 24.8620538c-1.38014169 1.1087039-1.90994183 2.9791706-1.31879136 4.6560112.52251334 1.7045043 2.09622633 2.8576956 3.86475787 2.8320318h23.6876145c1.7651214.0131455 3.3329097-1.134988 3.8671688-2.8320318.5895358-1.6783817.0567375-3.5491733-1.3260242-4.6560112l-3.9551686-3.2162835c-.5963459-.4989081-.7113754-1.3768332-.2639994-2.0148891v-.0474235c.2155005-.3196423.5513209-.5363702.9293457-.5997705.3780249-.0634003.7653016.0320537 1.0717454.2641583l3.9551687 3.2162835c2.3440558 1.931434 3.2195374 5.1477262 2.1819125 8.0157811-.8923789 2.8232603-3.473369 4.7555624-6.4107243 4.7994975zm-2.63637725-20.5915103c-.42327552-.0038727-.82297167-.1972213-1.09095629-.527738-.41365066-.6231967-.31707027-1.4572149.22783507-1.9674657l16.50297417-13.4390795h-6.3649163c-.3766306.0405797-.7535133-.0742912-1.0448481-.3184615s-.4723291-.596861-.5017783-.9777798c-.1065117-.79209791.442272-1.52185077 1.2271752-1.63185343h9.5931825c.7724436.02442268 1.4477597.53233494 1.6914207 1.27213519.2436611.73980024.0039198 1.55437424-.6004644 2.04021124l-18.86209187 15.2144193c-.22494047.1796917-.49335929.2955514-.77753238.3356122zm10.27548225 11.9993518c-.7722667.0004538-1.4555135-.5046339-1.6876672-1.2476018-.2615075-.7455791-.0241108-1.5763807.5906835-2.0671766l18.8283385-15.3554737c.2898349-.2330159.6604524-.3385435 1.028296-.2927912.3678437.0457522.7019475.2389327.926987.5359884.4977218.6086658.4165106 1.5081501-.182027 2.0161052-.0458081.0474234-.0904107.0474234-.0904107.0960629l-16.5053851 13.4354315h5.8200408c.3750803-.0395602.7501438.0749767 1.0404904.3177451.2903467.2427684.4714889.5932933.5025196.9724163.1065118.7920979-.4422719 1.5218508-1.2271751 1.6318534h-.3158349z" fill="#f1e6f7" transform="translate(17.25 10.5)"/><path d="m11.8476562 106v-1.379883h-6.44238276v-4.535156h5.54589846v-1.3798829h-5.54589846v-4.1132812h6.35449216v-1.3886719h-8.04199216v12.796875zm2.8652344 0 2.1972656-3.55957 2.1972657 3.55957h1.8808593l-3.2080078-4.807617 3.1113282-4.7021486h-1.8984375l-2.109375 3.4716797-2.0830079-3.4716797h-1.8808593l3.1113281 4.7021486-3.2080078 4.807617zm9.5273438 3.65625v-4.579102c.3222656.357422.7075195.629883 1.1557617.817383s.9711914.28125 1.5688477.28125c.5859374 0 1.1074218-.120117 1.5644531-.360351.4570312-.240235.8422851-.575684 1.1557617-1.006348s.5522461-.94043.7163086-1.529297.2460937-1.231933.2460937-1.929199v-.18457c0-.726563-.0805664-1.3872074-.2416992-1.981934-.1611328-.5947265-.3999023-1.1044922-.7163086-1.5292968-.3164062-.4248047-.7045898-.7543946-1.1645508-.9887696-.4599609-.234375-.9887695-.3515625-1.5864257-.3515625-.6035157 0-1.1337891.1054688-1.5908204.3164063-.4570312.2109375-.8466796.515625-1.1689453.9140625l-.0791015-1.0546875h-1.4853516v13.1660156zm2.2324218-4.807617c-.28125 0-.5361328-.032227-.7646484-.09668s-.4335937-.153808-.6152344-.268066c-.1816406-.114258-.3427734-.251953-.4833984-.413086s-.2636719-.335449-.3691406-.522949v-4.5439458c.1054687-.1875.2285156-.3618164.3691406-.5229492s.3017578-.3002929.4833984-.4174804c.1816407-.1171875.3852539-.2080078.6108399-.272461.2255859-.0644531.4760742-.0966797.7514648-.0966797.4453125 0 .8291016.0922852 1.1513672.2768555s.5888672.4350586.7998047.7514648c.2109375.3164063.3662109.6840821.4658203 1.1030274.0996094.4189454.1494141.8657224.1494141 1.3403324v.18457c0 .474609-.0498047.924316-.1494141 1.349121s-.2548828.79541-.4658203 1.111816c-.2109375.316407-.4760742.56836-.7954102.75586-.3193359.1875-.6987304.28125-1.1381836.28125zm10.1865235 1.327148c.4746094 0 .8994141-.051269 1.2744141-.153808s.7075195-.240235.9975585-.413086c.2900391-.172852.5434571-.369141.7602539-.588867.2167969-.219727.4013672-.446778.553711-.681153l-.9931641-.773437c-.2988281.386718-.6474609.697265-1.0458984.93164s-.8847656.351563-1.4589844.351563c-.4335937 0-.8217773-.082031-1.1645508-.246094-.3427734-.164062-.6357422-.386719-.8789062-.667969-.2431641-.28125-.4306641-.612304-.5625-.993164-.131836-.380859-.2036133-.791015-.2153321-1.230468h6.4423829v-.729493c0-.667968-.0761719-1.2861325-.2285157-1.8544919-.1523437-.5683593-.3881836-1.0605469-.7075195-1.4765625s-.7250977-.7426758-1.2172851-.9799804c-.4921876-.2373047-1.078125-.3559571-1.7578126-.3559571-.5390624 0-1.0576171.1098633-1.555664.3295899-.4980469.2197265-.9404297.5375976-1.3271484.9536132-.3867188.4160157-.6958008.928711-.9272461 1.538086-.2314454.609375-.347168 1.3007808-.347168 2.0742188v.369141c0 .667968.1025391 1.283203.3076172 1.845703s.4980469 1.047363.8789062 1.45459c.3808594.407226.8393555.725097 1.3754883.953613.5361328.228515 1.1352539.342773 1.7973633.342773zm2.0830078-5.800781h-4.7636719c.0527344-.4394531.1508789-.8291016.2944336-1.1689453.1435547-.3398438.3237305-.6240235.5405274-.8525391.2167968-.2285156.4628906-.402832.7382812-.5229492s.5771484-.1801758.9052734-.1801758c.4160157 0 .7646485.0761719 1.0458985.2285156.28125.1523438.5112305.3515626.6899414.5976563s.3105469.5244141.3955078.8349609c.0849609.3105469.1362305.6240235.1538086.9404296zm5.1328125 5.625v-6.7763672c.2226562-.4570312.5332031-.8261719.9316406-1.1074219s.8613282-.421875 1.3886719-.421875c.3105469 0 .5844727.038086.8217773.1142579.2373047.0761718.4365235.196289.5976563.3603515s.2827148.3764649.3647461.637207c.0820312.2607422.1230469.5756836.1230469.9448243v6.2490234h1.6259765v-6.2314453c0-.6210938-.0717773-1.1499024-.215332-1.5864258s-.347168-.7939453-.6108398-1.0722656c-.2636719-.2783203-.5830079-.4804688-.9580079-.6064453-.375-.1259766-.7939453-.1889649-1.2568359-.1889649-.5976562 0-1.1367188.1215821-1.6171875.3647461-.4804687.2431641-.890625.5786133-1.2304687 1.0063477l-.0527344-1.1953125h-1.538086v9.5097656zm11.8037109.175781c.5507813 0 1.0517579-.068847 1.5029297-.206543.4511719-.137695.8378906-.32959 1.1601563-.575683.3222656-.246094.5698242-.541993.7426758-.887696.1728515-.345703.2592773-.726562.2592773-1.142578 0-.386719-.0688477-.726562-.206543-1.019531s-.3471679-.552246-.6284179-.777832-.6357422-.42334-1.0634766-.593262-.9316406-.322265-1.5117187-.457031c-.4511719-.099609-.8188477-.197754-1.1030274-.294434-.2841797-.096679-.5083008-.202148-.6723633-.3164058-.1640625-.1142579-.2753906-.2416993-.3339843-.3823243-.0585938-.140625-.0878907-.2988281-.0878907-.4746093 0-.1757813.0351563-.347168.1054688-.5141602s.1816406-.3164062.3339843-.4482422c.1523438-.1318359.347168-.2373047.5844727-.3164062.2373047-.0791016.5258789-.1186524.8657227-.1186524.3222656 0 .6064453.0483399.852539.1450196.2460938.0966796.4541016.2226562.6240235.3779296.1699218.1552735.2988281.3310547.3867187.5273438s.131836.3911133.131836.5844726h1.6347656c0-.4101562-.0820313-.7954101-.2460938-1.1557617-.1640625-.3603515-.402832-.6752929-.7163086-.9448242-.3134765-.2695312-.6943359-.4819336-1.1425781-.637207-.4482422-.1552735-.956543-.2329102-1.5249023-.2329102-.5332032 0-1.0166016.0747071-1.4501954.2241211-.4335937.1494141-.8027343.3515625-1.1074218.6064453s-.5405274.5507813-.7075196.8876953c-.1669921.3369141-.2504882.6928711-.2504882 1.0678711 0 .3925782.0791015.7353516.2373046 1.0283201.1582032.292969.385254.546387.6811524.760254s.6547852.396973 1.0766602.549317c.421875.152343.8964843.284179 1.4238281.395507.46875.09961.8466797.208008 1.133789.325196.2871094.117187.5083008.244629.6635743.382324.1552734.137695.2592773.28418.3120117.439453.0527343.155273.0791015.320801.0791015.496582 0 .193359-.0439453.373535-.1318359.540527-.0878906.166993-.2182617.312012-.3911133.435059-.1728515.123047-.3852539.219727-.637207.290039-.2519531.070313-.5449219.105469-.8789063.105469-.2578125 0-.515625-.029297-.7734375-.087891s-.4951172-.158203-.711914-.298828c-.2167969-.140625-.3969727-.32373-.5405274-.549316s-.2241211-.505371-.2416992-.839356h-1.6259766c0 .392578.084961.774903.2548829 1.146973.1699218.37207.4189453.703125.7470703.993164s.7338867.522949 1.2172851.69873c.4833985.175782 1.0415039.263672 1.6743164.263672zm9.7294922 0c.4746094 0 .8994141-.051269 1.2744141-.153808s.7075195-.240235.9975586-.413086c.290039-.172852.543457-.369141.7602539-.588867.2167969-.219727.4013672-.446778.5537109-.681153l-.993164-.773437c-.2988282.386718-.647461.697265-1.0458985.93164s-.8847656.351563-1.4589843.351563c-.4335938 0-.8217774-.082031-1.1645508-.246094-.3427735-.164062-.6357422-.386719-.8789063-.667969-.243164-.28125-.430664-.612304-.5625-.993164-.1318359-.380859-.2036133-.791015-.215332-1.230468h6.4423828v-.729493c0-.667968-.0761719-1.2861325-.2285156-1.8544919-.1523438-.5683593-.3881836-1.0605469-.7075196-1.4765625-.3193359-.4160156-.7250976-.7426758-1.2172851-.9799804-.4921875-.2373047-1.078125-.3559571-1.7578125-.3559571-.5390625 0-1.0576172.1098633-1.5556641.3295899-.4980468.2197265-.9404297.5375976-1.3271484.9536132-.3867188.4160157-.6958008.928711-.9272461 1.538086s-.347168 1.3007808-.347168 2.0742188v.369141c0 .667968.1025391 1.283203.3076172 1.845703s.4980469 1.047363.8789063 1.45459c.3808593.407226.8393554.725097 1.3754882.953613.5361329.228515 1.135254.342773 1.7973633.342773zm2.0830078-5.800781h-4.7636718c.0527343-.4394531.1508789-.8291016.2944336-1.1689453.1435546-.3398438.3237304-.6240235.5405273-.8525391s.4628906-.402832.7382812-.5229492c.2753907-.1201172.5771485-.1801758.9052735-.1801758.4160156 0 .7646484.0761719 1.0458984.2285156.28125.1523438.5112305.3515626.6899414.5976563.178711.2460937.3105469.5244141.3955078.8349609.084961.3105469.1362305.6240235.1538086.9404296z" fill="#fff"/></g></g><g><path d="m0 50.04v-28.08c0-6.96.24-12.6 4.8-17.16 4.56-4.56 10.2-4.8 17.16-4.8h28.08c6.96 0 12.6.24 17.16 4.8s4.8 10.2 4.8 17.16v28.08c0 6.96-.24 12.6-4.8 17.16s-10.2 4.8-17.16 4.8h-28.08c-6.96 0-12.6-.24-17.16-4.8-4.56-4.56-4.8-10.2-4.8-17.16z" fill="#cf4e95"/><path d="m2.274 49.1532v-26.3064c0-6.5208.2244-11.8044 4.4964-16.08s9.5568-4.4928 16.0764-4.4928h26.3064c6.5208 0 11.8044.2244 16.08 4.4964s4.4964 9.5556 4.4964 16.08v26.3028c0 6.5208-.2244 11.8044-4.4964 16.08s-9.5556 4.4964-16.08 4.4964h-26.3064c-6.5208 0-11.8044-.2244-16.08-4.4964s-4.4928-9.5592-4.4928-16.08z" fill="#1f2227"/><g fill-rule="nonzero"><path d="m6.9208354 47.998784c-2.97632628.0124678-5.61291071-1.9340047-6.50113512-4.7994975-1.00595846-2.8497933-.11008061-6.0295459 2.23133712-7.9197181l30.4985571-24.8632699c1.3827617-1.1068378 1.91556-2.9776294 1.3260242-4.65601113-.5225133-1.70450429-2.0962263-2.85769562-3.8647578-2.83203186h-23.6900255c-1.76423378-.01207555-3.33076214 1.13585101-3.86475787 2.83203186-.58444715 1.6919416-.05745037 3.57194763 1.31879136 4.70465063l3.82136072 3.1190046c.58870227.5075806.68818473 1.3878976.22783507 2.0161051-.2258347.2959221-.55979962.4882288-.9272385.5339306-.36743889.0457019-.73771125-.059012-1.02804449-.2907334l-3.81774429-3.1226525c-2.32240578-1.9023565-3.23006532-5.05911948-2.27714523-7.91971814.908098-2.87124751 3.55920031-4.81523607 6.54694323-4.80079434h23.6876145c2.959355.0088659 5.5718888 1.95090674 6.4565325 4.79957835 1.0073448 2.84937792.1129111 6.02964663-2.2277207 7.92093413l-30.46239281 24.8620538c-1.38014169 1.1087039-1.90994183 2.9791706-1.31879136 4.6560112.52251334 1.7045043 2.09622633 2.8576956 3.86475787 2.8320318h23.6876145c1.7651214.0131455 3.3329097-1.134988 3.8671688-2.8320318.5895358-1.6783817.0567375-3.5491733-1.3260242-4.6560112l-3.9551686-3.2162835c-.5963459-.4989081-.7113754-1.3768332-.2639994-2.0148891v-.0474235c.2155005-.3196423.5513209-.5363702.9293457-.5997705.3780249-.0634003.7653016.0320537 1.0717454.2641583l3.9551687 3.2162835c2.3440558 1.931434 3.2195374 5.1477262 2.1819125 8.0157811-.8923789 2.8232603-3.473369 4.7555624-6.4107243 4.7994975zm-2.63637725-20.5915103c-.42327552-.0038727-.82297167-.1972213-1.09095629-.527738-.41365066-.6231967-.31707027-1.4572149.22783507-1.9674657l16.50297417-13.4390795h-6.3649163c-.3766306.0405797-.7535133-.0742912-1.0448481-.3184615s-.4723291-.596861-.5017783-.9777798c-.1065117-.79209791.442272-1.52185077 1.2271752-1.63185343h9.5931825c.7724436.02442268 1.4477597.53233494 1.6914207 1.27213519.2436611.73980024.0039198 1.55437424-.6004644 2.04021124l-18.86209187 15.2144193c-.22494047.1796917-.49335929.2955514-.77753238.3356122zm10.27548225 11.9993518c-.7722667.0004538-1.4555135-.5046339-1.6876672-1.2476018-.2615075-.7455791-.0241108-1.5763807.5906835-2.0671766l18.8283385-15.3554737c.2898349-.2330159.6604524-.3385435 1.028296-.2927912.3678437.0457522.7019475.2389327.926987.5359884.4977218.6086658.4165106 1.5081501-.182027 2.0161052-.0458081.0474234-.0904107.0474234-.0904107.0960629l-16.5053851 13.4354315h5.8200408c.3750803-.0395602.7501438.0749767 1.0404904.3177451.2903467.2427684.4714889.5932933.5025196.9724163.1065118.7920979-.4422719 1.5218508-1.2271751 1.6318534h-.3158349z" fill="#faedf4" transform="translate(17.25 10.5)"/><path d="m9.14990234 106v-5.009766h3.03222656c.7265625 0 1.3681641-.086425 1.9248047-.259277s1.0239258-.42334 1.4018555-.7514648c.3779297-.328125.665039-.7338867.8613281-1.2172852.196289-.4833984.2944336-1.0327148.2944336-1.6479492 0-.5683594-.0981446-1.0913086-.2944336-1.5688476-.1962891-.4775391-.4833984-.890625-.8613281-1.2392579-.3779297-.3486328-.8452149-.6196289-1.4018555-.8129882-.5566406-.1933594-1.1982422-.2900391-1.9248047-.2900391h-4.71972656v12.796875zm3.03222656-6.3896484h-3.03222656v-5.0185547h3.03222656c.4921875 0 .9155273.0703125 1.2700195.2109375s.6445313.328125.8701172.5625c.225586.234375.3911133.5053711.4965821.8129883.1054687.3076171.1582031.6254882.1582031.9536132 0 .3632813-.0527344.6958008-.1582031.9975586-.1054688.3017578-.2709961.5625-.4965821.7822266-.2255859.2197266-.515625.3911133-.8701172.5141601-.3544922.1230469-.777832.1845704-1.2700195.1845704zm10.2128906 6.5654294c.4746094 0 .8994141-.051269 1.2744141-.153808s.7075195-.240235.9975586-.413086c.290039-.172852.543457-.369141.7602539-.588867.2167969-.219727.4013672-.446778.5537109-.681153l-.993164-.773437c-.2988282.386718-.647461.697265-1.0458985.93164s-.8847656.351563-1.4589843.351563c-.4335938 0-.8217774-.082031-1.1645508-.246094-.3427735-.164062-.6357422-.386719-.8789063-.667969-.243164-.28125-.430664-.612304-.5625-.993164-.1318359-.380859-.2036133-.791015-.215332-1.230468h6.4423828v-.729493c0-.667968-.0761719-1.2861325-.2285156-1.8544919-.1523438-.5683593-.3881836-1.0605469-.7075195-1.4765625-.319336-.4160156-.7250977-.7426758-1.2172852-.9799804-.4921875-.2373047-1.078125-.3559571-1.7578125-.3559571-.5390625 0-1.0576172.1098633-1.5556641.3295899-.4980468.2197265-.9404297.5375976-1.3271484.9536132-.3867188.4160157-.6958008.928711-.9272461 1.538086s-.347168 1.3007808-.347168 2.0742188v.369141c0 .667968.1025391 1.283203.3076172 1.845703s.4980469 1.047363.8789063 1.45459c.3808593.407226.8393554.725097 1.3754882.953613.5361329.228515 1.135254.342773 1.7973633.342773zm2.0830078-5.800781h-4.7636718c.0527343-.4394531.1508789-.8291016.2944336-1.1689453.1435547-.3398438.3237304-.6240235.5405273-.8525391s.4628906-.402832.7382813-.5229492c.2753906-.1201172.5771484-.1801758.9052734-.1801758.4160156 0 .7646484.0761719 1.0458984.2285156.28125.1523438.5112305.3515626.6899414.5976563.178711.2460937.3105469.5244141.3955079.8349609.0849609.3105469.1362304.6240235.1538085.9404296zm7.4091797 5.800781c.6679688 0 1.2685547-.121582 1.8017578-.364746.5332032-.243164.9873047-.580078 1.3623047-1.010742s.6621094-.94043.8613282-1.529297c.1992187-.588867.2988281-1.229004.2988281-1.92041v-.193359c0-.691407-.0996094-1.3315434-.2988281-1.9204106-.1992188-.5888672-.4863282-1.1000976-.8613282-1.5336914s-.8305664-.7734375-1.3666992-1.0195312c-.5361328-.2460938-1.1411133-.3691407-1.8149414-.3691407-.6621094 0-1.2597656.1230469-1.7929687.3691407-.5332032.2460937-.9858399.5859374-1.3579102 1.0195312s-.6591797.9448242-.8613281 1.5336914c-.2021485.5888672-.3032227 1.2290036-.3032227 1.9204106v.193359c0 .691406.1010742 1.331543.3032227 1.92041.2021484.588867.4907226 1.098633.8657226 1.529297s.8291016.767578 1.3623047 1.010742 1.1337891.364746 1.8017578.364746zm0-1.327148c-.4511718 0-.8452148-.09375-1.1821289-.28125-.336914-.1875-.618164-.440918-.84375-.760254-.2255859-.319336-.3940429-.689941-.5053711-1.111817-.1113281-.421874-.1669922-.870117-.1669922-1.344726v-.193359c0-.46875.0556641-.915528.1669922-1.3403325.1113282-.4248047.2797852-.796875.5053711-1.1162109.225586-.3193359.5053711-.5742188.8393555-.7646484.3339844-.1904297.7236328-.2856446 1.1689453-.2856446.4511719 0 .8466797.0952149 1.1865234.2856446.3398438.1904296.6225586.4453125.8481446.7646484.2255859.3193359.3955078.6914062.5097656 1.1162109.1142578.4248045.1713867.8715825.1713867 1.3403325v.193359c0 .474609-.0571289.922852-.1713867 1.344726-.1142578.421876-.2827148.792481-.5053711 1.111817-.2226562.319336-.5039062.572754-.84375.760254-.3398437.1875-.7324219.28125-1.1777344.28125zm7.9892578 4.807617v-4.579102c.3222657.357422.7075196.629883 1.1557618.817383s.9711914.28125 1.5688476.28125c.5859375 0 1.1074219-.120117 1.5644531-.360351.4570313-.240235.8422852-.575684 1.1557618-1.006348.3134765-.430664.5522461-.94043.7163086-1.529297s.2460937-1.231933.2460937-1.929199v-.18457c0-.726563-.0805664-1.3872074-.2416992-1.981934-.1611328-.5947265-.3999024-1.1044922-.7163086-1.5292968-.3164063-.4248047-.7045898-.7543946-1.1645508-.9887696-.4599609-.234375-.9887695-.3515625-1.5864258-.3515625-.6035156 0-1.133789.1054688-1.5908203.3164063-.4570312.2109375-.8466797.515625-1.1689453.9140625l-.0791016-1.0546875h-1.4853515v13.1660156zm2.2324219-4.807617c-.28125 0-.5361328-.032227-.7646484-.09668s-.4335938-.153808-.6152344-.268066-.3427734-.251953-.4833984-.413086-.2636719-.335449-.3691407-.522949v-4.5439458c.1054688-.1875.2285157-.3618164.3691407-.5229492s.3017578-.3002929.4833984-.4174804.3852539-.2080078.6108399-.272461c.2255859-.0644531.4760742-.0966797.7514648-.0966797.4453125 0 .8291016.0922852 1.1513672.2768555s.5888672.4350586.7998047.7514648c.2109375.3164063.3662109.6840821.4658203 1.1030274.0996094.4189454.149414.8657224.149414 1.3403324v.18457c0 .474609-.0498046.924316-.149414 1.349121s-.2548828.79541-.4658203 1.111816c-.2109375.316407-.4760743.56836-.7954102.75586s-.6987305.28125-1.1381836.28125zm8.006836 1.151367v-13.5h-1.6259766v13.5zm6.5478515.175781c.4746094 0 .8994141-.051269 1.2744141-.153808s.7075195-.240235.9975586-.413086c.290039-.172852.543457-.369141.7602539-.588867.2167969-.219727.4013672-.446778.5537109-.681153l-.993164-.773437c-.2988282.386718-.647461.697265-1.0458985.93164s-.8847656.351563-1.4589844.351563c-.4335937 0-.8217773-.082031-1.1645507-.246094-.3427735-.164062-.6357422-.386719-.8789063-.667969-.243164-.28125-.430664-.612304-.5625-.993164-.1318359-.380859-.2036133-.791015-.215332-1.230468h6.4423828v-.729493c0-.667968-.0761719-1.2861325-.2285156-1.8544919-.1523438-.5683593-.3881836-1.0605469-.7075196-1.4765625-.3193359-.4160156-.7250976-.7426758-1.2172851-.9799804-.4921875-.2373047-1.078125-.3559571-1.7578125-.3559571-.5390625 0-1.0576172.1098633-1.5556641.3295899-.4980469.2197265-.9404297.5375976-1.3271484.9536132-.3867188.4160157-.6958008.928711-.9272461 1.538086s-.347168 1.3007808-.347168 2.0742188v.369141c0 .667968.1025391 1.283203.3076172 1.845703s.4980469 1.047363.8789063 1.45459c.3808593.407226.8393554.725097 1.3754882.953613.5361329.228515 1.1352539.342773 1.7973633.342773zm2.0830078-5.800781h-4.7636718c.0527343-.4394531.1508789-.8291016.2944336-1.1689453.1435546-.3398438.3237304-.6240235.5405273-.8525391s.4628906-.402832.7382812-.5229492c.2753907-.1201172.5771485-.1801758.9052735-.1801758.4160156 0 .7646484.0761719 1.0458984.2285156.28125.1523438.5112305.3515626.6899414.5976563.178711.2460937.3105469.5244141.3955078.8349609.084961.3105469.1362305.6240235.1538086.9404296z" fill="#fff"/></g></g><g transform="translate(144)"><path d="m0 50.04v-28.08c0-6.96.24-12.6 4.8-17.16 4.56-4.56 10.2-4.8 17.16-4.8h28.08c6.96 0 12.6.24 17.16 4.8s4.8 10.2 4.8 17.16v28.08c0 6.96-.24 12.6-4.8 17.16s-10.2 4.8-17.16 4.8h-28.08c-6.96 0-12.6-.24-17.16-4.8-4.56-4.56-4.8-10.2-4.8-17.16z" fill="#3ba0dd"/><path d="m2.274 49.1532v-26.3064c0-6.5208.2244-11.8044 4.4964-16.08s9.5568-4.4928 16.0764-4.4928h26.3064c6.5208 0 11.8044.2244 16.08 4.4964s4.4964 9.5556 4.4964 16.08v26.3028c0 6.5208-.2244 11.8044-4.4964 16.08s-9.5556 4.4964-16.08 4.4964h-26.3064c-6.5208 0-11.8044-.2244-16.08-4.4964s-4.4928-9.5592-4.4928-16.08z" fill="#1f2227"/><g fill-rule="nonzero"><path d="m6.9208354 47.998784c-2.97632628.0124678-5.61291071-1.9340047-6.50113512-4.7994975-1.00595846-2.8497933-.11008061-6.0295459 2.23133712-7.9197181l30.4985571-24.8632699c1.3827617-1.1068378 1.91556-2.9776294 1.3260242-4.65601113-.5225133-1.70450429-2.0962263-2.85769562-3.8647578-2.83203186h-23.6900255c-1.76423378-.01207555-3.33076214 1.13585101-3.86475787 2.83203186-.58444715 1.6919416-.05745037 3.57194763 1.31879136 4.70465063l3.82136072 3.1190046c.58870227.5075806.68818473 1.3878976.22783507 2.0161051-.2258347.2959221-.55979962.4882288-.9272385.5339306-.36743889.0457019-.73771125-.059012-1.02804449-.2907334l-3.81774429-3.1226525c-2.32240578-1.9023565-3.23006532-5.05911948-2.27714523-7.91971814.908098-2.87124751 3.55920031-4.81523607 6.54694323-4.80079434h23.6876145c2.959355.0088659 5.5718888 1.95090674 6.4565325 4.79957835 1.0073448 2.84937792.1129111 6.02964663-2.2277207 7.92093413l-30.46239281 24.8620538c-1.38014169 1.1087039-1.90994183 2.9791706-1.31879136 4.6560112.52251334 1.7045043 2.09622633 2.8576956 3.86475787 2.8320318h23.6876145c1.7651214.0131455 3.3329097-1.134988 3.8671688-2.8320318.5895358-1.6783817.0567375-3.5491733-1.3260242-4.6560112l-3.9551686-3.2162835c-.5963459-.4989081-.7113754-1.3768332-.2639994-2.0148891v-.0474235c.2155005-.3196423.5513209-.5363702.9293457-.5997705.3780249-.0634003.7653016.0320537 1.0717454.2641583l3.9551687 3.2162835c2.3440558 1.931434 3.2195374 5.1477262 2.1819125 8.0157811-.8923789 2.8232603-3.473369 4.7555624-6.4107243 4.7994975zm-2.63637725-20.5915103c-.42327552-.0038727-.82297167-.1972213-1.09095629-.527738-.41365066-.6231967-.31707027-1.4572149.22783507-1.9674657l16.50297417-13.4390795h-6.3649163c-.3766306.0405797-.7535133-.0742912-1.0448481-.3184615s-.4723291-.596861-.5017783-.9777798c-.1065117-.79209791.442272-1.52185077 1.2271752-1.63185343h9.5931825c.7724436.02442268 1.4477597.53233494 1.6914207 1.27213519.2436611.73980024.0039198 1.55437424-.6004644 2.04021124l-18.86209187 15.2144193c-.22494047.1796917-.49335929.2955514-.77753238.3356122zm10.27548225 11.9993518c-.7722667.0004538-1.4555135-.5046339-1.6876672-1.2476018-.2615075-.7455791-.0241108-1.5763807.5906835-2.0671766l18.8283385-15.3554737c.2898349-.2330159.6604524-.3385435 1.028296-.2927912.3678437.0457522.7019475.2389327.926987.5359884.4977218.6086658.4165106 1.5081501-.182027 2.0161052-.0458081.0474234-.0904107.0474234-.0904107.0960629l-16.5053851 13.4354315h5.8200408c.3750803-.0395602.7501438.0749767 1.0404904.3177451.2903467.2427684.4714889.5932933.5025196.9724163.1065118.7920979-.4422719 1.5218508-1.2271751 1.6318534h-.3158349z" fill="#e3f1fa" transform="translate(17.25 10.5)"/><path d="m2.91259766 106v-9.8613281l6.44238281 9.8613281h1.69628903v-12.796875h-1.67871091v9.905273l-6.45996093-9.905273h-1.69628907v12.796875zm13.96582034.175781c.6445312 0 1.1953125-.098144 1.6523437-.294433.4570313-.196289.834961-.470215 1.1337891-.821778l.0351562.94043h1.546875v-9.5097656h-1.6259765v6.9169926c-.1875.421875-.4819336.758789-.8833008 1.010742s-.9331055.377929-1.5952149.377929c-.2226562 0-.4394531-.030761-.6503906-.092285-.2109375-.061523-.3984375-.172851-.5625-.333984s-.2958984-.380859-.3955078-.65918c-.0996094-.27832-.1494141-.631347-.1494141-1.059082v-6.1611326h-1.6259765v6.1435546c0 .632813.074707 1.17334.2241211 1.621582.149414.448242.3618164.814453.637207 1.098633s.6035156.492187.984375.624023.8056641.197754 1.2744141.197754zm8.4550781-.175781v-6.9433594c.1757812-.4042968.4394531-.7324218.7910156-.984375.3515625-.2519531.8173828-.3779297 1.397461-.3779297.3105468 0 .590332.038086.8393554.1142579.2490235.0761718.4614258.196289.6372071.3603515.1757812.1640625.3120117.3764649.4086914.637207.0966796.2607422.1450195.5756836.1450195.9448243v6.2490234h1.6347656v-6.3105469c.0292969-.2753906.0981445-.5346679.206543-.777832.1083984-.2431641.2548828-.4541016.4394531-.6328125s.4057617-.3208008.6635742-.4262695c.2578125-.1054688.553711-.1582032.8876953-.1582032.3046875 0 .5830079.0307618.834961.0922852s.4658203.1713867.6416015.3295898c.1757813.1582032.3120118.3691407.4086914.6328125.0966797.2636719.1450196.5947266.1450196.9931641v6.2578125h1.6259765v-6.2490234c0-.5976563-.0703125-1.1132813-.2109375-1.546875-.140625-.4335938-.3471679-.7910157-.6196289-1.0722657-.2724609-.28125-.6049804-.4877929-.9975586-.6196289-.3925781-.1318359-.84375-.1977539-1.3535156-.1977539-.6914062 0-1.2905273.140625-1.7973633.421875-.5068359.28125-.918457.6503907-1.2348632 1.1074219-.2519532-.5332031-.6137696-.9213867-1.0854493-1.1645508-.4716797-.243164-1.0151367-.3647461-1.6303711-.3647461-.6210937 0-1.1645507.1083985-1.630371.3251953-.4658204.2167969-.862793.5185547-1.190918.9052735l-.0439453-1.0546875h-1.538086v9.5097656zm18.5185547.175781c.5859375 0 1.1074219-.120117 1.5644531-.360351.4570313-.240235.84375-.575684 1.1601563-1.006348.3164062-.430664.5566406-.94043.7207031-1.529297s.2460937-1.231933.2460937-1.929199v-.18457c0-.726563-.0820312-1.3872074-.2460937-1.981934-.1640625-.5947265-.4028321-1.1044922-.7163086-1.5292968-.3134766-.4248047-.7001953-.7543946-1.1601563-.9887696-.4599609-.234375-.9887695-.3515625-1.5864257-.3515625-.6035157 0-1.1279297.1054688-1.5732422.3164063s-.8261719.5126953-1.1425782.9052734v-5.0361328h-1.6259765v13.5h1.4941406l.0791016-1.098633c.3164062.410156.703125.725098 1.1601562.944824.4570313.219727.9990235.32959 1.6259766.32959zm-.4042969-1.379883c-.2988281 0-.5683594-.038086-.8085937-.114257-.2402344-.076172-.4555664-.181641-.6459961-.316407-.1904297-.134765-.3574219-.292968-.5009766-.474609s-.2680664-.37793-.3735352-.588867v-4.1132814c.0996094-.2109375.2197266-.4072266.3603516-.5888672s.3061523-.3398438.496582-.4746094.4057618-.2402344.6459961-.3164062c.2402344-.0761719.5097657-.1142579.8085938-.1142579.4570312 0 .84375.0922852 1.1601562.2768555.3164063.1845703.5727539.4350586.769043.7514648.1962891.3164063.3383789.6840821.4262695 1.1030274.0878907.4189454.131836.8657224.131836 1.3403324v.18457c0 .474609-.046875.921387-.140625 1.340332s-.2402344.783691-.4394532 1.094238c-.1992187.310547-.4541015.556641-.7646484.738282-.3105469.18164-.6855469.27246-1.125.27246zm10.0898438 1.379883c.4746093 0 .899414-.051269 1.274414-.153808s.7075195-.240235.9975586-.413086c.2900391-.172852.543457-.369141.7602539-.588867.2167969-.219727.4013672-.446778.553711-.681153l-.9931641-.773437c-.2988281.386718-.6474609.697265-1.0458984.93164s-.8847657.351563-1.4589844.351563c-.4335938 0-.8217774-.082031-1.1645508-.246094-.3427734-.164062-.6357422-.386719-.8789063-.667969-.243164-.28125-.430664-.612304-.5625-.993164-.1318359-.380859-.2036132-.791015-.215332-1.230468h6.4423828v-.729493c0-.667968-.0761718-1.2861325-.2285156-1.8544919-.1523437-.5683593-.3881836-1.0605469-.7075195-1.4765625-.319336-.4160156-.7250977-.7426758-1.2172852-.9799804-.4921875-.2373047-1.078125-.3559571-1.7578125-.3559571-.5390625 0-1.0576172.1098633-1.555664.3295899-.4980469.2197265-.9404297.5375976-1.3271485.9536132-.3867187.4160157-.6958008.928711-.9272461 1.538086s-.3471679 1.3007808-.3471679 2.0742188v.369141c0 .667968.102539 1.283203.3076171 1.845703.2050782.5625.4980469 1.047363.8789063 1.45459.3808594.407226.8393555.725097 1.3754883.953613.5361328.228515 1.1352539.342773 1.7973633.342773zm2.0830078-5.800781h-4.7636719c.0527344-.4394531.1508789-.8291016.2944336-1.1689453.1435547-.3398438.3237305-.6240235.5405273-.8525391.2167969-.2285156.4628907-.402832.7382813-.5229492s.5771484-.1801758.9052734-.1801758c.4160156 0 .7646485.0761719 1.0458985.2285156.28125.1523438.5112304.3515626.6899414.5976563.1787109.2460937.3105468.5244141.3955078.8349609.0849609.3105469.1362304.6240235.1538086.9404296zm5.1328125 5.625v-6.75c.1757812-.4160156.4409179-.7470703.7954101-.9931641.3544922-.2460937.8129883-.3691406 1.3754883-.3691406.1523438 0 .2885742.0043945.4086914.0131836s.2504883.0249023.3911133.0483399v-1.5117188c-.0585938-.0292969-.1640625-.0571289-.3164063-.0834961-.1523437-.0263672-.2871093-.0395508-.4042968-.0395508-.5273438 0-.975586.1142578-1.3447266.3427735-.3691406.2285156-.6767578.5390625-.9228516.9316406l-.0263671-1.0986328h-1.5820313v9.5097656zm7.9628906.175781c.5507812 0 1.0517578-.068847 1.5029297-.206543.4511719-.137695.8378906-.32959 1.1601562-.575683.3222657-.246094.5698243-.541993.7426758-.887696.1728516-.345703.2592774-.726562.2592774-1.142578 0-.386719-.0688477-.726562-.206543-1.019531s-.347168-.552246-.628418-.777832-.6357422-.42334-1.0634765-.593262c-.4277344-.169922-.9316407-.322265-1.5117188-.457031-.4511719-.099609-.8188476-.197754-1.1030273-.294434-.2841797-.096679-.5083008-.202148-.6723633-.3164058-.1640625-.1142579-.2753906-.2416993-.3339844-.3823243-.0585937-.140625-.0878906-.2988281-.0878906-.4746093 0-.1757813.0351562-.347168.1054687-.5141602s.1816407-.3164062.3339844-.4482422c.1523438-.1318359.347168-.2373047.5844727-.3164062.2373046-.0791016.5258789-.1186524.8657226-.1186524.3222656 0 .6064453.0483399.8525391.1450196.2460937.0966796.4541015.2226562.6240234.3779296.1699219.1552735.2988281.3310547.3867188.5273438.0878906.1962891.1318359.3911133.1318359.5844726h1.6347656c0-.4101562-.0820312-.7954101-.2460937-1.1557617-.1640625-.3603515-.4028321-.6752929-.7163086-.9448242-.3134766-.2695312-.6943359-.4819336-1.1425781-.637207-.4482422-.1552735-.956543-.2329102-1.5249024-.2329102-.5332031 0-1.0166015.0747071-1.4501953.2241211-.4335937.1494141-.8027344.3515625-1.1074219.6064453s-.5405273.5507813-.7075195.8876953c-.1669922.3369141-.2504883.6928711-.2504883 1.0678711 0 .3925782.0791016.7353516.2373047 1.0283201.1582031.292969.3852539.546387.6811523.760254.2958985.213867.6547852.396973 1.0766602.549317.421875.152343.8964844.284179 1.4238281.395507.46875.09961.8466797.208008 1.1337891.325196.2871094.117187.5083008.244629.6635742.382324s.2592774.28418.3120117.439453c.0527344.155273.0791016.320801.0791016.496582 0 .193359-.0439453.373535-.1318359.540527-.0878907.166993-.2182618.312012-.3911133.435059-.1728516.123047-.3852539.219727-.6372071.290039-.2519531.070313-.5449218.105469-.8789062.105469-.2578125 0-.515625-.029297-.7734375-.087891s-.4951172-.158203-.7119141-.298828c-.2167968-.140625-.3969726-.32373-.5405273-.549316s-.2241211-.505371-.2416992-.839356h-1.6259766c0 .392578.0849609.774903.2548828 1.146973s.4189453.703125.7470703.993164.7338868.522949 1.2172852.69873c.4833984.175782 1.0415039.263672 1.6743164.263672z" fill="#fff"/></g></g><g transform="translate(143.8125 144)"><g transform="translate(.1875)"><path d="m0 50.04v-28.08c0-6.96.24-12.6 4.8-17.16 4.56-4.56 10.2-4.8 17.16-4.8h28.08c6.96 0 12.6.24 17.16 4.8s4.8 10.2 4.8 17.16v28.08c0 6.96-.24 12.6-4.8 17.16s-10.2 4.8-17.16 4.8h-28.08c-6.96 0-12.6-.24-17.16-4.8-4.56-4.56-4.8-10.2-4.8-17.16z" fill="#979797"/><path d="m2.274 49.1532v-26.3064c0-6.5208.2244-11.8044 4.4964-16.08s9.5568-4.4928 16.0764-4.4928h26.3064c6.5208 0 11.8044.2244 16.08 4.4964s4.4964 9.5556 4.4964 16.08v26.3028c0 6.5208-.2244 11.8044-4.4964 16.08s-9.5556 4.4964-16.08 4.4964h-26.3064c-6.5208 0-11.8044-.2244-16.08-4.4964s-4.4928-9.5592-4.4928-16.08z" fill="#1f2227"/></g><g fill-rule="nonzero"><path d="m6.9208354 47.998784c-2.97632628.0124678-5.61291071-1.9340047-6.50113512-4.7994975-1.00595846-2.8497933-.11008061-6.0295459 2.23133712-7.9197181l30.4985571-24.8632699c1.3827617-1.1068378 1.91556-2.9776294 1.3260242-4.65601113-.5225133-1.70450429-2.0962263-2.85769562-3.8647578-2.83203186h-23.6900255c-1.76423378-.01207555-3.33076214 1.13585101-3.86475787 2.83203186-.58444715 1.6919416-.05745037 3.57194763 1.31879136 4.70465063l3.82136072 3.1190046c.58870227.5075806.68818473 1.3878976.22783507 2.0161051-.2258347.2959221-.55979962.4882288-.9272385.5339306-.36743889.0457019-.73771125-.059012-1.02804449-.2907334l-3.81774429-3.1226525c-2.32240578-1.9023565-3.23006532-5.05911948-2.27714523-7.91971814.908098-2.87124751 3.55920031-4.81523607 6.54694323-4.80079434h23.6876145c2.959355.0088659 5.5718888 1.95090674 6.4565325 4.79957835 1.0073448 2.84937792.1129111 6.02964663-2.2277207 7.92093413l-30.46239281 24.8620538c-1.38014169 1.1087039-1.90994183 2.9791706-1.31879136 4.6560112.52251334 1.7045043 2.09622633 2.8576956 3.86475787 2.8320318h23.6876145c1.7651214.0131455 3.3329097-1.134988 3.8671688-2.8320318.5895358-1.6783817.0567375-3.5491733-1.3260242-4.6560112l-3.9551686-3.2162835c-.5963459-.4989081-.7113754-1.3768332-.2639994-2.0148891v-.0474235c.2155005-.3196423.5513209-.5363702.9293457-.5997705.3780249-.0634003.7653016.0320537 1.0717454.2641583l3.9551687 3.2162835c2.3440558 1.931434 3.2195374 5.1477262 2.1819125 8.0157811-.8923789 2.8232603-3.473369 4.7555624-6.4107243 4.7994975zm-2.63637725-20.5915103c-.42327552-.0038727-.82297167-.1972213-1.09095629-.527738-.41365066-.6231967-.31707027-1.4572149.22783507-1.9674657l16.50297417-13.4390795h-6.3649163c-.3766306.0405797-.7535133-.0742912-1.0448481-.3184615s-.4723291-.596861-.5017783-.9777798c-.1065117-.79209791.442272-1.52185077 1.2271752-1.63185343h9.5931825c.7724436.02442268 1.4477597.53233494 1.6914207 1.27213519.2436611.73980024.0039198 1.55437424-.6004644 2.04021124l-18.86209187 15.2144193c-.22494047.1796917-.49335929.2955514-.77753238.3356122zm10.27548225 11.9993518c-.7722667.0004538-1.4555135-.5046339-1.6876672-1.2476018-.2615075-.7455791-.0241108-1.5763807.5906835-2.0671766l18.8283385-15.3554737c.2898349-.2330159.6604524-.3385435 1.028296-.2927912.3678437.0457522.7019475.2389327.926987.5359884.4977218.6086658.4165106 1.5081501-.182027 2.0161052-.0458081.0474234-.0904107.0474234-.0904107.0960629l-16.5053851 13.4354315h5.8200408c.3750803-.0395602.7501438.0749767 1.0404904.3177451.2903467.2427684.4714889.5932933.5025196.9724163.1065118.7920979-.4422719 1.5218508-1.2271751 1.6318534h-.3158349z" fill="#f6f7f9" transform="translate(17.4375 10.5)"/><path d="m1.74023438 106 1.20410156-3.339844h5.36132812l1.22167969 3.339844h1.73144535l-4.89550785-12.796875h-1.4765625l-4.88671875 12.796875zm6.06445312-4.728516h-4.35058594l2.17089844-5.9853512zm8.7363281 4.904297c.5039063 0 .9799805-.086426 1.4282227-.259277.4482422-.172852.8422851-.404297 1.1821289-.694336.3398437-.290039.6137695-.626953.8217773-1.010742s.3237305-.786621.347168-1.208496h-1.5380859c-.0234375.263672-.0981446.5083-.2241211.733886-.1259766.225586-.2900391.420411-.4921875.584473-.2021485.164063-.4350586.292969-.6987305.386719s-.5390625.140625-.8261719.140625c-.5097656 0-.9316406-.09961-1.265625-.298828-.3339844-.199219-.6005859-.459961-.7998047-.782227-.1992187-.322266-.3398437-.687012-.421875-1.094238-.0820312-.407227-.1230468-.821778-.1230468-1.243652v-.369141c0-.410156.0410156-.818848.1230468-1.2260743.0820313-.4072266.2241211-.7734375.4262696-1.0986329.2021484-.3251953.46875-.5874023.7998047-.786621.3310546-.1992188.7485351-.2988282 1.2524414-.2988282.328125 0 .6254882.0556641.8920898.1669922s.496582.262207.6899414.4526367.347168.413086.4614258.6679688.1831055.5288086.206543.8217773h1.5380859c-.0234375-.4863281-.1289063-.9404297-.3164063-1.3623047s-.4467773-.7866211-.777832-1.0942382c-.3310547-.3076172-.7236328-.5493165-1.1777344-.7250977-.4541015-.1757812-.9594726-.2636719-1.5161132-.2636719-.7148438 0-1.3359375.1274414-1.8632813.3823242-.5273437.2548829-.9667969.5991211-1.3183594 1.0327149-.3515625.4335937-.6137695.9375-.7866211 1.5117187-.1728515.5742188-.2592773 1.1806641-.2592773 1.8193361v.369141c0 .638671.0864258 1.245117.2592773 1.819335.1728516.574219.4350586 1.078125.7866211 1.511719s.7924805.777832 1.3227539 1.032715c.5302735.254883 1.1528321.382324 1.8676758.382324zm9.421875 0c.5039063 0 .9799805-.086426 1.4282227-.259277.4482422-.172852.8422851-.404297 1.1821289-.694336.3398437-.290039.6137695-.626953.8217773-1.010742s.3237305-.786621.347168-1.208496h-1.5380859c-.0234375.263672-.0981446.5083-.2241211.733886-.1259766.225586-.2900391.420411-.4921875.584473-.2021485.164063-.4350586.292969-.6987305.386719s-.5390625.140625-.8261719.140625c-.5097656 0-.9316406-.09961-1.265625-.298828-.3339844-.199219-.6005859-.459961-.7998047-.782227-.1992187-.322266-.3398437-.687012-.421875-1.094238-.0820312-.407227-.1230468-.821778-.1230468-1.243652v-.369141c0-.410156.0410156-.818848.1230468-1.2260743.0820313-.4072266.2241211-.7734375.4262696-1.0986329.2021484-.3251953.46875-.5874023.7998047-.786621.3310546-.1992188.7485351-.2988282 1.2524414-.2988282.328125 0 .6254882.0556641.8920898.1669922s.496582.262207.6899414.4526367.347168.413086.4614258.6679688.1831055.5288086.206543.8217773h1.5380859c-.0234375-.4863281-.1289063-.9404297-.3164063-1.3623047s-.4467773-.7866211-.777832-1.0942382c-.3310547-.3076172-.7236328-.5493165-1.1777344-.7250977-.4541015-.1757812-.9594726-.2636719-1.5161132-.2636719-.7148438 0-1.3359375.1274414-1.8632813.3823242-.5273437.2548829-.9667969.5991211-1.3183594 1.0327149-.3515625.4335937-.6137695.9375-.7866211 1.5117187-.1728515.5742188-.2592773 1.1806641-.2592773 1.8193361v.369141c0 .638671.0864258 1.245117.2592773 1.819335.1728516.574219.4350586 1.078125.7866211 1.511719s.7924805.777832 1.3227539 1.032715c.5302735.254883 1.1528321.382324 1.8676758.382324zm9.5097656 0c.6679688 0 1.2685547-.121582 1.8017579-.364746.5332031-.243164.9873047-.580078 1.3623047-1.010742s.6621093-.94043.8613281-1.529297c.1992187-.588867.2988281-1.229004.2988281-1.92041v-.193359c0-.691407-.0996094-1.3315434-.2988281-1.9204106-.1992188-.5888672-.4863281-1.1000976-.8613281-1.5336914s-.8305665-.7734375-1.3666993-1.0195312c-.5361328-.2460938-1.1411133-.3691407-1.8149414-.3691407-.6621093 0-1.2597656.1230469-1.7929687.3691407-.5332032.2460937-.9858399.5859374-1.3579102 1.0195312s-.6591797.9448242-.8613281 1.5336914-.3032227 1.2290036-.3032227 1.9204106v.193359c0 .691406.1010743 1.331543.3032227 1.92041s.4907227 1.098633.8657227 1.529297.8291015.767578 1.3623046 1.010742c.5332032.243164 1.1337891.364746 1.8017578.364746zm0-1.327148c-.4511718 0-.8452148-.09375-1.1821289-.28125-.336914-.1875-.618164-.440918-.84375-.760254-.2255859-.319336-.3940429-.689941-.5053711-1.111817-.1113281-.421874-.1669921-.870117-.1669921-1.344726v-.193359c0-.46875.055664-.915528.1669921-1.3403325.1113282-.4248047.2797852-.796875.5053711-1.1162109.225586-.3193359.5053711-.5742188.8393555-.7646484.3339844-.1904297.7236328-.2856446 1.1689453-.2856446.4511719 0 .8466797.0952149 1.1865235.2856446.3398437.1904296.6225586.4453125.8481445.7646484s.3955078.6914062.5097656 1.1162109c.1142578.4248045.1713867.8715825.1713867 1.3403325v.193359c0 .474609-.0571289.922852-.1713867 1.344726-.1142578.421876-.2827148.792481-.5053711 1.111817-.2226562.319336-.5039062.572754-.84375.760254-.3398437.1875-.7324218.28125-1.1777344.28125zm9.4482422 1.327148c.6445313 0 1.1953125-.098144 1.6523438-.294433.4570312-.196289.8349609-.470215 1.133789-.821778l.0351563.94043h1.546875v-9.5097656h-1.6259766v6.9169926c-.1875.421875-.4819336.758789-.8833007 1.010742-.4013672.251953-.9331055.377929-1.5952149.377929-.2226562 0-.4394531-.030761-.6503906-.092285-.2109375-.061523-.3984375-.172851-.5625-.333984s-.2958985-.380859-.3955078-.65918c-.0996094-.27832-.1494141-.631347-.1494141-1.059082v-6.1611326h-1.6259766v6.1435546c0 .632813.0747071 1.17334.2241211 1.621582.1494141.448242.3618165.814453.6372071 1.098633s.6035156.492187.984375.624023.805664.197754 1.274414.197754zm8.4638672-.175781v-6.7763672c.2226563-.4570312.5332032-.8261719.9316406-1.1074219.3984376-.28125.8613282-.421875 1.3886719-.421875.3105469 0 .5844727.038086.8217774.1142579.2373047.0761718.4365234.196289.5976562.3603515s.2827149.3764649.3647461.637207c.0820313.2607422.1230469.5756836.1230469.9448243v6.2490234h1.6259765v-6.2314453c0-.6210938-.0717773-1.1499024-.215332-1.5864258s-.347168-.7939453-.6108398-1.0722656c-.2636719-.2783203-.5830078-.4804688-.9580078-.6064453-.375-.1259766-.7939454-.1889649-1.256836-.1889649-.5976562 0-1.1367187.1215821-1.6171875.3647461-.4804687.2431641-.890625.5786133-1.2304687 1.0063477l-.0527344-1.1953125h-1.5380859v9.5097656zm11.0830078.175781c.2929688 0 .5419922-.020508.7470704-.061523.2050781-.041016.3720703-.079102.5009765-.114258v-1.318359c-.0820312.017578-.1977539.03955-.347168.065918-.149414.026367-.2915039.03955-.4262695.03955s-.2651367-.013183-.3911133-.03955c-.1259765-.026368-.2373047-.080567-.3339843-.162598-.0966797-.082031-.1743164-.197754-.2329102-.347168s-.0878906-.347168-.0878906-.593262v-5.8974607h1.7753906v-1.2568359h-1.7753906v-2.3027344h-1.6259766v2.3027344h-1.7314453v1.2568359h1.7314453v5.8886717c0 .47461.0585938.874512.1757813 1.199707.1171875.325196.2753906.587403.4746093.786621.1992188.199219.4321289.341309.6987305.42627s.5493164.127441.8481445.127441zm6.600586 0c.5507812 0 1.0517578-.068847 1.5029297-.206543.4511718-.137695.8378906-.32959 1.1601562-.575683.3222656-.246094.5698242-.541993.7426758-.887696s.2592773-.726562.2592773-1.142578c0-.386719-.0688476-.726562-.2065429-1.019531s-.347168-.552246-.628418-.777832-.6357422-.42334-1.0634766-.593262c-.4277343-.169922-.9316406-.322265-1.5117187-.457031-.4511719-.099609-.8188477-.197754-1.1030274-.294434-.2841796-.096679-.5083007-.202148-.6723632-.3164058-.1640625-.1142579-.2753907-.2416993-.3339844-.3823243-.0585938-.140625-.0878906-.2988281-.0878906-.4746093 0-.1757813.0351562-.347168.1054687-.5141602s.1816406-.3164062.3339844-.4482422c.1523437-.1318359.347168-.2373047.5844726-.3164062.2373047-.0791016.5258789-.1186524.8657227-.1186524.3222656 0 .6064453.0483399.8525391.1450196.2460937.0966796.4541015.2226562.6240234.3779296.1699219.1552735.2988281.3310547.3867187.5273438.0878907.1962891.131836.3911133.131836.5844726h1.6347656c0-.4101562-.0820312-.7954101-.2460937-1.1557617-.1640625-.3603515-.4028321-.6752929-.7163086-.9448242-.3134766-.2695312-.694336-.4819336-1.1425782-.637207-.4482421-.1552735-.9565429-.2329102-1.5249023-.2329102-.5332031 0-1.0166016.0747071-1.4501953.2241211-.4335938.1494141-.8027344.3515625-1.1074219.6064453s-.5405273.5507813-.7075195.8876953c-.1669922.3369141-.2504883.6928711-.2504883 1.0678711 0 .3925782.0791016.7353516.2373047 1.0283201.1582031.292969.3852539.546387.6811523.760254.2958985.213867.6547852.396973 1.0766602.549317.421875.152343.8964844.284179 1.4238281.395507.46875.09961.8466797.208008 1.1337891.325196.2871094.117187.5083008.244629.6635742.382324s.2592773.28418.3120117.439453.0791016.320801.0791016.496582c0 .193359-.0439453.373535-.131836.540527-.0878906.166993-.2182617.312012-.3911132.435059-.1728516.123047-.3852539.219727-.6372071.290039-.2519531.070313-.5449218.105469-.8789062.105469-.2578125 0-.515625-.029297-.7734375-.087891s-.4951172-.158203-.7119141-.298828-.3969726-.32373-.5405273-.549316-.2241211-.505371-.2416993-.839356h-1.6259765c0 .392578.0849609.774903.2548828 1.146973s.4189453.703125.7470703.993164.7338867.522949 1.2172852.69873c.4833984.175782 1.0415039.263672 1.6743164.263672z" fill="#fff"/></g></g></g></svg>