<svg height="216" viewBox="0 0 696 216" width="100%" xmlns="http://www.w3.org/2000/svg"><g fill="none" fill-rule="evenodd"><g fill="#000"><rect height="96" opacity=".08" rx="20" width="96"/><rect height="96" opacity=".08" rx="20" width="96" x="480"/><rect height="96" opacity=".08" rx="20" width="96" x="240" y="120"/><rect height="96" opacity=".08" rx="20" width="96" x="120"/><rect height="96" opacity=".08" rx="20" width="96" x="600"/><rect height="96" opacity=".08" rx="20" width="96" x="360" y="120"/><rect height="96" opacity=".08" rx="20" width="96" x="240"/><rect height="96" opacity=".08" rx="20" width="96" y="120"/><rect height="96" opacity=".08" rx="20" width="96" x="480" y="120"/><rect height="96" opacity=".08" rx="20" width="96" x="360"/><rect height="96" opacity=".08" rx="20" width="96" x="120" y="120"/><rect height="96" opacity=".08" rx="20" width="96" x="600" y="120"/></g><g fill="#fff" fill-rule="nonzero" transform="translate(263 143)"><path d="m25 1.49998443c12.9786916 0 23.5 10.52132397 23.5 23.50001557s-10.5213084 23.5-23.5 23.5-23.50001557-10.5213084-23.50001557-23.5c-.00716017-6.2347846 2.46642119-12.2162717 6.87508255-16.62493302 4.40866132-4.40866136 10.39014842-6.88224272 16.62493302-6.87508255m0-1.49998443c-13.8071187 0-25 11.1928813-25 25s11.1928813 25 25 25 25-11.1928813 25-25c-.0049671-13.8050608-11.1949392-24.99503286-25-25"/><path d="m25 39.9c-8.2290428 0-14.9-6.6709572-14.9-14.9s6.6709572-14.9 14.9-14.9 14.9 6.6709572 14.9 14.9c-.0203379 8.2206038-6.6793962 14.8796621-14.9 14.9zm0-28.3c-7.4006156 0-13.4 5.9993844-13.4 13.4s5.9993844 13.4 13.4 13.4 13.4-5.9993844 13.4-13.4-5.9993844-13.4-13.4-13.4z"/><path d="m33.7 29.6-9.4-4.3v-10.6h1.5v9.6l8.5 4z"/></g><g fill="#fff" fill-rule="nonzero" transform="translate(263 23)"><path d="m25 1.49998443c12.9786916 0 23.5 10.52132397 23.5 23.50001557s-10.5213084 23.5-23.5 23.5-23.50001557-10.5213084-23.50001557-23.5c-.00716017-6.2347846 2.46642119-12.2162717 6.87508255-16.62493302 4.40866132-4.40866136 10.39014842-6.88224272 16.62493302-6.87508255m0-1.49998443c-13.8071187 0-25 11.1928813-25 25s11.1928813 25 25 25 25-11.1928813 25-25c-.0049671-13.8050608-11.1949392-24.99503286-25-25"/><path d="m41.4 33.5-17.2-8v-19.3h1.6v18.3l16.2 7.6z"/></g><g fill="#fff" fill-rule="nonzero" transform="translate(383 23)"><path d="m25 1.49998443c12.9786916 0 23.5 10.52132397 23.5 23.50001557s-10.5213084 23.5-23.5 23.5-23.50001557-10.5213084-23.50001557-23.5c-.00716017-6.2347846 2.46642119-12.2162717 6.87508255-16.62493302 4.40866132-4.40866136 10.39014842-6.88224272 16.62493302-6.87508255m0-1.49998443c-13.8071187 0-25 11.1928813-25 25s11.1928813 25 25 25 25-11.1928813 25-25c-.0049671-13.8050608-11.1949392-24.99503286-25-25z"/><path d="m25 36.8c-1.4254172-.0250927-2.5749073-1.1745828-2.6-2.6v-6.4h-3.2v6.5c-.0677404 1.3904284-1.2079849 2.4868173-2.6 2.5-.6910336.0048345-1.3551664-.2675406-1.8438129-.7561871s-.7610216-1.1527793-.7562504-1.8438129v-18.4c.0678037-1.3904284 1.2080482-2.4868173 2.6000633-2.5.6910336-.0048345 1.3551664.2675406 1.8438129.7561871s.7610216 1.1527793.7561871 1.8438129v6.6h3.2v-6.8c.0677404-1.3904284 1.2079849-2.4868173 2.6-2.5.6910336-.0048345 1.3551664.2675406 1.8438129.7561871s.7610216 1.1527793.7561871 1.8438129v6.6h3.2v-6.8c.0677404-1.3904284 1.2079849-2.4868173 2.6-2.5000633.6910336-.0047712 1.3551664.2676039 1.8438129.7562504s.7610216 1.1527793.756265 1.8438129v11.3c.002914.2130763-.0804103.4183025-.2310929.568985-.1506825.1506826-.3559087.2340069-.568985.231015h-7.7v6.5c.0237306.6700346-.2320331 1.3198008-.7061162 1.7938838-.474083.4740831-1.1238492.7298468-1.7938838.7061162zm-6.6-10.5h4.7c.2130763-.0029919.4183025.0803324.568985.231015.1506826.1506825.2340069.3559087.231015.568985v7.2c0 .6075132.4924868 1.0999999 1.1 1.0999999s1.1-.4924867 1.1-1.0999999v-7.3c-.0029919-.2130763.0803324-.4183025.231015-.568985.1506825-.1506826.3559087-.2340069.568985-.231015h7.8v-10.3c0-.6075132-.4924868-1.1-1.1-1.1s-1.1.4924868-1.1 1.1v7.4c.0029919.2130763-.0803324.4183025-.231015.568985-.1506825.1506826-.3559087.2340069-.568985.231015h-4.7c-.2130763.0029919-.4183025-.0803324-.568985-.231015-.1506826-.1506825-.2340069-.3559087-.231015-.568985v-7.5c0-.6075132-.4924868-1.1-1.1-1.1s-1.1.4924868-1.1 1.1v7.4c.0029919.2130763-.0803324.4183025-.231015.568985-.1506825.1506826-.3559087.2340069-.568985.231015h-4.7c-.2130763.0029919-.4183025-.0803324-.568985-.231015-.1506826-.1506825-.2340069-.3559087-.231015-.568985v-7.5c0-.6075132-.4924868-1.1-1.1-1.1s-1.1.4924868-1.1 1.1v18.4c.0397088.5902838.5097162 1.0602912 1.1 1.1.6052504-.0054286 1.0945714-.4947496 1.1-1.1v-7.1c-.0044273-.1869736.0678999-.3676053.2001473-.4998527s.3128791-.2045746.4998527-.2001473z"/></g><g fill="#fff" fill-rule="nonzero" transform="translate(26 143)"><path d="m21.75 49.3c-12.01219331 0-21.75-9.7378067-21.75-21.75s9.73780669-21.75 21.75-21.75h2l-.1 1.5h-1.9c-10.2120441-.08998927-18.91396264 7.3922398-20.35552209 17.5024252-1.44155945 10.1101853 4.82239107 19.7263209 14.65262889 22.4940577 9.8302377 2.7677369 20.1912039-2.1675969 24.236365-11.5447294s.5253791-20.3004228-8.2334718-25.5517535l-.6-.4.8-1.3.6.4c6.5452816 3.965437 10.5596014 11.0473031 10.6 18.7-.0242066 11.974538-9.725462 21.6757934-21.7 21.7z"/><path d="m19.05 13.1-1.1-1.1 5.5-5.4-5.5-5.5 1.1-1.1 6.5 6.6z"/></g><g fill="#fff" fill-rule="nonzero" transform="translate(27 26)"><path d="m30.7 43.7h-7.7v-4.4c-2.0860419.3825039-4.2271489.348518-6.3-.1v4.4h-7.5v-6.7c-2.45677565-1.7900422-4.47431168-4.1153379-5.9-6.8h-3.3v-9.7h3.7c.69988938-2.0032276 2.03401161-3.7235431 3.8-4.9l-1.3-8.2 8.8 4.6c6.9-1.3 13.4.1 17.9 3.8 3.0205951 2.2779894 4.8271784 5.8174179 4.9000401 9.6.0119919 4.8693834-2.6863698 9.3409542-7.0000401 11.6v6.8zm-6.2-1.5h4.7v-6.2l.4-.2c4.0200168-1.957579 6.5790291-6.028735 6.6-10.5-.1231468-3.3483912-1.7371201-6.4662942-4.4-8.5-4.2-3.5-10.4-4.7-16.9-3.4l-.3.1-6.6-3.4 1 6.2-.4.3s-3.1 1.9-3.7 4.8v.5h-3.4v6.7h2.7l.2.4c1.34736874 2.7375228 3.3798469 5.0800401 5.9 6.8l.4.2v6.1h4.5v-4.8l.9.2s4.3 1.1 7.4 0l1-.3z"/><path d="m8.8 20.4h2.5v1.5h-2.5z"/><path d="m37.4 26.1c-.2360811-.0099408-.4705787-.0434405-.7-.1l.3-1.5c.5348118.1017028 1.0868409-.0455049 1.5-.4.7-.6 1.1-1.7 1.1-3.4h1.5c0 2.2-.6 3.7-1.6 4.6-.5575877.5481937-1.3190027.8382566-2.1.8z"/><path d="m23.6 12.9-.7-1.3c2.2084476-1.0646698 3.3984341-3.50507723 2.8773056-5.90073737s-2.6173389-4.12122044-5.0684926-4.17228614c-2.4511538-.0510657-4.6174125 1.58569315-5.2378647 3.95757036-.6204521 2.37187721.4668624 4.85972845 2.6290517 6.01545315l-.7 1.3c-2.7532059-1.4683765-4.1537529-4.62210664-3.396969-7.64924225s3.476669-5.15075775 6.596969-5.15075775c3.7392727.03897648 6.7610235 3.06072728 6.8 6.8.0185935 2.59682746-1.460943 4.9718728-3.8 6.1z"/></g><g fill="#fff" fill-rule="nonzero" transform="translate(144 24)"><path d="m3.36132175 32.4613218-.4-.6c-2.86316285-4.8107485-3.69204926-10.5638592-2.3033747-15.9871963 1.38867455-5.4233371 4.88050564-10.07010498 9.70337475-12.91280375 4.8107484-2.86316285 10.5638591-3.69204926 15.9871962-2.3033747 5.4233371 1.38867455 10.070105 4.88050564 12.9128038 9.70337475l.4.6zm17.70000005-31.00002179c-3.5141167-.00519002-6.9660517.92683243-10 2.70002174-4.48000005 2.64-7.72000005 6.96000005-9.00000005 12.00000005-1.20758351 4.780776-.60197571 9.8393824 1.7 14.2l33.80000005-20c-2.6862463-4.08287264-6.7788061-7.03663322-11.5-8.30000005-1.6371742-.39647424-3.3155041-.59787383-5-.60002174z"/><path d="m14.2613218 25.1613218c-2.5924547-4.2351985-4.48349504-8.8614937-5.60000005-13.7-.9-4.30000005-.3-7.40000005 1.70000005-8.50000005l.8 1.3c-1.30000005.8-1.70000005 3.3-1 6.90000005 1.0940608 4.6567814 2.9164974 9.1116265 5.4 13.2z"/><path d="m27.6613218 17.2613218c-2.3400797-4.1895375-5.3846295-7.94448229-9-11.10000005-2.8-2.4-5.2-3.3-6.6-2.5l-.7-1.3c1.9-1.2 4.9-.2 8.3 2.6 3.6927337 3.31352167 6.8323087 7.19579185 9.3 11.50000005z"/><path d="m28.786382 18.775243h1.5v31.9h-1.5z" transform="matrix(.84999385 -.52679262 .52679262 .84999385 -13.862363 20.768548)"/><path d="m9.362943 1.047993h1.5v2.7h-1.5z" transform="matrix(.86099957 -.50860569 .50860569 .86099957 .186071 5.476822)"/><path d="m1.861322 44.861322h46.9v1.5h-46.9z"/></g><g fill="#fff" fill-rule="nonzero" transform="translate(147 143)"><path d="m27.7 49.8177285c-2.7 0-3.7-.7-4.5-1.3-.7153987-.5484107-1.5991249-.831203-2.5-.8-.9047873-.0612976-1.7988873.2248144-2.5.8-1.2906112.9689355-2.8915092 1.4314171-4.5 1.3-5.1 0-13.7-10.9-13.7-22.4 0-11.4 7.9-16.1 12.1-16.1 1.9471384.030356 3.887881.2311224 5.8.6.9565284.1986468 1.9254119.3322859 2.9.4.9745881-.0677141 1.9434716-.2013532 2.9-.4 1.9113254-.3742174 3.8525452-.5750333 5.8-.6 4.2 0 12.1 4.7 12.1 16.1-.1 11.5-8.7 22.4-13.9 22.4zm-7-3.6c1.1976155-.0500061 2.3719112.3414258 3.3 1.1 1.0781665.7563508 2.3876155 1.1102559 3.7 1 3.9 0 12.2-9.9 12.2-20.9 0-11.1-7.8-14.6-10.6-14.6-1.8479511.0293578-3.6891859.2302198-5.5.6-1.0225038.2068983-2.0584679.3405711-3.1.4-1.0415321-.0594289-2.0774962-.1931017-3.1-.4-1.8125255-.3587218-3.6527622-.5594749-5.5-.6-2.8 0-10.6 3.5-10.6 14.6 0 11 8.3 20.9 12.2 20.9 1.3123845.1102559 2.6218335-.2436492 3.7-1 .9375115-.7413034 2.1052088-1.1305358 3.3-1.1z"/><path d="m21.5 13.0177285h-1.5c0-8.39999997 9.6-11.69999997 10-11.89999997l.5 1.4c-.1.1-9 3.2-9 10.49999997z"/><path d="m19.3 11.0177285c-1.5 0-5.4-.3-8.1-2.79999997-1.96992715-1.945385-3.02363778-4.63416387-2.9-7.4v-.7l.7-.1c.2 0 5-.4 8.3 2.6 2.0970227 1.96431219 3.2603879 4.72730442 3.2 7.59999997v.7l-.7.1zm-9.5-9.49999997c.00277702 2.06664445.83076 4.04660372 2.3 5.5 1.8996715 1.59981626 4.3169865 2.45298625 6.8 2.4-.0530831-2.19641255-1.0341407-4.26753407-2.7-5.7-1.8060815-1.4670309-4.0736407-2.24650439-6.4-2.2z"/></g><g fill="#fff" fill-rule="nonzero" transform="translate(510 143)"><path d="m26.058 0h-26.058v49.4h35.2v-40.363zm.442 2.546 6.529 6.454h-6.529zm-25 45.354v-46.4h23.5v9h8.7v37.4z"/><path d="m6.25 14.301h22.4v1.5h-22.4z"/><path d="m6.25 20.801h22.4v1.5h-22.4z"/><path d="m6.25 26.601h22.4v1.5h-22.4z"/><path d="m6.25 33.301h22.4v1.5h-22.4z"/></g><g fill="#fff" fill-rule="nonzero" transform="translate(626 26)"><path d="m21.7027896 43.4h-.8v-1.5h.8c9.1018023-.0069408 17.0765706-6.0957487 19.4812899-14.8741413 2.4047192-8.7783927-1.35369-18.0813423-9.1812899-22.7258587l-.6-.4.8-1.3.6.4c6.5452816 3.965437 10.5596014 11.0473031 10.6 18.7-.0242066 11.974538-9.725462 21.6757934-21.7 21.7z"/><path d="m32.9027896 11.6h-1.4v-9.3h9.2v1.5h-7.8z"/><path d="m11.2027896 40.8-.6-.4c-8.39384255-5.0064016-12.41357955-14.999888-9.8242503-24.4241133 2.58932924-9.4242254 11.150795-15.96099519 20.9242503-15.9758867h.8v1.5h-.8c-9.1018023.0069408-17.07657055 6.09574867-19.48128982 14.8741413-2.40471927 8.7783927 1.35368994 18.0813423 9.18128982 22.7258587l.6.4z"/><path d="m11.9027896 41.1h-9.19999998v-1.5h7.79999998v-7.8h1.4z"/></g><path d="m50 5.35h-17.5c-.3696701-3.03862247-2.9390413-5.32964512-6-5.35h-3c-3.0611286.0199133-5.6307492 2.31115829-6 5.35h-17.5v11.4c.00202915 1.8171391.5036447 3.5987391 1.45 5.15v18.3h47.1v-18.3c.9468315-1.5510532 1.4484854-3.3327896 1.45-5.15zm-29.707-2.507c.8480634-.85604108 2.0020087-1.33928039 3.207-1.343h3c2.2349322.01127078 4.1316978 1.64203172 4.478 3.85h-11.956c.1489232-.94871488.593757-1.8261329 1.271-2.507zm-18.79300289 4.007h46.99999999v9.9c.0018622 2.2549096-.8930739 4.4179983-2.4875363 6.0124608-1.5944625 1.5944624-3.7575512 2.4893985-6.0124637 2.4875421h-2.7499971v-2.5000029h-1.5v2.5000029h-21.6v-2.5000029h-1.5v2.5000029h-2.65000289c-2.25490675.0018564-4.41799545-.8930797-6.01245789-2.4875421-1.59446244-1.5944625-2.4893985-3.7575512-2.48754211-6.0124608zm1.45000289 31.85v-14.875c1.86897821 1.8715537 4.4050442 2.9237513 7.05 2.925h2.65v3h1.5v-3h21.6v3h1.5v-3h2.75c2.6452091-.0009639 5.1814976-1.0536135 7.05-2.926v14.876z" fill="#fff" fill-rule="nonzero" transform="translate(623 148)"/><g fill="#fff" fill-rule="nonzero" transform="translate(510.05 20)"><path d="m9.143 48.532h13.769v1.5h-13.769z"/><path d="m31.336 25.691h-31.336v6.524c-.00057918 6.3844453 3.87155318 12.1311343 9.789 14.528l.138.056 11.7-.089.138-.058c5.8005408-2.4527354 9.5695964-8.139208 9.569-14.437zm-1.4999998 6.524c.0010129 5.6455989-3.3498335 10.7529975-8.5290002 13l-11.08.085c-5.28483213-2.1986951-8.72784242-7.3610407-8.72700015-13.085v-5.024h28.33600035z"/><path d="m37.6 31.244c-.695886-.9940871-1.7005703-1.730551-2.858-2.095-.5456816-.1892499-1.1132509-.3082076-1.689-.354l-.077 1.5c.7450298.0712598 1.4679016.2927137 2.125.651.5181936.2827986.9585556.6891545 1.282 1.183.4016194.6592023.601504 1.4215446.575 2.193.0201224 1.7751042-.7968257 3.4560537-2.205 4.537-1.2218302.9710802-2.7267698 1.5176608-4.287 1.557v1.5c1.9048955-.0352819 3.7448254-.6986268 5.234-1.887 1.7627094-1.3671231 2.7866981-3.4783372 2.769-5.709.025327-1.0892745-.277446-2.1610003-.869-3.076z"/><path d="m12.642 22.916c.3677828.2857881.7576743.5419261 1.166.766l.7-1.329c-.5710408-.322434-1.1006184-.7133207-1.577-1.164-.3783355-.3526639-.7028007-.7590035-.963-1.206-.2534257-.4313396-.3912046-.920799-.4-1.421.0430245-.5316577.2700519-1.0316838.642-1.414.8128692-.8572686 1.6981485-1.6428452 2.646-2.348.460558-.3634713.8857775-.7696061 1.27-1.213.3914821-.427092.6217094-.9773741.651-1.556-.0321143-.6746013-.2388616-1.3293011-.6-1.9-.5123223-.83049621-1.1227089-1.5963333-1.818-2.281-.592-.6-1.06-.995-1.073-1l-.964 1.149.029.025c.5886216.50856263 1.1397234 1.05899606 1.649 1.647.3505827.4023532.6613672.8377195.928 1.3.2017779.3214374.3231993.6867308.354 1.065-.0088921.1206293-.0499875.2366633-.119.336-.2899541.4170505-.6412516.7879019-1.042 1.1-.739.631-1.7 1.326-2.514 2.126-.4108004.3914866-.7679089.8356866-1.062 1.321-.3026631.497167-.4673165 1.0660324-.477 1.648.0091929.7793388.2241106 1.5424175.623 2.212.5062653.831613 1.168797 1.5573076 1.951 2.137z"/><path d="m16.587 7.764c.8.683 1.737 1.362 2.433 2.052.3156102.2982684.5909362.6364587.819 1.006.1692863.2682353.2635591.5769528.273.894-.0081504.516818-.1538099 1.0221388-.422 1.464-.4099728.6614097-.9425165 1.2384169-1.569 1.7-.2207632.1696174-.4500631.3278243-.687.474l-.2.12-.05.028-.011.006.7 1.328c.6605478-.366626 1.2740524-.8122311 1.827-1.327.5060027-.4598673.9404645-.9927487 1.289-1.581.3990232-.6694725.6136316-1.4326779.622-2.212-.0394192-.8819265-.3889645-1.72161435-.987-2.371-.8712043-.93190889-1.8243687-1.7836657-2.848-2.545-.3847433-.30052711-.7415289-.63522272-1.066-1-.1649822-.16186335-.2742427-.37197971-.312-.6.036808-.41099996.1741793-.80662945.4-1.152.4484575-.72103979.9808418-1.38635235 1.586-1.982.271-.276.516-.5.692-.665l.206-.183.069-.06-.961-1.158c-.600272.51835914-1.1648874 1.07662685-1.69 1.671-.4511962.49905181-.8530671 1.04057288-1.2 1.617-.3621922.57053925-.5706121 1.22508094-.605 1.9.0086212.38960154.1222889.76964535.329 1.1.372861.56142247.8329884 1.05969694 1.363 1.476z"/></g><g fill="#fff" fill-rule="nonzero" transform="translate(389 146)"><path d="m35.8 43.7001152h-33c-1.5463973 0-2.8-1.2537179-2.8-2.8001152v-19.5c0-1.5463973 1.2536027-2.8 2.8-2.8h33c1.5463973 0 2.8 1.2536027 2.8 2.8v19.6c-.0413694 1.5127528-1.2867432 2.713649-2.8 2.7001152zm-33-23.6001152c-.33253831.0103347-.64697485.153866-.87263787.3983343-.22566302.2444682-.34362102.5693644-.32736213.9016657v19.6c.0086173.6591393.5408607 1.1913827 1.2 1.2h33c.6591393-.0086173 1.1913827-.5408607 1.2-1.2v-19.6c-.0086173-.6591393-.5408607-1.1913827-1.2-1.2h-33z"/><path d="m8 19.5h-1.5v-7.9c0-6.4 5.8-11.6 12.9-11.6s12.9 5.2 12.9 11.6v1.6h-1.5v-1.6c0-5.6-5.1-10.1-11.4-10.1s-11.4 4.5-11.4 10.1z"/></g></g></svg>