<?xml version="1.0" encoding="UTF-8"?>
<svg width="180px" height="182px" viewBox="0 0 180 182" version="1.1" xmlns="http://www.w3.org/2000/svg" xmlns:xlink="http://www.w3.org/1999/xlink">
    <title>B9C4701C-B6F2-4CF8-BD2E-B1353551064C</title>
    <g id="Numbers" stroke="none" stroke-width="1" fill="none" fill-rule="evenodd">
        <g id="Numbers---1920x1080" transform="translate(-870.000000, -5294.000000)" fill="#FFFFFF" fill-rule="nonzero">
            <g id="Why-Expense" transform="translate(0.000000, 2208.000000)">
                <g id="card-small-icon-copy-3" transform="translate(730.000000, 2684.000000)">
                    <g id="icon-card-products" transform="translate(140.000000, 402.000000)">
                        <path d="M79.5943206,181.095335 L0,101.866126 L97.4847868,4.74645031 L146.409737,0 L180,33.5902637 L177.079107,83.6105478 L79.5943206,181.095335 Z M8.03245436,101.866126 L79.5943206,173.062881 L171.602435,81.4198784 L174.523327,35.7809331 L144.584179,5.841785 L99.675457,9.85801216 L8.03245436,101.866126 Z" id="Shape"></path>
                        <polygon id="Rectangle" transform="translate(77.952484, 103.317845) rotate(-44.732605) translate(-77.952484, -103.317845) " points="75.2141442 73.3786576 80.6908248 73.3786576 80.6908248 133.257032 75.2141442 133.257032"></polygon>
                        <polygon id="Rectangle" transform="translate(64.440240, 116.843205) rotate(-44.724503) translate(-64.440240, -116.843205) " points="61.7018982 86.9039976 67.1785824 86.9039976 67.1785824 146.782412 61.7018982 146.782412"></polygon>
                        <path d="M134.726166,61.3387425 C125.963489,61.3387425 119.026369,54.0365112 119.026369,45.2738337 C119.026369,36.5111562 126.328601,29.208925 134.726166,29.208925 C143.123732,29.208925 150.791075,36.5111562 150.791075,45.2738337 C150.791075,54.0365112 143.488844,61.3387425 134.726166,61.3387425 Z M134.726166,34.6855984 C128.884382,34.6855984 124.503043,39.4320487 124.503043,45.2738337 C124.503043,51.1156187 128.884382,55.862069 134.726166,55.862069 C140.567951,55.862069 145.314402,51.1156187 145.314402,45.2738337 C145.314402,39.4320487 140.567951,34.6855984 134.726166,34.6855984 Z" id="Shape"></path>
                    </g>
                </g>
            </g>
        </g>
    </g>
</svg>