<?xml version="1.0" encoding="UTF-8"?>
<svg width="120px" height="22px" viewBox="0 0 120 22" version="1.1" xmlns="http://www.w3.org/2000/svg" xmlns:xlink="http://www.w3.org/1999/xlink">
    <title>EBC4D534-D6DC-409E-B3E5-FD8614770479</title>
    <g id="Website" stroke="none" stroke-width="1" fill="none" fill-rule="evenodd">
        <g id="01---Frontpage" transform="translate(-260.000000, -45.000000)" fill="#FFFFFF" fill-rule="nonzero">
            <g id="logotype_white-color" transform="translate(260.000000, 45.000000)">
                <g id="Group" transform="translate(27.000000, 4.000000)">
                    <path d="M0.7,12.8 C0.7,12.5 0.8,12.3 1,12.1 L9,1.9 L1.5,1.9 C1.1,1.9 0.8,1.6 0.8,1.2 C0.8,0.8 1.1,0.5 1.5,0.5 L10.3,0.5 C10.7,0.5 10.9,0.8 11,1.1 C11,1.3 10.9,1.6 10.7,1.7 L2.6,12 L10.4,12 C10.8,12 11.1,12.3 11.1,12.6 C11.1,13 10.8,13.3 10.5,13.3 C10.5,13.3 10.5,13.3 10.4,13.3 L1.3,13.3 C1,13.5 0.7,13.2 0.7,12.8 L0.7,12.8 Z" id="Path"></path>
                    <path d="M17.2,12.7 L17.2,1.3 C17.2,0.9 17.5,0.6 17.9,0.6 L25.9,0.6 C26.3,0.6 26.6,0.9 26.5,1.3 C26.5,1.6 26.2,1.9 25.9,1.9 L18.6,1.9 L18.6,6.3 L25.1,6.3 C25.5,6.3 25.8,6.6 25.8,7 C25.8,7.4 25.5,7.7 25.1,7.7 L18.7,7.7 L18.7,12.2 L26,12.2 C26.4,12.2 26.7,12.5 26.7,12.9 C26.7,13.3 26.4,13.6 26,13.6 L17.9,13.6 C17.5,13.4 17.2,13.1 17.2,12.7 L17.2,12.7 Z" id="Path"></path>
                    <path d="M32.6,1.2 C32.6,0.8 32.9,0.5 33.3,0.5 L33.5,0.5 C33.8,0.5 34.1,0.7 34.2,0.9 L42,10.9 L42,1.2 C42,0.8 42.3,0.5 42.7,0.5 C43.1,0.5 43.4,0.8 43.4,1.2 L43.4,12.8 C43.4,13.2 43.1,13.5 42.8,13.5 L42.7,13.5 C42.4,13.5 42.1,13.3 41.9,13.1 L33.9,2.9 L33.9,12.9 C33.9,13.3 33.6,13.6 33.2,13.6 C32.8,13.6 32.5,13.3 32.5,12.9 C32.5,12.9 32.5,12.9 32.5,12.8 L32.6,1.2 Z" id="Path"></path>
                    <path d="M50.3,12.7 L50.3,1.3 C50.3,0.9 50.6,0.6 51,0.6 L59,0.6 C59.4,0.6 59.7,0.9 59.7,1.2 C59.7,1.5 59.4,1.9 59.1,1.9 C59.1,1.9 59.1,1.9 59,1.9 L51.7,1.9 L51.7,6.3 L58.2,6.3 C58.6,6.3 58.9,6.6 58.9,7 C58.9,7.4 58.6,7.7 58.2,7.7 L51.7,7.7 L51.7,12.2 L59.1,12.2 C59.5,12.2 59.8,12.5 59.8,12.9 C59.8,13.3 59.5,13.6 59.1,13.6 L51,13.6 C50.7,13.4 50.3,13.1 50.3,12.7 L50.3,12.7 Z" id="Path"></path>
                    <path d="M65.1,7 C65,3.4 67.8,0.4 71.4,0.3 L71.6,0.3 C73.2,0.2 74.7,0.7 76,1.7 C76.2,1.8 76.3,2.1 76.3,2.3 C76.3,2.7 76,3 75.6,3 C75.4,3 75.3,2.9 75.1,2.8 C74.1,2 72.8,1.6 71.5,1.6 C68.7,1.7 66.5,4 66.6,6.8 L66.6,6.9 C66.6,10 68.6,12.3 71.7,12.3 C73,12.3 74.4,11.8 75.4,11 L75.4,7.8 L72,7.8 C71.6,7.8 71.3,7.5 71.3,7.1 C71.3,6.7 71.6,6.4 72,6.4 L76.1,6.4 C76.5,6.4 76.8,6.7 76.8,7.1 L76.8,11 C76.8,11.4 76.6,11.7 76.3,11.9 C74.9,12.9 73.3,13.5 71.6,13.5 C68.1,13.6 65.2,10.9 65,7.4 C65.1,7.4 65.1,7.2 65.1,7 L65.1,7 Z" id="Path"></path>
                    <path d="M86.5,8.4 L81.7,1.7 C81.6,1.6 81.5,1.4 81.5,1.2 C81.5,0.8 81.9,0.5 82.3,0.5 C82.6,0.5 82.9,0.7 83,0.9 L87.3,7 L91.6,0.9 C91.7,0.6 92,0.5 92.3,0.5 C92.7,0.5 93,0.8 93,1.2 C93,1.4 92.9,1.6 92.8,1.7 L88,8.3 L88,12.8 C88,13.2 87.7,13.5 87.3,13.5 C86.9,13.5 86.6,13.2 86.6,12.8 L86.5,8.4 Z" id="Path"></path>
                </g>
                <g id="Z" transform="translate(-0.000000, 0.000000)">
                    <path d="M3.29427191,21.8075767 C1.89427191,21.8075767 0.59427191,21.0075767 0.19427191,19.6075767 C-0.30572809,18.3075767 0.19427191,16.8075767 1.29427191,16.0075767 L15.8942719,4.70757674 C16.5942719,4.20757674 16.7942719,3.30757674 16.4942719,2.60757674 C16.1942719,1.80757674 15.4942719,1.30757674 14.5942719,1.30757674 L3.29427191,1.30757674 C2.49427191,1.30757674 1.69427191,1.80757674 1.39427191,2.60757674 C1.09427191,3.40757674 1.39427191,4.30757674 1.99427191,4.70757674 L3.79427191,6.10757674 C4.09427191,6.30757674 4.09427191,6.70757674 3.89427191,7.00757674 C3.79427191,7.30757674 3.39427191,7.40757674 3.09427191,7.20757674 L1.29427191,5.70757674 C0.19427191,4.90757674 -0.30572809,3.40757674 0.19427191,2.10757674 C0.59427191,0.80757674 1.89427191,-0.09242326 3.29427191,0.00757673997 L14.6942719,0.00757673997 C16.0942719,0.00757673997 17.2942719,0.90757674 17.7942719,2.20757674 C18.2942719,3.50757674 17.7942719,5.00757674 16.6942719,5.80757674 L2.09427191,17.1075767 C1.39427191,17.6075767 1.19427191,18.5075767 1.49427191,19.2075767 C1.79427191,20.0075767 2.49427191,20.5075767 3.39427191,20.5075767 L14.7942719,20.5075767 C15.5942719,20.5075767 16.3942719,20.0075767 16.6942719,19.2075767 C16.9942719,18.4075767 16.6942719,17.6075767 16.0942719,17.1075767 L13.9942719,15.6075767 C13.6942719,15.4075767 13.6942719,15.0075767 13.8942719,14.7075767 C14.0942719,14.4075767 14.4942719,14.3075767 14.8942719,14.5075767 L16.7942719,16.0075767 C17.8942719,16.8075767 18.2942719,18.3075767 17.7942719,19.6075767 C17.2942719,20.9075767 16.0942719,21.8075767 14.6942719,21.8075767 L3.29427191,21.8075767 Z M2.09427191,12.4075767 C1.89427191,12.4075767 1.69427191,12.3075767 1.59427191,12.1075767 C1.39427191,11.8075767 1.39427191,11.4075767 1.69427191,11.2075767 L9.59427191,5.10757674 L6.59427191,5.10757674 C6.19427191,5.20757674 5.79427191,4.90757674 5.79427191,4.60757674 C5.79427191,4.20757674 5.99427191,3.90757674 6.39427191,3.80757674 L6.49427191,3.80757674 L10.9942719,3.80757674 C11.3942719,3.80757674 11.6942719,4.00757674 11.7942719,4.40757674 C11.8942719,4.70757674 11.7942719,5.10757674 11.4942719,5.30757674 L2.39427191,12.3075767 C2.29427191,12.4075767 2.19427191,12.4075767 2.09427191,12.4075767 Z M6.99427191,17.9075767 C6.59427191,17.9075767 6.29427191,17.7075767 6.19427191,17.3075767 C6.09427191,17.0075767 6.19427191,16.6075767 6.49427191,16.4075767 L15.5942719,9.40757674 C15.8942719,9.20757674 16.2942719,9.20757674 16.4942719,9.50757674 C16.6942719,9.80757674 16.6942719,10.2075767 16.3942719,10.4075767 C16.3942719,10.4075767 16.3942719,10.4075767 16.2942719,10.4075767 L8.39427191,16.5075767 L11.1942719,16.5075767 C11.5942719,16.5075767 11.8942719,16.7075767 11.8942719,17.1075767 C11.8942719,17.5075767 11.6942719,17.8075767 11.2942719,17.8075767 L11.1942719,17.8075767 L6.99427191,17.9075767 Z" id="Shape"></path>
                </g>
            </g>
        </g>
    </g>
</svg>