<?xml version="1.0" encoding="UTF-8"?>
<svg width="32px" height="24px" viewBox="0 0 32 24" version="1.1" xmlns="http://www.w3.org/2000/svg" xmlns:xlink="http://www.w3.org/1999/xlink">
    <title>pwc</title>
    <g id="Numbers" stroke="none" stroke-width="1" fill="none" fill-rule="evenodd">
        <g id="Numbers---1920x1080" transform="translate(-1291.000000, -9610.000000)" fill-rule="nonzero">
            <g id="Footer" transform="translate(0.000000, 8975.000000)">
                <g id="Policies" transform="translate(448.000000, 624.000000)">
                    <g id="logo-pwc" transform="translate(843.000000, 0.000000)">
                        <g id="pwc" transform="translate(0.000000, 11.000000)">
                            <polygon id="Path_109" fill="#E669A2" points="31.996 10.305 20.356 10.305 20.356 7.358 31.996 7.358"></polygon>
                            <polygon id="Path_110" fill="#F3BE26" points="30.488 10.305 20.36 10.305 20.36 2.942 30.488 2.942"></polygon>
                            <polygon id="Path_111" fill="#EE9C34" points="26.303 10.305 20.36 10.305 20.36 0 26.303 0"></polygon>
                            <polygon id="Path_112" fill="#F3BC87" points="27.473 10.305 20.36 10.305 20.36 1.15 27.473 1.15"></polygon>
                            <polygon id="Path_113" fill="#E3721C" points="20.359 1.152 20.359 10.305 26.304 10.305 26.304 1.152"></polygon>
                            <polygon id="Path_114" fill="#AD1B02" points="14.401 10.302 20.361 10.302 20.361 11.774 14.401 11.774"></polygon>
                            <polygon id="Path_115" fill="#E88D14" points="20.359 2.941 20.359 10.305 27.477 10.305 27.477 2.941"></polygon>
                            <polygon id="Path_116" fill="#D85604" points="20.359 2.941 20.359 10.305 26.304 10.305 26.304 2.941"></polygon>
                            <polygon id="Path_117" fill="#C14303" points="24.077 10.305 20.36 10.305 20.36 5.886 24.077 5.886"></polygon>
                            <polygon id="Path_118" fill="#DB4E18" points="20.359 7.364 20.359 10.305 30.492 10.305 30.492 7.364"></polygon>
                            <polygon id="Path_119" fill="#D1390D" points="20.359 7.364 20.359 10.305 27.477 10.305 27.477 7.364"></polygon>
                            <polygon id="Path_120" fill="#C22303" points="20.359 7.364 20.359 10.305 26.304 10.305 26.304 7.364"></polygon>
                            <polygon id="Path_121" fill="#AD1B02" points="20.359 7.364 20.359 10.305 24.081 10.305 24.081 7.364"></polygon>
                            <path d="M21.656,15.85 C20.642,16.028 20.101,16.785 20.101,18.099 C20.101,19.435 20.822,20.326 21.881,20.326 C22.5614324,20.2651117 23.217724,20.0437204 23.796,19.68 L23.796,20.771 C22.9562664,21.2158543 22.0192669,21.4453796 21.069,21.439 C20.2149899,21.510704 19.3729981,21.2009975 18.769,20.593 C18.1810829,20.0133898 17.8558939,19.2184833 17.869,18.393 C17.870712,17.4840149 18.2555922,16.6178791 18.9290744,16.007405 C19.6025566,15.3969309 20.5022148,15.0987041 21.407,15.186 C22.782,15.186 23.751,15.832 23.751,16.745 C23.7530008,17.0306639 23.6351157,17.3040752 23.4260218,17.4987226 C23.2169279,17.69337 22.9357903,17.7914126 22.651,17.769 C22.2990051,17.7520365 21.9573347,17.6445756 21.659,17.457 M16.589,18.392 C17.513,17.256 17.851,16.792 17.851,16.232 C17.8484021,15.9490187 17.7324385,15.678897 17.5290699,15.4821068 C17.3257013,15.2853167 17.0519138,15.1782948 16.769,15.185 C16.4448651,15.1935671 16.1372243,15.3297773 15.913,15.564 L15.913,17.902 L14.403,19.902 L14.403,15.362 L12.958,15.362 L10.569,19.262 L10.569,15.362 L9.758,15.362 L7.572,15.852 L7.572,16.409 L8.766,16.52 L8.766,21.352 L10.276,21.352 L12.576,17.611 L12.576,21.352 L14.266,21.352 M3,20.593 L3.338,20.593 C4.555,20.593 5.231,19.858 5.231,18.393 C5.231,17.168 4.69,16.5 3.676,16.5 C3.44840766,16.508797 3.22211373,16.5385902 3,16.589 L3,20.597 L3,20.593 Z M3,23.221 L3.992,23.444 L3.992,24.001 L0.09,24.001 L0.09,23.444 L0.99,23.221 L0.99,16.496 L0,16.496 L0,15.939 L2.366,15.226 L3,15.226 L3,16.026 C3.59078331,15.552855 4.31682489,15.2800202 5.073,15.247 C6.38,15.247 7.373,16.447 7.373,18.12 C7.40737694,19.0093673 7.06004253,19.8710332 6.41849313,20.487937 C5.77694374,21.1048408 4.90233937,21.418172 4.015,21.349 C3.79,21.349 3.407,21.327 3.001,21.304" id="Path_122" fill="#FFFFFF"></path>
                        </g>
                    </g>
                </g>
            </g>
        </g>
    </g>
</svg>