<svg xmlns="http://www.w3.org/2000/svg" viewBox="0 0 50.79 69.02"><defs><style>.cls-1{fill:none;stroke:#2CA3DB;stroke-miterlimit:10;stroke-width:1px;}</style></defs><g id="Lag_2" data-name="Lag 2"><g id="Lag_1-2" data-name="Lag 1"><path class="cls-1" d="M49.14,35.92,33.52,22.5a4,4,0,0,0-1-.61l-.09-.23h-.76a3.38,3.38,0,0,0-1.1,0H20.11a3.32,3.32,0,0,0-1.09,0h-.66l-.06.18a3.76,3.76,0,0,0-1.12.66L1.64,35.92a3.65,3.65,0,1,0,4.78,5.53l8.73-7.54V41H35.81V34.13l8.53,7.32a3.63,3.63,0,0,0,2.4.89,3.65,3.65,0,0,0,2.4-6.42Z"/><path class="cls-1" d="M16.9,53.89l4.79-2.84-6.92-6.78L9.45,51.75a3.64,3.64,0,0,0,0,4.21L17.2,67.09a3.66,3.66,0,0,0,6-4.19Z"/><path class="cls-1" d="M41.34,51.75l-5-7-7.07,6.31,4.61,2.84-6.29,9A3.65,3.65,0,0,0,28.5,68a3.66,3.66,0,0,0,5.09-.9L41.36,56A3.67,3.67,0,0,0,41.34,51.75Z"/><circle class="cls-1" cx="25.48" cy="10.62" r="10.24" transform="translate(13.82 35.63) rotate(-87.62)"/></g></g></svg>