<svg xmlns="http://www.w3.org/2000/svg" viewBox="0 0 40.8 81.43"><defs><style>.cls-1{fill:none;stroke:#2CA3DB;stroke-miterlimit:10;stroke-width:1px;}</style></defs><g id="Lag_2" data-name="Lag 2"><g id="Lag_1-2" data-name="Lag 1"><polygon class="cls-1" points="19.36 21.47 18.88 13.81 18.53 13.4 18.65 12.78 18.16 12.55 18.12 11.89 17.67 11.43 17.78 10.9 17.26 10.67 17.2 10.06 7.7 1.58 8.93 0.34 18.61 8.94 19.07 9.36 19.59 9.54 19.5 10.04 20.07 10.19 20.02 10.86 20.46 11.15 20.41 11.73 20.66 12.14 20.48 12.76 20.9 13.19 21.13 21.47 19.36 21.47"/><path class="cls-1" d="M34.28,33.44H3.13L8.88,78.16s1.08,3,5.4,3H26.51c4.32,0,5.4-3,5.4-3l5.76-44.72Z"/><path class="cls-1" d="M39.3,26H1.49a1.28,1.28,0,0,0-1.24,1.3V30.7A1.27,1.27,0,0,0,1.49,32H39.3a1.27,1.27,0,0,0,1.25-1.3V27.28A1.28,1.28,0,0,0,39.3,26Z"/><path class="cls-1" d="M36.08,24.5a4,4,0,0,0-3.65-2.72h-25A4,4,0,0,0,3.82,24.5Z"/></g></g></svg>