<svg xmlns="http://www.w3.org/2000/svg" viewBox="0 0 64.4 64.43"><defs><style>.cls-1,.cls-2{fill:none;stroke:#000;stroke-miterlimit:10;}.cls-1{stroke-width:1px;}.cls-2{stroke-width:0.50px;}</style></defs><g id="Lag_2" data-name="Lag 2"><g id="Lag_1-2" data-name="Lag 1"><path class="cls-1" d="M62.87,34.22a2.12,2.12,0,0,0,1.28-1.95V32a2.12,2.12,0,0,0-1.3-1.93,2.12,2.12,0,0,0,1-2.1l0-.21A2.13,2.13,0,0,0,62.3,26,2.11,2.11,0,0,0,63,23.77L63,23.55A2.13,2.13,0,0,0,61.2,22a2.11,2.11,0,0,0,.42-2.29l-.09-.21a2.11,2.11,0,0,0-1.94-1.28h0a2.14,2.14,0,0,0,.11-2.33l-.12-.19a2.12,2.12,0,0,0-2.1-1,2.12,2.12,0,0,0-.2-2.32l-.14-.17a2.13,2.13,0,0,0-2.22-.72,2.11,2.11,0,0,0-.51-2.27l-.16-.16A2.12,2.12,0,0,0,52,8.65a2.11,2.11,0,0,0-.8-2.18L51,6.34a2.09,2.09,0,0,0-2.32-.11,2.12,2.12,0,0,0-1.09-2.06l-.2-.11a2.13,2.13,0,0,0-2.32.2,2.11,2.11,0,0,0-1.35-1.89l-.21-.08a2.11,2.11,0,0,0-2.27.51,2.13,2.13,0,0,0-1.6-1.7l-.22-.05a2.1,2.1,0,0,0-2.18.81A2.13,2.13,0,0,0,35.39.39l-.22,0a2.13,2.13,0,0,0-2.06,1.1,2.12,2.12,0,0,0-2-1.22H30.9A2.11,2.11,0,0,0,29,1.61,2.14,2.14,0,0,0,26.88.67l-.23,0A2.11,2.11,0,0,0,25,2.31a2.11,2.11,0,0,0-2.24-.65l-.22.06A2.14,2.14,0,0,0,21,3.54a2.1,2.1,0,0,0-2.3-.35l-.21.1a2.11,2.11,0,0,0-1.21,2,2.14,2.14,0,0,0-2.33,0l-.19.13a2.1,2.1,0,0,0-.93,2.13,2.15,2.15,0,0,0-2.32.28l-.17.15a2.09,2.09,0,0,0-.64,2.23,2.13,2.13,0,0,0-2.26.59l-.15.16A2.12,2.12,0,0,0,8,13.22a2.11,2.11,0,0,0-2.16.87l-.12.19a2.11,2.11,0,0,0,0,2.32,2.11,2.11,0,0,0-2,1.16l-.1.2a2.11,2.11,0,0,0,.28,2.31A2.13,2.13,0,0,0,2,21.69l-.08.22a2.11,2.11,0,0,0,.59,2.25A2.12,2.12,0,0,0,.84,25.81c0,.08,0,.15,0,.23a2.12,2.12,0,0,0,.89,2.15A2.1,2.1,0,0,0,.27,30l0,.23a2.13,2.13,0,0,0,1.16,2,2.12,2.12,0,0,0-1.15,2l0,.23A2.1,2.1,0,0,0,1.7,36.38a2.12,2.12,0,0,0-.88,2.16l.05.22a2.12,2.12,0,0,0,1.65,1.65A2.1,2.1,0,0,0,2,42.67l.07.21a2.1,2.1,0,0,0,1.86,1.41,2.13,2.13,0,0,0-.27,2.32l.1.2a2.13,2.13,0,0,0,2,1.14,2.12,2.12,0,0,0,0,2.33l.13.19a2.11,2.11,0,0,0,2.16.86,2.14,2.14,0,0,0,.35,2.31l.15.16a2.13,2.13,0,0,0,2.26.57,2.12,2.12,0,0,0,.66,2.24l.18.15A2.11,2.11,0,0,0,14,57a2.14,2.14,0,0,0,.95,2.13l.19.11a2.1,2.1,0,0,0,2.33,0,2.1,2.1,0,0,0,1.22,2l.2.1a2.12,2.12,0,0,0,2.31-.36,2.12,2.12,0,0,0,1.47,1.81l.22.06a2.09,2.09,0,0,0,2.23-.66,2.14,2.14,0,0,0,1.71,1.59l.21,0a2.11,2.11,0,0,0,2.14-1,2.09,2.09,0,0,0,1.89,1.35h.29A2.11,2.11,0,0,0,33.26,63,2.1,2.1,0,0,0,35.32,64l.22,0a2.13,2.13,0,0,0,1.81-1.47,2.1,2.1,0,0,0,2.18.79l.22,0a2.11,2.11,0,0,0,1.59-1.71,2.13,2.13,0,0,0,2.28.51l.21-.08a2.12,2.12,0,0,0,1.34-1.91,2.12,2.12,0,0,0,2.33.19l.2-.11a2.1,2.1,0,0,0,1.07-2.06A2.13,2.13,0,0,0,51.1,58l.18-.13a2.1,2.1,0,0,0,.79-2.19,2.1,2.1,0,0,0,2.29-.43l.17-.16A2.11,2.11,0,0,0,55,52.8a2.15,2.15,0,0,0,2.22-.73l.13-.17a2.11,2.11,0,0,0,.19-2.33,2.11,2.11,0,0,0,2.1-1l.11-.19A2.12,2.12,0,0,0,59.65,46a2.12,2.12,0,0,0,1.94-1.29l.09-.2a2.11,2.11,0,0,0-.43-2.29A2.12,2.12,0,0,0,63,40.72l.06-.21a2.13,2.13,0,0,0-.73-2.22,2.12,2.12,0,0,0,1.53-1.76l0-.21A2.14,2.14,0,0,0,62.87,34.22Zm-53.24-1a1,1,0,1,1,1-1A1,1,0,0,1,9.63,33.24Zm5.88-17.71a1,1,0,0,1,1.46,0A1,1,0,0,1,17,17a1,1,0,0,1-1.46,0A1,1,0,0,1,15.51,15.53ZM17,48.9a1,1,0,0,1-1.46,0,1,1,0,1,1,1.46,0Zm1.74-22.25a1.1,1.1,0,1,1,.6,1.43A1.09,1.09,0,0,1,18.71,26.65Zm1.45,11.76A1.09,1.09,0,1,1,20.75,37,1.09,1.09,0,0,1,20.16,38.41Zm6.43-19.66a1.09,1.09,0,0,1,.84,2A1.11,1.11,0,0,1,26,20.18,1.09,1.09,0,0,1,26.59,18.75Zm1.48,26.36a1.1,1.1,0,0,1-1.43.59,1.09,1.09,0,0,1,.83-2A1.1,1.1,0,0,1,28.07,45.11Zm4.13,10.7a1,1,0,1,1,1-1A1,1,0,0,1,32.2,55.81Zm0-22.57a1,1,0,1,1,1-1A1,1,0,0,1,32.2,33.24Zm0-22.57a1,1,0,1,1,1-1A1,1,0,0,1,32.2,10.67Zm4.13,8.65a1.09,1.09,0,1,1,.59,1.43A1.09,1.09,0,0,1,36.33,19.32ZM37.8,45.68a1.09,1.09,0,1,1,.59-1.43A1.08,1.08,0,0,1,37.8,45.68ZM44.24,26a1.09,1.09,0,1,1-.59,1.43A1.08,1.08,0,0,1,44.24,26Zm1.45,11.75a1.1,1.1,0,1,1-.6-1.43A1.1,1.1,0,0,1,45.69,37.77ZM48.88,48.9a1,1,0,0,1-1.45-1.45,1,1,0,0,1,1.45,0A1,1,0,0,1,48.88,48.9Zm0-31.92a1,1,0,1,1,0-1.45A1,1,0,0,1,48.88,17Zm5.89,16.26a1,1,0,1,1,1-1A1,1,0,0,1,54.77,33.24Z"/><path class="cls-2" d="M62.54,34.77l-1.07-.64,1.14-.49a1.48,1.48,0,0,0,.9-1.36V32a1.47,1.47,0,0,0-.9-1.35l-1.15-.49,1.07-.64A1.49,1.49,0,0,0,63.24,28l0-.22a1.49,1.49,0,0,0-1.08-1.23l-1.21-.33,1-.78a1.5,1.5,0,0,0,.51-1.55l-.06-.21a1.49,1.49,0,0,0-1.24-1.07l-1.24-.16.87-.91A1.46,1.46,0,0,0,61,20l-.08-.2a1.49,1.49,0,0,0-1.37-.9H58.33l.74-1a1.47,1.47,0,0,0,.07-1.63L59,16.05a1.48,1.48,0,0,0-1.27-.72h-.2l-1.25.18.6-1.11a1.47,1.47,0,0,0-.14-1.62l-.14-.18a1.47,1.47,0,0,0-1.15-.55,1.75,1.75,0,0,0-.4,0l-1.21.34.45-1.17A1.47,1.47,0,0,0,54,9.69l-.16-.16a1.48,1.48,0,0,0-1-.41,1.43,1.43,0,0,0-.58.12l-1.15.49.28-1.22A1.46,1.46,0,0,0,50.77,7l-.18-.13a1.5,1.5,0,0,0-.87-.28,1.54,1.54,0,0,0-.76.2l-1.07.64L48,6.17a1.5,1.5,0,0,0-.76-1.44l-.2-.11a1.43,1.43,0,0,0-.7-.18,1.53,1.53,0,0,0-.92.32l-1,.77L44.4,4.29A1.49,1.49,0,0,0,43.45,3l-.21-.08a1.51,1.51,0,0,0-1.59.36l-.86.9-.22-1.23a1.48,1.48,0,0,0-1.11-1.19l-.22-.05a1.32,1.32,0,0,0-.34,0,1.48,1.48,0,0,0-1.19.61l-.74,1-.38-1.2a1.49,1.49,0,0,0-1.26-1l-.22,0H35a1.46,1.46,0,0,0-1.3.77l-.6,1.1-.54-1.13A1.46,1.46,0,0,0,31.2.89h-.28a1.49,1.49,0,0,0-1.32,1L29.15,3l-.68-1a1.5,1.5,0,0,0-1.24-.68,1,1,0,0,0-.25,0l-.22,0a1.49,1.49,0,0,0-1.19,1.11l-.29,1.22-.81-.95a1.48,1.48,0,0,0-1.13-.52,1.59,1.59,0,0,0-.43.06l-.22.07a1.47,1.47,0,0,0-1,1.27l-.13,1.25L20.61,4a1.46,1.46,0,0,0-1-.38,1.44,1.44,0,0,0-.62.14l-.21.09A1.47,1.47,0,0,0,18,5.26l0,1.25L17,5.8a1.5,1.5,0,0,0-.83-.25,1.52,1.52,0,0,0-.8.23l-.19.12a1.49,1.49,0,0,0-.65,1.49l.21,1.24-1.12-.56a1.49,1.49,0,0,0-.66-.16,1.53,1.53,0,0,0-1,.35l-.17.15A1.48,1.48,0,0,0,11.33,10l.38,1.2-1.19-.41a1.51,1.51,0,0,0-.48-.07,1.48,1.48,0,0,0-1.1.48l-.15.17A1.48,1.48,0,0,0,8.56,13l.52,1.13-1.22-.24-.29,0a1.5,1.5,0,0,0-1.23.64l-.12.18a1.48,1.48,0,0,0,0,1.63l.67,1.06-1.25-.08H5.53a1.47,1.47,0,0,0-1.32.81l-.1.19a1.48,1.48,0,0,0,.19,1.62l.81,1-1.25.09a1.47,1.47,0,0,0-1.29,1l-.08.21a1.49,1.49,0,0,0,.42,1.58l.92.84-1.22.25a1.49,1.49,0,0,0-1.15,1.16,1.43,1.43,0,0,0,0,.22A1.47,1.47,0,0,0,2,27.66l1,.71-1.18.42a1.47,1.47,0,0,0-1,1.29v.23a1.47,1.47,0,0,0,.81,1.41l1.12.56-1.12.57a1.49,1.49,0,0,0-.8,1.42v.22a1.48,1.48,0,0,0,1,1.29l1.19.41-1,.72a1.46,1.46,0,0,0-.61,1.51l0,.21a1.49,1.49,0,0,0,1.16,1.16L3.88,40,3,40.88a1.47,1.47,0,0,0-.4,1.58l.07.21a1.47,1.47,0,0,0,1.3,1l1.25.09-.8,1a1.46,1.46,0,0,0-.19,1.62l.1.2a1.48,1.48,0,0,0,1.32.8h.1L7,47.23l-.67,1.06a1.48,1.48,0,0,0,0,1.63l.13.18a1.47,1.47,0,0,0,1.22.64,1.36,1.36,0,0,0,.29,0l1.23-.25L8.66,51.6a1.48,1.48,0,0,0,.24,1.61l.15.16a1.48,1.48,0,0,0,1.1.48,1.31,1.31,0,0,0,.48-.08l1.19-.41-.37,1.2a1.49,1.49,0,0,0,.46,1.56l.17.15a1.49,1.49,0,0,0,.95.34,1.57,1.57,0,0,0,.67-.16l1.11-.56-.2,1.23a1.47,1.47,0,0,0,.66,1.49l.19.12a1.46,1.46,0,0,0,.79.23,1.49,1.49,0,0,0,.84-.26l1-.71,0,1.25a1.51,1.51,0,0,0,.85,1.39l.2.09a1.51,1.51,0,0,0,.62.14,1.48,1.48,0,0,0,1-.39l.93-.84.13,1.25a1.47,1.47,0,0,0,1,1.26l.21.07a1.65,1.65,0,0,0,.43.06,1.49,1.49,0,0,0,1.14-.53l.8-1,.3,1.22a1.48,1.48,0,0,0,1.19,1.11l.22,0,.24,0a1.51,1.51,0,0,0,1.25-.69l.67-1,.46,1.16a1.46,1.46,0,0,0,1.32.94h.27a1.49,1.49,0,0,0,1.34-.86l.53-1.13.6,1.09a1.49,1.49,0,0,0,1.3.77h.15l.22,0a1.49,1.49,0,0,0,1.26-1l.37-1.2.75,1a1.48,1.48,0,0,0,1.18.6,2.09,2.09,0,0,0,.35,0l.21,0a1.46,1.46,0,0,0,1.11-1.2l.21-1.24.88.9a1.45,1.45,0,0,0,1.06.45,1.39,1.39,0,0,0,.53-.1l.2-.08a1.47,1.47,0,0,0,.95-1.33l0-1.25,1,.77a1.5,1.5,0,0,0,.91.32,1.47,1.47,0,0,0,.71-.18l.2-.11a1.48,1.48,0,0,0,.75-1.45L48,56.92l1.08.64a1.54,1.54,0,0,0,.76.2,1.42,1.42,0,0,0,.87-.29l.18-.13a1.46,1.46,0,0,0,.56-1.53l-.29-1.22,1.15.48a1.43,1.43,0,0,0,.58.12,1.48,1.48,0,0,0,1-.41l.16-.16A1.47,1.47,0,0,0,54.43,53L54,51.86l1.21.33a1.58,1.58,0,0,0,.38.05,1.51,1.51,0,0,0,1.17-.56l.13-.17A1.49,1.49,0,0,0,57,49.88l-.6-1.09,1.24.15.19,0a1.46,1.46,0,0,0,1.27-.72l.11-.19a1.48,1.48,0,0,0-.08-1.63l-.74-1h1.25A1.5,1.5,0,0,0,61,44.5l.08-.19a1.48,1.48,0,0,0-.3-1.61l-.87-.9,1.24-.17a1.5,1.5,0,0,0,1.23-1.07l.06-.22a1.49,1.49,0,0,0-.52-1.55L61,38l1.21-.34a1.48,1.48,0,0,0,1.07-1.23l0-.21A1.5,1.5,0,0,0,62.54,34.77ZM9.63,33.24a1,1,0,1,1,1-1A1,1,0,0,1,9.63,33.24Zm5.88-17.71a1,1,0,0,1,1.46,0A1,1,0,0,1,17,17a1,1,0,0,1-1.46,0A1,1,0,0,1,15.51,15.53ZM17,48.9a1,1,0,0,1-1.46,0,1,1,0,1,1,1.46,0Zm1.74-22.25a1.1,1.1,0,1,1,.6,1.43A1.09,1.09,0,0,1,18.71,26.65Zm1.45,11.76A1.09,1.09,0,1,1,20.75,37,1.09,1.09,0,0,1,20.16,38.41Zm6.43-19.66a1.09,1.09,0,0,1,.84,2A1.11,1.11,0,0,1,26,20.18,1.09,1.09,0,0,1,26.59,18.75Zm1.48,26.36a1.1,1.1,0,0,1-1.43.59,1.09,1.09,0,0,1,.83-2A1.1,1.1,0,0,1,28.07,45.11Zm4.13,10.7a1,1,0,1,1,1-1A1,1,0,0,1,32.2,55.81Zm0-22.57a1,1,0,1,1,1-1A1,1,0,0,1,32.2,33.24Zm0-22.57a1,1,0,1,1,1-1A1,1,0,0,1,32.2,10.67Zm4.13,8.65a1.09,1.09,0,1,1,.59,1.43A1.09,1.09,0,0,1,36.33,19.32ZM37.8,45.68a1.09,1.09,0,1,1,.59-1.43A1.08,1.08,0,0,1,37.8,45.68ZM44.24,26a1.09,1.09,0,1,1-.59,1.43A1.08,1.08,0,0,1,44.24,26Zm1.45,11.75a1.1,1.1,0,1,1-.6-1.43A1.1,1.1,0,0,1,45.69,37.77ZM48.88,48.9a1,1,0,0,1-1.45-1.45,1,1,0,0,1,1.45,0A1,1,0,0,1,48.88,48.9Zm0-31.92a1,1,0,1,1,0-1.45A1,1,0,0,1,48.88,17Zm5.89,16.26a1,1,0,1,1,1-1A1,1,0,0,1,54.77,33.24Z"/><path class="cls-1" d="M51,21.83a.53.53,0,1,0-.52-.52.52.52,0,0,0,.52.52Z"/><path class="cls-1" d="M50.6,37.74a.55.55,0,0,0,.55-.55.56.56,0,1,0-1.11,0,.56.56,0,0,0,.56.55Z"/><path class="cls-1" d="M54.05,41.7a.36.36,0,0,0,.1-.35c-.11-.26-.33-.24-.56-.21a.29.29,0,0,0,0,.56h.09s.11,0,0,0a.42.42,0,0,0,.16,0c.13,0,.11,0-.06,0s-.14-.1-.08,0a.25.25,0,0,0,.34,0Z"/><path class="cls-1" d="M35,36.24a.35.35,0,0,0,.1.36.37.37,0,0,0,.62-.36.38.38,0,0,0-.36-.27.38.38,0,0,0-.36.27Z"/><path class="cls-1" d="M22.22,54.55a.64.64,0,0,0,0-1.27.64.64,0,0,0,0,1.27Z"/><path class="cls-1" d="M41.81,55.9h0a.32.32,0,0,0-.16-.6,1.09,1.09,0,0,0-.25,0,.28.28,0,0,0,0,.54l.13,0c-.14-.05.1,0,.12,0a.28.28,0,0,0,.15,0Z"/><path class="cls-1" d="M41.7,51.17l0,0a.23.23,0,0,0,0,.31l0,.06c.17.21.51,0,.51-.21s-.34-.42-.51-.21Z"/><path class="cls-1" d="M27.94,52a.22.22,0,0,0,0-.43.22.22,0,0,0,0,.43Z"/><path class="cls-1" d="M27.07,56.76a.45.45,0,0,0,.11-.19.25.25,0,0,0-.31-.31.52.52,0,0,0-.19.11.28.28,0,0,0,.39.39Z"/><path class="cls-1" d="M56,44.88a.49.49,0,1,0,0-1,.49.49,0,0,0,0,1Z"/><path class="cls-1" d="M12.92,38.87l0-.12a.53.53,0,0,0-.23-.28.33.33,0,0,0-.36,0,.55.55,0,0,0-.19.18.71.71,0,0,0-.07.22.45.45,0,1,0,.88,0Z"/><path class="cls-1" d="M10.07,21.82a.46.46,0,0,0-.13-.31.55.55,0,0,0-.32-.14.56.56,0,0,0-.23.07.48.48,0,0,0-.23.38.5.5,0,0,0,.05.36.49.49,0,0,0,.41.23.47.47,0,0,0,.33-.14.46.46,0,0,0,.12-.45Z"/><path class="cls-1" d="M24.79,13.59l0-.09a.34.34,0,0,0-.64,0l0,.09a.36.36,0,0,0,.34.45.37.37,0,0,0,.35-.45Z"/><path class="cls-1" d="M21.14,19.42a1.25,1.25,0,0,0-.09-.25.24.24,0,0,0-.41,0,.63.63,0,0,0-.09.25.31.31,0,1,0,.59,0Z"/><path class="cls-1" d="M16.18,22.37a.12.12,0,0,0,0-.23.12.12,0,0,0,0,.23Z"/><path class="cls-1" d="M32.42,15.52l0-.1a.24.24,0,0,0-.45,0l0,.1a.26.26,0,0,0,.25.32.26.26,0,0,0,.25-.32Z"/><path class="cls-1" d="M26,6.64l0-.06a.51.51,0,0,0-.86,0l0,.06a.53.53,0,1,0,.92,0Z"/><path class="cls-1" d="M45.62,8.91a.31.31,0,0,0,0-.62.31.31,0,0,0,0,.62Z"/><path class="cls-1" d="M43,14.2a.2.2,0,0,0,0-.4.2.2,0,0,0,0,.4Z"/><path class="cls-1" d="M9.62,46.7a.52.52,0,0,0,0-1,.52.52,0,0,0,0,1Z"/><path class="cls-1" d="M13.52,43.7l0-.09a.17.17,0,0,0-.33,0l0,.09a.2.2,0,1,0,.39,0Z"/><path class="cls-1" d="M17.45,54.59l0,0a.39.39,0,0,0,0-.67l0,0a.41.41,0,1,0,0,.71Z"/><path class="cls-1" d="M22.22,48.34a.25.25,0,0,0,0-.49.25.25,0,0,0,0,.49Z"/><path class="cls-1" d="M25.4,39.28a.19.19,0,0,0,0-.38.19.19,0,0,0,0,.38Z"/><path class="cls-1" d="M39.16,53.09a.23.23,0,0,0,0-.46.23.23,0,0,0,0,.46Z"/><path class="cls-1" d="M48.37,53.87a.53.53,0,1,0-.52-.53.53.53,0,0,0,.52.53Z"/><path class="cls-1" d="M58,37.2l0-.1a.32.32,0,0,0-.62,0l0,.1a.35.35,0,1,0,.68,0Z"/><path class="cls-1" d="M58.11,26.75a.26.26,0,0,0,0-.51.26.26,0,0,0,0,.51Z"/><path class="cls-1" d="M53.22,14.42v0a.56.56,0,0,0,.55.56.56.56,0,0,0,.55-.56v-.13a.56.56,0,0,0-.55-.55.55.55,0,0,0-.54.55.57.57,0,0,0,0,.13.56.56,0,0,0,.55.56.56.56,0,0,0,.55-.56v0a.56.56,0,0,0-.56-.55.55.55,0,0,0-.55.55Z"/><path class="cls-1" d="M35.24,26.28a.11.11,0,0,0,0-.21.11.11,0,0,0,0,.21Z"/><path class="cls-1" d="M36.62,27.13a.32.32,0,0,0,0-.63.32.32,0,0,0,0,.63Z"/><path class="cls-1" d="M57.4,20.8l0,0a.39.39,0,0,0,0-.67l0,0a.42.42,0,0,0-.63.35.42.42,0,0,0,.63.36Z"/></g></g></svg>