<svg xmlns="http://www.w3.org/2000/svg" viewBox="0 0 94.03 49.63"><defs><style>.cls-1{fill:none;stroke:#1d1d1b;stroke-miterlimit:10;stroke-width:0.65px;}</style></defs><g id="Lag_2" data-name="Lag 2"><g id="Lag_1-2" data-name="Lag 1"><path class="cls-1" d="M.51,11.43C1.61,6.33,4.78,3.27,9.79,2A58.65,58.65,0,0,1,21.8.38,64,64,0,0,1,39.47,2a11.9,11.9,0,0,1,8.11,6,11.31,11.31,0,0,1,1.29,4,1.75,1.75,0,0,0,.12.32v2.44a1.42,1.42,0,0,0-.11.33,11.11,11.11,0,0,1-4.46,7.54l-.12.11a.67.67,0,0,0-.31.07,31.27,31.27,0,0,0-4.34,2.81c0-.51,0-1,0-1.54,0-.79,0-1.58,0-2.37a.67.67,0,0,1,.46-.68A7.77,7.77,0,0,0,41.7,7.68a12.65,12.65,0,0,0-6.25-2.62,70.71,70.71,0,0,0-12.92-.58c-2.63,0-5.26.21-7.88.48A12.2,12.2,0,0,0,7.12,8.12a7.72,7.72,0,0,0,2,12.78.85.85,0,0,1,.51.91q0,8.42,0,16.84a8.06,8.06,0,0,0,0,.85,1.26,1.26,0,0,0,1.18,1.18,5,5,0,0,0,.67,0h20a11.43,11.43,0,0,0,.43,4.14h-22a4,4,0,0,1-4.22-4.25c0-5.53,0-11.07,0-16.6A1.5,1.5,0,0,0,5,22.61a10.84,10.84,0,0,1-4-5.38C.71,16.4.54,15.52.32,14.67V12.23C.39,12,.46,11.7.51,11.43Z"/><path class="cls-1" d="M8.37,9.25a10.3,10.3,0,0,1,6.16-2.59c2.64-.27,5.29-.45,7.94-.5a72.49,72.49,0,0,1,12.32.48,11.61,11.61,0,0,1,5.75,2.25,6.1,6.1,0,0,1-1.19,10.57A2.11,2.11,0,0,0,38,21.51c0,.95,0,1.9,0,2.85s0,1.69,0,2.53c-.56.5-1.11,1-1.62,1.56a1.51,1.51,0,0,0-.4,1.2,1.92,1.92,0,0,0-.52.75c-.19.24-.37.48-.55.75-.89,1.4-2.07,2.81-2.07,4.54A13.58,13.58,0,0,0,31.72,39H11.29v-.75q0-8.25,0-16.48a2.3,2.3,0,0,0-1.39-2.33A6,6,0,0,1,8.37,9.25Z"/><path class="cls-1" d="M78.76,42.93a32.72,32.72,0,0,0-4.92-1.77c4-3.85,6.75-10,6.9-17.21a.58.58,0,0,1,.85-.49A29.42,29.42,0,0,1,89,29a1.58,1.58,0,0,1,.37,1.56A22.45,22.45,0,0,1,78.76,42.93ZM36.06,36a.81.81,0,0,0-1.42,0c-2.55,5-1.44,11,2.06,12.88a3.3,3.3,0,0,0,4-.79,18.54,18.54,0,0,1,3.73-3.23A27.1,27.1,0,0,1,36.06,36ZM76.91,20.67A2,2,0,0,0,75.45,19a45.08,45.08,0,0,0-23.87,0,2,2,0,0,0-1.46,1.72c-.88,8.29,2.42,16.1,7.7,19.47a42.28,42.28,0,0,1,11.35,0C75,36.52,77.7,28.28,76.91,20.67Zm14,15.47A27.1,27.1,0,0,1,82.45,45,18.77,18.77,0,0,1,86,48a3.32,3.32,0,0,0,4.16.67c3.35-2,4.9-7.46,2.19-12.55A.81.81,0,0,0,90.91,36.14ZM48.17,42.87a33.36,33.36,0,0,1,5-1.76C48.68,36.76,46.43,30.32,46.29,24a.57.57,0,0,0-.84-.49,29.38,29.38,0,0,0-7.4,5.56,1.55,1.55,0,0,0-.36,1.56A22.35,22.35,0,0,0,48.17,42.87Z"/></g></g></svg>