<svg xmlns="http://www.w3.org/2000/svg" viewBox="0 0 92.72 60.47"  width="44px" height="44px"><defs><style>.cls-1{fill:none;stroke:#000;stroke-miterlimit:10;stroke-width:1px;}</style></defs><g id="Lag_2" data-name="Lag 2"><g id="Lag_1-2" data-name="Lag 1"><path class="cls-1" d="M44.88,22.3c-2-1.93-4.39-2.93-5.63-3.95C32.07,28.39,9.4,23.43,3.86,29a3,3,0,0,0-1,1.86,1.19,1.19,0,0,0,.1.49,8.27,8.27,0,0,1,3.82.59,3.75,3.75,0,0,0,3.27,0,6.29,6.29,0,0,1,5.28,0,3.81,3.81,0,0,0,3.2,0,6,6,0,0,1,2.54-.56c2.14,0,2.48.9,4.09.9s2-.9,4.1-.9,2.52.91,4.14.91,2-.91,4.13-.91a6,6,0,0,1,2.74.59,3,3,0,0,0,.5.17A23.91,23.91,0,0,1,44.88,22.3Z"/><path class="cls-1" d="M8.72,23.73a15.58,15.58,0,0,0-5.84,2.74C5.17,14.24,28.61,17.52,18.32.8a17.11,17.11,0,0,1,10.34.55C33.38,3.19,35,6.59,36,10,37.21,22.16,22,20,8.72,23.73Z"/><path class="cls-1" d="M91.23,36.28c0,12.39-9.74,23-21.86,23.87a24,24,0,1,1-.22-47.85c2,.17,2.27.44,2.31,2.45a3.41,3.41,0,0,0,2.94,3.42c2.1.42,2.31.8,1.58,2.83a4.8,4.8,0,0,0,1.14,5.35,4.87,4.87,0,0,0,5.35,1.2c2.25-.76,2.43-.67,2.9,1.74a3.4,3.4,0,0,0,3,2.73c2.72.26,2.78.32,2.86,3.1C91.24,35.51,91.23,35.89,91.23,36.28ZM61.06,52.34c1.56.11,1.62.11,1.8-1.48.53-4.67,1-3.66-3.37-4.34-1.45-.23-1.85.38-2,1.69C57.21,52.07,57.17,52.07,61.06,52.34ZM83.31,35.53c-.23-.23-.51-.69-.91-.84-1-.37-2-.6-3.05-.89-.86-.24-1.33,0-1.58.94-1.29,4.86-1.77,3.8,2.87,5.17.14,0,.3.16.4.12.4-.17,1-.3,1.11-.61C82.59,38.26,82.88,37,83.31,35.53ZM58.42,28.81c2.22-.09,4.09-1,4-1.9-.12-2.35-1-4.26-1.9-3.94-1.36.49-3.57-.28-3.91,1.77S57.53,28.84,58.42,28.81Zm13.34,8a2.61,2.61,0,0,0-5.22.06,2.61,2.61,0,1,0,5.22-.06ZM54.2,37a2.62,2.62,0,0,0-2.61,2.7,2.61,2.61,0,0,0,5.21,0A2.63,2.63,0,0,0,54.2,37ZM75.53,47.54a2.61,2.61,0,0,0-.06,5.22,2.61,2.61,0,1,0,.06-5.22Zm-9-1.35.28.19c0,.19,0,.44.06.56.34.45.74.87,1.11,1.29.2-.49.39-1,.58-1.47a14.12,14.12,0,0,0,.64-1.63,5.86,5.86,0,0,0,0-1.26c-.39,0-1-.12-1.13.08A21,21,0,0,0,66.51,46.19Zm-4.1-26.33.28.2c0,.28,0,.66.14.84A11.07,11.07,0,0,0,64.11,22c.13-.47.26-.94.4-1.41s.4-1.19.55-1.8c.08-.33.17-.88,0-1s-.95-.32-1.09-.16A21.92,21.92,0,0,0,62.41,19.86Zm-13,14.65c.13.13.41.61.79.7.23,0,.61-.51.89-.83.44-.49.88-1,1.27-1.5a7.18,7.18,0,0,0,.54-1c-.35-.17-.7-.5-1-.49C50.57,31.4,49.4,32.78,49.39,34.51Zm18.68-9-1,.81,1.16.88c.47.36.91.74,1.4,1.06a10.84,10.84,0,0,0,1.14.54c.12-.42.43-.9.32-1.25C70.71,26.23,69.74,25.59,68.07,25.46ZM76.93,43c-.77-.59-1.21-1.2-1.62-1.18s-.84.64-1.26,1c.38.45.7,1.13,1.17,1.26S76.12,43.54,76.93,43Zm-9.5,9.68c-.58.81-1.18,1.27-1.15,1.69s.67,1.14,1,1.14a1.56,1.56,0,0,0,1.16-1C68.54,54.05,68,53.54,67.43,52.68ZM62,34.23C61.16,33.6,60.7,33,60.29,33s-.84.69-1.26,1.07c.38.41.72,1.07,1.16,1.15S61.11,34.74,62,34.23Z"/><path class="cls-1" d="M84.87,23.88c.28-.48.47-.85.69-1.19a1.14,1.14,0,0,1,.35-.26c3.09-2.21,4.54-1.91,6.43,1.48a2.07,2.07,0,0,1-.25,1.89,16.09,16.09,0,0,1-3,2.86c-.47.33-1.81.33-2,0A52.75,52.75,0,0,1,84.87,23.88Z"/><path class="cls-1" d="M77.11,11.34c1.57.16,2.63.23,3.68.38a1.43,1.43,0,0,1,1.26,2.17c-.52,1.19-1.15,2.32-1.73,3.48a.79.79,0,0,1-.15.25c-1.58,1.52-2.82-.17-4.19-.48a1.49,1.49,0,0,1-1.3-1.91,11.5,11.5,0,0,1,1-3C76,11.73,76.86,11.49,77.11,11.34Z"/><path class="cls-1" d="M86.43,19.54a1.76,1.76,0,0,1,.2-3.52,1.65,1.65,0,0,1,1.7,1.76A1.79,1.79,0,0,1,86.43,19.54Z"/><path class="cls-1" d="M80.46,20.38a1.81,1.81,0,0,1,1.74,1.8,1.74,1.74,0,0,1-1.87,1.75,1.64,1.64,0,0,1-1.64-1.82C78.73,21,79.43,20.51,80.46,20.38Z"/><path class="cls-1" d="M41.11,41.87,37,53.06H35.18l5.15-14.77a2.67,2.67,0,0,0,.16-.72c0-.31-.06-.63-.06-.94A3.05,3.05,0,0,0,40,35.56a3,3,0,0,0-5.43,1.26l-3.1,16.24H29.73l2.52-15.34a2.88,2.88,0,0,0-.62-2.38,3,3,0,0,0-5.27,2l-.21,15.7h-1.7l-.21-15.7a3,3,0,0,0-.88-2.17,2.93,2.93,0,0,0-5,2.53l2.52,15.34H19.15L16.06,36.82a3,3,0,1,0-5.79,1.47l5.15,14.77H13.66L7.88,37.56a5,5,0,0,0-4.7-3.27H.42L12,55.78H38.64l4.55-8.46A23.82,23.82,0,0,1,41.11,41.87Z"/></g></g></svg>