<svg xmlns="http://www.w3.org/2000/svg" viewBox="0 0 91.92 56.69"><defs><style>.cls-1,.cls-2{fill:none;}.cls-1{stroke:#1d1d1b;stroke-miterlimit:10;stroke-width:0.5px;}</style></defs><g id="Lag_2" data-name="Lag 2"><g id="Lag_1-2" data-name="Lag 1"><path class="cls-1" d="M82.64,22c-1.35,3.5,1.39,4.07,3.53,5.15a7.59,7.59,0,0,1-4.51-1.88C80.8,24.39,81.63,23,82.64,22Z"/><path class="cls-1" d="M78.13,34.6c-.74,2.82-.36,3.53,2.06,4.48a4.81,4.81,0,0,1,.75.28c.49.28,1.35.61.93,1.2s-.63-.46-1.05-.55a6.87,6.87,0,0,1-1.88-.88C76.83,38,76.61,37.06,78.13,34.6Z"/><path class="cls-1" d="M60.71,16.76c-.58,2.66,2.44,2.16,3.08,3.79-1.68.18-2.54-1.11-3.61-1.9S59.82,17.32,60.71,16.76Z"/><path class="cls-1" d="M56.58,20.45c-.14,1.35-.31,2.64.8,3.61C54.64,22.88,54.44,22.05,56.58,20.45Z"/><path class="cls-1" d="M77.82,22.27c-3.41-1.05-3.81-1.84-1.86-4A3.21,3.21,0,0,0,77.82,22.27Z"/><path class="cls-1" d="M71,33.26c-2.21-1-2.29-2.86,0-4.59A3.7,3.7,0,0,0,71,33.26Z"/><path class="cls-1" d="M54,14.1a3.33,3.33,0,0,1-.83-.39c-.46-.37-1.26-.52-1.06-1.39a1.57,1.57,0,0,1,1.54-1.2A2.14,2.14,0,0,0,54,13.75C54.19,13.89,54.18,14,54,14.1Z"/><path class="cls-1" d="M65.4,12c-.64,1.51-.07,2.67,1.11,3.75C63.9,15.05,63.56,13.92,65.4,12Z"/><path class="cls-1" d="M48.75,14.43c-.49,1.52-.8,2.59,0,3.76-1-.22-1.51-.64-1.49-1.5A2.36,2.36,0,0,1,48.75,14.43Z"/><path class="cls-1" d="M74.73,27c-2.63-.79-3-1.53-1.53-3.38A3.83,3.83,0,0,0,74.73,27Z"/><path class="cls-1" d="M57.87,8.36a2,2,0,0,0,.28,2.83c-2.39-1.1-2.41-1.62-.32-3.33A.34.34,0,0,1,57.87,8.36Z"/><path class="cls-1" d="M86.63,21c-2.38-.2-3.45-1.52-3-3.75C83.58,19.38,85.19,20.1,86.63,21Z"/><path class="cls-1" d="M68.61,23.48c-1.64-.79-1.69-1.17-.38-2.78C68.42,21.68,68,22.64,68.61,23.48Z"/><path class="cls-1" d="M79.18,14.11c.06,1.09,0,2,.76,2.68C78,16.45,77.81,15.83,79.18,14.11Z"/><path class="cls-1" d="M65,28.79c-1.8-.64-1.87-1.12-.63-2.86C64.5,26.88,64.2,27.85,65,28.79Z"/><path class="cls-1" d="M69.1,10.58c-1.93-.95-2-1.28-.67-2.44A3.84,3.84,0,0,0,69.1,10.58Z"/><path class="cls-1" d="M70.4,15.53a7.28,7.28,0,0,0,.37,2.6C69.09,17.38,69.05,17.11,70.4,15.53Z"/><path class="cls-1" d="M81.29,31.21c-1.83-.78-1.91-1.07-.87-2.95A4.17,4.17,0,0,0,81.29,31.21Z"/><path class="cls-1" d="M73.09,10.48a3.64,3.64,0,0,0,.71,2.79C71.94,12.43,71.84,12.09,73.09,10.48Z"/><path class="cls-1" d="M63.58,7.44C63,7,62.13,6.53,63.16,5.53l.78,1.56C64,7.4,63.93,7.56,63.58,7.44Z"/><path class="cls-1" d="M54,14.1l0-.35a4.8,4.8,0,0,1,2.54,1.82C55.25,15.31,54.75,14.48,54,14.1Z"/><path class="cls-1" d="M63.58,7.44l.36-.35,2,1.23C64.91,8.63,64.29,7.9,63.58,7.44Z"/><path class="cls-1" d="M57.87,8.36l0-.5.11-.11c.44-.34,1.06-.62,1.42-.26s-.09.54-.48.54a2.49,2.49,0,0,0-.61.08A1.41,1.41,0,0,0,57.87,8.36Z"/><path class="cls-2" d="M32.75,43.37l-6.09,0c-.74-.2-1.79.68-2.21-.64L47,42.88a2.3,2.3,0,0,1,1.38.27c-1.66,0-3.33,0-5,0-.49,0-1-.23-1.45.29a28,28,0,0,0-4.76,0A20.25,20.25,0,0,1,32.75,43.37Z"/><path class="cls-2" d="M14.88,42.94l-3.52,0c-.74-.2-1.78.67-2.22-.63,4.79.35,9.61-.23,14.4.39-.33.54-.91.13-1.33.35a18.16,18.16,0,0,1-3.83,0C17.22,42.84,16.05,43,14.88,42.94Z"/><path class="cls-1" d="M15.91,24.13a29.68,29.68,0,0,1-4.62-.07c-1-.13-1.47-.94-.86-1.59a8,8,0,0,1,1.11-.82c.34.25.1.41,0,.54-.86.95-.4,1.54,1.29,1.58,1,0,2.08,0,3.12,0Z"/><path class="cls-1" d="M15.58,33.88c.19,1.3.61,2.4,1.81,2.65,1,.22,2.11.06,3.16.32a6.43,6.43,0,0,1-5.08-.16C14.5,36.15,15,34.93,15.58,33.88Z"/><path class="cls-1" d="M8.68,27.18c.68,3.62,3.53,1.47,5.14,2.38-.88.62-4.86.68-5.53,0S8.1,28,8.68,27.18Z"/><path class="cls-1" d="M35,37.24c.86.43,1.76-.62,2.62.07-1.73.7-3.53.3-5.27.19-1-.07-1.41-2.55-.67-3.62C32.11,36.72,32.68,37.3,35,37.24Z"/><path class="cls-1" d="M7.36,36.52c-.76,0-1.6.23-2-.86a2.12,2.12,0,0,1,.68-2.73,3.09,3.09,0,0,0,1.68,3.56A.25.25,0,0,1,7.36,36.52Z"/><path class="cls-1" d="M22.61,24.82c-3.52.24-4.32-.6-3.3-3C19.78,23.77,20.14,24.13,22.61,24.82Z"/><path class="cls-1" d="M31.9,22.21a3.55,3.55,0,0,0,3.44,2.26C32.14,25.07,31.51,24.67,31.9,22.21Z"/><path class="cls-1" d="M27.5,30.83c-2.2.22-2.77-.56-2-2.72A3.64,3.64,0,0,0,27.5,30.83Z"/><path class="cls-1" d="M28.3,37.1c-3.09.35-3.34.2-3.38-2.33C25.67,36.36,26.68,37.21,28.3,37.1Z"/><path class="cls-1" d="M28.39,24.45c-2.49.33-2.95-.12-2.46-2.22A2.91,2.91,0,0,0,28.39,24.45Z"/><path class="cls-1" d="M17.32,17.78c-1.07.2-2.14.66-3.14-.13-.19-.15-.52-.45-.19-.79s.46-.05.66.11A3.14,3.14,0,0,0,17.32,17.78Z"/><path class="cls-1" d="M34,17.74c-2,.29-2.43-.1-2.12-1.9C32.59,16.55,32.94,17.56,34,17.74Z"/><path class="cls-1" d="M22.53,18c-1.21.16-2.46.36-2.28-1.66C21.15,16.8,21.55,17.8,22.53,18Z"/><path class="cls-1" d="M25.66,15.9a4.18,4.18,0,0,0,1.46,1.69C25.62,17.94,25.34,17.67,25.66,15.9Z"/><path class="cls-1" d="M19.13,30.4c-1.94,0-2.22-.35-1.44-1.82.31.68.6,1.37,1.43,1.53.11.06.14.12.11.19S19.16,30.4,19.13,30.4Z"/><path class="cls-1" d="M7.36,36.52l.39,0,3.54,0C10,36.64,8.63,37.32,7.36,36.52Z"/><path class="cls-1" d="M19.13,30.4a2.81,2.81,0,0,1,0-.29l3.08,0A5.39,5.39,0,0,1,19.13,30.4Z"/><path class="cls-1" d="M.82,50.52c0-1.47,1.15-.63,1.73-.93s1.38-.12,2.07-.16a13.53,13.53,0,0,0,1.91,0c1.1.08,2.19-.11,3.29,0a8.72,8.72,0,0,0,2.6,0c1.72,0,3.42.18,5.13.29a21.53,21.53,0,0,0,2.66-.12A30.82,30.82,0,0,0,26,49.34c.74,0,1.46.13,2.19.19a6.23,6.23,0,0,0,2.58-.06c1.89,0,3.78,0,5.66,0,1.5.17,3,0,4.51,0,1.13-.07,2.27,0,3.4-.08,1.33,0,2.67.08,4,0a2.59,2.59,0,0,1,1.7.32c.9,2,.12,3.9-.56,5.74-.29.79-1.28.66-2,.65q-6.51-.11-13-.23L6.47,55.2l-.65,0C2,55,1.93,54.94,1.1,51.27A5.22,5.22,0,0,0,.82,50.52Z"/><path class="cls-1" d="M29.21,48.4a3.39,3.39,0,0,1-2-.17c-1.2-.25-2.09-1.55-3.51-1.09S21,48.6,19.43,48.31a2.22,2.22,0,0,1-1.37-.18,5.11,5.11,0,0,0-4.21,0,10.65,10.65,0,0,1-2.46,0c-.92-.39-1.78-1.28-2.85-.34a3.75,3.75,0,0,1-2.18.4A7,7,0,0,1,4,48a3.3,3.3,0,0,1-.56-5.35l4.89.14c1,1.44,2,.51,3-.05l3,.1a3.64,3.64,0,0,0,3.45.12l4.14,0c.95.56,1.88,1.18,3.07.88,2.21-1.1,4.59-.54,6.89-.78,1.65.81,3.3,1.61,5.05.23l4-.15c1.27,1.09,2.64.31,4,.25s2.41,0,3.62.06c2.64.56,3,1.37,2,4.05-.25.71-.86.48-1.35.53-1.32.13-2.65-.07-4,0-1.07.33-2-.87-3.15-.2a12.94,12.94,0,0,1-4.68.27,4.06,4.06,0,0,0-4.67-.41A8.14,8.14,0,0,1,29.21,48.4Z"/><path class="cls-1" d="M35.63,28.46c-.5,1.83-1.05,2.8-.29,4.51.22.51,1.88,1.35,2.6,1.84"/><path class="cls-1" d="M39.86,17.17c.16-.72-2,8.81-4.34,11.41"/><path class="cls-1" d="M37.94,34.81A56.38,56.38,0,0,1,45.12,39c1.24.83,2.61,1.44,3.81,2.34.3.21.73.42.65.83s-.64.5-1,.52a5.75,5.75,0,0,1-2.22-.19c-7.76-.23-15.53-.15-23.3-.25a3.75,3.75,0,0,1-1.2-.13,13.71,13.71,0,0,0-3.94-.22c-3.33-.06-6.66-.06-10-.09-.37,0-.74,0-1.11,0a3.83,3.83,0,0,1-1.9.09,8.27,8.27,0,0,0-2.17-.47c-1.54.07-2-.82-2.11-2.18a27.7,27.7,0,0,0-.34-4.45v-.32q4.51-9.41,9-18.79a5.81,5.81,0,0,1,5-3.48c1.32-.12,2.65-.15,4-.14,7,.07,13.9.15,20.85.3,1,0,2-.3,2.57.87,0,.85-.34,1-.59,1.72a18.61,18.61,0,0,0-1.22,2.2"/><path class="cls-1" d="M91.67,17.94v1.29c-1,6.91-2.76,13.65-3.94,20.51C87.23,42.59,85,44,83.43,45.91c-.36.42-.91.18-1.33-.06a17.89,17.89,0,0,1-1.77-1.09c-2-1.73-4.35-2.85-6.47-4.35a26.13,26.13,0,0,0-3.52-2.28c-1.28-.78-2.61-1.44-3.82-2.33a50,50,0,0,0-5.1-3.19,37.9,37.9,0,0,1-3.54-2.33,15.55,15.55,0,0,0-3.47-2.2c-1.15-.66-2.24-1.43-3.4-2.08-.76-.55-1.54-1.08-2.33-1.6s-1.75-1-2.53-1.71c-1.36-.79-2.58-1.78-3.87-2.67a1.66,1.66,0,0,1-.62-2.48c.62-1.13,1-2.38,1.58-3.53a5.16,5.16,0,0,1,1.46-2.16C49.87,8.47,55,5.11,60.19,1.7a7.25,7.25,0,0,1,8.36-.24c6.94,4.16,13.71,8.59,20.59,12.84A4.77,4.77,0,0,1,91.67,17.94Z"/><path class="cls-1" d="M37.27,27.33c.7-1.27,1.29.05,1.93.09s1.21.6,1.81.92a13.18,13.18,0,0,0,1.6,1c.88.63,1.89,1,2.77,1.66a8.86,8.86,0,0,0,2.2,1.3c1.46.84,2.78,1.89,4.16,2.85A23.13,23.13,0,0,0,54,36.38,30.72,30.72,0,0,0,59,39.13c.61.39,1.16.85,1.74,1.27a6.2,6.2,0,0,0,2.19,1.27c1.58,1,3.18,1.92,4.78,2.84,1.18.9,2.54,1.5,3.79,2.28,1,.52,1.9,1.16,2.89,1.67,1.1.71,2.2,1.43,3.37,2A2.56,2.56,0,0,1,79,51.64c-.25,2.17-1.85,3.37-3.34,4.59-.64.53-1.41-.09-2-.48q-5.4-3.39-10.8-6.81L39.67,34.19c-.18-.12-.35-.25-.53-.36-3.47-2.09-4.51-2.38-2-5.71C37.3,27.91,37.23,27.59,37.27,27.33Z"/><path class="cls-1" d="M61.06,39.75a3.46,3.46,0,0,1-1.61-1.19c-.89-.85-1-2.43-2.44-2.78s-3-.17-4.25-1.26a2.27,2.27,0,0,1-1.08-.87A5.15,5.15,0,0,0,48.1,31.4,11.76,11.76,0,0,1,46,30.08c-.58-.82-.86-2-2.26-1.79a3.72,3.72,0,0,1-2.06-.81,6.87,6.87,0,0,1-2-1.42A3.28,3.28,0,0,1,42,21.19l4.1,2.7c.14,1.76,1.46,1.49,2.59,1.54l2.52,1.66A3.68,3.68,0,0,0,54.08,29l3.51,2.21c.53,1,1,2,2.18,2.37,2.44.22,4.19,2,6.29,3,1,1.57,2,3.12,4.19,2.86l3.52,2c.53,1.6,2.11,1.65,3.28,2.31s2,1.3,3.06,2c2,1.87,1.9,2.77-.36,4.52-.57.47-1,0-1.42-.26-1.2-.59-2.23-1.45-3.39-2.08-1.09-.28-1.31-1.83-2.6-1.83A13.21,13.21,0,0,1,68.2,43.8,4.1,4.1,0,0,0,64.43,41,8.39,8.39,0,0,1,61.06,39.75Z"/><path class="cls-1" d="M32.91,30.87c-2,.29-2.44-.1-2.13-1.9C31.49,29.69,31.84,30.69,32.91,30.87Z"/></g></g></svg>