<svg xmlns="http://www.w3.org/2000/svg" viewBox="0 0 60.63 55.96"><defs><style>.cls-1{fill:none;stroke:#1d1d1b;stroke-miterlimit:10;stroke-width:0.6px;}</style></defs><g id="Lag_2" data-name="Lag 2"><g id="Lag_1-2" data-name="Lag 1"><path class="cls-1" d="M5.34,26.93a22.78,22.78,0,0,1-.71-9.66,35.08,35.08,0,0,0-3.46,8.92C-3,44.12,8.72,49.81,20.77,53c1.73.46,3.6.9,5.73,1.34,1,.22,2,.4,3,.56C18.49,49,8.33,37.53,5.34,26.93Z"/><path class="cls-1" d="M45.93,34c-6.72-1.79-13.33-4.75-17.42-8.2-4.69-3.94-11.07-13-9.87-20a8.67,8.67,0,0,1,.94-2.66,29.85,29.85,0,0,0-2.9,1.53A31.89,31.89,0,0,0,10.6,9.73h0C6.81,14.23,5.82,19.8,7.65,26.28,11,38.13,23.74,51.46,36.2,55.62h0c12.45.52,20.3-4.23,22.89-14a38.26,38.26,0,0,0,1.07-6A45.28,45.28,0,0,1,45.93,34Z"/><path class="cls-1" d="M45.13,3.8a5.51,5.51,0,0,1,.08,1.57A5.23,5.23,0,0,1,41.8,9.69a6.39,6.39,0,0,1-3.95.12,11.11,11.11,0,0,1-3.87-2A1.2,1.2,0,1,1,35.46,5.9c2,1.57,3.95,2.13,5.5,1.54a2.82,2.82,0,0,0,1.86-2.33A3.54,3.54,0,0,0,41.19,2c-.77-.29-1.56-.56-2.37-.78A27.42,27.42,0,0,0,25.74,1h0C23,2,21.42,3.72,21,6.15c-1,5.73,4.73,14.16,9.05,17.79C36.78,29.59,51.33,34,60.31,33.26,60.77,20.78,54.91,9.35,45.13,3.8Z"/></g></g></svg>