<svg xmlns="http://www.w3.org/2000/svg" viewBox="0 0 82.18 68.88" width="44px" height="44x"><defs><style>.cls-1{fill:none;stroke:#2CA3DB;stroke-miterlimit:10;stroke-width:1px;}</style></defs><g id="Lag_2" data-name="Lag 2"><g id="Lag_1-2" data-name="Lag 1"><path class="cls-1" d="M33.56,44.34c-.12-.62-4.51-2.09-5.15-2.1C25.25,42.15,16.69,41,10.58,31.08,3,18.75.23,36.64.23,39.82S.23,55.73,10,60.5c0,0,8.17,4.38,22.34-2.38,9.5-4.53,4.66-13,1.18-13.78"/><path class="cls-1" d="M6.62,35.91s2.07,4.51,9.57,8.48,14,5.13,17,5a28.73,28.73,0,0,1-17.54-4.16S7.51,40,6.62,35.91Z"/><path class="cls-1" d="M2.47,38.85S5.17,44,14.18,47.69s16.69,4.19,20.2,3.57c0,0-10.61,2.75-20.75-2.51C13.63,48.75,3.76,43.69,2.47,38.85Z"/><path class="cls-1" d="M2.47,43.48S5,48.21,13.39,51.6s15.52,3.77,18.77,3.17c0,0-9.83,2.63-19.26-2.18C12.9,52.59,3.7,48,2.47,43.48Z"/><path class="cls-1" d="M3.6,50.18S6,53.57,12.77,55.93s12.33,2.59,14.79,2.14a25.11,25.11,0,0,1-15.09-1.42S5,53.39,3.6,50.18Z"/><path class="cls-1" d="M59.67,43.46s7.71-1.58,12.17-5.79,9.71-.48,10.09,7.06c.3,6.08-1.64,14-7.63,18.7-4.7,3.67-16,6.78-23.92,4.39s-9.59-5.1-11.35-9S36.49,47,42.22,44.73s4,1.79,12.85.15Z"/><path class="cls-1" d="M41.94,51.8s5.18,3.71,15.86,2.88,18.44-4.2,21.58-6.55c0,0-9,8-21.59,7.87C57.79,56,45.6,55.92,41.94,51.8Z"/><path class="cls-1" d="M41.11,54.77s4.64,4,14.92,4.12,18-2.39,21.19-4.36c0,0-9.33,6.83-21.31,5.61C55.91,60.14,44.26,59,41.11,54.77Z"/><path class="cls-1" d="M41.09,56.93S45.44,61.5,55.74,62,74,59.92,77.31,57.84c0,0-9.86,7.27-21.78,5.53C55.53,63.37,43.93,61.74,41.09,56.93Z"/><path class="cls-1" d="M43.34,49.3s5.59,3.06,16.09,1,17.81-6.36,20.65-9.08c0,0-8,9-20.5,10.39C59.58,51.57,47.47,53,43.34,49.3Z"/><path class="cls-1" d="M28.05,34.65s5.78-1.17,12-8.93S48.87,10.58,49.27,7c0,0-.33,11.16-8.36,19.58C40.91,26.55,33.15,34.77,28.05,34.65Z"/><path class="cls-1" d="M30.24,37.49s6.38-1.3,13.21-9.85S53.2,11,53.64,7c0,0-.36,12.31-9.22,21.59C44.42,28.56,35.86,37.62,30.24,37.49Z"/><path class="cls-1" d="M35.34,38.48s5.39-1.1,11.17-8.34S54.76,16,55.13,12.66c0,0-.3,10.41-7.79,18.26C47.34,30.92,40.09,38.58,35.34,38.48Z"/><path class="cls-1" d="M39.38,40.49s5.39-1.09,11.17-8.33S58.8,18,59.17,14.68c0,0-.31,10.41-7.8,18.26C51.37,32.94,44.13,40.6,39.38,40.49Z"/><path class="cls-1" d="M38.31,17.49s4.84-6.21,5.5-12.3S50.88-1.49,56.06,4c4.18,4.43,7.86,11.73,6.34,19.18C61.21,29,54.63,38.73,47.06,42s-10.6,2.36-14.46.54S23,35.24,25.87,29.79s4.19-1.22,9.87-8.23Z"/></g></g></svg>