<svg xmlns="http://www.w3.org/2000/svg" viewBox="0 0 73.44 51.72" width="44px" height="44px"><defs><style>.cls-1{fill:none;stroke:#1d1d1b;stroke-miterlimit:10;stroke-width:1px;}</style></defs><g id="Lag_2" data-name="Lag 2"><g id="Lag_1-2" data-name="Lag 1"><path class="cls-1" d="M17.42,40.71H.3v-.36a14.08,14.08,0,0,0,3.16-2.16C4.89,37,6,36,8.43,36s3.53,1,5,2.19A12.33,12.33,0,0,0,17.42,40.71ZM38,38.19C36.59,37,35.46,36,33.05,36s-3.54,1-5,2.19a12.38,12.38,0,0,1-4,2.52h18A12.49,12.49,0,0,1,38,38.19Zm-12.31-2.8a12.11,12.11,0,0,1,4-2.52h-18a12.11,12.11,0,0,1,4,2.52c1.43,1.22,2.56,2.18,5,2.18S24.28,36.61,25.71,35.39ZM5.12,32.87H.3v3.18q.39-.31.78-.66A12.11,12.11,0,0,1,5.12,32.87Zm68-3.67V24.9c0-1.76-1.33-4.25-5.3-3.84-6.8.7-5.13,2.81-6.79,2.81-2.59,0-.92-2.91-5-2.91s-4,3.5-7.11,3.5c-3.4,0-3-3-8.69-3s-3.52,2.91-6.91,2.91S30.31,21,26.4,21c-2.87,0-2.68,2.23-5.14,2.23-3.69,0-2.77-2.23-5.79-2.23-2.47,0-1.88,2.69-4.37,2.69C8.35,23.65,11,21,5.34,21c-3.68,0-5,2-5,3.94v4.3ZM.3,44.37v4.92a2.13,2.13,0,0,0,2.13,2.13H71a2.13,2.13,0,0,0,2.13-2.13V44.37Zm72.84-7.59V32.87H61a12.11,12.11,0,0,1,4,2.52c1.44,1.22,2.57,2.18,5,2.18A5.89,5.89,0,0,0,73.14,36.78Zm-22.8-1.39a12,12,0,0,1,4-2.52h-18a12,12,0,0,1,4,2.52c1.44,1.22,2.57,2.18,5,2.18S48.9,36.61,50.34,35.39Zm12.31,2.8C61.22,37,60.08,36,57.68,36s-3.54,1-5,2.19a12.49,12.49,0,0,1-4,2.52h18A12.38,12.38,0,0,1,62.65,38.19ZM46.5.78,2.84,16.49A.47.47,0,0,0,3,17.4H72.6a.46.46,0,0,0,.47-.53c-.94-6-8.15-11.8-21.15-16.14A8.32,8.32,0,0,0,46.5.78Z"/></g></g></svg>