<svg xmlns="http://www.w3.org/2000/svg" viewBox="0 0 64.77 55.11"><defs><style>.cls-1,.cls-2{fill:none;stroke-miterlimit:10;stroke-width:0.5px;fill-rule:evenodd;}.cls-1{stroke:#000;}.cls-2{stroke:#1d1d1b;}</style></defs><g id="Lag_2" data-name="Lag 2"><g id="Lag_1-2" data-name="Lag 1"><path class="cls-1" d="M45.57,46.86c8-3.59,7-10,11.59-19.49,1.1-2.25,3.9-3.1,5.75-5.2-.17,1.5-2,6-2.76,7.68-2.86,6.46-4.77,14.68-10,18.07C48,49.3,48.23,51.8,43.22,53.29a41.57,41.57,0,0,1-23.85-.35c-4.53-1.5-4.25-4.22-6.46-5.55-5.24-3.18-5.88-11.8-8.65-18A48.67,48.67,0,0,1,.66,20.3c-1.5-6.53,1.41-3,4-1.08C10,23.07,20.23,25.68,32,25.68s21.65-2.41,27-6.18c3.34-2.36,3.41-6.52,0-9.11-5.57-4.21-18.62-6-21.37-6.11-3.33-.15-1.88-2.47-4.56-2.3a35.51,35.51,0,0,0-9,1.85,29.77,29.77,0,0,1-6.94,1.93C7.29,7.51-.38,13.05,4.83,18.1.75,16.27-1,12.84,3.11,8.68,8.48,3.19,22.76.28,32.92.25c10.93,0,26.2,3.45,30.5,10.89,3,4.34-.66,10.28-4.63,12.81C53.35,27.4,43.41,29.72,32,29.72c-10.3,0-19.43-1.91-25.1-4.84h0c-1.09.14-1.21,1.73.16,3.64C11.28,34.3,8.48,40,17.91,46.66c1.47,1,8,2.6,14.06,2.58A39.12,39.12,0,0,0,45.57,46.86Z"/><path class="cls-2" d="M46.59,19.12c16.6-4.54-.34-13.33-9.38-11.63C46.11,7.58,57.1,12.11,46.59,19.12Z"/><path class="cls-2" d="M14.13,8.19c-4.85,1.27-7.07,4-7.07,6.29,0,9.15,36.82,12,48.51,4.13C37.88,25.81-3.37,19,14.13,8.19Z"/><path class="cls-2" d="M28.77,5.73c-3.94.8-11.3,2.42-10.84,6.62.4,3.69,7.17,6.71,14.38,6.71s10.28-1.29,12.41-2.4C29.32,21,15.93,12.12,28.77,5.73Z"/></g></g></svg>