<svg id="Group_697" data-name="Group 697" xmlns="http://www.w3.org/2000/svg" width="174.054" height="42.979" viewBox="0 0 174.054 42.979">
  <path id="Path_43" data-name="Path 43" d="M330.676,264.242V285.8c0,2.465.756,3.26,3.022,3.26a26.766,26.766,0,0,0,3.023-.2l.477,2.9a24.7,24.7,0,0,1-3.777.317c-4.3,0-6.323-1.869-6.323-5.845V264.242Z" transform="translate(-293.748 -264.242)" fill="#ffffff"/>
  <path id="Path_44" data-name="Path 44" d="M362.42,297.778c-3.857.317-6.2.477-7.795.477-5.607,0-8.629-2.187-8.629-6.323,0-3.778,2.505-5.806,7.2-5.806h5.647v-1.392c0-2.545-1.511-3.5-5.607-3.5a34.33,34.33,0,0,0-5.289.477l-.478-2.942a34.682,34.682,0,0,1,6.324-.6c6,0,8.629,1.988,8.629,6.521Zm-8.351-8.749c-3.182,0-4.375.8-4.375,2.863,0,2.307,1.472,3.261,5.131,3.261,1.153,0,2.385-.079,4.016-.238v-5.886Z" transform="translate(-301.91 -270.258)" fill="#ffffff"/>
  <path id="Path_45" data-name="Path 45" d="M401.571,281.465H389.017c-2.147,0-3.777.438-4.693,1.312-1.073.994-1.63,2.943-1.63,5.528,0,5.21,1.709,7.118,6.4,7.118a58.994,58.994,0,0,0,6.124-.4l.477,3.023a55.583,55.583,0,0,1-6.562.437c-2.983,0-5.21-.517-6.721-1.551-2.187-1.471-3.38-4.534-3.38-8.549,0-6.761,3.062-9.863,9.782-9.863H400.97" transform="translate(-316.18 -270.409)" fill="#ffffff"/>
  <path id="Path_46" data-name="Path 46" d="M417.394,272.315v-7.278c.319-.08.637-.159.756-.2a24.123,24.123,0,0,1,2.784-.6v8.073h7.317v3.1h-7.317v10.419c0,2.426.835,3.26,3.341,3.26a25.829,25.829,0,0,0,3.619-.317l.437,2.942a26.3,26.3,0,0,1-4.453.437c-4.374,0-6.483-1.909-6.483-5.806V272.315Z" transform="translate(-332.746 -264.242)" fill="#ffffff"/>
  <path id="Path_47" data-name="Path 47" d="M458.12,288.123c0,3.341-1.074,6.363-2.784,7.914a10.942,10.942,0,0,1-7.118,2.187,11.825,11.825,0,0,1-5.806-1.312c-2.664-1.471-4.1-4.613-4.1-8.868,0-3.381.994-6.2,2.7-7.755,1.511-1.352,4.255-2.187,7.118-2.187C454.82,278.1,458.12,281.442,458.12,288.123Zm-16.145.08c0,4.772,1.988,7,6.243,7s6.244-2.227,6.244-7c0-4.812-2.067-7.118-6.283-7.118C444.043,281.085,441.975,283.43,441.975,288.2Z" transform="translate(-341.782 -270.228)" fill="#ffffff"/>
  <path id="Path_48" data-name="Path 48" d="M477.742,294.785a46.056,46.056,0,0,0,5.965.437c3.46,0,5.29-.954,5.29-2.784,0-1.033-.636-1.828-2.029-2.425a13.954,13.954,0,0,0-2.664-.716,30.028,30.028,0,0,1-4.414-1.193,4.683,4.683,0,0,1-2.863-4.653c0-3.5,2.505-5.21,7.636-5.21a50.345,50.345,0,0,1,6.521.477l-.358,2.863a37.448,37.448,0,0,0-5.329-.4c-3.459,0-4.891.676-4.891,2.346,0,1.114.677,1.829,2.267,2.386.16,0,1.471.278,3.619.716,4.573.954,6.2,2.465,6.2,5.686,0,3.9-2.983,5.886-8.828,5.886a60.924,60.924,0,0,1-6.561-.437Z" transform="translate(-358.501 -270.288)" fill="#ffffff"/>
  <path id="Path_49" data-name="Path 49" d="M524.391,297.778c-3.858.317-6.2.477-7.8.477-5.607,0-8.629-2.187-8.629-6.323,0-3.778,2.505-5.806,7.2-5.806h5.646v-1.392c0-2.545-1.511-3.5-5.607-3.5a34.325,34.325,0,0,0-5.29.477l-.477-2.942a34.66,34.66,0,0,1,6.322-.6c6.005,0,8.631,1.988,8.631,6.521Zm-8.352-8.749c-3.181,0-4.374.8-4.374,2.863,0,2.307,1.471,3.261,5.129,3.261,1.154,0,2.387-.079,4.017-.238v-5.886Z" transform="translate(-371.864 -270.258)" fill="#ffffff"/>
  <path id="Path_50" data-name="Path 50" d="M556.642,297.937V290.42a29.653,29.653,0,0,0-.159-5.21c-.358-2.863-2.028-4.016-5.845-4.016a44.9,44.9,0,0,0-4.693.278v16.464h-3.539V278.728a80.649,80.649,0,0,1,8.391-.556c6.6,0,9.385,2.466,9.385,8.271v11.493Z" transform="translate(-386.738 -270.258)" fill="#ffffff"/>
  <path id="Rectangle_80" data-name="Rectangle 80" d="M5.668,0H22.183a5.67,5.67,0,0,1,5.67,5.67V22.183a5.669,5.669,0,0,1-5.669,5.669H5.67A5.67,5.67,0,0,1,0,22.183V5.668A5.668,5.668,0,0,1,5.668,0Z" transform="translate(0 0.001)" fill="#ffcb35"/>
  <path id="Path_51" data-name="Path 51" d="M278.955,290.741a12.17,12.17,0,1,1,16.089-16.682Z" transform="translate(-270.019 -265.713)" fill="#fbfbfd"/>
  <path id="Path_52" data-name="Path 52" d="M289.414,306.761a1.2,1.2,0,1,1-1.234-1.166A1.2,1.2,0,0,1,289.414,306.761Z" transform="translate(-276.436 -282.102)" fill="#fbfbfd"/>
  <path id="Path_53" data-name="Path 53" d="M292.821,303.3a1.2,1.2,0,1,1-1.234-1.167A1.2,1.2,0,0,1,292.821,303.3Z" transform="translate(-277.907 -280.604)" fill="#fbfbfd"/>
  <path id="Path_54" data-name="Path 54" d="M296.228,299.829a1.2,1.2,0,1,1-1.235-1.167A1.2,1.2,0,0,1,296.228,299.829Z" transform="translate(-279.378 -279.107)" fill="#fbfbfd"/>
  <path id="Path_55" data-name="Path 55" d="M299.634,296.361a1.2,1.2,0,1,1-1.234-1.169A1.2,1.2,0,0,1,299.634,296.361Z" transform="translate(-280.849 -277.609)" fill="#fbfbfd"/>
  <path id="Path_56" data-name="Path 56" d="M303.042,292.894a1.2,1.2,0,1,1-1.235-1.167A1.2,1.2,0,0,1,303.042,292.894Z" transform="translate(-282.321 -276.112)" fill="#fbfbfd"/>
  <path id="Path_57" data-name="Path 57" d="M306.449,289.427a1.2,1.2,0,1,1-1.235-1.167A1.2,1.2,0,0,1,306.449,289.427Z" transform="translate(-283.793 -274.614)" fill="#fbfbfd"/>
  <path id="Path_58" data-name="Path 58" d="M309.855,285.961a1.2,1.2,0,1,1-1.235-1.168A1.2,1.2,0,0,1,309.855,285.961Z" transform="translate(-285.263 -273.117)" fill="#fbfbfd"/>
  <path id="Path_59" data-name="Path 59" d="M313.262,282.493a1.2,1.2,0,1,1-1.234-1.167A1.2,1.2,0,0,1,313.262,282.493Z" transform="translate(-286.735 -271.62)" fill="#fbfbfd"/>
  <path id="Path_60" data-name="Path 60" d="M294.894,308.3a1.11,1.11,0,1,1-1.141-1.078A1.11,1.11,0,0,1,294.894,308.3Z" transform="translate(-278.881 -282.806)" fill="#fbfbfd"/>
  <path id="Path_61" data-name="Path 61" d="M298.042,305.1a1.111,1.111,0,1,1-1.141-1.079A1.11,1.11,0,0,1,298.042,305.1Z" transform="translate(-280.241 -281.422)" fill="#fbfbfd"/>
  <path id="Path_62" data-name="Path 62" d="M301.19,301.9a1.11,1.11,0,1,1-1.141-1.079A1.111,1.111,0,0,1,301.19,301.9Z" transform="translate(-281.6 -280.039)" fill="#fbfbfd"/>
  <path id="Path_63" data-name="Path 63" d="M304.337,298.694a1.11,1.11,0,1,1-1.14-1.078A1.109,1.109,0,0,1,304.337,298.694Z" transform="translate(-282.96 -278.656)" fill="#fbfbfd"/>
  <path id="Path_64" data-name="Path 64" d="M307.486,295.491a1.11,1.11,0,1,1-1.141-1.079A1.11,1.11,0,0,1,307.486,295.491Z" transform="translate(-284.319 -277.272)" fill="#fbfbfd"/>
  <path id="Path_65" data-name="Path 65" d="M310.633,292.287a1.11,1.11,0,1,1-1.141-1.078A1.109,1.109,0,0,1,310.633,292.287Z" transform="translate(-285.679 -275.888)" fill="#fbfbfd"/>
  <path id="Path_66" data-name="Path 66" d="M313.782,289.082A1.111,1.111,0,1,1,312.641,288,1.112,1.112,0,0,1,313.782,289.082Z" transform="translate(-287.039 -274.504)" fill="#fbfbfd"/>
  <path id="Path_67" data-name="Path 67" d="M302.4,307.295a.888.888,0,1,1-.912-.863A.889.889,0,0,1,302.4,307.295Z" transform="translate(-282.314 -282.463)" fill="#fbfbfd"/>
  <path id="Path_68" data-name="Path 68" d="M304.917,304.732a.888.888,0,1,1-.913-.862A.888.888,0,0,1,304.917,304.732Z" transform="translate(-283.402 -281.357)" fill="#fbfbfd"/>
  <path id="Path_69" data-name="Path 69" d="M307.435,302.169a.888.888,0,1,1-.913-.862A.89.89,0,0,1,307.435,302.169Z" transform="translate(-284.489 -280.25)" fill="#fbfbfd"/>
  <path id="Path_70" data-name="Path 70" d="M309.953,299.605a.888.888,0,1,1-.912-.864A.89.89,0,0,1,309.953,299.605Z" transform="translate(-285.577 -279.142)" fill="#fbfbfd"/>
  <path id="Path_71" data-name="Path 71" d="M312.472,297.043a.888.888,0,1,1-.913-.863A.89.89,0,0,1,312.472,297.043Z" transform="translate(-286.665 -278.035)" fill="#fbfbfd"/>
  <path id="Path_72" data-name="Path 72" d="M275.351,329.02a1.981,1.981,0,0,1-2.213,2H269.36V323.68h3.41c1.469,0,2.308.671,2.308,1.93a1.684,1.684,0,0,1-1.2,1.648A1.723,1.723,0,0,1,275.351,329.02Zm-4.6-2.245h1.92a.94.94,0,0,0,1.038-.986.966.966,0,0,0-1.049-1.018h-1.91Zm2.12,3.158a1,1,0,0,0,1.081-1.06,1.019,1.019,0,0,0-1.112-1.071h-2.088v2.13Z" transform="translate(-268.812 -289.912)" fill="#ffffff"/>
  <path id="Path_73" data-name="Path 73" d="M285.563,326.98l-.031,1.279a1.945,1.945,0,0,0-.43-.041c-1.06,0-1.469.923-1.469,1.92v2.3H282.3V326.98h1.1l.115,1.185a1.718,1.718,0,0,1,1.647-1.217A2.581,2.581,0,0,1,285.563,326.98Z" transform="translate(-274.401 -291.324)" fill="#ffffff"/>
  <path id="Path_74" data-name="Path 74" d="M289.662,326.368h-.975v-.944h2.308v5.455h-1.332ZM289.568,324c0-.441.283-.651.734-.651.473,0,.745.21.745.651s-.273.661-.756.661C289.851,324.658,289.568,324.448,289.568,324Z" transform="translate(-277.159 -289.768)" fill="#ffffff"/>
  <path id="Path_75" data-name="Path 75" d="M300.668,328.915v3.472h-1.321v-3.315c0-.84-.43-1.217-1.081-1.217-.933,0-1.342.829-1.342,1.616v2.917h-1.332v-5.455h1.164l.084.849a2.067,2.067,0,0,1,1.857-.944C299.745,326.837,300.668,327.268,300.668,328.915Z" transform="translate(-280.141 -291.276)" fill="#ffffff"/>
  <path id="Path_76" data-name="Path 76" d="M312.213,327.834l-.829-.053a1.354,1.354,0,0,1,.483,1.091c0,1-.85,1.7-2.466,1.7a4.173,4.173,0,0,1-1.2-.158.432.432,0,0,0-.2.377c.011.42.567.483,1.364.483h.839c1.091,0,1.9.315,1.9,1.323,0,1.342-1.322,1.657-2.707,1.657-1.258,0-2.643-.241-2.643-1.374a1.084,1.084,0,0,1,.693-.965,1,1,0,0,1-.567-.913.966.966,0,0,1,.672-.912,1.625,1.625,0,0,1-.619-1.375c0-1.258.945-1.878,2.476-1.878a3.84,3.84,0,0,1,.913.095h1.888Zm-2.706,4.417a6.935,6.935,0,0,1-1.353-.1.68.68,0,0,0-.262.535c0,.577.651.714,1.542.714.818,0,1.479-.115,1.479-.672,0-.368-.262-.472-.807-.472Zm1.06-3.536c0-.692-.482-.954-1.165-.954s-1.154.262-1.154.954.5.934,1.154.934C310.115,329.649,310.566,329.366,310.566,328.715Z" transform="translate(-284.964 -291.276)" fill="#ffffff"/>
  <path id="Path_77" data-name="Path 77" d="M318.254,326.368h-.975v-.944h2.308v5.455h-1.333ZM318.16,324c0-.441.284-.651.735-.651.472,0,.745.21.745.651s-.273.661-.755.661C318.444,324.658,318.16,324.448,318.16,324Z" transform="translate(-289.508 -289.768)" fill="#ffffff"/>
  <path id="Path_78" data-name="Path 78" d="M329.261,328.915v3.472h-1.322v-3.315c0-.84-.43-1.217-1.081-1.217a1.434,1.434,0,0,0-1.343,1.616v2.917h-1.332v-5.455h1.165l.084.849a2.066,2.066,0,0,1,1.857-.944C328.338,326.837,329.261,327.268,329.261,328.915Z" transform="translate(-292.489 -291.276)" fill="#ffffff"/>
  <path id="Path_79" data-name="Path 79" d="M340.806,327.834l-.829-.053a1.356,1.356,0,0,1,.483,1.091c0,1-.85,1.7-2.466,1.7a4.17,4.17,0,0,1-1.2-.158.432.432,0,0,0-.2.377c.01.42.566.483,1.363.483h.84c1.091,0,1.9.315,1.9,1.323,0,1.342-1.322,1.657-2.706,1.657-1.259,0-2.644-.241-2.644-1.374a1.084,1.084,0,0,1,.693-.965,1,1,0,0,1-.566-.913.966.966,0,0,1,.671-.912,1.626,1.626,0,0,1-.619-1.375c0-1.258.944-1.878,2.476-1.878a3.834,3.834,0,0,1,.913.095h1.888Zm-2.707,4.417a6.941,6.941,0,0,1-1.353-.1.68.68,0,0,0-.262.535c0,.577.651.714,1.542.714.819,0,1.479-.115,1.479-.672,0-.368-.262-.472-.808-.472Zm1.06-3.536c0-.692-.483-.954-1.165-.954s-1.154.262-1.154.954.5.934,1.154.934C338.708,329.649,339.159,329.366,339.159,328.715Z" transform="translate(-297.312 -291.276)" fill="#ffffff"/>
  <path id="Path_80" data-name="Path 80" d="M356.107,327l-2.78,7.238H351.9l.7-1.751L350.358,327h1.458l1.563,4.049L354.806,327Z" transform="translate(-303.795 -291.348)" fill="#ffffff"/>
  <path id="Path_81" data-name="Path 81" d="M361.359,329.649a2.885,2.885,0,1,1,2.885,2.833A2.638,2.638,0,0,1,361.359,329.649Zm4.417.021c0-1.164-.566-1.815-1.542-1.815s-1.532.651-1.532,1.815c0,1.144.566,1.794,1.532,1.794S365.776,330.813,365.776,329.67Z" transform="translate(-308.545 -291.276)" fill="#ffffff"/>
  <path id="Path_82" data-name="Path 82" d="M378.768,327v5.455H377.6l-.084-.86a2.044,2.044,0,0,1-1.857.954c-1.049,0-1.972-.43-1.972-2.077V327h1.332v3.315c0,.839.42,1.216,1.06,1.216a1.436,1.436,0,0,0,1.364-1.615V327Z" transform="translate(-313.871 -291.348)" fill="#ffffff"/>
  <path id="Path_83" data-name="Path 83" d="M388.729,326.98l-.031,1.279a1.941,1.941,0,0,0-.43-.041c-1.06,0-1.469.923-1.469,1.92v2.3h-1.332V326.98h1.1l.115,1.185a1.718,1.718,0,0,1,1.648-1.217A2.574,2.574,0,0,1,388.729,326.98Z" transform="translate(-318.957 -291.324)" fill="#ffffff"/>
  <path id="Path_84" data-name="Path 84" d="M402.653,328.915v3.472h-1.321v-3.315c0-.84-.43-1.217-1.081-1.217-.933,0-1.342.829-1.342,1.616v2.917h-1.332v-5.455h1.164l.085.849a2.066,2.066,0,0,1,1.857-.944C401.73,326.837,402.653,327.268,402.653,328.915Z" transform="translate(-324.187 -291.276)" fill="#ffffff"/>
  <path id="Path_85" data-name="Path 85" d="M414.115,330.079H410.1c0,.986.745,1.426,1.795,1.426a5.339,5.339,0,0,0,1.962-.451l.073,1.06a6.15,6.15,0,0,1-2.172.367c-1.972,0-3.011-1.049-3.011-2.8a2.642,2.642,0,0,1,2.833-2.843,2.412,2.412,0,0,1,2.581,2.633A5.9,5.9,0,0,1,414.115,330.079Zm-1.206-.85a1.268,1.268,0,0,0-1.291-1.427c-.776,0-1.342.388-1.49,1.427Z" transform="translate(-329.01 -291.276)" fill="#ffffff"/>
  <path id="Path_86" data-name="Path 86" d="M423.332,332.459l-1.311-1.951-1.353,1.951h-1.385l1.93-2.7L419.3,327h1.5l1.269,1.815L423.385,327h1.363l-1.878,2.6,1.951,2.854Z" transform="translate(-333.562 -291.348)" fill="#ffffff"/>
  <path id="Path_87" data-name="Path 87" d="M432.032,325.807h1.825v.944h-1.825v2.612c0,.766.325.934.86.934a2.674,2.674,0,0,0,.965-.262l.042,1.1a4.619,4.619,0,0,1-1.469.22c-1.007,0-1.71-.4-1.71-1.867v-2.738h-.86v-.944h.86l.158-1.574h1.154Z" transform="translate(-338.13 -290.151)" fill="#ffffff"/>
  <path id="Path_88" data-name="Path 88" d="M449.47,329.638c0,1.553-.818,2.843-2.487,2.843a2.183,2.183,0,0,1-1.836-.808v2.5h-1.332v-7.238h1.144l.115.807a2.18,2.18,0,0,1,1.909-.9A2.5,2.5,0,0,1,449.47,329.638Zm-1.353,0c0-1.112-.556-1.784-1.5-1.784-.913,0-1.5.693-1.5,1.784,0,1.133.577,1.825,1.49,1.825C447.561,331.463,448.117,330.792,448.117,329.638Z" transform="translate(-344.158 -291.276)" fill="#ffffff"/>
  <path id="Path_89" data-name="Path 89" d="M459.335,326.98l-.031,1.279a1.945,1.945,0,0,0-.43-.041c-1.06,0-1.469.923-1.469,1.92v2.3h-1.333V326.98h1.1l.115,1.185a1.718,1.718,0,0,1,1.647-1.217A2.587,2.587,0,0,1,459.335,326.98Z" transform="translate(-349.451 -291.324)" fill="#ffffff"/>
  <path id="Path_90" data-name="Path 90" d="M462.68,329.649a2.885,2.885,0,1,1,2.885,2.833A2.638,2.638,0,0,1,462.68,329.649Zm4.417.021c0-1.164-.566-1.815-1.542-1.815s-1.532.651-1.532,1.815c0,1.144.566,1.794,1.532,1.794S467.1,330.813,467.1,329.67Z" transform="translate(-352.305 -291.276)" fill="#ffffff"/>
  <path id="Path_91" data-name="Path 91" d="M480.185,323.089v7.679h-1.248l-.063-.745a2.183,2.183,0,0,1-1.867.839c-1.689,0-2.476-1.322-2.476-2.8,0-1.553.818-2.843,2.486-2.843a2.124,2.124,0,0,1,1.836.829v-2.958Zm-1.311,4.973c0-1.133-.566-1.826-1.479-1.826-.965,0-1.521.671-1.521,1.826,0,1.111.566,1.783,1.521,1.783C478.287,329.844,478.874,329.163,478.874,328.062Z" transform="translate(-357.423 -289.657)" fill="#ffffff"/>
  <path id="Path_92" data-name="Path 92" d="M492.308,327v5.455h-1.164l-.084-.86a2.044,2.044,0,0,1-1.857.954c-1.049,0-1.972-.43-1.972-2.077V327h1.332v3.315c0,.839.42,1.216,1.06,1.216a1.436,1.436,0,0,0,1.364-1.615V327Z" transform="translate(-362.908 -291.348)" fill="#ffffff"/>
  <path id="Path_93" data-name="Path 93" d="M498.435,329.659c0-1.825,1.238-2.822,3.063-2.822a5.238,5.238,0,0,1,1.679.273l-.115,1.08a3.369,3.369,0,0,0-1.4-.336,1.806,1.806,0,1,0,0,3.609,3.412,3.412,0,0,0,1.4-.346l.084,1.049a4.359,4.359,0,0,1-1.648.315C499.673,332.481,498.435,331.485,498.435,329.659Z" transform="translate(-367.747 -291.276)" fill="#ffffff"/>
  <path id="Path_94" data-name="Path 94" d="M510.187,325.807h1.825v.944h-1.825v2.612c0,.766.325.934.86.934a2.674,2.674,0,0,0,.965-.262l.042,1.1a4.614,4.614,0,0,1-1.469.22c-1.007,0-1.71-.4-1.71-1.867v-2.738h-.86v-.944h.86l.157-1.574h1.154Z" transform="translate(-371.885 -290.151)" fill="#ffffff"/>
  <path id="Path_95" data-name="Path 95" d="M523.219,325.807h1.825v.944h-1.825v2.612c0,.766.325.934.86.934a2.674,2.674,0,0,0,.965-.262l.042,1.1a4.619,4.619,0,0,1-1.469.22c-1.007,0-1.71-.4-1.71-1.867v-2.738h-.861v-.944h.861l.157-1.574h1.154Z" transform="translate(-377.513 -290.151)" fill="#ffffff"/>
  <path id="Path_96" data-name="Path 96" d="M529.409,329.649a2.886,2.886,0,1,1,2.885,2.833A2.638,2.638,0,0,1,529.409,329.649Zm4.417.021c0-1.164-.566-1.815-1.542-1.815s-1.532.651-1.532,1.815c0,1.144.567,1.794,1.532,1.794S533.826,330.813,533.826,329.67Z" transform="translate(-381.124 -291.276)" fill="#ffffff"/>
  <path id="Path_97" data-name="Path 97" d="M548.13,329.435c0,.326.189.4.431.4a3.026,3.026,0,0,0,.619-.115v1.039a5.556,5.556,0,0,1-1.07.1c-.9,0-1.311-.4-1.311-1.185v-6.588h1.332Z" transform="translate(-388.634 -289.657)" fill="#ffffff"/>
  <path id="Path_98" data-name="Path 98" d="M552.5,326.368h-.976v-.944h2.308v5.455H552.5ZM552.4,324c0-.441.283-.651.734-.651.472,0,.745.21.745.651s-.273.661-.755.661C552.688,324.658,552.4,324.448,552.4,324Z" transform="translate(-390.675 -289.768)" fill="#ffffff"/>
  <path id="Path_99" data-name="Path 99" d="M558.458,326.185h-.881v-.944h.881v-.452c0-1.164.451-1.867,1.9-1.867a3.976,3.976,0,0,1,1.185.168l-.042,1.018a2.108,2.108,0,0,0-.85-.21c-.566,0-.881.272-.881.912v.431H561.4v.944H559.77V330.7h-1.312Z" transform="translate(-393.29 -289.585)" fill="#ffffff"/>
  <path id="Path_100" data-name="Path 100" d="M570.609,330.079h-4.018c0,.986.745,1.426,1.794,1.426a5.342,5.342,0,0,0,1.962-.451l.073,1.06a6.144,6.144,0,0,1-2.171.367c-1.973,0-3.011-1.049-3.011-2.8a2.641,2.641,0,0,1,2.833-2.843,2.412,2.412,0,0,1,2.581,2.633A5.9,5.9,0,0,1,570.609,330.079Zm-1.207-.85a1.268,1.268,0,0,0-1.29-1.427c-.777,0-1.343.388-1.49,1.427Z" transform="translate(-396.598 -291.276)" fill="#ffffff"/>
</svg>
