<svg xmlns="http://www.w3.org/2000/svg" viewBox="0 0 39.89 78.77" width="44px" height="44px"><defs><style>.cls-1{fill:none;stroke:#2CA3DB;stroke-miterlimit:10;stroke-width:1px;}</style></defs><g id="Lag_2" data-name="Lag 2"><g id="Lag_1-2" data-name="Lag 1"><path class="cls-1" d="M20.27,78.57a1.77,1.77,0,0,1-1.74-1.32l-.44-1.53,2.22-2.22,2.16,2.16L22,77.25A1.78,1.78,0,0,1,20.27,78.57Zm-3.94-9,2.76,2.77-1.54,1.54Zm5.19,2.77,2.67-2.67L23,73.77Zm-4.86-4.86,3.65-3.65L24,67.43l-3.64,3.64Zm-1.3-1.3-1.57-5.55,1.66-1.66,3.64,3.65-3.64,3.64Zm6.16-3.56,3.65-3.65,1.6,1.61-1.61,5.68Zm-4.86-4.86,3.65-3.65L24,57.71l-3.64,3.64Zm-4.19-1.77,1.76,1.77-1,1Zm13.91,1.77L28.05,56l-.74,2.61Zm-4.86-4.86,3.65-3.65,3.64,3.65-3.64,3.64Zm-9.72,0,3.65-3.65,3.64,3.65-3.64,3.64ZM16.66,48l3.65-3.65L24,48l-3.64,3.64ZM9.48,45.44l1.11-1.1L14.23,48,11.1,51.12ZM26.38,48,30,44.34l1,1-1.62,5.68Zm-4.86-4.86,3.65-3.65,3.64,3.65-3.64,3.64Zm-9.72,0,3.65-3.65,3.64,3.65-3.64,3.64Zm-3.2-.77.77.77-.43.42Zm22.64.77.67-.68-.29,1ZM16.66,38.26l.78-.78h5.73l.78.78-3.64,3.65Zm9.72,0,.78-.78h6.17l-.45,1.58L30,41.91ZM7.64,39l-.42-1.48h6.23l.78.78-3.64,3.65ZM4.47,34.85a1.58,1.58,0,0,1-1.55-1.23l-.94-4H38.57l-.94,4a1.58,1.58,0,0,1-1.55,1.23Zm19.4-7.45a1.59,1.59,0,0,1-1.54-2,13.69,13.69,0,0,0,.31-1.81,1.58,1.58,0,0,1,1.16-1.38A12.49,12.49,0,0,0,32,14.83a1.57,1.57,0,0,1,.92-.9,1.54,1.54,0,0,1,.56-.1,1.7,1.7,0,0,1,.73.17,10.05,10.05,0,0,1,4.83,12.36,1.6,1.6,0,0,1-1.5,1Zm-21.36,0a1.61,1.61,0,0,1-1.46-.94,10,10,0,0,1,.8-9.53,9.86,9.86,0,0,1,8.41-4.56,9.86,9.86,0,0,1,8.42,4.56,10,10,0,0,1,.8,9.53A1.61,1.61,0,0,1,18,27.4Zm8.05-13.85a9.37,9.37,0,0,0-8.77,6.61.51.51,0,0,0,.07.48.56.56,0,0,0,.45.23h0a.54.54,0,0,0,.44-.23c1.64-2.22,4.36-4.26,8.07-6.06a.52.52,0,0,0,.29-.61.53.53,0,0,0-.53-.42h0Zm13.05,6.17a1.62,1.62,0,0,1-.68-.16,1.58,1.58,0,0,1-.84-.95A12.5,12.5,0,0,0,12,10.11a1.59,1.59,0,0,1-1.35-1.9A10.06,10.06,0,1,1,24.2,19.6,1.52,1.52,0,0,1,23.61,19.72ZM20.66,1.16a9.41,9.41,0,0,0-8.59,6.78.53.53,0,0,0,.07.46.55.55,0,0,0,.43.21h0A.49.49,0,0,0,13,8.38a21.66,21.66,0,0,1,7.94-6.25.5.5,0,0,0,.27-.57.51.51,0,0,0-.51-.4h0Z"/></g></g></svg>