<svg xmlns="http://www.w3.org/2000/svg" width="25" height="33.17" viewBox="0 0 25 33.17">
  <g id="Group_907" data-name="Group 907" transform="translate(-918.073 -779.963)">
    <path id="Path_841" data-name="Path 841" d="M928.3,805.143a.64.64,0,0,1-.64-.639,9.2,9.2,0,0,0-1.942-5.759,8.088,8.088,0,0,1,5.886-13.143c.151-.008.3-.013.449-.013a8.1,8.1,0,0,1,6.429,12.983A9.864,9.864,0,0,0,936.4,804.5a.64.64,0,0,1-.64.641Zm4.367-5.9v4.627h2.465l.011-.139a11.193,11.193,0,0,1,2.148-5.715l.175-.227a6.808,6.808,0,1,0-10.756.169,10.308,10.308,0,0,1,2.2,5.77l.008.142h2.469v-4.627l-2.2-3.514,1.084-.678,1.752,2.8,1.752-2.8,1.083.678Z" transform="translate(-1.424 -1.366)" fill="#c7eace"/>
    <path id="Path_842" data-name="Path 842" d="M933.232,821.3a4.314,4.314,0,0,1-4.331-4.207.639.639,0,0,1,.639-.635h4.533v1.278h-3.831l.054.193a3.058,3.058,0,0,0,6-.832v-2.212h-7.22v-1.278h7.859a.641.641,0,0,1,.635.64v2.85a4.341,4.341,0,0,1-4.206,4.2Z" transform="translate(-2.629 -8.168)" fill="#c7eace"/>
    <path id="Path_843" data-name="Path 843" d="M948.608,796.905a.639.639,0,1,1,0-1.278h1.083a.639.639,0,1,1,0,1.278Z" transform="translate(-7.258 -3.803)" fill="#c7eace"/>
    <path id="Path_844" data-name="Path 844" d="M918.712,796.905a.639.639,0,1,1,0-1.278h1.079a.639.639,0,0,1,0,1.278Z" transform="translate(0 -3.803)" fill="#c7eace"/>
    <path id="Path_845" data-name="Path 845" d="M944.825,786.314a.635.635,0,0,1-.452-.188.641.641,0,0,1,0-.9L945,784.6v0a.64.64,0,0,1,.861.945l-.583.59A.632.632,0,0,1,944.825,786.314Z" transform="translate(-6.339 -1.088)" fill="#c7eace"/>
    <path id="Path_846" data-name="Path 846" d="M923.252,807.914a.639.639,0,0,1-.453-1.091l.538-.538a.64.64,0,1,1,.9.9l-.538.538A.635.635,0,0,1,923.252,807.914Z" transform="translate(-1.102 -6.344)" fill="#c7eace"/>
    <path id="Path_847" data-name="Path 847" d="M945.376,807.865a.636.636,0,0,1-.432-.167l-.576-.577a.64.64,0,0,1,.9-.9l.585.589a.639.639,0,0,1-.482,1.06Z" transform="translate(-6.338 -6.328)" fill="#c7eace"/>
    <path id="Path_848" data-name="Path 848" d="M923.776,786.257a.636.636,0,0,1-.453-.188l-.537-.544a.761.761,0,0,1-.079-.079.64.64,0,0,1,.487-1.053.64.64,0,0,1,.488.226l.546.547a.64.64,0,0,1-.452,1.092Z" transform="translate(-1.088 -1.075)" fill="#c7eace"/>
    <path id="Path_849" data-name="Path 849" d="M934.375,782.321a.64.64,0,0,1-.639-.639V780.6a.639.639,0,0,1,1.278,0v1.08A.64.64,0,0,1,934.375,782.321Z" transform="translate(-3.802)" fill="#c7eace"/>
  </g>
</svg>
