<svg xmlns="http://www.w3.org/2000/svg" width="39.741" height="52.728" viewBox="0 0 39.741 52.728">
  <g id="Group_901" data-name="Group 901" transform="translate(-918.073 -779.963)">
    <path id="Path_841" data-name="Path 841" d="M930.878,816.672a1.017,1.017,0,0,1-1.017-1.016,14.624,14.624,0,0,0-3.086-9.154,12.857,12.857,0,0,1,9.357-20.892c.24-.013.477-.02.714-.02a12.87,12.87,0,0,1,10.22,20.638,15.68,15.68,0,0,0-3.323,9.425,1.018,1.018,0,0,1-1.017,1.02Zm6.942-9.387v7.355h3.919l.018-.221a17.792,17.792,0,0,1,3.414-9.084l.278-.361a10.823,10.823,0,1,0-17.1.268,16.385,16.385,0,0,1,3.5,9.172l.013.226h3.924v-7.355L932.3,801.7l1.723-1.077,2.785,4.459,2.785-4.459,1.723,1.077Z" transform="translate(1.195 1.146)" fill="#47b95f"/>
    <path id="Path_842" data-name="Path 842" d="M935.786,825.837a6.857,6.857,0,0,1-6.885-6.688,1.015,1.015,0,0,1,1.016-1.009h7.205v2.032h-6.091l.087.307a4.861,4.861,0,0,0,9.536-1.323V815.64H929.177v-2.032H941.67a1.018,1.018,0,0,1,1.01,1.017v4.531a6.9,6.9,0,0,1-6.685,6.678Z" transform="translate(2.206 6.854)" fill="#47b95f"/>
    <path id="Path_843" data-name="Path 843" d="M948.985,797.659a1.016,1.016,0,1,1,0-2.032h1.723a1.016,1.016,0,0,1,0,2.032Z" transform="translate(6.09 3.191)" fill="#47b95f"/>
    <path id="Path_844" data-name="Path 844" d="M919.089,797.659a1.016,1.016,0,1,1,0-2.032H920.8a1.016,1.016,0,0,1,0,2.032Z" transform="translate(0 3.191)" fill="#47b95f"/>
    <path id="Path_845" data-name="Path 845" d="M945.2,787.416a1.008,1.008,0,0,1-.719-.3,1.019,1.019,0,0,1,0-1.438l.994-.994v-.006a1.017,1.017,0,0,1,1.369,1.5l-.927.938A1,1,0,0,1,945.2,787.416Z" transform="translate(5.32 0.913)" fill="#47b95f"/>
    <path id="Path_846" data-name="Path 846" d="M923.629,808.985a1.016,1.016,0,0,1-.72-1.734l.854-.855a1.017,1.017,0,0,1,1.438,1.437l-.855.855A1.009,1.009,0,0,1,923.629,808.985Z" transform="translate(0.925 5.324)" fill="#47b95f"/>
    <path id="Path_847" data-name="Path 847" d="M946.08,808.948a1.011,1.011,0,0,1-.686-.266l-.916-.917a1.017,1.017,0,0,1,1.437-1.438l.93.937a1.016,1.016,0,0,1-.766,1.685Z" transform="translate(5.319 5.31)" fill="#47b95f"/>
    <path id="Path_848" data-name="Path 848" d="M924.5,787.357a1.011,1.011,0,0,1-.72-.3l-.853-.865a1.22,1.22,0,0,1-.125-.125,1.017,1.017,0,0,1,.774-1.674,1.018,1.018,0,0,1,.775.359l.868.869a1.017,1.017,0,0,1-.719,1.736Z" transform="translate(0.913 0.902)" fill="#47b95f"/>
    <path id="Path_849" data-name="Path 849" d="M934.752,783.711a1.017,1.017,0,0,1-1.016-1.016v-1.716a1.016,1.016,0,1,1,2.032,0V782.7A1.017,1.017,0,0,1,934.752,783.711Z" transform="translate(3.191)" fill="#47b95f"/>
  </g>
</svg>
