<svg xmlns="http://www.w3.org/2000/svg" width="60.985" height="43.896" viewBox="0 0 60.985 43.896">
  <path id="Path_850" data-name="Path 850" d="M911.471,826.488v-5.6l-3.627,4.874-1.472-1.1,5.1-6.81V797.8l-6.351,2.715.163.855a.909.909,0,0,1,.018.172v12.019a.918.918,0,0,1-.415.766c-.769.513-1.532.984-2.3,1.432s-1.534.869-2.305,1.254-1.538.738-2.309,1.059c-.692.288-1.451.569-2.324.861-.853.284-1.609.508-2.313.684-.688.172-1.427.322-2.326.472-.871.146-1.635.243-2.336.3-.795.068-1.553.1-2.319.1s-1.552-.032-2.336-.1c-.69-.057-1.427-.153-2.321-.3s-1.639-.3-2.323-.472c-.7-.174-1.458-.4-2.315-.684-.873-.292-1.632-.573-2.324-.861q-1.157-.482-2.311-1.061c-.769-.384-1.538-.805-2.3-1.253s-1.531-.919-2.3-1.428a.925.925,0,0,1-.419-.771V801.543a1.078,1.078,0,0,1,.015-.182l.154-.849-9.619-4.116a.921.921,0,0,1,0-1.693L886,782.669a.857.857,0,0,1,.708,0L914.75,794.7a.921.921,0,0,1,0,1.693l-1.436.618v20.866l3.4,4.479,1.673,2.312-1.479,1.1-3.59-4.9v5.618Zm-42.222-13.443.769.489c.342.217.682.434,1.023.632.736.43,1.473.836,2.2,1.2s1.47.689,2.2.993,1.457.582,2.185.826,1.466.459,2.192.642,1.443.326,2.169.447,1.463.216,2.188.277c.759.064,1.47.093,2.175.093s1.415-.03,2.174-.093c.695-.058,1.407-.149,2.173-.277.726-.122,1.455-.265,2.184-.449s1.461-.4,2.192-.64,1.454-.52,2.186-.826,1.465-.642,2.2-1.008,1.469-.758,2.2-1.188c.331-.193.662-.4.993-.614l.8-.507V801.231L886.71,808.4a.932.932,0,0,1-.357.07.915.915,0,0,1-.359-.073l-16.744-7.166Zm-8.6-17.5,25.7,11.007,18.724-8.019,5.185-2.074H888.347a.871.871,0,0,1-.966-.923,1,1,0,0,1,.227-.661.851.851,0,0,1,.681-.261h21.974l-5.216-2.075-18.693-8.016Z" transform="translate(-857.399 -782.592)" fill="#8e71b3" fill-rule="evenodd"/>
</svg>
