<svg xmlns="http://www.w3.org/2000/svg" width="35.748" height="25.731" viewBox="0 0 35.748 25.731">
  <path id="Path_1151" data-name="Path 1151" d="M889.1,808.323v-3.282l-2.126,2.857-.863-.643,2.989-3.992V791.507l-3.723,1.591.1.5a.534.534,0,0,1,.01.1v7.045a.538.538,0,0,1-.243.449c-.451.3-.9.577-1.348.84s-.9.509-1.351.735-.9.432-1.354.621c-.406.169-.851.333-1.362.5s-.943.3-1.356.4-.836.188-1.363.276c-.511.086-.958.143-1.369.177-.466.04-.91.058-1.359.058s-.91-.019-1.37-.058c-.4-.033-.836-.089-1.361-.177s-.961-.176-1.362-.276-.855-.233-1.357-.4-.957-.336-1.362-.5c-.452-.188-.9-.4-1.354-.622s-.9-.472-1.35-.734-.9-.539-1.346-.837a.542.542,0,0,1-.246-.452V793.7a.627.627,0,0,1,.009-.107l.09-.5-5.639-2.413a.54.54,0,0,1,0-.992l16.437-7.054a.5.5,0,0,1,.415,0l16.439,7.055a.54.54,0,0,1,0,.992l-.842.362v12.231l1.991,2.626.981,1.355-.867.647-2.1-2.875v3.293Zm-24.75-7.88.451.287c.2.127.4.254.6.371.432.252.863.49,1.292.7s.862.4,1.29.582.854.341,1.281.484.859.269,1.285.376.846.191,1.271.262.858.127,1.282.162c.445.037.862.055,1.275.055s.829-.017,1.274-.055c.407-.034.825-.087,1.274-.162.425-.071.853-.155,1.28-.263s.856-.233,1.285-.375.852-.3,1.282-.484.859-.376,1.289-.591.861-.444,1.292-.7c.194-.113.388-.236.582-.36l.468-.3v-6.926l-9.817,4.2a.546.546,0,0,1-.209.041.536.536,0,0,1-.211-.043l-9.815-4.2Zm-5.039-10.26,15.066,6.452,10.976-4.7,3.039-1.216H875.54a.51.51,0,0,1-.566-.541.588.588,0,0,1,.133-.387.5.5,0,0,1,.4-.153h12.881l-3.057-1.217-10.957-4.7Z" transform="translate(-857.398 -782.592)" fill="#ddd4e8" fill-rule="evenodd"/>
</svg>
