<svg xmlns="http://www.w3.org/2000/svg" viewBox="0 0 81.15 60.75"><defs><style>.cls-1,.cls-2{fill:none;stroke:#010101;stroke-miterlimit:10;}.cls-1{stroke-width:0.5px;}.cls-2{stroke-width:0.4px;}</style></defs><g id="Lag_2" data-name="Lag 2"><g id="Lag_1-2" data-name="Lag 1"><path class="cls-1" d="M18.59,24.83c-2.09-1.56-4-3.32-6.05-4.92C11.39,19,10.39,17.8,8.67,18.2c-.82.61-.71,1.51-.74,2.36a52.6,52.6,0,0,0,0,7,2.3,2.3,0,0,1-1.69,2.68,24.71,24.71,0,0,0-4.13,2C.3,33.32.2,34.52,1.76,35.89,8.23,41.57,14.91,47,21.44,52.58c2.42,2.07,4.42,2.13,7.25.49,5.86-3.39,11.93-6.37,17.89-9.56,9.26-5,18.57-9.83,27.86-14.75a54.93,54.93,0,0,0,5.33-2.92c1.87-1.28,1.24-1.95-.69-3.08-2.34-1.37-7.56-2.32-9.9-3.67-.86-.5-.34-7.86-1.82-8.54-.37-.17-.69-.45-1-.65C63.87,8.49,61.44,7,59,5.69,55.14,3.63,51.42,1.31,47.14.25H43.45c-1.54.35-3.13.4-4.66.87a131,131,0,0,0-23,9.72,27.83,27.83,0,0,0-5.61,3.83c-1.62,1.47-1.59,2,0,3.52A11.33,11.33,0,0,1,12.7,20c1.58,1.3,3.32,2.42,4.84,3.81a47.84,47.84,0,0,1,4.24,3.23,4.13,4.13,0,0,0,4.91.74l.25-.11c7.48-3.25,23.83-10.2,24.59-9.78-.06.43-1.09.87-1.23.93L26.15,28.89l-.11,0a3.86,3.86,0,0,1-3.42-.62Z"/><path class="cls-1" d="M75.23,34Q51.82,46.36,28.44,58.88c-1.05.56-2.11,1.08-3.16,1.62h-3C15.48,55.08-.22,37.37.27,36.4c.33-.65-.12-.12,0,0a23.18,23.18,0,0,1,2,1.89,15.69,15.69,0,0,0,2.71,3c5.41,4.52,10.8,9.83,16.36,14.55,1.59,1.35,4.76,1.33,7.1,0C34.85,52,41.56,48.73,48.16,45.22c10.43-5.56,21-12,31.49-17.5C82,25.34,77.94,32.52,75.23,34Z"/><path class="cls-2" d="M24.08,49.25q11.84-5.84,23.68-11.64l.13-.07c6.34-3.1,12.68-6.16,19-9.24.31-.16.62-.33.94-.48s.57-.21.74.15c0,.08-44.44,23.13-44.89,21.6A.59.59,0,0,1,24.08,49.25Z"/><path class="cls-2" d="M6,35.22c.52-.76,10.64,8.07,15.57,12.12l.24.2c.46.37.81.93,1.48,1l-.39.33c-.6.36-.41-.58-.41-.58h0C22.19,49.19,5.24,36.25,6,35.22Z"/><line class="cls-1" x1="68.57" y1="27.09" x2="67.1" y2="12.28"/></g></g></svg>