<svg xmlns="http://www.w3.org/2000/svg" viewBox="0 0 74.11 51.23"><defs><style>.cls-1{fill:none;stroke:#1d1d1b;stroke-miterlimit:10;stroke-width:0.75px;}</style></defs><g id="Lag_2" data-name="Lag 2"><g id="Lag_1-2" data-name="Lag 1"><path class="cls-1" d="M71,2.15c.45-.32.13-.48.13-.48a3.53,3.53,0,0,0-.64-.6c-.25-.14-.26-.65-.69-.69s-1,.66-1.4.35S67.83.36,67,.73c-.51.22-.09,1.66.31,2.73a8.64,8.64,0,0,0-10.2,5.05C54.54,14.74,47.58,21.72,39,26.72s-18.14,7.56-24.83,6.7a8.62,8.62,0,0,0-9.46,6.37c-.7-.89-2-2.43-2.56-2-.72.54-.78.74-.68,1.2s-.83.65-1,1,.26.65.25.94a3.47,3.47,0,0,0,.21.85s0,.36.47.13-.06.78.63.67a12.59,12.59,0,0,0,2.41-1,8.65,8.65,0,0,0,7.51,9c10.59,1.37,23.6-1.87,35.71-8.88S69,25,73.08,15.11a8.63,8.63,0,0,0-3.6-10.74A10.65,10.65,0,0,0,71.26,3C71.69,2.48,70.53,2.46,71,2.15ZM61.69,12.91c-2.86,6.61-10.34,14-19.53,19.35s-19.34,8.13-26.49,7.32a1.52,1.52,0,1,1,.34-3c6.54.74,16-1.92,24.62-6.93S56.28,17.74,58.89,11.71a1.53,1.53,0,0,1,2-.8A1.51,1.51,0,0,1,61.69,12.91Z"/></g></g></svg>