<svg xmlns="http://www.w3.org/2000/svg" width="38.125" height="26.146" viewBox="0 0 38.125 26.146">
  <path id="Path_856" data-name="Path 856" d="M1028.786,818.35a5.057,5.057,0,0,1-3.348-1.319l-8.912-7.925-.041.1a.686.686,0,0,1-.637.431h-4.626a.691.691,0,0,1-.69-.69V792.9a.69.69,0,0,1,.69-.689h4.626a.69.69,0,0,1,.69.689v1.255h9.311c.207-.17.356-.31.5-.44a8.035,8.035,0,0,1,5.233-1.514,11.694,11.694,0,0,1,4.752.948,14.945,14.945,0,0,0,5.807,1.044c.16,0,.511-.007.511-.007V792.9a.69.69,0,0,1,.69-.689h4.625a.69.69,0,0,1,.69.689v16.045a.691.691,0,0,1-.69.69h-4.625a.684.684,0,0,1-.686-.673l-.005-.208-.207.259a7.073,7.073,0,0,1-.965,1.051l-.055.045s.091.123.105.147a2.922,2.922,0,0,1-.383,3.645,2.173,2.173,0,0,1-1.491.65l-.068,0,0,.068a2.5,2.5,0,0,1-.621,1.529,2.5,2.5,0,0,1-3.375.36l-.083-.06-.033.1a2.232,2.232,0,0,1-1.559,1.444,2.809,2.809,0,0,1-.73.1,3.139,3.139,0,0,1-1.9-.68l-.056-.044-.047.053a2.914,2.914,0,0,1-2.028.916C1029.028,818.345,1028.907,818.35,1028.786,818.35Zm-12.248-11.113,9.815,8.763a3.687,3.687,0,0,0,2.432.969c.084,0,.167,0,.251-.01a1.626,1.626,0,0,0,1.081-.421l.057-.057-3.809-3.268a.69.69,0,1,1,.9-1.047l4.771,4.094a1.8,1.8,0,0,0,1.151.449,1.4,1.4,0,0,0,.367-.048c.222-.058.743-.2.683-1.222l-4.858-4.084a.69.69,0,0,1,.883-1.059l6.066,5.06a1.154,1.154,0,0,0,1.514-1.743l-5.949-5.379a.69.69,0,0,1,.925-1.023l5.949,5.379a2.48,2.48,0,0,1,.416.5.82.82,0,0,0,.369.083.8.8,0,0,0,.593-.225,1.53,1.53,0,0,0,.217-1.96c-.444-.686-6.98-7.818-10.374-11.493l-.048-.054-3.159,2.663a3.1,3.1,0,0,1-4.267-4.476c.551-.592,1.206-1.289,1.865-1.968l.124-.129h-7.963ZM1030,797.8a.694.694,0,0,1,.508.223c1.222,1.321,7.448,8.063,9.98,10.969l.049.056.057-.048a6.182,6.182,0,0,0,.773-.851,4.86,4.86,0,0,1,1.249-1.224l.038-.022V795.572s-.363.006-.525.006a16.274,16.274,0,0,1-6.367-1.17,10.2,10.2,0,0,0-4.146-.817,7.009,7.009,0,0,0-4.331,1.141l-.314.3a.816.816,0,0,1-.469.464c-1.027,1-2.182,2.227-2.976,3.082a1.718,1.718,0,0,0,2.367,2.481l3.662-3.087A.683.683,0,0,1,1030,797.8Zm14.034,10.453h3.245V793.591h-3.245Zm-32.118,0h3.247V793.591h-3.247Z" transform="translate(-1010.531 -792.204)" fill="#baecf2"/>
</svg>
