<svg xmlns="http://www.w3.org/2000/svg" width="50.376" height="34.549" viewBox="0 0 50.376 34.549">
  <path id="Path_840" data-name="Path 840" d="M1034.653,826.753a6.683,6.683,0,0,1-4.424-1.743l-11.776-10.472-.054.132a.907.907,0,0,1-.842.569h-6.113a.913.913,0,0,1-.912-.912v-21.2a.912.912,0,0,1,.912-.911h6.113a.912.912,0,0,1,.912.911v1.659h12.3c.273-.224.47-.409.657-.581,1.36-1.253,3.945-2,6.915-2a15.45,15.45,0,0,1,6.279,1.253,19.749,19.749,0,0,0,7.674,1.38c.211,0,.675-.009.675-.009v-1.7a.912.912,0,0,1,.912-.911H1060a.912.912,0,0,1,.912.911v21.2a.913.913,0,0,1-.912.912h-6.111a.9.9,0,0,1-.907-.889l-.007-.275-.274.342a9.343,9.343,0,0,1-1.275,1.389l-.072.06s.12.163.139.194a3.86,3.86,0,0,1-.506,4.816,2.872,2.872,0,0,1-1.97.859l-.09,0-.005.09a3.3,3.3,0,0,1-.821,2.021,3.305,3.305,0,0,1-4.46.476l-.11-.079-.044.128a2.949,2.949,0,0,1-2.06,1.908,3.715,3.715,0,0,1-.965.127,4.148,4.148,0,0,1-2.511-.9l-.074-.058-.062.07a3.851,3.851,0,0,1-2.68,1.21C1034.972,826.746,1034.813,826.753,1034.653,826.753Zm-16.184-14.684,12.97,11.579a4.872,4.872,0,0,0,3.213,1.281c.111,0,.221,0,.331-.013a2.149,2.149,0,0,0,1.429-.556l.075-.076-5.033-4.318a.912.912,0,1,1,1.187-1.384l6.3,5.409a2.373,2.373,0,0,0,1.521.594,1.846,1.846,0,0,0,.485-.063c.293-.077.982-.26.9-1.615l-6.419-5.4a.911.911,0,0,1,1.167-1.4l8.016,6.686a1.525,1.525,0,0,0,2-2.3l-7.861-7.107a.911.911,0,0,1,1.222-1.352l7.861,7.108a3.28,3.28,0,0,1,.55.666,1.084,1.084,0,0,0,.487.11,1.061,1.061,0,0,0,.783-.3,2.022,2.022,0,0,0,.287-2.59c-.587-.907-9.223-10.331-13.708-15.187l-.064-.071L1032,805.293a4.093,4.093,0,0,1-5.638-5.915c.728-.782,1.594-1.7,2.464-2.6l.164-.17h-10.522Zm17.783-12.465a.918.918,0,0,1,.671.294c1.615,1.746,9.842,10.654,13.188,14.494l.065.074.075-.063a8.167,8.167,0,0,0,1.022-1.124,6.423,6.423,0,0,1,1.65-1.618l.05-.029V796.654s-.479.008-.693.008a21.507,21.507,0,0,1-8.413-1.546,13.481,13.481,0,0,0-5.479-1.079c-2.483,0-4.729.592-5.723,1.508l-.415.39a1.078,1.078,0,0,1-.619.613c-1.357,1.325-2.884,2.943-3.933,4.072a2.27,2.27,0,0,0,3.128,3.279l4.839-4.079A.9.9,0,0,1,1036.252,799.6Zm18.544,13.812h4.288V794.037H1054.8Zm-42.44,0h4.29V794.037h-4.29Z" transform="translate(-1010.532 -792.204)" fill="#1dbfd3"/>
</svg>
