<svg xmlns="http://www.w3.org/2000/svg" viewBox="0 0 44.38 70.55"><defs><style>.cls-1{fill:none;stroke:#2CA3DB;stroke-width:1px;}</style></defs><g id="Lag_2" data-name="Lag 2"><g id="Lag_1-2" data-name="Lag 1"><path class="cls-1" d="M19.24,61.42c0-1.22,1.82-.93,2.18-2.29a19.09,19.09,0,0,0,.7-8.65c-.3-3.49-2.69-6.42-1.21-12.21,1.08-4.19,2.67-7,2.43-8.91a1.2,1.2,0,0,0-.6-.81A7.3,7.3,0,0,1,20,23a6.11,6.11,0,0,1,.4-2.18,20.6,20.6,0,0,1-2.77-4.47.36.36,0,0,0,0-.1.9.9,0,0,1,.07-.59l0-.07a11,11,0,0,0,1.47-2.65,35.83,35.83,0,0,0-.55-6.29,17.33,17.33,0,0,0,1.58,3.78,1.4,1.4,0,0,0,1.13.66c.41,0,.77-.24.88-.82.42-2.16,2.3-4.17,1.63-6.26-.52-1.64-1.32-1.77-2.44-2q-.51-.11-1-.24C19.28,1.4,17.12.27,15.81.26c-.89,0-2.43.28-3,.29S10.63.2,9.85.26C8.39.37,6.32,1.4,5.22,1.75L4.19,2A2.48,2.48,0,0,0,1.75,4C1.09,6.06,3,8.07,3.38,10.23c.11.58.47.84.88.82a1.39,1.39,0,0,0,1.13-.66A16.4,16.4,0,0,0,7,6.61a34.51,34.51,0,0,0-.54,6.29,10.7,10.7,0,0,0,1.46,2.65l0,.07a.9.9,0,0,1,.07.59s0,.07,0,.1c-.34,1.31-2.58,4.18-3.33,5.22C2,25.23,1.35,26.9,1.89,30.84c0,.26.06.51.08.75.22,2.32-.1,3.71.14,5.55.15,1.1.47,2.75.8,4.4s.63,3.3.75,4.41C4,49.33,4.49,59,3.42,59.53c-.2.1-.68.16-1.2.35a2.9,2.9,0,0,0-2,2.9h20.1C19.45,62.76,19.24,62.06,19.24,61.42Z"/><path class="cls-1" d="M44,62.28a3.26,3.26,0,0,0-2.26-2.22,12.47,12.47,0,0,0,1-2.08c2.89-7.52-3-15.1-6.14-21.51A15.44,15.44,0,0,1,34.73,29a1.2,1.2,0,0,1,.57-.77A6.55,6.55,0,0,0,38.1,23a5.68,5.68,0,0,0-.75-2.84V14.41c0-.18-.12-.25-.27-.15l-3.66,2.4a9.63,9.63,0,0,0-7.16,0l-3.75-2.38c-.15-.1-.28,0-.28.15v5.7A6.08,6.08,0,0,0,21.52,23a6.54,6.54,0,0,0,2.75,5.2,1.19,1.19,0,0,1,.6.81c.24,1.92-1.35,5.11-2.42,9.3-1.48,5.79.91,8.72,1.2,12.21A19.85,19.85,0,0,1,23,59.32c-.37,1.37-2.18,1.07-2.18,2.29,0,.65.2,1.15,1.12,1.17h17c.18,0,.66.22-.37.46a35.11,35.11,0,0,1-6.24.69c-.69,0-5.71,0-8.62,2A2.85,2.85,0,0,0,22.49,68c-.06,1.46.29,2.17,1.47,2.29s1.89-1.15,2.76-1.85c1.83-1.47,5.67-.85,9.17-1.28,2.13-.26,5.42-.7,6.91-1.71A2.94,2.94,0,0,0,44,62.28Z"/></g></g></svg>