<svg xmlns="http://www.w3.org/2000/svg" viewBox="0 0 88.91 64.86"><defs><style>.cls-1,.cls-2{fill:none;stroke:#1d1d1b;stroke-miterlimit:10;stroke-width:0.6px;}.cls-1{opacity:0;}</style></defs><g id="Lag_2" data-name="Lag 2"><g id="Lag_1-2" data-name="Lag 1"><path class="cls-1" d="M65.49,26.35a3.45,3.45,0,0,1,.45,3.31,1.24,1.24,0,0,0-.09.33l-.09,2.27c0,.75-.11,1.5-.09,2.24a.68.68,0,0,1-.45.74c-.38.2-.75.43-1.14.64a.34.34,0,0,0-.21.3c-.09,1-.19,2.07-.29,3.11-.12,1.26-.27,2.52-.39,3.78-.1,1-.19,2.07-.3,3.11s-.21,2.08-.32,3.13c-.08.79-.15,1.58-.22,2.37-.11,1.06-.23,2.13-.33,3.19-.06.66-.11,1.32-.17,2,0,.25-.05.5-.06.75a.72.72,0,0,1-.5.67,49.79,49.79,0,0,1-8.8,2.89c-2.36.57-4.75,1-7.15,1.35-1.8.25-3.6.46-5.41.61-2.11.18-4.23.29-6.35.35s-4.38.05-6.56,0c-1.74-.07-3.47-.18-5.19-.36A58,58,0,0,1,10.67,61a28.61,28.61,0,0,1-3.34-1.26A.52.52,0,0,1,7,59.21a58.65,58.65,0,0,0-1.21-7.09c-.42-2.37-.9-4.72-1.36-7.08S3.47,40.25,3,37.85a.41.41,0,0,0-.25-.34A3.22,3.22,0,0,1,2,37.06c-.1-.07-.09-.18-.11-.27-.32-1.56-.64-3.12-1-4.67-.12-.54-.41-1-.58-1.55l0-1.14a4.85,4.85,0,0,1,2-2.91A17.13,17.13,0,0,1,6.87,24a49.08,49.08,0,0,1,8.3-2.45q4-.84,8-1.3c1.45-.17,2.9-.3,4.36-.41s2.74-.17,4.1-.26c.37,0,.74,0,1.11,0,.7,0,1.4,0,2.1,0h1.29a2.74,2.74,0,0,0,.64,0l2.62,0a2.31,2.31,0,0,0,.59,0h1.33a1.34,1.34,0,0,1,.35,0c1.26.08,2.52.14,3.77.25,1.91.17,3.8.4,5.69.7a51.49,51.49,0,0,1,6.84,1.5,21.41,21.41,0,0,1,5.52,2.37A6.87,6.87,0,0,1,65.49,26.35Z"/><path class="cls-1" d="M64.48,30.17A2.72,2.72,0,0,0,65.31,28c0-.38.09-.85-.32-1.14a3.64,3.64,0,0,1-.46-.5,4.74,4.74,0,0,0-.77-.71l-.47-.35A18.84,18.84,0,0,0,58.13,23a48.92,48.92,0,0,0-7.27-1.62c-1.71-.27-3.43-.48-5.15-.63-1.45-.13-2.91-.24-4.36-.3-2.38-.09-4.76-.15-7.14-.08H33.9c-1.7.06-3.4.12-5.1.23-1.4.1-2.81.21-4.21.36-2,.21-4.05.48-6.06.84-.82.15-1.64.27-2.44.48a5.07,5.07,0,0,0-.81.86.21.21,0,0,1-.33.08,3.89,3.89,0,0,0-1.09-.46l-.65.15c-.93.25-1.87.47-2.78.81h-.11A28.42,28.42,0,0,0,4.83,26,8.58,8.58,0,0,0,2,28.32a2.37,2.37,0,0,0-.48,2.46,4.55,4.55,0,0,0,1.64,1.89A18.57,18.57,0,0,0,8.78,35.2a60.32,60.32,0,0,0,11.48,2.12q2.5.27,5,.36c2.17.09,4.34.13,6.51.1,1.83,0,3.65-.1,5.48-.2,1.46-.08,2.92-.2,4.38-.35,1.9-.19,3.78-.43,5.66-.74a65.42,65.42,0,0,0,8.87-2,30,30,0,0,0,4.2-1.59,11.57,11.57,0,0,0,1.37-.67A10.25,10.25,0,0,0,64.48,30.17Z"/><path class="cls-1" d="M64.82,34.15c0-.68.1-1.35.08-2-.14,0-.2.08-.29.15a3.68,3.68,0,0,1-1.94.91,2.7,2.7,0,0,0-.75.08c-.56.25-1.11.52-1.68.77a48.19,48.19,0,0,1-8.14,2.51,90.72,90.72,0,0,1-9.68,1.56c-1.89.21-3.79.35-5.69.46q-3.1.18-6.22.18c-3,0-5.91-.11-8.85-.35-1.41-.12-2.81-.26-4.21-.45a56.88,56.88,0,0,1-6-1.05C8.22,36.12,5,35.21,2.25,33.17c0,.09,0,.17,0,.25.18.86.38,1.72.54,2.58a.59.59,0,0,0,.39.49,31,31,0,0,0,4.6,1.72,66.47,66.47,0,0,0,11.52,2.17c1.82.2,3.64.35,5.47.42s3.58.15,5.37.14c2.5,0,5-.07,7.49-.22,1.62-.1,3.23-.23,4.84-.4,2.05-.22,4.1-.5,6.13-.85A64.33,64.33,0,0,0,59.89,36.6a28.89,28.89,0,0,0,4.69-2.17C64.69,34.36,64.82,34.32,64.82,34.15Z"/><path class="cls-1" d="M62.67,38.65c.07-.71.13-1.42.2-2.15l-.29.11c-.77.36-1.56.67-2.36,1A61.69,61.69,0,0,1,51.49,40c-2.92.61-5.86,1-8.82,1.37-1.8.19-3.6.33-5.41.44-2.13.13-4.25.21-6.38.21-2.54,0-5.08,0-7.62-.22-1.41-.1-2.81-.22-4.21-.36q-3.18-.33-6.32-.92a48.45,48.45,0,0,1-6.92-1.78c-.59-.19-1.16-.42-1.77-.64,0,.08,0,.13,0,.17.57,2.92,1.13,5.85,1.7,8.77Q6.87,52.87,8,58.71a.43.43,0,0,0,.29.37c.88.36,1.78.69,2.69,1A54.47,54.47,0,0,0,20.68,62c2.28.26,4.56.44,6.85.51,2,.06,4,.09,6,0s3.8-.15,5.7-.3A17.88,17.88,0,0,0,41,62.05c.85,0,1.7-.16,2.55-.27a17.22,17.22,0,0,0,1.89-.28,7.87,7.87,0,0,0,1.07-.15,66.85,66.85,0,0,0,9.59-2.17,39.34,39.34,0,0,0,4.47-1.67c.12-.06.24-.09.25-.27.06-.71.14-1.43.21-2.15.09-1,.19-2.05.29-3.08.13-1.29.27-2.58.39-3.87.11-1,.2-2.07.3-3.11.13-1.31.27-2.63.4-4C62.5,40.27,62.59,39.46,62.67,38.65Z"/><path class="cls-1" d="M84.51,59.68a3.62,3.62,0,0,0,2.84-2.78,3.9,3.9,0,0,0-1.45-4.08Q74.4,43,62.91,33.09C58,28.85,53,24.64,48.12,20.4c-.59-.51-.83-.65-1.07.31a3.45,3.45,0,0,1-2.64,2.94A1.73,1.73,0,0,0,43,24.83a2.88,2.88,0,0,1-2.92,1.89,22.07,22.07,0,0,0,4.42,2.63,22.37,22.37,0,0,0,7.34,1.78,5.12,5.12,0,0,1,3.24,1.59C59.71,37.37,64.37,42,69,46.64c3.94,4,7.85,7.94,11.78,11.9A3.78,3.78,0,0,0,84.51,59.68ZM24.11,1c.22-.08.51-.17.91-.28s.48-.53.88-.45a3.36,3.36,0,0,1,.71.3.79.79,0,0,0,.63.11c1.14-.39,1.18-.34,1,.83a6.38,6.38,0,0,1,3.72.25,4.42,4.42,0,0,1,2.16,1.75,2.08,2.08,0,0,0,1.81,1.11,9.47,9.47,0,0,1,6.47,3,2.77,2.77,0,0,1,1,2,2.57,2.57,0,0,0,.82,1.8c1.57,1.68,2.94,3.47,3.23,5.85,0,.19.06.52.23.49,1.24-.22.87.5.76,1.15-.06.36.33.52.58.73q8.51,7.37,17,14.71,10.65,9.21,21.3,18.4A3.86,3.86,0,0,1,86.82,59a11.61,11.61,0,0,1-2.52,1.64,6.28,6.28,0,0,1-1.54.21A6.57,6.57,0,0,1,80.57,60c-.09,0-.13,0-.12-.1A11.81,11.81,0,0,0,78.51,58c-.63,0-.8-.38-.88-.89q-3.51-3.63-7-7.25-6.45-6.57-12.91-13.13c-1.23-1.25-2.5-2.46-3.77-3.67a4.18,4.18,0,0,0-2.31-1.11,31.78,31.78,0,0,1-7.21-1.56,33.28,33.28,0,0,1-4.76-2.62c-2.78-1.64-4.65-4.24-6.87-6.47-.32-.32-.49-.72-1.13-.7a1,1,0,0,1-.88-1A2.62,2.62,0,0,0,30,17.83,42.77,42.77,0,0,1,24,7.06c-.36-1-.57-2.06-.85-3.1a7.83,7.83,0,0,1,.1-1.74,3.35,3.35,0,0,1,.35-.94s0,0,.06-.07A.5.5,0,0,1,24.12,1Zm1.44.18c-.1,0-1,.08-1.54.1-1.11,3.4,1.8,7.58,3.56,10.81a40.75,40.75,0,0,0,3.8,5.68c.81-1.68.8-1.74-.61-3.07-2.19-2.08-2.23-2.2-1-5a1,1,0,0,0-.35-1.4c-1-.78-2-1.65-3-2.47s-1.22-1.49-.62-2.78A4.34,4.34,0,0,1,26,2.56C26.47,1.9,26.25,1.49,25.55,1.22ZM43.8,22.68a2.21,2.21,0,0,0,1.9-1.59,6.06,6.06,0,0,0,.7-3.55,11.53,11.53,0,0,0-3-5.16,2.79,2.79,0,0,1-1-2,2,2,0,0,0-.54-1.43,10.2,10.2,0,0,0-4.25-3,26.08,26.08,0,0,0-3.06-.53,1.6,1.6,0,0,1-1.21-.86,5.19,5.19,0,0,0-5.59-2.2c-.86.25-1.55,1.9-1,2.42a28.61,28.61,0,0,0,2.28,2c2.28,1.74,2.28,1.73,1.21,4.46-.23.6-.5,1.26.12,1.8s1.13,1.07,1.69,1.61c1.11,1.08,1.12,1.24.71,2.67a3,3,0,0,0,.52,3,62.86,62.86,0,0,0,4.4,4.54,2.78,2.78,0,0,0,4.42-.75A2.44,2.44,0,0,1,43.8,22.68Z"/><path class="cls-2" d="M65.32,33.69a12.27,12.27,0,0,0,.05-1.36c-.14,0-.21.08-.29.15a4.11,4.11,0,0,1-.65.47Z"/><path class="cls-2" d="M56.85,36.44c-1.35.4-2.71.75-4.09,1.06a90.42,90.42,0,0,1-9.82,1.58c-1.92.21-3.85.36-5.77.47-2.1.12-4.21.18-6.31.18-3,0-6-.11-9-.36-1.43-.12-2.85-.26-4.27-.45a58.62,58.62,0,0,1-6.06-1.07C8.23,37.06,5,36.14,2.17,34.07a.42.42,0,0,0,0,.25c.18.87.38,1.74.54,2.62a.63.63,0,0,0,.4.5,31.09,31.09,0,0,0,4.66,1.74,67.59,67.59,0,0,0,11.7,2.2c1.84.21,3.69.36,5.55.43s3.63.15,5.45.14c2.54,0,5.07-.07,7.6-.23,1.64-.09,3.28-.23,4.91-.4,2.08-.22,4.16-.5,6.22-.86a68.67,68.67,0,0,0,9.5-2.25C58.1,37.61,57.48,37,56.85,36.44Z"/><path class="cls-2" d="M59.77,40.09A65.36,65.36,0,0,1,52.3,42c-3,.61-6,1-9.08,1.37-1.85.19-3.71.33-5.57.44-2.19.13-4.38.21-6.57.21-2.62,0-5.23,0-7.84-.22-1.45-.1-2.9-.22-4.34-.36-2.19-.22-4.35-.53-6.51-.92a51.47,51.47,0,0,1-7.12-1.78c-.61-.19-1.2-.42-1.83-.64,0,.08,0,.13,0,.17L5.21,49C6,52.92,6.76,56.82,7.52,60.71a.44.44,0,0,0,.3.37c.91.36,1.83.69,2.77,1a57.63,57.63,0,0,0,10,1.94c2.34.26,4.7.44,7.06.51,2.05.06,4.11.09,6.17,0s3.92-.15,5.87-.3c.61,0,1.22-.07,1.83-.18.88,0,1.75-.16,2.63-.27a18.68,18.68,0,0,0,2-.28,8.3,8.3,0,0,0,1.1-.15,70.62,70.62,0,0,0,9.87-2.17,40.66,40.66,0,0,0,4.6-1.67c.13-.06.25-.09.26-.27.06-.71.14-1.43.21-2.15.1-1,.2-2.05.31-3.08.13-1.29.27-2.58.4-3.87.11-1,.2-2.07.31-3.11s.23-2.25.35-3.37Z"/><path class="cls-2" d="M53.64,33.39c-.64.16-1.29.31-1.93.45a85.17,85.17,0,0,1-9.14,1.44q-3.87.4-7.77.55c-2.22.09-4.44.12-6.08.11-2.91,0-5.25-.16-7.58-.35A60.18,60.18,0,0,1,9,33.53,16.55,16.55,0,0,1,4.8,31.74a5.38,5.38,0,0,1-1-.88,1.46,1.46,0,0,1-.15-2,5.63,5.63,0,0,1,1.72-1.53,23.23,23.23,0,0,1,5.93-2.41A65.33,65.33,0,0,1,20.59,23c2.94-.4,5.9-.66,8.87-.84,1-.06,1.92-.1,2.88-.13l0,0c-.34-.33-2-1-2.1-1.49l-1.42.08c-1.4.1-2.81.21-4.21.36-2,.21-4.05.48-6.06.84-.82.15-1.64.27-2.44.48a4.6,4.6,0,0,1-2.23.48l-.65.15c-.93.25-1.87.47-2.78.81h-.11A28.42,28.42,0,0,0,4.83,26,8.58,8.58,0,0,0,2,28.32a2.37,2.37,0,0,0-.48,2.46,4.55,4.55,0,0,0,1.64,1.89A18.57,18.57,0,0,0,8.78,35.2a60.32,60.32,0,0,0,11.48,2.12q2.5.27,5,.36c2.17.09,4.34.13,6.51.1,1.83,0,3.65-.1,5.48-.2,1.46-.08,2.92-.2,4.38-.35,1.9-.19,3.78-.43,5.66-.74a68,68,0,0,0,8-1.75L54.53,34A4.27,4.27,0,0,0,53.64,33.39Z"/><path class="cls-2" d="M30.65,14.84c1.4,1.33,1.42,1.39.61,3.07a42.25,42.25,0,0,1-3.81-5.67C25.69,9,22.78,4.82,23.9,1.42c.53,0,1.44-.14,1.54-.09.7.27.92.67.48,1.33a3.26,3.26,0,0,0-.26.53A1.9,1.9,0,0,0,26.27,6c1,.81,2,1.68,3,2.46a1,1,0,0,1,.36,1.4C28.42,12.64,28.45,12.76,30.65,14.84Z"/><path class="cls-2" d="M87.35,56.9a3.62,3.62,0,0,1-2.84,2.78,3.78,3.78,0,0,1-3.74-1.14c-3.93-4-7.84-7.95-11.78-11.9-4.62-4.65-9.28-9.27-13.9-13.92a5.12,5.12,0,0,0-3.24-1.59,22.37,22.37,0,0,1-7.34-1.78,22.07,22.07,0,0,1-4.42-2.63A2.88,2.88,0,0,0,43,24.83a1.73,1.73,0,0,1,1.4-1.18,3.45,3.45,0,0,0,2.64-2.94c.24-1,.48-.82,1.07-.31C53,24.64,58,28.85,62.91,33.09q11.49,9.85,23,19.73A3.9,3.9,0,0,1,87.35,56.9Z"/><path class="cls-2" d="M45.7,21.09a2.21,2.21,0,0,1-1.9,1.59,2.44,2.44,0,0,0-1.67,1.38,2.78,2.78,0,0,1-4.42.75,62.86,62.86,0,0,1-4.4-4.54,3,3,0,0,1-.52-3c.41-1.43.4-1.59-.71-2.67-.56-.54-1.1-1.1-1.69-1.61s-.35-1.2-.12-1.8c1.07-2.73,1.07-2.72-1.21-4.46a28.61,28.61,0,0,1-2.28-2c-.55-.52.14-2.17,1-2.42a5.19,5.19,0,0,1,5.59,2.2,1.6,1.6,0,0,0,1.21.86,26.08,26.08,0,0,1,3.06.53,10.2,10.2,0,0,1,4.25,3,2,2,0,0,1,.54,1.43,2.79,2.79,0,0,0,1,2,11.53,11.53,0,0,1,3,5.16A6.06,6.06,0,0,1,45.7,21.09Z"/><path class="cls-2" d="M65.31,27.14c0-.39.09-.85-.32-1.14a3.64,3.64,0,0,1-.46-.5,4.33,4.33,0,0,0-.77-.71c-.16-.12-.31-.25-.47-.35a18.84,18.84,0,0,0-5.16-2.31,50.24,50.24,0,0,0-7.27-1.63l-.48-.07,2.21,1.86.15,0a29.24,29.24,0,0,1,7.74,2.34,5.77,5.77,0,0,1,2,1.44,1.58,1.58,0,0,1,0,2.25,5.5,5.5,0,0,1-1.29,1.12l1.55,1.3a8.2,8.2,0,0,0,1.79-1.49A2.72,2.72,0,0,0,65.31,27.14Z"/></g></g></svg>