<svg xmlns="http://www.w3.org/2000/svg" width="31.846" height="23.239" viewBox="0 0 31.846 23.239">
  <g id="Group_1121" data-name="Group 1121" transform="translate(-805.143 -789.962)">
    <path id="Path_833" data-name="Path 833" d="M829,789.987a.51.51,0,0,0-.34.009l-23.19,8.784h0a.466.466,0,0,0-.073.034s0,.005-.01.005-.044.029-.063.044l-.009.009a.576.576,0,0,0-.054.054,0,0,0,0,1,0,0c-.015.02-.03.044-.044.063,0,0,0,.005,0,.005a.444.444,0,0,0-.034.073s0,0,0,.01a.352.352,0,0,0-.019.073v.015a.373.373,0,0,0-.005.078h0v5.783a.511.511,0,0,0,.512.507,1.3,1.3,0,1,1,0,2.6.511.511,0,0,0-.512.507v4.053a.511.511,0,0,0,.512.507h22.585a.511.511,0,0,0,.512-.507,2.1,2.1,0,0,1,4.209,0,.51.51,0,0,0,.511.507h3.006a.511.511,0,0,0,.511-.507V799.253C836.994,794.669,834.456,791.726,829,789.987Zm-6.777,4.1c0,.151-.692.614-1.953.614a4.579,4.579,0,0,1-.926-.093l2.358-.891C822.048,793.855,822.227,794.011,822.227,794.089Zm-4.277,1.052a4.239,4.239,0,0,0,2.324.575c1.724,0,2.976-.687,2.976-1.627a1.159,1.159,0,0,0-.365-.818L828.862,791c4.707,1.54,6.918,3.946,7.093,7.741H825.633a3.47,3.47,0,0,0-2.821-1.311,3.412,3.412,0,0,0-2.826,1.311h-11.56Zm2.923,4.112a2.465,2.465,0,0,1,1.939-.8,1.134,1.134,0,1,1,0,1.608A2.463,2.463,0,0,1,820.873,799.253Zm15.1,12.944h-2.027a3.13,3.13,0,0,0-6.172,0H806.165v-3.1a2.311,2.311,0,0,0,0-4.511v-4.828h13.821a3.412,3.412,0,0,0,2.826,1.311,3.46,3.46,0,0,0,2.821-1.311h10.338V812.2Z" transform="translate(0 0)" fill="#bfe3f4"/>
    <path id="Path_834" data-name="Path 834" d="M839.1,807.921a2.294,2.294,0,1,0-2.3-2.285A2.3,2.3,0,0,0,839.1,807.921Zm0-3.576a1.281,1.281,0,1,1,0,2.563,1.281,1.281,0,0,1,0-2.562Z" transform="translate(-6.946 -2.934)" fill="#bfe3f4"/>
    <path id="Path_835" data-name="Path 835" d="M823.149,807.3a3.2,3.2,0,1,0,3.22,3.2A3.212,3.212,0,0,0,823.149,807.3Zm0,5.368a2.178,2.178,0,1,1,2.2-2.178A2.191,2.191,0,0,1,823.149,812.67Z" transform="translate(-3.245 -3.805)" fill="#bfe3f4"/>
    <path id="Path_836" data-name="Path 836" d="M812.765,803.4a2.592,2.592,0,0,0-2.567,2.548,2.568,2.568,0,1,0,2.567-2.548Zm0,4.078a1.538,1.538,0,0,1-1.544-1.53,1.558,1.558,0,0,1,1.544-1.53,1.539,1.539,0,0,1,1.545,1.53A1.521,1.521,0,0,1,812.765,807.479Z" transform="translate(-1.11 -2.949)" fill="#bfe3f4"/>
    <path id="Path_837" data-name="Path 837" d="M833.859,813.451a1.807,1.807,0,1,0,0-3.615,1.838,1.838,0,0,0-1.822,1.807A1.816,1.816,0,0,0,833.859,813.451Zm0-2.6a.794.794,0,1,1-.8.794A.8.8,0,0,1,833.859,810.849Z" transform="translate(-5.903 -4.361)" fill="#bfe3f4"/>
    <path id="Path_838" data-name="Path 838" d="M813.456,813.094a1.807,1.807,0,1,0,0,3.615,1.838,1.838,0,0,0,1.822-1.808A1.81,1.81,0,0,0,813.456,813.094Zm0,2.6a.794.794,0,1,1,.8-.795A.8.8,0,0,1,813.456,815.7Z" transform="translate(-1.425 -5.077)" fill="#bfe3f4"/>
    <path id="Path_839" data-name="Path 839" d="M835.035,797.762c1.793,0,3.61-.648,3.61-1.88s-1.817-1.88-3.61-1.88-3.61.648-3.61,1.88S833.243,797.762,835.035,797.762Zm0-2.747c1.6,0,2.588.56,2.588.867s-.984.867-2.588.867-2.587-.56-2.587-.867S833.432,795.014,835.035,795.014Z" transform="translate(-5.768 -0.886)" fill="#bfe3f4"/>
  </g>
</svg>
