<svg xmlns="http://www.w3.org/2000/svg" width="63.693" height="46.477" viewBox="0 0 63.693 46.477">
  <g id="Group_900" data-name="Group 900" transform="translate(-805.142 -789.962)">
    <path id="Path_833" data-name="Path 833" d="M852.865,790.012a1.02,1.02,0,0,0-.681.019L805.805,807.6H805.8a.946.946,0,0,0-.147.067c-.009,0-.009.011-.02.011-.039.028-.087.058-.126.087l-.019.019a1.15,1.15,0,0,0-.108.108.009.009,0,0,1-.009.009c-.03.039-.059.087-.088.126,0,0,0,.011-.009.011a.871.871,0,0,0-.069.145c0,.009-.009.009-.009.02a.715.715,0,0,0-.039.145v.03a.751.751,0,0,0-.011.156h0V820.1a1.022,1.022,0,0,0,1.024,1.013,2.6,2.6,0,1,1,0,5.192,1.023,1.023,0,0,0-1.024,1.015v8.107a1.022,1.022,0,0,0,1.024,1.013h45.17a1.022,1.022,0,0,0,1.024-1.013,4.209,4.209,0,0,1,8.419,0,1.021,1.021,0,0,0,1.023,1.013h6.012a1.021,1.021,0,0,0,1.023-1.013V808.543C868.846,799.375,863.769,793.49,852.865,790.012Zm-13.553,8.2c0,.3-1.383,1.229-3.906,1.229a9.156,9.156,0,0,1-1.851-.186l4.716-1.783C838.953,797.748,839.312,798.059,839.312,798.215Zm-8.555,2.1a8.477,8.477,0,0,0,4.649,1.15c3.448,0,5.952-1.374,5.952-3.255a2.318,2.318,0,0,0-.731-1.636l11.955-4.532c9.413,3.08,13.836,7.893,14.187,15.483H846.123a6.94,6.94,0,0,0-5.642-2.621,6.825,6.825,0,0,0-5.651,2.621H811.709Zm5.846,8.224a4.93,4.93,0,0,1,3.878-1.608,2.268,2.268,0,1,1,0,3.216A4.925,4.925,0,0,1,836.6,808.543Zm30.2,25.889h-4.054a6.261,6.261,0,0,0-12.345,0H807.189v-6.2a4.622,4.622,0,0,0,0-9.021v-9.657H834.83a6.825,6.825,0,0,0,5.651,2.621,6.92,6.92,0,0,0,5.642-2.621H866.8v24.876Z" transform="translate(0 0)" fill="#2ca3db"/>
    <path id="Path_834" data-name="Path 834" d="M841.4,812.509a4.589,4.589,0,1,0-4.608-4.569A4.609,4.609,0,0,0,841.4,812.509Zm0-7.151a2.563,2.563,0,1,1,0,5.125,2.563,2.563,0,0,1,0-5.125Z" transform="translate(17.758 7.501)" fill="#2ca3db"/>
    <path id="Path_835" data-name="Path 835" d="M826.368,807.3a6.391,6.391,0,1,0,6.441,6.391A6.424,6.424,0,0,0,826.368,807.3Zm0,10.737a4.356,4.356,0,1,1,4.394-4.355A4.382,4.382,0,0,1,826.368,818.039Z" transform="translate(8.297 9.729)" fill="#2ca3db"/>
    <path id="Path_836" data-name="Path 836" d="M815.332,803.4a5.184,5.184,0,0,0-5.134,5.1,5.135,5.135,0,1,0,5.134-5.1Zm0,8.155a3.077,3.077,0,0,1-3.088-3.06,3.116,3.116,0,0,1,3.088-3.06,3.077,3.077,0,0,1,3.089,3.06A3.042,3.042,0,0,1,815.332,811.556Z" transform="translate(2.837 7.54)" fill="#2ca3db"/>
    <path id="Path_837" data-name="Path 837" d="M835.68,817.065a3.615,3.615,0,1,0-3.643-3.615A3.64,3.64,0,0,0,835.68,817.065Zm0-5.2a1.588,1.588,0,1,1-1.6,1.588A1.609,1.609,0,0,1,835.68,811.862Z" transform="translate(15.09 11.151)" fill="#2ca3db"/>
    <path id="Path_838" data-name="Path 838" d="M815.278,813.094a3.615,3.615,0,1,0,0,7.229,3.677,3.677,0,0,0,3.643-3.615A3.619,3.619,0,0,0,815.278,813.094Zm0,5.2a1.588,1.588,0,1,1,1.6-1.589A1.592,1.592,0,0,1,815.278,818.3Z" transform="translate(3.642 12.978)" fill="#2ca3db"/>
    <path id="Path_839" data-name="Path 839" d="M838.645,801.522c3.586,0,7.22-1.3,7.22-3.761S842.231,794,838.645,794s-7.22,1.3-7.22,3.761S835.061,801.522,838.645,801.522Zm0-5.495c3.206,0,5.175,1.121,5.175,1.734s-1.969,1.734-5.175,1.734-5.173-1.121-5.173-1.734S835.44,796.027,838.645,796.027Z" transform="translate(14.747 2.266)" fill="#2ca3db"/>
  </g>
</svg>
