<svg xmlns="http://www.w3.org/2000/svg" width="29.294" height="36.828" viewBox="0 0 29.294 36.828">
  <g id="Group_904" data-name="Group 904" transform="translate(-962.269 -783.007)">
    <path id="Path_851" data-name="Path 851" d="M978.224,808.139a9.187,9.187,0,1,1,6.5-2.691A9.129,9.129,0,0,1,978.224,808.139Zm0-17.163a7.981,7.981,0,1,0,7.981,7.981A7.989,7.989,0,0,0,978.224,790.976Z" transform="translate(-1.307 -1.306)" fill="#ffe7bf"/>
    <path id="Path_852" data-name="Path 852" d="M977.962,804l-3.207-3.208.849-.849,2.359,2.359,5.09-5.086.849.849Z" transform="translate(-2.412 -2.744)" fill="#ffe7bf"/>
    <path id="Path_853" data-name="Path 853" d="M976.917,812.3a3.542,3.542,0,0,1-1.67-.42,3.186,3.186,0,0,1-.312-.188,3.4,3.4,0,0,1-.525-.432l-1.53-1.53a2.326,2.326,0,0,0-1.654-.685h-2.162a3.548,3.548,0,0,1-3.544-3.544v-2.162a2.347,2.347,0,0,0-.684-1.654l-1.53-1.53a3.544,3.544,0,0,1,0-5.009l1.53-1.53a2.36,2.36,0,0,0,.684-1.654V789.8a3.547,3.547,0,0,1,3.544-3.544h2.162a2.326,2.326,0,0,0,1.654-.685l1.53-1.529a3.546,3.546,0,0,1,5.013,0l1.53,1.529a2.311,2.311,0,0,0,1.654.685h2.162a3.547,3.547,0,0,1,3.544,3.544v2.162a2.327,2.327,0,0,0,.685,1.654l1.53,1.53a3.545,3.545,0,0,1,0,5.009l-1.53,1.53a2.327,2.327,0,0,0-.685,1.654V805.5a3.548,3.548,0,0,1-3.544,3.544h-2.162a2.327,2.327,0,0,0-1.654.685l-1.53,1.53a3.361,3.361,0,0,1-.524.432,3.582,3.582,0,0,1-.312.188A3.541,3.541,0,0,1,976.917,812.3Zm-7.857-24.847a2.345,2.345,0,0,0-2.342,2.342v2.162a3.515,3.515,0,0,1-1.037,2.5l-1.53,1.53a2.343,2.343,0,0,0,0,3.311l1.53,1.53a3.519,3.519,0,0,1,1.037,2.507V805.5a2.345,2.345,0,0,0,2.342,2.342h2.162a3.532,3.532,0,0,1,2.507,1.038l1.53,1.529a2.374,2.374,0,0,0,.349.289c.064.043.132.084.2.124a2.344,2.344,0,0,0,2.207,0c.072-.036.14-.081.2-.12a2.2,2.2,0,0,0,.348-.289l1.53-1.529a3.52,3.52,0,0,1,2.507-1.038h2.162a2.345,2.345,0,0,0,2.342-2.342v-2.162a3.527,3.527,0,0,1,1.038-2.507l1.53-1.53a2.345,2.345,0,0,0,0-3.311l-1.53-1.53a3.52,3.52,0,0,1-1.038-2.507V789.8a2.345,2.345,0,0,0-2.342-2.342h-2.162a3.53,3.53,0,0,1-2.507-1.037l-1.53-1.53a2.343,2.343,0,0,0-3.311,0l-1.53,1.53a3.522,3.522,0,0,1-2.507,1.037Z" transform="translate(0 0)" fill="#ffe7bf"/>
    <path id="Path_854" data-name="Path 854" d="M973.35,825.782l-2.764-3.4-4.329.657,3.572-9.247h2.162a3.533,3.533,0,0,1,2.507,1.038l1.53,1.529a2.37,2.37,0,0,0,.349.289l.4.268Zm-2.262-4.689,1.89,2.322,2.347-6.071c-.048-.044-.1-.088-.14-.131l-1.53-1.53A2.325,2.325,0,0,0,972,815h-1.341l-2.531,6.547Z" transform="translate(-0.77 -5.947)" fill="#ffe7bf"/>
    <path id="Path_855" data-name="Path 855" d="M984.978,825.781l-3.424-8.866.4-.268a2.394,2.394,0,0,0,.348-.289l1.53-1.529a3.52,3.52,0,0,1,2.507-1.038H988.5l3.572,9.247-4.329-.657ZM983,817.344l2.346,6.075,1.891-2.322,2.959.448L987.669,815h-1.342a2.327,2.327,0,0,0-1.654.685l-1.529,1.53C983.1,817.256,983.051,817.3,983,817.344Z" transform="translate(-3.725 -5.946)" fill="#ffe7bf"/>
  </g>
</svg>
