<svg xmlns="http://www.w3.org/2000/svg" width="44.067" height="55.4" viewBox="0 0 44.067 55.4">
  <g id="Group_902" data-name="Group 902" transform="translate(-962.269 -783.007)">
    <path id="Path_851" data-name="Path 851" d="M982.856,817.4a13.82,13.82,0,1,1,9.771-4.048A13.732,13.732,0,0,1,982.856,817.4Zm0-25.819a12.006,12.006,0,1,0,12.005,12.006A12.018,12.018,0,0,0,982.856,791.585Z" transform="translate(1.447 1.445)" fill="#8E71B3"/>
    <path id="Path_852" data-name="Path 852" d="M979.58,807.42l-4.825-4.825,1.277-1.277,3.548,3.548,7.656-7.65,1.277,1.277Z" transform="translate(2.669 3.037)" fill="#8E71B3"/>
    <path id="Path_853" data-name="Path 853" d="M984.3,827.077a5.328,5.328,0,0,1-2.512-.632,4.814,4.814,0,0,1-.47-.283,5.122,5.122,0,0,1-.789-.651l-2.3-2.3a3.5,3.5,0,0,0-2.488-1.03H972.49a5.336,5.336,0,0,1-5.331-5.331V813.6a3.53,3.53,0,0,0-1.029-2.488l-2.3-2.3a5.331,5.331,0,0,1,0-7.535l2.3-2.3a3.55,3.55,0,0,0,1.029-2.488v-3.253a5.336,5.336,0,0,1,5.331-5.331h3.253a3.5,3.5,0,0,0,2.488-1.03l2.3-2.3a5.334,5.334,0,0,1,7.541,0l2.3,2.3a3.476,3.476,0,0,0,2.488,1.03h3.253a5.336,5.336,0,0,1,5.331,5.331v3.253a3.5,3.5,0,0,0,1.031,2.488l2.3,2.3a5.333,5.333,0,0,1,0,7.535l-2.3,2.3a3.5,3.5,0,0,0-1.031,2.488v3.253a5.336,5.336,0,0,1-5.331,5.331h-3.253a3.5,3.5,0,0,0-2.488,1.03l-2.3,2.3a5.069,5.069,0,0,1-.789.651,5.385,5.385,0,0,1-.47.283A5.327,5.327,0,0,1,984.3,827.077ZM972.484,789.7a3.528,3.528,0,0,0-3.524,3.523v3.253a5.288,5.288,0,0,1-1.56,3.765l-2.3,2.3a3.525,3.525,0,0,0,0,4.981l2.3,2.3a5.294,5.294,0,0,1,1.56,3.771v3.253a3.528,3.528,0,0,0,3.524,3.523h3.253a5.314,5.314,0,0,1,3.771,1.561l2.3,2.3a3.564,3.564,0,0,0,.524.435c.1.066.2.126.307.187a3.526,3.526,0,0,0,3.32,0c.108-.055.21-.121.307-.181a3.314,3.314,0,0,0,.523-.434l2.3-2.3a5.3,5.3,0,0,1,3.771-1.561h3.253a3.528,3.528,0,0,0,3.523-3.523V813.6a5.306,5.306,0,0,1,1.561-3.771l2.3-2.3a3.527,3.527,0,0,0,0-4.981l-2.3-2.3a5.3,5.3,0,0,1-1.561-3.771v-3.253a3.528,3.528,0,0,0-3.523-3.523h-3.253a5.31,5.31,0,0,1-3.771-1.56l-2.3-2.3a3.525,3.525,0,0,0-4.981,0l-2.3,2.3a5.3,5.3,0,0,1-3.771,1.56Z" transform="translate(0 0)" fill="#8E71B3"/>
    <path id="Path_854" data-name="Path 854" d="M976.927,831.826l-4.157-5.107-6.512.988,5.373-13.909h3.253a5.314,5.314,0,0,1,3.771,1.561l2.3,2.3a3.567,3.567,0,0,0,.524.434l.6.4Zm-3.4-7.053,2.843,3.493,3.531-9.132c-.073-.065-.146-.132-.211-.2l-2.3-2.3a3.5,3.5,0,0,0-2.488-1.03h-2.017l-3.807,9.848Z" transform="translate(0.853 6.581)" fill="#8E71B3"/>
    <path id="Path_855" data-name="Path 855" d="M986.7,831.827l-5.151-13.337.6-.4a3.608,3.608,0,0,0,.523-.435l2.3-2.3a5.3,5.3,0,0,1,3.771-1.561H992l5.373,13.909-6.512-.988Zm-2.97-12.692,3.53,9.138,2.844-3.493,4.451.674-3.806-9.848h-2.018a3.5,3.5,0,0,0-2.488,1.03l-2.3,2.3C983.879,819,983.807,819.069,983.735,819.135Z" transform="translate(4.122 6.58)" fill="#8E71B3"/>
  </g>
</svg>
