<svg xmlns="http://www.w3.org/2000/svg" viewBox="0 0 76.15 59.98"><defs><style>.cls-1{fill:none;stroke:#000;stroke-miterlimit:10;stroke-width:1px;}</style></defs><g id="Lag_2" data-name="Lag 2"><g id="Lag_1-2" data-name="Lag 1"><path class="cls-1" d="M73.77,59.68a9.89,9.89,0,0,1-2.72-2.35c-.12-.15-.23-.31-.35-.45a1.41,1.41,0,0,1-.24-1.52,13.57,13.57,0,0,0,.48-1.53,5.67,5.67,0,0,0,.18-2c-.12-1.65-.18-3.31-.22-5-.05-2.15,0-4.29.15-6.44.08-1.56.15-3.12.24-4.69L71.44,33c0-.26,0-.26-.24-.32a1,1,0,0,1-.88-1.11c0-.74,0-1.47.07-2.21,0-1.32.11-2.65.17-4l.27-5.75.24-4.59a43.65,43.65,0,0,1,1.07-8.2,16.67,16.67,0,0,1,.48-1.67A9.25,9.25,0,0,1,73.69,3,22.45,22.45,0,0,1,75.53.64c.08-.08.13-.19.29-.23,0,.15,0,.28,0,.42-.08,1.22-.16,2.43-.23,3.65q-.15,2.49-.27,5c-.08,1.83-.15,3.67-.19,5.51s0,3.44,0,5.16q0,4.5.07,9c0,2.55.08,5.09.14,7.64.06,2.79.13,5.57.22,8.36.09,2.95.22,5.9.32,8.85,0,.91,0,1.83,0,2.74a8.58,8.58,0,0,1-.14,1.34,2.16,2.16,0,0,1-1.07,1.52c-.05,0-.12,0-.14.1Z"/><path class="cls-1" d="M.44,11.28c.08-1.2.14-2.39.23-3.59C.78,6.3.89,4.9,1.12,3.52a1.24,1.24,0,0,1,.12-.39.5.5,0,0,1,.17.39c.11.69.17,1.39.23,2.09L2,11a1.75,1.75,0,0,0,0,.32c0,.13.1.17.23.17s.17-.08.18-.18c0-.42.09-.83.12-1.24.11-1.53.2-3.05.32-4.58A20.53,20.53,0,0,1,3.21,3.3,1,1,0,0,1,3.33,3a.76.76,0,0,1,.17.48c.15.83.22,1.67.31,2.51C4,7.61,4,9.29,4.1,11a1,1,0,0,0,0,.25c0,.13.14.15.26.15s.23,0,.26-.14a3.13,3.13,0,0,0,0-.43l.09-2.13C4.84,7,5,5.27,5.24,3.58A1.25,1.25,0,0,1,5.41,3a.74.74,0,0,1,.18.5C5.78,4.7,5.9,5.94,6,7.18s.16,2.66.29,4c0,.06,0,.12,0,.18a.17.17,0,0,0,.17.15c.11,0,.21,0,.24-.12a1.07,1.07,0,0,0,0-.25c.1-1.41.19-2.82.3-4.22.1-1.15.16-2.3.35-3.43,0-.12,0-.25.14-.33a1,1,0,0,1,.17.56C7.86,4.83,8,6,8.05,7.1c.17,2.2.28,4.4.36,6.6a13.84,13.84,0,0,1-.64,4.91,6.49,6.49,0,0,1-1.3,2.3,2.52,2.52,0,0,0-1,2.44c-.09,2.83-.09,5.67-.09,8.5,0,1.4.11,2.79.21,4.19.09,1.17.17,2.34.26,3.51.11,1.58.23,3.15.34,4.72.09,1.2.17,2.39.26,3.59.11,1.59.23,3.19.34,4.79.09,1.35.17,2.7.25,4.05,0,.37,0,.75.07,1.13a.57.57,0,0,1-.36.6,4.6,4.6,0,0,1-1.45.44,6,6,0,0,1-2.8-.2,2.37,2.37,0,0,1-.34-.13c-.55-.23-.6-.3-.58-.88.08-2,.23-3.91.37-5.86.1-1.56.21-3.13.32-4.69s.23-3.12.34-4.68c.09-1.12.17-2.25.25-3.37.12-1.62.24-3.24.35-4.86,0-.67.08-1.33.08-2,0-2.86,0-5.72-.08-8.58,0-.37,0-.75,0-1.13a1.29,1.29,0,0,0-.27-.8,5.9,5.9,0,0,0-.5-.62A6.93,6.93,0,0,1,.75,17.76c-.12-.52-.21-1-.31-1.57,0-.14-.08-.26-.1-.4v-.3c0-.07,0-.16,0-.23V13.77a2.36,2.36,0,0,0,0-.7v-.61C.4,12.07.39,11.67.44,11.28Z"/><path class="cls-1" d="M67.36,29.52A28.87,28.87,0,1,1,38.48.66,28.88,28.88,0,0,1,67.36,29.52Z"/><path class="cls-1" d="M38.46,6.72A22.91,22.91,0,1,1,15.54,29.58,22.93,22.93,0,0,1,38.46,6.72Z"/><path class="cls-1" d="M59.6,29.56A21.11,21.11,0,1,1,38.49,8.42,21.11,21.11,0,0,1,59.6,29.56Z"/></g></g></svg>