<svg xmlns="http://www.w3.org/2000/svg" viewBox="0 0 76.1 50.8"><defs><style>.cls-1{fill:none;stroke:#2CA3DB;stroke-miterlimit:10;stroke-width:1px;fill-rule:evenodd;}</style></defs><g id="Lag_2" data-name="Lag 2"><g id="Lag_1-2" data-name="Lag 1"><path class="cls-1" d="M49.15,46.71a1.94,1.94,0,0,1-.63-.37c-9.16,0-18.32-.06-27.49.14a1.83,1.83,0,0,1-.44.23c-1.84.64-1.76,3.84,1.37,3.84H47.78C50.92,50.55,51,47.35,49.15,46.71Z"/><path class="cls-1" d="M70.22,12.14A13.55,13.55,0,0,0,64.07,12c.43-1.08.82-2.18,1.19-3.3.8-2.49-.44-3.68-1.93-3.5C43.85,7.61,34.43,6.83,25.91,3,19-.18,9.67-1.17,1.85,3.16.36,4-.4,5,1,6A13.3,13.3,0,0,1,5.43,11.8,60.1,60.1,0,0,0,22.48,35.86c.87.73.79,2,.16,4.53-.3,1.25-.57,2.33-.86,3.44l0,.07c8.68-.18,17.36-.16,26-.13-.36-1.45,0-2.18.65-2.45,6.64-2.77,23-10.84,25.92-15.87C77.22,20.59,76,14.08,70.22,12.14Zm-.73,11.1c-2.11,2.87-8.63,7.29-12.45,9-2.27,1-5.58-.69-3.7-2.88a64.53,64.53,0,0,0,7.11-9.95c1.21-2.1,4.61-3.47,7.54-2.79S71.44,20.6,69.49,23.24Z"/></g></g></svg>