<svg xmlns="http://www.w3.org/2000/svg" viewBox="0 0 54.68 47.06"><defs><style>.cls-1,.cls-2{fill:none;stroke-miterlimit:10;}.cls-1{stroke:#1d1d1b;stroke-width:0.75px;}.cls-2{stroke:#000;stroke-width:0.5px;}</style></defs><g id="Lag_2" data-name="Lag 2"><g id="Lag_1-2" data-name="Lag 1"><path class="cls-1" d="M53.35,16.12H.92a.54.54,0,0,0-.54.54c0,8.27,1.81,14.45,5.55,18.89A20.31,20.31,0,0,0,15,41.62L13.75,46a.54.54,0,0,0,.09.48.53.53,0,0,0,.43.22H40a.56.56,0,0,0,.44-.22.54.54,0,0,0,.08-.48l-1.29-4.36a20.39,20.39,0,0,0,9.12-6.07c3.73-4.44,5.55-10.62,5.55-18.89A.54.54,0,0,0,53.35,16.12Z"/><path class="cls-2" d="M47.24,14.22l5.81-6.11a4.58,4.58,0,1,0-6.38-6.57L32.51,14.22Z"/></g></g></svg>