<svg xmlns="http://www.w3.org/2000/svg" viewBox="0 0 60.49 65.14"><defs><style>.cls-1{fill:none;stroke:#000;stroke-miterlimit:10;stroke-width:1px;}</style></defs><g id="Lag_2" data-name="Lag 2"><g id="Lag_1-2" data-name="Lag 1"><path class="cls-1" d="M60.24,33.53a.67.67,0,0,0-.18-.48.63.63,0,0,0-.47-.2H.9a.63.63,0,0,0-.47.2.67.67,0,0,0-.18.48c.65,13,7.32,23.65,19.17,27.22h0v2.9a1.25,1.25,0,0,0,1.25,1.24H39.82a1.25,1.25,0,0,0,1.25-1.24v-2.9h0C52.91,57.18,59.58,46.5,60.24,33.53Z"/><path class="cls-1" d="M31.91,24.82A8.57,8.57,0,0,1,30.05,16a21.18,21.18,0,0,1,2.55-3.41,5.41,5.41,0,0,0,1.09-2.34,8,8,0,0,0-.08-3.83,9.05,9.05,0,0,0-3.8-5.08,8.57,8.57,0,0,1,1.86,8.83,21.72,21.72,0,0,1-2.55,3.42A5.27,5.27,0,0,0,28,15.91a8,8,0,0,0,.08,3.83A9.05,9.05,0,0,0,31.91,24.82Z"/><path class="cls-1" d="M40.18,24.82a5.24,5.24,0,0,1-1.29-5.67A14.15,14.15,0,0,1,40.66,17a3.4,3.4,0,0,0,.75-1.49A4.76,4.76,0,0,0,41.35,13a5.84,5.84,0,0,0-2.62-3.26A5.22,5.22,0,0,1,40,15.41a13.26,13.26,0,0,1-1.77,2.19,3.26,3.26,0,0,0-.74,1.5,4.66,4.66,0,0,0,.05,2.46A5.88,5.88,0,0,0,40.18,24.82Z"/><path class="cls-1" d="M21.75,24.82a5.25,5.25,0,0,1-1.28-5.67A14.15,14.15,0,0,1,22.24,17,3.28,3.28,0,0,0,23,15.47,4.76,4.76,0,0,0,22.93,13a5.88,5.88,0,0,0-2.62-3.26,5.22,5.22,0,0,1,1.28,5.66,12.71,12.71,0,0,1-1.76,2.19,3.38,3.38,0,0,0-.75,1.5,4.76,4.76,0,0,0,.06,2.46A5.87,5.87,0,0,0,21.75,24.82Z"/></g></g></svg>