<?xml version="1.0" encoding="utf-8"?>
<!-- Generator: Adobe Illustrator 22.0.1, SVG Export Plug-In . SVG Version: 6.00 Build 0)  -->
<svg version="1.1" id="Layer_1" xmlns="http://www.w3.org/2000/svg" xmlns:xlink="http://www.w3.org/1999/xlink" x="0px" y="0px"
	 viewBox="0 0 110 40" style="enable-background:new 0 0 110 40;" xml:space="preserve">
<style type="text/css">
	.st0{fill:none;}
</style>
<title>logo_hungry</title>
<g>
	<rect class="st0" width="110" height="40"/>
	<g>
		<path d="M57.1,19.8c-0.1,0.1-0.2,0.2-0.2,0.2c-0.6,0.6-1.5,0.9-2.3,0.9c-0.8,0-1.5-0.4-1.9-1c-0.3-0.5-0.6-1.2-0.6-1.8
			c-0.2-1.9-0.1-3.7,0.4-5.5c0.3-1.1,1-2.2,1.9-2.9c0.7-0.5,1.5-0.9,2.3-1c1.2-0.2,2.4-0.2,3.6,0.1c0.2,0,0.2,0.1,0.2,0.3
			c0,1.3,0,2.7-0.1,4c0,0.9,0,1.9,0,2.8c0,0.9,0,1.8,0,2.8c0,1.3-0.2,2.6-0.7,3.9c-0.6,1.9-2.2,3.2-4.1,3.6c-1,0.2-2,0.3-3.1,0.4
			c-0.8,0-1.7,0-2.5,0c-1.3,0.1-2.7,0.1-4,0.3c-2.4,0.2-4.8,0.9-7,1.9c-2.4,1.1-4.5,2.7-6.2,4.7c-0.8,1-1.9,1.8-3.1,2.2
			c-0.9,0.3-1.9,0.2-2.8-0.2c-0.8-0.4-1.2-1.2-1.2-2c0.1-0.7,0.4-1.3,0.8-1.8c0.7-0.7,1.4-1.4,2.2-2c2.4-1.7,5.1-2.9,8-3.6
			c1.4-0.4,2.8-0.6,4.2-0.7c1.3-0.1,2.7-0.2,4-0.3c1,0,2,0,2.9,0c1.6,0,3.3,0.1,4.9,0.1c0.6,0,1.2-0.1,1.7-0.2
			c1.3-0.3,2.3-1.4,2.5-2.8c0.1-0.4,0.1-0.9,0.1-1.4C57.2,20.5,57.1,20.2,57.1,19.8z M57.3,12.5L57.3,12.5c0-0.3,0-0.7,0-1
			c0-0.1-0.1-0.2-0.1-0.2c-0.6-0.1-1.2,0-1.7,0.4c-0.1,0.1-0.1,0.1-0.1,0.2c0,0.4,0,0.8,0,1.2c0,0.8,0,1.6,0,2.4c0,1,0,1.9-0.1,2.9
			c0,0.2,0,0.2,0.2,0.2c0.6,0,1.2-0.1,1.7-0.5c0.1-0.1,0.2-0.2,0.2-0.3c0-0.5,0-0.9,0-1.4C57.2,15.1,57.3,13.8,57.3,12.5z"/>
		<path d="M26.5,26.8l-1.7-6.5c-0.2,0-0.3,0.1-0.5,0.1c-0.6,0.2-1.2,0.6-1.6,1.1c-0.1,0.1-0.1,0.2-0.1,0.4c0.5,1.8,0.9,3.7,1.4,5.5
			c0,0.1,0,0.2-0.1,0.2c-1,0.3-1.9,0.7-2.9,1c0,0-0.1,0-0.1,0c-0.1-0.4-0.2-0.8-0.3-1.2c-1.2-4.7-2.4-9.4-3.6-14
			c0-0.2,0-0.3,0.2-0.3c1-0.3,2-0.7,3-1l1.9,7.4c0,0,0.1-0.1,0.1-0.1c0.5-0.8,1.1-1.4,1.8-1.9c0.1-0.1,0.1-0.2,0.1-0.3
			c-0.5-1.9-1-3.8-1.5-5.7c0-0.1,0-0.1-0.1-0.2l3.2-1.1c0,0.2,0.1,0.3,0.1,0.5c0.9,3.3,1.7,6.7,2.6,10c0.4,1.6,0.8,3.2,1.3,4.9
			c0,0.1,0,0.2-0.1,0.2c-1,0.3-1.9,0.7-2.9,1C26.6,26.8,26.5,26.8,26.5,26.8z"/>
		<path d="M78.4,10.2c-0.1,0.3-0.2,0.6-0.3,1c-1.3,3.9-2.7,7.8-4.4,11.5c-0.4,0.9-0.9,1.7-1.4,2.5c-0.4,0.6-1,1-1.7,1.1
			c-0.6,0.1-1.2,0-1.8-0.2c-0.5-0.2-0.9-0.4-1.4-0.6c-0.1,0-0.1-0.1-0.1-0.2c0.1-0.5,0.1-1,0.2-1.6c0-0.1,0-0.1,0.1-0.2l1.6,0.2
			c0.1,0,0.1,0,0.2,0c0.4,0.2,0.7-0.1,0.9-0.4c0.4-0.9,0.9-1.7,1.3-2.5c0-0.1,0.1-0.2,0.1-0.3c-0.1,0.1-0.2,0.1-0.3,0.1
			c-0.6,0.3-1.3,0.4-1.9,0.3c-0.7-0.1-1.2-0.6-1.1-1.3c0-0.5,0.1-1.1,0.1-1.6c0.1-0.9,0.2-1.8,0.4-2.6c0.1-1,0.3-1.9,0.4-2.9
			c0.1-0.9,0.2-1.7,0.4-2.6c0-0.3,0.1-0.6,0.1-1l3.3,0.5c-0.1,0.4-0.1,0.8-0.2,1.2c-0.3,1.6-0.6,3.1-0.8,4.7
			c-0.2,1.1-0.4,2.1-0.6,3.2c0,0.2,0,0.3,0.2,0.4c0.6,0.2,0.6,0.2,0.9-0.4c1.1-2.4,1.9-4.9,2.6-7.4c0.1-0.4,0.2-0.7,0.2-1.1
			c0-0.1,0.1-0.2,0.2-0.2C76.5,9.9,77.4,10,78.4,10.2C78.4,10.1,78.4,10.2,78.4,10.2z"/>
		<path d="M49.9,19.2c0.3,0,0.6-0.1,0.8-0.1c0.2,0,0.3,0,0.3,0.2c0,0.5,0.1,1.1,0.1,1.6c0,0.1,0,0.2-0.1,0.2
			c-0.9,0.5-1.8,0.8-2.8,0.8c-0.7,0-1.3-0.5-1.3-1.2c0,0,0,0,0,0c-0.1-0.6-0.1-1.2-0.1-1.8c-0.1-1.1-0.1-2.1-0.2-3.2
			c0-0.5-0.1-1-0.1-1.5c0-0.5-0.1-1-0.1-1.6c0-0.1-0.1-0.2-0.2-0.2c-0.5-0.1-1,0-1.5,0.3c-0.1,0-0.2,0.2-0.2,0.3
			c0.1,0.9,0.1,1.8,0.2,2.7c0,0.7,0.1,1.3,0.1,2c0.1,1,0.1,1.9,0.2,2.9c0,0.5,0.1,1,0.1,1.6l-3.2,0.5c0-0.1,0-0.2-0.1-0.3
			c-0.1-1.1-0.1-2.3-0.2-3.4c-0.1-1.3-0.2-2.6-0.3-4c-0.1-0.9-0.1-1.9-0.2-2.8c0-0.4-0.1-0.9-0.1-1.3c0-0.1,0-0.2,0.2-0.2
			c0.9-0.1,1.9-0.3,2.8-0.4c0.1,0,0.1,0,0.2,0l0.1,1c0.1-0.1,0.2-0.2,0.3-0.3c0.7-0.7,1.5-1.2,2.4-1.4c0.3-0.1,0.7-0.1,1,0
			c0.8,0.1,1.3,0.8,1.4,1.5c0.1,0.6,0.1,1.3,0.1,2c0.1,1.2,0.1,2.4,0.2,3.6c0,0.6,0.1,1.1,0.1,1.7C49.9,18.6,49.9,18.9,49.9,19.2z"
			/>
		<path d="M37.9,11.3l1.5,9.6l1.1-0.3c0.1,0.6,0.2,1.2,0.3,1.9c0,0.1,0,0.2-0.1,0.2c-0.8,0.6-1.8,1-2.9,1.1
			c-0.6,0.1-1.1-0.3-1.2-0.9c0,0,0,0,0,0c0,0,0-0.1-0.1-0.1c-0.1,0.1-0.1,0.1-0.2,0.2c-0.6,0.9-1.5,1.6-2.6,1.9
			c-0.6,0.2-1.3,0.1-1.8-0.3c-0.4-0.4-0.6-0.8-0.7-1.3c-0.3-1.5-0.5-3.1-0.7-4.6c-0.3-1.6-0.5-3.2-0.7-4.9c0-0.1,0-0.2,0-0.3
			c-0.1-0.2,0-0.2,0.2-0.3c1-0.2,2-0.5,3-0.7c0.1,0.3,0.1,0.6,0.2,1c0.2,1.1,0.3,2.2,0.5,3.3c0.2,1.2,0.4,2.3,0.5,3.5
			c0.1,0.5,0.2,1,0.2,1.6c0,0.1,0,0.2,0.2,0.2c0.5-0.1,1.1-0.3,1.5-0.6c0.1-0.1,0.2-0.3,0.1-0.4c-0.3-1.8-0.5-3.5-0.8-5.3
			c-0.2-1.1-0.3-2.3-0.5-3.4c0-0.1,0-0.2,0.1-0.2c1-0.2,1.9-0.5,2.9-0.7C37.8,11.3,37.8,11.3,37.9,11.3z"/>
		<path d="M62.8,8.7h3l-0.1,1l0,0c0-0.1,0.1-0.1,0.1-0.2c0.6-0.9,1.6-1.4,2.7-1.4c0.3,0,0.3,0,0.2,0.3c-0.1,0.8-0.2,1.5-0.3,2.3
			c-0.1,0.5,0,0.5-0.5,0.5c-0.7,0-1.4,0.1-2,0.4c-0.2,0.1-0.3,0.2-0.2,0.4c-0.1,1-0.2,2-0.2,3c0,0.6-0.1,1.2-0.1,1.8
			c-0.1,0.8-0.1,1.6-0.2,2.4c0,0.4-0.1,0.8-0.1,1.2c0,0.1,0,0.2-0.2,0.2c-1,0-2.1,0-3.1,0c0,0-0.1,0-0.1,0L62.8,8.7z"/>
		<path d="M82,22.4c-0.3,0.2-0.7,0.3-1.1,0.4c-0.8,0.2-1.7-0.2-1.9-1C79,21.7,79,21.5,79,21.3c0-1.2,0.3-2.3,0.8-3.4
			c0.2-0.4,0.5-0.9,0.7-1.3c0.8-1.1,2.1-1.7,3.5-1.3c0.2,0,0.2,0,0.3-0.2c0.3-1.1,0.7-2.1,1-3.2c0-0.1,0.1-0.2,0.1-0.3l2,0.5
			l-3.3,9.9l0.7,0.2c-0.1,0.4-0.3,0.8-0.4,1.2c0,0.1-0.1,0.1-0.1,0.1c-0.6,0.1-1.1,0.1-1.7-0.1c-0.1,0-0.2-0.1-0.3-0.2
			C82.1,23.2,81.9,22.8,82,22.4z M81.7,21.5c0.1,0,0.3,0,0.4-0.1c0.1,0,0.1-0.1,0.2-0.2c0.4-1.3,0.9-2.7,1.3-4c0-0.1,0-0.2-0.1-0.2
			c-0.4-0.1-0.7-0.1-1.1,0c-0.1,0-0.1,0.1-0.2,0.2c-0.4,1.3-0.9,2.6-1.3,3.9c0,0.1,0,0.2,0.1,0.2C81.3,21.4,81.5,21.4,81.7,21.5z"/>
		<path d="M89,21.4c-0.3-0.2-0.6-0.1-0.7,0.2c0,0,0,0.1,0,0.1c-0.3,0.9-0.7,1.7-1,2.6c-0.1,0.1-0.1,0.2-0.3,0.1
			c-0.5-0.2-1.1-0.3-1.6-0.5c-0.1,0-0.1,0-0.2-0.1l4.4-11.1l2,0.6l-2.6,6.5c0.3,0.2,0.7,0.3,1.1,0.2c0.1,0,0.1-0.1,0.1-0.2
			c0.3-0.7,0.7-1.4,1-2.2c0-0.1,0.1-0.1,0.1-0.2L93,18c-0.3,0.9-0.8,1.8-1.3,2.6c-0.2,0.2-0.4,0.4-0.6,0.5c-0.1,0-0.1,0.1-0.1,0.2
			c-0.1,0.8-0.2,1.7-0.3,2.5c0,0.1,0,0.2,0.1,0.2c0.1,0,0.3,0.1,0.5,0.1c-0.2,0.4-0.3,0.8-0.5,1.2c0,0-0.1,0.1-0.1,0.1
			c-0.5,0.1-1,0-1.5-0.2c-0.5-0.2-0.8-0.7-0.7-1.2C88.6,23.2,88.8,22.3,89,21.4C89,21.4,89,21.4,89,21.4z"/>
		<path d="M76.9,19.8c0.5,0,1,0.4,1,1c0,0.5-0.4,1-1,1c-0.5,0-1-0.4-1-1c0,0,0,0,0,0C75.9,20.2,76.3,19.8,76.9,19.8z"/>
	</g>
</g>
</svg>
