<?xml version="1.0" encoding="utf-8"?>
<!-- Generator: Adobe Illustrator 22.0.1, SVG Export Plug-In . SVG Version: 6.00 Build 0)  -->
<svg version="1.1" id="Layer_1" xmlns="http://www.w3.org/2000/svg" xmlns:xlink="http://www.w3.org/1999/xlink" x="0px" y="0px"
	 viewBox="0 0 110 40" style="enable-background:new 0 0 110 40;" xml:space="preserve">
<style type="text/css">
	.st0{fill:none;}
</style>
<title>logo_miinto</title>
<rect class="st0" width="110" height="40"/>
<g>
	<path d="M28,26.2h3.5v-9.1L29.7,17l0-0.2l4.1-0.4v9.9h3.7v-9.1L35.5,17l0-0.2l4-0.3v9.9c1.2,0,2.2,0,3.3,0c0.1,0,0.4-0.3,0.4-0.4
		c0-2.9,0-5.8,0-8.7L41.3,17l0-0.2l4.1-0.3v1.9c0.4-0.4,0.7-0.8,1-1.1c1.2-1.2,3.1-1.6,4.7-0.8c0.9,0.4,1.5,1.4,1.4,2.5
		c0,2.1,0,4.2,0,6.3v1l1.9,0.1l0,0.2h-5.9l0-0.2l1.8-0.1c0.1-0.1,0.1-0.1,0.1-0.2c0-2.7,0.1-5.5,0-8.2c0-1.1-0.8-1.6-1.9-1.3
		c-1.7,0.4-3,1.9-3,3.7c0,1.7,0,3.4,0,5.1c0,0.3,0,0.6,0,0.9l1.8,0.1l0,0.2H23.9l0-0.2l1.8-0.1c0-0.2,0.1-0.5,0.1-0.7
		c0-2.3,0-4.7,0-7c0.1-0.7-0.2-1.5-0.9-1.8c-0.7-0.3-1.6-0.2-2.2,0.3c-1.1,0.8-1.8,2.1-1.8,3.5c0,1.9,0,3.8,0,5.7l1.9,0.1
		c-0.5,0.4-4.8,0.5-5.9,0l1.9-0.1c0-1,0-1.9,0-2.8c0-1.8,0-3.6,0-5.4c0.1-0.8-0.5-1.5-1.3-1.6c-0.2,0-0.4,0-0.6,0.1
		c-1.6,0.4-2.8,1.8-2.9,3.4c0,2.1,0,4.1,0,6.3l1.8,0.1l0,0.2H10l0-0.2l1.9-0.1v-9.1L10,17l0-0.2l4-0.3v1.9c1-1.4,2-2.3,3.7-2.3
		c1.9,0,2.7,0.6,3.3,2.4c0.2-0.2,0.3-0.4,0.4-0.6c1.1-1.7,3.3-2.3,5.1-1.3c1,0.5,1.5,1.5,1.4,2.6c0,2.1,0,4.2,0,6.2
		C28,25.6,28,25.9,28,26.2z"/>
	<path d="M100,26.6h-5.9l0-0.2l1.7-0.1c-1.1-1.4-2.2-2.7-3.3-4c-1,0.7-1.2,1.2-0.8,4.1l1.6,0.1l0,0.2h-9.1v-1.3c-0.1,0-0.2,0-0.2,0
		c-1.9,2.9-6.2,1.9-7.6-1.2c-1.1-2.4-0.5-5.3,1.6-7c2-1.6,4.3-1.2,6.1,1.2V9.7h-1.9l0-0.3L86.2,9v17.2h3.1V9.7h-1.8l0-0.3l4-0.4v13
		c1.8-1.4,3.5-3,5-4.8l-2.1-0.3l0-0.2h5.2l0,0.2C99.3,17,99.1,17,98.9,17c-0.8,0-1.6,0.3-2.1,0.8c-0.9,0.9-1.8,1.7-2.8,2.7
		c0.8,1,1.5,1.9,2.3,2.8c0.3,0.4,0.6,0.8,0.9,1.1C98.1,25.7,98.1,25.7,100,26.6z M78.1,21.6c0,1.1,0.1,2.1,0.3,3.1
		c0.1,0.8,0.7,1.5,1.5,1.7c1.8,0.5,3.6-0.6,4.1-2.4c0.1-0.2,0.1-0.4,0.1-0.6c0.1-1.1,0.1-2.2,0-3.4c0-1.4-0.9-2.7-2.2-3.3
		c-1.1-0.7-2.5-0.3-3.1,0.7c-0.2,0.3-0.3,0.7-0.3,1.1C78.2,19.6,78.1,20.6,78.1,21.6z"/>
	<path d="M62.2,25.4c-1,1.3-2.7,1.9-4.3,1.5c-1.3-0.1-2.3-1.3-2.2-2.6c0,0,0,0,0,0c0-2,0-4,0-6.1v-1L53.3,17c1-0.2,2-0.6,2.9-1.2
		c0.6-0.8,1.2-1.7,1.6-2.6v3.5h3.3l0,0.3h-3.2c0,0.4-0.1,0.6-0.1,0.8c0,2.4,0,4.8,0,7.2c0,1.2,0.6,1.8,1.8,1.6
		c0.7-0.3,1.4-0.6,2-1.2c0.1-0.1,0.1-0.6-0.1-0.8c-1.1-1.8-1.1-4-0.1-5.8c1.2-2.2,3.8-3.2,6.1-2.4c2.3,0.8,3.8,3.1,3.6,5.6
		c-0.1,2.9-2.5,5.2-5.4,5.1C64.4,26.9,63.1,26.4,62.2,25.4L62.2,25.4z M68.7,21.6L68.7,21.6c0-0.9,0.1-1.8,0-2.7
		c0-1.3-1-2.4-2.3-2.4c-0.1,0-0.2,0-0.3,0c-1.6-0.1-2.7,0.6-2.8,2.1c-0.2,1.9-0.2,3.9,0,5.8c0.1,1.6,1.1,2.1,3,2
		c1.2,0.1,2.3-0.9,2.3-2.2c0,0,0-0.1,0-0.1C68.8,23.4,68.7,22.5,68.7,21.6z"/>
	<path d="M38.6,13.2c-1,0-1.8-0.7-1.8-1.7c0,0,0,0,0,0c0-1,0.8-1.8,1.8-1.8c1,0,1.8,0.8,1.8,1.7C40.3,12.4,39.5,13.2,38.6,13.2z"/>
	<path d="M32.6,13.2c-0.9,0-1.7-0.8-1.7-1.7c0,0,0-0.1,0-0.1c0-1,0.8-1.7,1.8-1.7c1,0.1,1.7,0.8,1.7,1.8
		C34.4,12.5,33.6,13.2,32.6,13.2C32.6,13.2,32.6,13.2,32.6,13.2z"/>
	<path d="M74.5,25.7c0,0.7-0.6,1.3-1.2,1.3c-0.7,0-1.3-0.5-1.3-1.2c0,0,0-0.1,0-0.1c0-0.7,0.6-1.2,1.3-1.2
		C74,24.5,74.5,25,74.5,25.7z"/>
</g>
</svg>
