<?xml version="1.0" encoding="utf-8"?>
<!-- Generator: Adobe Illustrator 25.2.0, SVG Export Plug-In . SVG Version: 6.00 Build 0)  -->
<svg version="1.1" id="Layer_1" xmlns="http://www.w3.org/2000/svg" xmlns:xlink="http://www.w3.org/1999/xlink" x="0px" y="0px"
	 viewBox="0 0 110 40" style="enable-background:new 0 0 110 40;" xml:space="preserve">
<style type="text/css">
	.st0{fill:none;}
</style>
<rect y="0" class="st0" width="110" height="40"/>
<g>
	<path d="M8.8,20.1c0-3.2,2.1-5.5,5.3-5.5c1.5,0,3,0.5,4,1.6l-0.6,0.5c-0.9-0.9-2.2-1.4-3.4-1.3c-2.6,0-4.4,1.9-4.4,4.7
		c0,2.7,1.8,4.6,4.4,4.6c1.2,0,2.4-0.3,3.3-1v-2.8h-3.6v-0.8h4.5v4c-1.2,1-2.7,1.5-4.2,1.4C11.1,25.5,8.8,23.4,8.8,20.1z"/>
	<path d="M20.2,14.6h6.5v0.8h-5.6v4.2h4.6v0.8h-4.6v4.2H27v0.8h-6.8V14.6z"/>
	<path d="M28.4,14.6h0.9l6.8,9.4h0v-9.4h0.9v10.8h-0.9l-6.8-9.3l0,0v9.3h-0.9L28.4,14.6z"/>
	<path d="M39,14.6h6.4v0.8h-5.6v4.2h4.6v0.8h-4.6v4.2h5.9v0.8H39V14.6z"/>
	<path d="M47.2,14.6h3.7c2.4,0,3.5,1.4,3.5,3.2c0,1.9-1.1,2.9-3,3.2l3.2,4.5h-1.1l-3.1-4.4H48v4.4h-0.9L47.2,14.6z M50.6,20.3
		c2.1,0,2.9-1.1,2.9-2.4c0-1.6-1-2.4-2.6-2.4H48v4.8L50.6,20.3z"/>
	<path d="M59.3,14.6h0.9l4.2,10.8h-0.9l-1.1-2.9h-5.2l-1.1,2.9h-0.9L59.3,14.6z M62.1,21.8l-2.3-6.1h0l-2.3,6.1H62.1z"/>
	<path d="M75.9,24.7c0,0,0-0.1-0.1-0.2c-0.7-0.8-1.3-1.5-1.8-2.1c-0.5-0.6-1.1-1.1-1.8-1.6c-0.2-0.2-0.8-0.6-1-0.7
		c0,0-0.1-0.1-0.1-0.1c0,0,0-0.1,0.1-0.1c0.3-0.2,0.6-0.4,1-0.7c0.6-0.5,1.2-1,1.8-1.6c0.6-0.7,1-1.1,1.8-2.1
		c0.1-0.1,0.1-0.2,0.1-0.2c-0.2-0.3-0.5-0.6-0.8-0.8c0,0-0.1,0-0.2,0.1c-0.8,0.7-1.5,1.3-2.1,1.8c-0.6,0.5-1.1,1.1-1.6,1.8
		c-0.2,0.2-0.7,1-0.7,1s0,0-0.1,0c0,0,0,0,0,0c-0.2-0.3-0.4-0.6-0.7-1c-0.5-0.6-1-1.2-1.6-1.8c-0.7-0.6-1.1-1-2.1-1.8
		c-0.1-0.1-0.2-0.1-0.2-0.1c-0.3,0.2-0.6,0.5-0.8,0.8c0,0,0,0.1,0.1,0.2c0.7,0.8,1.3,1.5,1.8,2.1c0.5,0.6,1.1,1.1,1.8,1.6
		c0.2,0.2,0.8,0.6,1,0.7c0,0,0,0,0,0c0,0,0,0-0.1,0.1c-0.3,0.2-0.6,0.4-1,0.7c-0.6,0.5-1.2,1.1-1.8,1.6c-0.6,0.7-1,1.1-1.8,2.1
		c-0.1,0.1-0.1,0.2-0.1,0.2c0.2,0.3,0.5,0.6,0.8,0.8c0,0,0.1,0,0.2-0.1c0.8-0.7,1.5-1.3,2.1-1.8c0.6-0.5,1.1-1.1,1.6-1.8
		c0.2-0.2,0.6-0.8,0.7-0.9c0,0,0.1-0.1,0.1-0.1c0,0,0.1,0.1,0.1,0.1c0.2,0.3,0.4,0.6,0.7,0.9c0.5,0.6,1.1,1.2,1.6,1.8
		c0.7,0.6,1.1,1,2.1,1.8c0.1,0.1,0.2,0.1,0.2,0.1C75.4,25.3,75.7,25,75.9,24.7z"/>
	<path d="M77.7,14.6h0.9v10.8h-0.9V14.6z"/>
	<path d="M80.3,20c0-3.2,2.3-5.5,5.4-5.5c3,0,5.3,2.2,5.3,5.5s-2.4,5.5-5.3,5.5C82.6,25.5,80.3,23.3,80.3,20z M90.1,20
		c0-2.8-2-4.6-4.4-4.6c-2.5,0-4.5,1.9-4.5,4.6s2,4.7,4.5,4.7C88.1,24.7,90.1,22.8,90.1,20L90.1,20z"/>
	<path d="M92.6,14.6h0.9l6.8,9.4h0v-9.4h0.8v10.8h-0.9l-6.8-9.3l0,0v9.3h-0.9L92.6,14.6z"/>
</g>
</svg>
