<?xml version="1.0" encoding="utf-8"?>
<!-- Generator: Adobe Illustrator 25.2.1, SVG Export Plug-In . SVG Version: 6.00 Build 0)  -->
<svg version="1.1" id="Layer_1" xmlns="http://www.w3.org/2000/svg" xmlns:xlink="http://www.w3.org/1999/xlink" x="0px" y="0px"
	 viewBox="0 0 110 40" style="enable-background:new 0 0 110 40;" xml:space="preserve">
<style type="text/css">
	.st0{fill-rule:evenodd;clip-rule:evenodd;}
</style>
<g id="Page-1">
	<g id="one.com">
		<path id="M" class="st0" d="M96.6,14.4c-1.5,0-2.9,0.6-3.8,1.7c-0.9-1-2.3-1.7-3.8-1.7c-2.8,0-5.1,2.2-5.1,4.9v0.4v6h2.5v-6.3
			l0-0.1c0-1.3,1.2-2.4,2.5-2.4c1.4,0,2.5,1.1,2.5,2.5v6.3h2.5v-6.3l0-0.1c0-1.3,1.2-2.4,2.5-2.4c1.4,0,2.5,1.1,2.5,2.5v6.3h2.5
			v-6.3C101.7,16.6,99.4,14.4,96.6,14.4"/>
		<path id="O" class="st0" d="M75.6,23.2c-1.8,0-3.3-1.4-3.3-3.2s1.5-3.2,3.3-3.2c1.8,0,3.3,1.4,3.3,3.2S77.4,23.2,75.6,23.2
			 M75.6,14.4c-3.2,0-5.8,2.5-5.8,5.6c0,3.1,2.6,5.6,5.8,5.6c3.2,0,5.8-2.5,5.8-5.6C81.4,16.9,78.8,14.4,75.6,14.4"/>
		<path id="C" class="st0" d="M63.3,16.8c0.9,0,1.8,0.4,2.4,1l1.8-1.7c-1.1-1.1-2.5-1.7-4.2-1.7c-3.2,0-5.8,2.5-5.8,5.6
			c0,3.1,2.6,5.6,5.8,5.6c1.6,0,3.1-0.7,4.2-1.7l-1.8-1.7c-0.6,0.6-1.4,1-2.4,1c-1.8,0-3.3-1.4-3.3-3.2S61.5,16.8,63.3,16.8"/>
		<path id="dot" class="st0" d="M52.8,21.4c1.2,0,2.2,0.9,2.2,2.1c0,1.2-1,2.1-2.2,2.1s-2.2-0.9-2.2-2.1
			C50.7,22.4,51.6,21.4,52.8,21.4"/>
		<path id="E" class="st0" d="M39.3,18.9c0.4-1.2,1.7-2.1,3.1-2.1c1.4,0,2.6,0.9,3.1,2.1H39.3z M48.1,20c0-3.1-2.6-5.6-5.8-5.6
			c-3.2,0-5.8,2.5-5.8,5.6c0,3.1,2.6,5.6,5.8,5.6c2.4,0,4.4-1.4,5.3-3.3h-3c-0.6,0.5-1.4,0.9-2.3,0.9c-1.5,0-2.7-1-3.1-2.3h8.8
			C48.1,20.6,48.1,20.3,48.1,20L48.1,20z"/>
		<path id="N" class="st0" d="M28.2,14.4c-3.2,0-5.8,2.5-5.8,5.6v5.6H25v-1c0,0,0,0,0,0l0-4.7l0-0.1c0.1-1.7,1.5-3.1,3.3-3.1
			c1.8,0,3.3,1.4,3.3,3.2v4.7l0,0l0,1H34V20l0-0.1C34,16.8,31.4,14.4,28.2,14.4"/>
		<path id="O_1_" class="st0" d="M14.1,23.2c-1.8,0-3.3-1.4-3.3-3.2s1.5-3.2,3.3-3.2s3.3,1.4,3.3,3.2S15.9,23.2,14.1,23.2
			 M14.1,14.4c-3.2,0-5.8,2.5-5.8,5.6c0,3.1,2.6,5.6,5.8,5.6s5.8-2.5,5.8-5.6C19.9,16.9,17.3,14.4,14.1,14.4"/>
	</g>
</g>
</svg>
