<?xml version="1.0" encoding="utf-8"?>
<!-- Generator: Adobe Illustrator 22.0.1, SVG Export Plug-In . SVG Version: 6.00 Build 0)  -->
<svg version="1.1" id="Layer_1" xmlns="http://www.w3.org/2000/svg" xmlns:xlink="http://www.w3.org/1999/xlink" x="0px" y="0px"
	 viewBox="0 0 110 40" style="enable-background:new 0 0 110 40;" xml:space="preserve">
<style type="text/css">
	.st0{fill:none;}
</style>
<path class="st0" d="M0,0h110v40H0V0z"/>
<path d="M11.6,19.6H9.3v-5.2h2.4V19.6z M13.5,25.6h-1V14.4h2.7v2.8c0,0.2,0.2,0.4,0.4,0.4c0.2,0,0.4-0.2,0.4-0.4c0,0,0,0,0,0V14
	c0-0.2-0.2-0.4-0.4-0.4c0,0,0,0,0,0H5.5C5.2,13.6,5,13.8,5,14v3.2c0,0.2,0.2,0.4,0.4,0.4c0.2,0,0.4-0.2,0.4-0.4v-2.8h2.7v11.2h-1
	c-0.2,0-0.4,0.2-0.4,0.4c0,0.2,0.2,0.4,0.4,0.4c0,0,0,0,0,0h6c0.2,0,0.4-0.2,0.4-0.4C13.8,25.8,13.7,25.6,13.5,25.6 M21.8,21.5h-3
	l1.6-3.5L21.8,21.5z M20.9,17l0.9-2l3,6.5h-2.1L20.9,17z M28.1,25.6h-0.5l-5.4-11.8c-0.1-0.2-0.3-0.3-0.5-0.2
	c-0.1,0-0.2,0.1-0.2,0.2L16,25.6h-0.9c-0.2,0-0.4,0.2-0.4,0.4c0,0.2,0.2,0.4,0.4,0.4h2.5c0.2,0,0.4-0.2,0.4-0.4
	c0-0.2-0.2-0.4-0.4-0.4h-0.8l1.5-3.3h3.7l1.3,3.3H23c-0.2,0-0.4,0.2-0.4,0.4c0,0.2,0.2,0.4,0.4,0.4h5.1c0.2,0,0.4-0.2,0.4-0.4
	C28.5,25.8,28.3,25.6,28.1,25.6 M82.9,14.4l0,5.2h-2.4l0-5.2H82.9z M90.3,20c0,3.1-2.5,5.6-5.6,5.6h-1V14.4h1
	C87.8,14.4,90.3,16.9,90.3,20 M84.7,13.6h-6.1c-0.2,0-0.4,0.2-0.4,0.4c0,0.2,0.2,0.4,0.4,0.4h1.1v11.2h-1.1c-0.2,0-0.4,0.2-0.4,0.4
	c0,0.2,0.2,0.4,0.4,0.4h6.1c3.5,0,6.4-2.9,6.4-6.4C91.1,16.5,88.2,13.6,84.7,13.6 M38.2,13.7c0.1,0,0.2,0.1,0.2,0.3
	C38.4,13.9,38.3,13.8,38.2,13.7 M31.8,14.4h2.4v5.2h-2.4L31.8,14.4z M38.1,13.6H27.9c-0.2,0-0.4,0.2-0.4,0.4c0,0,0,0,0,0v3.2
	c0,0.2,0.2,0.4,0.4,0.4c0.2,0,0.4-0.2,0.4-0.4c0,0,0,0,0,0v-2.8H31v11.2h-1c-0.2,0-0.4,0.2-0.4,0.4s0.2,0.4,0.4,0.4c0,0,0,0,0,0h6
	c0.2,0,0.4-0.2,0.4-0.4c0-0.2-0.2-0.4-0.4-0.4h-1V14.4h2.7v2.8c0,0.2,0.2,0.4,0.4,0.4c0.2,0,0.4-0.2,0.4-0.4V14
	C38.5,13.8,38.3,13.6,38.1,13.6 M44.1,14.4h2.4v5.2h-2.4V14.4z M50.3,13.6H40.2c-0.2,0-0.4,0.2-0.4,0.4v3.2c0,0.2,0.2,0.4,0.4,0.4
	c0.2,0,0.4-0.2,0.4-0.4v-2.8h2.7v11.2h-1c-0.2,0-0.4,0.2-0.4,0.4c0,0.2,0.2,0.4,0.4,0.4h6c0.2,0,0.4-0.2,0.4-0.4s-0.2-0.4-0.4-0.4
	c0,0,0,0,0,0h-1V14.4h2.7v2.8c0,0.2,0.2,0.4,0.4,0.4c0.2,0,0.4-0.2,0.4-0.4V14C50.7,13.8,50.5,13.6,50.3,13.6 M58,25.6
	c-0.9,0-1.7-0.2-2.5-0.6V14.9c0.8-0.4,1.6-0.6,2.5-0.6c3.1,0,5.6,2.5,5.6,5.6C63.6,23.1,61.1,25.6,58,25.6C58,25.6,58,25.6,58,25.6
	 M58,13.6c-3.5,0-6.4,2.9-6.4,6.4s2.9,6.4,6.4,6.4c3.5,0,6.4-2.9,6.4-6.4C64.4,16.5,61.5,13.6,58,13.6 M71.8,25.6
	c-0.9,0-1.7-0.2-2.5-0.6V14.9c0.8-0.4,1.6-0.6,2.5-0.6c3.1,0,5.6,2.5,5.6,5.6C77.5,23.1,74.9,25.6,71.8,25.6
	C71.8,25.6,71.8,25.6,71.8,25.6 M71.8,13.6c-3.5,0-6.4,2.9-6.4,6.4s2.9,6.4,6.4,6.4c3.5,0,6.4-2.9,6.4-6.4
	C78.2,16.5,75.4,13.6,71.8,13.6 M96.1,14.9c0.8-0.4,1.6-0.6,2.5-0.6c3.1,0,5.6,2.5,5.6,5.6s-2.5,5.6-5.6,5.6l0,0
	c-0.9,0-1.7-0.2-2.5-0.6V14.9z M98.6,13.6c-3.5,0-6.4,2.9-6.4,6.4c0,3.5,2.9,6.4,6.4,6.4c3.5,0,6.4-2.9,6.4-6.4
	C105,16.5,102.1,13.6,98.6,13.6"/>
</svg>
