<?xml version="1.0" encoding="utf-8"?>
<!-- Generator: Adobe Illustrator 25.2.0, SVG Export Plug-In . SVG Version: 6.00 Build 0)  -->
<svg version="1.1" id="Layer_1" xmlns="http://www.w3.org/2000/svg" xmlns:xlink="http://www.w3.org/1999/xlink" x="0px" y="0px"
	 viewBox="0 0 110 40" style="enable-background:new 0 0 110 40;" xml:space="preserve">
<style type="text/css">
	.st0{fill:none;}
	.st1{fill:#1D1D1B;}
</style>
<rect y="0" class="st0" width="110" height="40"/>
<g>
	<g>
		<path class="st1" d="M10.3,23.5c-0.1-0.1-0.1-0.2-0.1-0.3l0.9-4.9l0-0.3H9.8l-0.9,5.1c-0.1,0.5,0,0.9,0.3,1.3
			c0.3,0.3,0.7,0.5,1.2,0.5h4.3l0.2-1.3h-4.3C10.4,23.6,10.3,23.6,10.3,23.5z"/>
		<path class="st1" d="M21.8,18.1h-3.3c-1,0-1.9,0.8-2,1.7l-0.6,3.3c-0.1,0.5,0,0.9,0.3,1.3c0.3,0.3,0.7,0.5,1.2,0.5h3.3
			c1,0,1.9-0.8,2-1.7l0.6-3.3c0.1-0.5,0-0.9-0.3-1.3C22.7,18.3,22.3,18.1,21.8,18.1z M18.3,19.4h2.8l-3.8,2.9l0.4-2.5
			C17.8,19.6,18.1,19.4,18.3,19.4z M21.8,20.5l-0.5,2.7c0,0.3-0.3,0.5-0.6,0.5h-3L21.8,20.5z"/>
		<path class="st1" d="M34.3,19.4h4.6l0.2-1.3h-4.7c-1,0-1.9,0.8-2,1.7l-0.1,0.6c-0.1,0.4,0,0.8,0.2,1.1c-0.3,0.3-0.5,0.7-0.6,1.1
			l-0.1,0.6c-0.1,0.5,0,0.9,0.3,1.3c0.3,0.3,0.7,0.5,1.2,0.5h4.6l0.2-1.3h-4.7c-0.1,0-0.2,0-0.3-0.1c-0.1-0.1-0.1-0.2-0.1-0.3
			l0.1-0.6c0-0.3,0.3-0.5,0.6-0.5h4.6l0.2-1.3H34c-0.1,0-0.2,0-0.3-0.1c-0.1-0.1-0.1-0.2-0.1-0.3l0.1-0.6
			C33.8,19.6,34.1,19.4,34.3,19.4z"/>
		<path class="st1" d="M29.8,18.1h-3.3c-1,0-1.9,0.8-2,1.7L23.6,25h5.1c1,0,1.9-0.8,2-1.7l0.1-0.6c0.1-0.4,0-0.8-0.2-1.1
			c0.3-0.3,0.5-0.7,0.6-1.1l0.1-0.6c0.1-0.5,0-0.9-0.3-1.3C30.7,18.3,30.3,18.1,29.8,18.1z M25.6,20.9l0.2-1c0-0.3,0.3-0.5,0.6-0.5
			h3.3c0.1,0,0.2,0,0.3,0.1c0.1,0.1,0.1,0.2,0.1,0.3l-0.1,0.6c0,0.3-0.3,0.5-0.6,0.5H26C25.9,20.9,25.8,20.9,25.6,20.9z M25.9,22.2
			h3.3c0.1,0,0.2,0,0.3,0.1c0.1,0.1,0.1,0.2,0.1,0.3l-0.1,0.6c0,0.3-0.3,0.5-0.6,0.5h-3.7l0.2-1C25.4,22.4,25.6,22.2,25.9,22.2z"/>
	</g>
	<g>
		<path class="st1" d="M39.8,19.8l-0.1,0.6c-0.1,0.5,0,0.9,0.3,1.3c0.3,0.3,0.7,0.5,1.2,0.5h3.3c0.1,0,0.2,0,0.3,0.1
			c0.1,0.1,0.1,0.2,0.1,0.3l-0.1,0.6c0,0.3-0.3,0.5-0.6,0.5h-4.6L39.4,25h4.7c1,0,1.9-0.8,2-1.7l0.1-0.6c0.1-0.5,0-0.9-0.3-1.3
			c-0.3-0.3-0.7-0.5-1.2-0.5h-3.3c-0.1,0-0.2,0-0.3-0.1c-0.1-0.1-0.1-0.2-0.1-0.3l0.1-0.6c0-0.3,0.3-0.5,0.6-0.5h4.6l0.2-1.3h-4.7
			C40.9,18.1,40,18.9,39.8,19.8z"/>
		<path class="st1" d="M53.2,20.4c0,0.3-0.3,0.5-0.6,0.5h-3.3c-0.1,0-0.3,0-0.4,0l0.5-2.8h-1.3l-1.2,6.6l0,0.3h1.3l0.4-2.3
			c0-0.3,0.3-0.5,0.6-0.5h3.3c0.1,0,0.3,0,0.4,0L52.4,25h1.3l1.2-6.9h-1.3L53.2,20.4z"/>
		<path class="st1" d="M61.1,18.1h-3.3c-1,0-1.9,0.8-2,1.7l-0.6,3.3c-0.1,0.5,0,0.9,0.3,1.3c0.3,0.3,0.7,0.5,1.2,0.5H60
			c1,0,1.9-0.8,2-1.7l0.6-3.3c0.1-0.5,0-0.9-0.3-1.3C62,18.3,61.6,18.1,61.1,18.1z M60.1,23.6h-3.3c-0.1,0-0.2,0-0.3-0.1
			c-0.1-0.1-0.1-0.2-0.1-0.3l0.6-3.3c0-0.3,0.3-0.5,0.6-0.5h3.3c0.1,0,0.2,0,0.3,0.1c0.1,0.1,0.1,0.2,0.1,0.3l-0.6,3.3
			C60.6,23.4,60.4,23.6,60.1,23.6z"/>
		<path class="st1" d="M69,18.1h-3.3c-1,0-1.9,0.8-2,1.7L62.8,25h1.3l0.4-2.3c0-0.3,0.3-0.5,0.6-0.5h3.3c1,0,1.9-0.8,2-1.7l0.1-0.6
			c0.1-0.5,0-0.9-0.3-1.3C69.9,18.3,69.5,18.1,69,18.1z M65,19.9c0-0.3,0.3-0.5,0.6-0.5h3.3c0.1,0,0.2,0,0.3,0.1
			c0.1,0.1,0.1,0.2,0.1,0.3l-0.1,0.6c0,0.3-0.3,0.5-0.6,0.5h-3.3c-0.1,0-0.3,0-0.4,0L65,19.9z"/>
		<path class="st1" d="M77,18.1h-3.3c-1,0-1.9,0.8-2,1.7L70.7,25h5.1c1,0,1.9-0.8,2-1.7l0.6-3.3c0.1-0.5,0-0.9-0.3-1.3
			C77.9,18.3,77.5,18.1,77,18.1z M76,23.6h-3.7l0.7-3.7c0-0.3,0.3-0.5,0.6-0.5h3.3c0.1,0,0.2,0,0.3,0.1c0.1,0.1,0.1,0.2,0.1,0.3
			l-0.6,3.3C76.5,23.4,76.3,23.6,76,23.6z"/>
		<polygon class="st1" points="68,25 69.4,25 69.6,23.6 68.3,23.6 		"/>
		<path class="st1" d="M83.8,21.6c0-0.1,0.1-0.2,0.2-0.3l3.7-3.1h-1.9l-2.5,2.1c-0.2,0.2-0.4,0.4-0.5,0.6h-2l0.5-2.8h-1.3L78.7,25
			H80l0.5-2.8h2c0.1,0.2,0.2,0.4,0.3,0.6l1.8,2.2l0,0h1.8l-2.6-3.1C83.8,21.8,83.8,21.7,83.8,21.6z"/>
	</g>
	<path class="st1" d="M100.9,21.2c-0.8-0.5-2.7-1.6-5.2-3l0,0c0,0,0,0,0,0c-2.6-1.4-5.9-3-9.6-4.5c0,0,5.4,6.6,6,7.3l2.9-1.9
		l-3.7,4.2l0,0l-2.6,3c2.5-0.7,4.5-1.3,6.2-1.9l0,0c0,0,0,0,0,0c3.3-1.2,5.1-2.1,5.9-2.6C101.2,21.6,101.2,21.4,100.9,21.2z"/>
</g>
</svg>
