<?xml version="1.0" encoding="utf-8"?>
<!-- Generator: Adobe Illustrator 22.0.1, SVG Export Plug-In . SVG Version: 6.00 Build 0)  -->
<svg version="1.1" id="Layer_1" xmlns="http://www.w3.org/2000/svg" xmlns:xlink="http://www.w3.org/1999/xlink" x="0px" y="0px"
	 viewBox="0 0 110 40" style="enable-background:new 0 0 110 40;" xml:space="preserve">
<g>
	<path d="M27.4,22.5c-0.3-6.3,2.4-12.1,5.1-17.1c0.2-0.4,0.4-0.8,0.7-1.2c0.2-0.5-0.2-1.6-0.7-2.3c-0.4-0.6-0.8-0.9-1-0.8
		c-5.1,3-10.3,12.5-11.6,20.4C22.2,22.3,24.8,22.7,27.4,22.5z"/>
	<path d="M40.8,21.1c-0.3-0.9-2.3-2.8-4.9-1.2c-0.9,0.5-2,1.1-3.4,1.6c-1.3,0.5-2.9,1-4.9,1.4c-2.7,0.5-5.5,0.3-7.9-0.5
		c-0.1,0-0.3,1.1-0.3,2.6v0.4c0,1.9,0.4,4.2,1.7,4.6c2.5,0.9,7.2-1,11.4-3.4c2.9-1.6,5.4-3.4,6.9-4.6c0.2-0.2,1.1-0.9,1.4-0.2
		C40.8,21.9,40.9,21.4,40.8,21.1z"/>
	<path d="M39.3,22.9c-1.3,1-3.5,2.4-6,3.6c-0.2,2.4-0.5,4.4-0.8,6.1c-0.2,1.3-0.5,2.4-0.7,3.4c-0.1,0.5,0.2,1.2,0.7,1.8
		c0.4,0.5,0.9,0.9,1.2,0.7c1.6-0.9,5.6-7.8,7-16C40.3,22.2,39.5,22.8,39.3,22.9z"/>
	<path d="M74.5,28.6c-0.2,0-0.6,0.2-0.8,0.2c-0.8,0-1.2-0.2-1.6-0.8c-0.2-0.4-0.4-1-0.4-1.7v-9.4h2.7l0.4-1.7h-3.1v-4.1l-1.9,0.4
		v14.2c0,0.6,0,1.4,0.2,1.9c0,0.6,0.2,1,0.6,1.4c0.2,0.4,0.6,0.8,1.2,1c0.4,0.2,1,0.4,1.7,0.4h1c0.4,0,0.8-0.2,1-0.2v-1.6
		C75.1,28.6,74.7,28.6,74.5,28.6z"/>
	<path d="M62.7,18.3v-3.1h-1.7V30h1.9v-7.2c0-0.6,0-1.2,0-1.9c0.2-0.6,0.2-1,0.6-1.6c0.6-1.4,1.7-2.3,3.3-1.9c0,0,0.6-1.9,0.6-1.7
		l-1-0.2C64.6,15.3,63,16.7,62.7,18.3z"/>
	<path d="M55.9,15.3h1.9v14.8h-1.9V15.3z"/>
	<path d="M49,10.3c-0.6,0.4-1,0.8-1.2,1.6c-0.4,1.4-0.4,2.3-0.4,3.7v14.8h1.9V17.3h2.7l0.4-1.7h-3.1c0-0.6,0-0.4,0-0.8
		c0-0.6,0-1,0.2-1.6c0.2-0.4,0.4-0.8,0.6-1.2c0.4-0.4,0.8-0.4,1.4-0.4h0.8c0.2,0,0.4,0.2,0.8,0.2v-1.7c-0.6-0.2-1.4-0.2-1.9-0.2
		C50.2,9.7,49.4,9.9,49,10.3z"/>
	<path d="M56.6,9.5c-0.8,0-1.4,0.6-1.4,1.4c0,0.8,0.6,1.4,1.4,1.4c0.8,0,1.4-0.6,1.4-1.4C58,10,57.4,9.5,56.6,9.5z"/>
	<path d="M82.9,15c-0.2,0-0.2,0-0.4,0c-0.4,0-0.6,0-1,0.2c-0.6,0.2-1,0.2-1.6,0.4c-0.6,0.2-1,0.2-1.4,0.4c-0.4,0.2-0.6,0.2-0.6,0.2
		l0.4,1.4c0,0,0.2,0,0.4-0.2c0.4,0,0.6-0.2,1.2-0.2c0.4,0,1-0.2,1.4-0.2c0.4,0,0.8-0.2,1-0.2h0.4c1,0,1.7,0.2,2.3,0.8
		c0.6,0.6,0.8,1.4,0.8,2.6v1c-0.6,0-1.2,0-1.7,0s-1.2,0-1.7,0.2h-0.2c-0.6,0-1.4,0.2-1.9,0.4c-0.6,0.2-1.2,0.4-1.6,0.8
		c-0.4,0.4-0.8,0.8-1,1.4c-0.2,0.6-0.4,1.4-0.4,2.1c0,0.8,0.2,1.4,0.4,1.9s0.6,1,1,1.4c0.4,0.4,0.8,0.6,1.4,0.8
		c0.6,0.2,1.2,0.2,1.7,0.2c0.2,0,0.6,0,1-0.2c1.4-0.2,3.1-1.2,3.5-2.6v2.3H88c0,0,0-1.7,0-2.3v-7.5c0-1.7-0.4-3.1-1.2-3.9
		C85.7,15.3,84.5,15,82.9,15z M85.8,23.9c0,1.6-0.8,3.7-2.3,4.5c-0.4,0.2-0.8,0.4-1.2,0.4c-0.2,0-0.4,0-0.6,0
		c-0.8,0-1.4-0.2-1.9-0.6c-0.6-0.4-0.8-1.2-0.8-2.1c0-0.8,0.2-1.4,0.6-1.7c0.4-0.4,0.8-0.8,1.4-1c0.6-0.2,1-0.4,1.6-0.4h0.2
		c0.6,0,1.2-0.2,1.6-0.2h1.6C85.8,22.7,85.8,23.9,85.8,23.9z"/>
	<path d="M90.3,9.3h1.9v20.8h-1.9V9.3z"/>
</g>
</svg>
