<?xml version="1.0" encoding="utf-8"?>
<!-- Generator: Adobe Illustrator 22.0.1, SVG Export Plug-In . SVG Version: 6.00 Build 0)  -->
<svg version="1.1" id="Layer_1" xmlns="http://www.w3.org/2000/svg" xmlns:xlink="http://www.w3.org/1999/xlink" x="0px" y="0px"
	 viewBox="0 0 110 40" style="enable-background:new 0 0 110 40;" xml:space="preserve">
<title>logo_eboks</title>
<g>
	<path d="M15,33.5L16.9,14l3.6-0.3l-1.5,16l6.3-0.6l-0.3,3.5L15,33.5z M33.4,32c-4.7,0.4-5.6-3.2-5.4-5.2l1.3-14.1l3.6-0.3
		l-1.3,14.1c-0.2,1.8,1.4,2,2.1,1.9c0.7-0.1,2.4-0.5,2.5-2.3l1.3-14.1l3.6-0.3l-1.3,14.1C39.6,27.8,38.1,31.6,33.4,32z M51.6,30.2
		l-3.9-10.7l-1,11.2L43.1,31l1.8-19.5l3.5-0.3l3.8,11.1l1-11.5l3.5-0.3L55,29.9L51.6,30.2z M68.5,28.7l-0.7-4.4l-5.1,0.4l-1.6,4.6
		l-3.7,0.3l7-20l4.4-0.4l3.4,19L68.5,28.7z M66.2,14.2l-2.3,7l3.4-0.3L66.2,14.2z M83.3,27.3l-2.8-7.2l-1.6,0.1l-0.7,7.5l-3.6,0.3
		l1.8-19.5L82.6,8c4.8-0.4,5.3,3.3,5.2,5l-0.1,0.9c-0.1,1.4-0.9,4-3.4,5.3l3.1,7.7L83.3,27.3z M84.2,13.5c0.2-1.8-1.2-2-1.9-1.9
		l-2.5,0.2l-0.4,4.9l2.6-0.2c0.8-0.1,2.1-0.4,2.3-2.3L84.2,13.5z"/>
	<g>
		<path d="M91.7,8.4l-0.3,0l0,0.6l0.3,0c0.1,0,0.2,0,0.2-0.2V8.6C92,8.4,91.8,8.4,91.7,8.4z"/>
		<path d="M91.7,7c-1.1,0-2.1,0.9-2.2,2c-0.1,1.1,0.8,2,1.9,2c1.1,0,2.1-0.9,2.2-2S92.8,7,91.7,7z M92.4,8.6v0.1
			c0,0.2-0.1,0.4-0.4,0.6l0.4,0.7l-0.5,0l-0.3-0.6h-0.2l-0.1,0.7l-0.4,0l0.2-2L91.8,8C92.3,7.9,92.4,8.4,92.4,8.6z"/>
	</g>
</g>
</svg>
