<?xml version="1.0" encoding="utf-8"?>
<!-- Generator: Adobe Illustrator 25.1.0, SVG Export Plug-In . SVG Version: 6.00 Build 0)  -->
<svg version="1.1" id="Layer_1" xmlns="http://www.w3.org/2000/svg" xmlns:xlink="http://www.w3.org/1999/xlink" x="0px" y="0px"
	 viewBox="0 0 336.9 121.7" style="enable-background:new 0 0 336.9 121.7;" xml:space="preserve">
<style type="text/css">
	.st0{fill-rule:evenodd;clip-rule:evenodd;}
</style>
<path d="M68.5,107.7H14V14h88.6l5.1-14H0v121.7h63.4L68.5,107.7z"/>
<path class="st0" d="M336.9,73.8v5.5c0,2.6-1.4,4-4.2,4h-0.2c-2.9,0-4.2-1.3-4.2-4V68.1c0-2.5,1.4-4,4.2-4h0.2c2.9,0,4.2,1.4,4.2,4
	v2.4h-1.1v-1.9c0-2.4-0.9-3.4-3.2-3.4s-3.2,1-3.2,3.4v10.3c0,2.4,0.9,3.4,3.2,3.4s3.2-1,3.2-3.4v-4h-3.4v-1L336.9,73.8z M317.2,83.1
	h-1.1V64.3h1.1l6.7,16.2V64.3h1.1v18.8H324l-6.8-16.2V83.1z M312.8,83.1h-1.1V64.3h1.1V83.1z M300.4,83.1h-1.1V64.3h1.1l6.7,16.2
	V64.3h1.1v18.8h-1.1l-6.8-16.2L300.4,83.1z M296.8,83.1h-7.3V64.3h7.2v1h-6.1V73h5.3v1h-5.3v8h6.2V83.1z M282,73.8
	c2.4,0,3.2-1,3.2-3.4v-1.6c0-2.4-0.9-3.4-3.2-3.4h-3.2v8.5H282z M287,83.1h-1.2l-3.3-8.2h-3.7v8.2h-1.1V64.3h4.4
	c2.9,0,4.2,1.4,4.2,4v2.6c0,2.1-0.9,3.4-2.7,3.8L287,83.1z M267,78.8c0,2.4,0.9,3.4,3.2,3.4s3.2-1,3.2-3.4V68.5
	c0-2.4-0.9-3.4-3.2-3.4s-3.2,1-3.2,3.4V78.8z M265.9,68.1c0-2.6,1.4-4,4.2-4h0.2c2.9,0,4.2,1.4,4.2,4v11.2c0,2.6-1.4,4-4.2,4h-0.2
	c-2.9,0-4.2-1.4-4.2-4V68.1z M256.9,83.1V64.3h7.1v1h-6v7.8h5.2v1H258V83L256.9,83.1z M249.5,73.8c2.4,0,3.2-1,3.2-3.4v-1.6
	c0-2.4-0.9-3.4-3.2-3.4h-3.2v8.5H249.5z M254.5,83.1h-1.2l-3.3-8.2h-3.7v8.2h-1.1V64.3h4.4c2.9,0,4.2,1.4,4.2,4v2.6
	c0,2.1-0.9,3.4-2.7,3.8L254.5,83.1z M242.7,83.1h-7.3V64.3h7.2v1h-6.1V73h5.3v1h-5.3v8h6.2V83.1z M233.2,64.3L229,83.1h-1.1
	l-4.2-18.8h1.1l3.7,16.6l3.7-16.6L233.2,64.3z M221.4,83.1h-1.1V64.3h1.1V83.1z M217.1,73.8v5.5c0,2.6-1.4,4-4.2,4h-0.2
	c-2.9,0-4.2-1.3-4.2-4V68.1c0-2.5,1.4-4,4.2-4h0.2c2.9,0,4.2,1.4,4.2,4v2.4H216v-1.9c0-2.4-0.9-3.4-3.2-3.4s-3.2,1-3.2,3.4v10.3
	c0,2.4,0.9,3.4,3.2,3.4s3.2-1,3.2-3.4v-4h-3.4v-1L217.1,73.8z M205.6,70.7h-1.1v-2.3c0-2.2-0.8-3.3-3.1-3.3s-3.1,1-3.1,3.3v1.3
	c0,1.5,0.5,1.8,2.1,2.7l3.1,1.6c1.2,0.5,2,1.7,2.1,3v2.4c0,2.6-1.3,3.9-4.1,3.9h-0.1c-2.9,0-4.1-1.3-4.1-3.9v-3h1.1v2.6
	c0,2.2,0.8,3.3,3.1,3.3s3.1-1.1,3.1-3.3v-1.5c0-1.5-0.6-2-2.2-2.8l-3-1.6c-1.5-0.8-2.1-1.5-2.1-2.9V68c0-2.5,1.5-3.9,4.1-3.9h0.1
	c2.6,0,4.1,1.3,4.1,3.9L205.6,70.7z M193.4,68.7c0-2.4-0.9-3.4-3.2-3.4H187V82h3.1c2.4,0,3.2-1,3.2-3.4L193.4,68.7z M190.3,64.3
	c2.9,0,4.2,1.4,4.2,4v10.8c0,2.6-1.4,4-4.2,4h-4.3V64.3L190.3,64.3z M178.4,82c2.4,0,3.2-1,3.2-3.5V64.3h1.1v14.8c0,2.7-1.4,4-4.3,4
	h-0.6V82H178.4z M176.5,83h-7.3V64.3h7.2v1h-6.2V73h5.3v1h-5.3v8h6.2L176.5,83z M165.2,76.1c0-1.5-1-2.2-3-2.2h-3.4V82h3.4
	c2.2,0,3-1,3-3.1V76.1z M158.9,65.3v7.5h3.3c2,0,3-0.7,3-2.2v-2.1c0-2.1-0.7-3.1-3-3.1L158.9,65.3z M166.2,70.3
	c0,1.2-0.4,2.8-2.1,2.9c1.8,0.3,2.2,1.8,2.2,3v3.1c0,2.1-1.3,3.7-4.2,3.7h-4.4V64.3h4.4c2.9,0,4,1.6,4,3.7V70.3z M150.3,73.7
	c2.4,0,3.2-1,3.2-3.4v-1.5c0-2.4-0.9-3.4-3.2-3.4h-3.2v8.5L150.3,73.7z M155.3,83h-1.2l-3.3-8.2h-3.7V83H146V64.3h4.4
	c2.9,0,4.2,1.4,4.2,4v2.6c0,2.1-0.9,3.4-2.7,3.8L155.3,83z M136.4,77h5l-2.5-10.8L136.4,77z M142.8,83l-1.1-5h-5.5l-1.1,5h-1.1
	l4.4-18.8h1.1l4.4,18.8H142.8z M189.8,57.2h-1.2l-4.3-10.6l-2.7,4.2v6.5h-1.1V38.5h1.1V49l6.6-10.5h1.2l-4.5,7L189.8,57.2z
	 M177.6,44.9h-1.1v-2.4c0-2.2-0.8-3.3-3.1-3.3s-3.1,1-3.1,3.3v1.3c0,1.5,0.5,1.8,2.1,2.7l3.1,1.6c1.2,0.5,2,1.7,2.1,3v2.4
	c0,2.6-1.3,3.9-4.1,3.9h-0.1c-2.9,0-4.1-1.3-4.1-3.9v-3h1.1v2.6c0,2.2,0.8,3.3,3.1,3.3s3.1-1.1,3.1-3.3v-1.5c0-1.5-0.6-2-2.2-2.8
	l-3-1.6c-1.5-0.8-2.1-1.5-2.1-2.9v-2.1c0-2.5,1.5-3.9,4.1-3.9h0.1c2.6,0,4.1,1.3,4.1,3.9L177.6,44.9z M158.6,57.3h-1.1V38.5h1.1
	l6.7,16.2V38.5h1.1v18.8h-1.1l-6.8-16.2L158.6,57.3z M147.9,51.3h5l-2.5-10.8L147.9,51.3z M154.2,57.3l-1.1-5h-5.5l-1.1,5h-1.1
	l4.4-18.8h1.1l4.4,18.8H154.2z M142.5,42.9c0-2.4-0.9-3.4-3.2-3.4h-3.1v16.7h3.1c2.4,0,3.2-1,3.2-3.4V42.9z M139.4,38.5
	c2.9,0,4.2,1.4,4.2,4v10.8c0,2.6-1.4,4-4.2,4h-4.3V38.5L139.4,38.5z"/>
<path d="M80.4,53.8c0.2-1.2,0.3-2.4,0.3-3.6c0.1-2.8-0.8-5.6-2.6-7.8c-2.4-2.7-6.3-4.1-11.9-4.1H53.4l-7.9,45h13.4
	c5.2,0,9.5-1.4,12.8-4.2c3.3-2.9,5.6-6.9,6.2-11.3L80.4,53.8z M69.9,53.8l-2.3,12.3c-0.1,0.8-0.3,1.7-0.6,2.5
	c-1.3,4-4.2,5.9-8.5,5.9h-1.2L62.1,47h3.2c2,0,3.4,0.5,4.1,1.6C70.1,49.6,70.3,51.4,69.9,53.8L69.9,53.8z M93.8,38.3l-16.4,45h11.1
	l3.1-9.8h8v9.8h9.7v-45H93.8z M99.7,64.8h-5.4l5-16.9h0.4L99.7,64.8z"/>
</svg>
