<?xml version="1.0" encoding="utf-8"?>
<!-- Generator: Adobe Illustrator 22.0.1, SVG Export Plug-In . SVG Version: 6.00 Build 0)  -->
<svg version="1.1" id="Layer_1" xmlns="http://www.w3.org/2000/svg" xmlns:xlink="http://www.w3.org/1999/xlink" x="0px" y="0px"
	 viewBox="0 0 110 40" style="enable-background:new 0 0 110 40;" xml:space="preserve">
<style type="text/css">
	.st0{fill:none;}
	.st1{fill:#1F1F1F;}
	.st2{filter:url(#Adobe_OpacityMaskFilter);}
	.st3{fill:#FFFFFF;}
	.st4{mask:url(#chefmade-logo_svg__b_2_);fill:#1F1F1F;}
</style>
<path class="st0" d="M0,0h110v40H0V0z"/>
<g>
	<path class="st1" d="M22.9,25.8c-0.2,0.1-0.3,0.2-0.4,0.3c-0.1,0.1-0.3,0.3-0.4,0.4c-0.6,0.4-1.6,0.3-1.9-0.3
		c-0.2-0.4-0.3-0.7-0.4-1.1c-0.5-2-0.6-5-0.7-7.2c0-0.6,0-1.3,0.1-2.1c0.1-0.8,0.3-1.7,0.6-2.5c0.3-0.7,1.7-0.8,2.2-0.1
		c0.1,0.2,0.2,0.5,0.3,0.7c0.1,0.3,0.3,0.5,0.7,0.5c0.5-0.1,0.8-0.3,0.8-0.7c0.1-1-0.6-2-1.6-2.2c-2.1-0.5-5.4,0.1-6.3,3
		c-0.5,1.5-0.6,4.1-0.6,5.6c0,1.7,0.1,3.3,0.7,4.9c0.4,1.1,0.9,2.1,2.1,2.6c0.9,0.4,2.4,0.3,3.4,0.1c0.9-0.2,1.7-0.4,2.2-1.1
		c0.2-0.2,0.4-0.6,0.1-0.9C23.5,25.6,23.1,25.7,22.9,25.8"/>
	<g transform="translate(69.043 1.42)">
		<defs>
			<filter id="Adobe_OpacityMaskFilter" filterUnits="userSpaceOnUse" x="-2.4" y="10.3" width="17" height="17.7">
				<feColorMatrix  type="matrix" values="1 0 0 0 0  0 1 0 0 0  0 0 1 0 0  0 0 0 1 0"/>
			</filter>
		</defs>
		<mask maskUnits="userSpaceOnUse" x="-2.4" y="10.3" width="17" height="17.7" id="chefmade-logo_svg__b_2_">
			<g class="st2">
				<path id="chefmade-logo_svg__a_2_" class="st3" d="M-2.4,10.3h17v17.7h-17V10.3z"/>
			</g>
		</mask>
		<path class="st4" d="M10.2,22.3c-0.1,0.1-0.2,0.2-0.3,0.3c-0.2,0.1-0.5,0.3-0.6,0.2C9.2,22.7,9,22.4,9,22.2c0-1.3,0.2-2.5,0.9-3.6
			c0.1-0.2,0.5-0.5,0.6-0.4c0.2,0.1,0.4,0.4,0.5,0.6c0.1,0.2,0.1,0.5,0.1,0.7C11.1,20.6,10.8,21.5,10.2,22.3 M-0.6,22l-0.2,0
			c0-0.2-0.1-0.4-0.1-0.6c0-1.6,0.8-2.8,2-3.8c0.1-0.1,0.2-0.2,0.3-0.2c0,0,0.1,0,0.2-0.1C1,19,0.5,20.6-0.6,22 M14.5,13.4
			c0-0.7-0.3-1.5-0.5-2.2c-0.1-0.3-0.5-0.6-0.9-0.8c-0.6-0.2-1,0-1.1,0.7c-0.1,0.8-0.2,1.6-0.3,2.4c-0.1,1.2-0.1,2.4-0.1,3.5
			c-0.5,0-1,0-1.4,0c-1,0.1-1.9,0.3-2.4,1.3c-0.3,0.6-0.7,1.3-1.1,1.8c-0.6,0.8-1.2,1.7-1.8,2.5c-0.1,0.2-0.4,0.3-0.7,0.5
			c0-0.3,0-0.4,0-0.6c0-1.3,0-2.7-0.1-4c-0.1-2-1.6-3-3.4-2.1C-1.7,17.4-3,20.7-2.2,23c0.3,0.7,1,1,1.6,0.6c0.4-0.3,0.7-0.6,1-1
			c0.4-0.6,0.7-1.3,1.1-1.9c0,0.1,0,0.3,0,0.4c0.1,1,0.2,2,0.6,2.9c0.6,1.2,1.7,1.5,2.7,0.6c0.7-0.6,1.3-1.5,1.9-2.2
			c0.1-0.1,0.2-0.2,0.3-0.4C7,22.4,7,22.7,7.1,23c0.1,0.7,0.5,1.2,1.2,1.4c0.8,0.3,1.6,0.2,2.3-0.4c0.3-0.3,0.7-0.6,1-0.8
			c0,0.7,0.1,1.6,0.2,2.4c0.1,0.7,0.2,1.3,0.4,1.9c0.2,0.5,0.5,0.6,1,0.5c0.6-0.1,0.9-0.6,1-1.1c0.3-1.2,0.2-2.5,0.1-3.7
			c0-1.5,0-3.1,0-4.6C14.4,16.8,14.5,15.1,14.5,13.4"/>
	</g>
	<path class="st1" d="M87.5,18.8c0-0.2,0.2-0.4,0.4-0.5c0.1,0,0.3,0.1,0.4,0.1c0.3,0.6-0.2,1.6-0.9,1.8
		C87.3,19.8,87.4,19.3,87.5,18.8 M93.2,20.3c-0.2,0.1-0.4,0.1-0.5,0.3c-0.2,0.2-0.3,0.4-0.4,0.6c-0.2,0.4-0.5,0.7-0.7,1.1
		c-0.8,1.1-1.8,2.1-3,2.7c-0.8,0.4-1.2,0.2-1.3-0.7c-0.1-0.9,0-1.9,0-2.9c1.1-0.2,1.7-0.8,2-1.7c0.1-0.3,0.1-0.6,0.1-0.9
		c0-0.9-0.5-1.3-1.3-1.4c-1.2-0.1-2,0.6-2.4,1.6c-0.9,2-1,4-0.5,6.1c0.3,1.1,1,1.9,2.2,2c0.8,0.1,1.6-0.2,2.2-0.6
		c1.5-1,2.5-2.5,3.3-4.2c0.2-0.5,0.4-0.9,0.5-1.4C93.4,20.7,93.3,20.5,93.2,20.3 M39.4,18.5c0.1-0.1,0.3-0.2,0.4-0.1
		c0.1,0,0.1,0.2,0.2,0.4c0.1,0.8-0.3,1.4-1,1.6L39.4,18.5z M62.6,11.2c-0.3,0.3-0.6,0.6-0.8,0.9c-1.1,1.3-2,2.7-2.7,4.2
		C59,16.2,59,16.1,58.9,16c-0.7-1.4-1.6-2.7-2.7-3.8c-0.6-0.6-1.3-1.3-2.2-1.5c-0.8-0.2-1.3,0-1.5,0.8c-0.1,0.8-0.2,1.6-0.1,2.4
		c0,1.8,0.1,3.7,0.2,5.5l-0.1-0.1c-0.2,0.1-0.3,0.2-0.5,0.4c-0.6,0.5-1.1,1-1.7,1.5c-1,0.7-2.1,1.2-3.3,1.5c0-0.1-0.1-0.1-0.1-0.2
		c-0.2-2.4-0.4-4.9,0-7.3c0.1-0.7,0.4-1.4,0.6-2.1c0.1-0.3,0.4-0.6,0.8-0.3c0.2,0.1,0.4,0,0.4-0.2c0.1-0.5-0.1-1-0.6-1.2
		c-0.7-0.3-1.4-0.2-2,0.3c-0.6,0.5-1,1.1-1.3,1.8c-0.8,1.8-1,3.8-0.8,5.7c0.1,1.4-0.3,2.5-1.2,3.5c-0.8,0.9-1.6,1.8-2.7,2.3
		c-0.8,0.4-1.2,0.2-1.3-0.7c-0.1-0.9,0-1.8,0-2.7c0-0.1,0.1-0.2,0.2-0.3c1.4-0.2,2-1.7,1.9-3c0-0.4-0.3-0.8-0.7-0.8
		c-0.4-0.1-0.9-0.2-1.4-0.1c-0.9,0.2-1.4,0.9-1.8,1.7c-0.2,0.6-0.3,1.3-0.6,1.9c-0.8,1.4-1.8,2.8-3.1,3.9c-0.3,0.2-0.6,0.3-1,0.5
		c0-0.3,0-0.4,0-0.6c0-0.8,0.1-1.6,0.1-2.4c0-0.9-0.4-1.7-1.4-2c-1-0.4-2-0.3-2.8,0.6c-0.1,0.1-0.1,0.2-0.2,0.3l-0.1-0.1
		c0,0,0-0.1,0-0.1c0.2-2.5,0.3-5,0.5-7.5c0-0.5,0-1.1,0-1.6c0-0.5-0.4-0.8-0.9-0.8c-0.5,0-0.9,0.2-1,0.6c-0.3,1.5-0.7,3-0.9,4.5
		c-0.3,1.9-0.5,3.8-0.7,5.7c-0.2,2-0.3,4-0.4,6.1c0,0.3,0,0.5,0.1,0.8c0.1,0.2,0.3,0.4,0.5,0.4c0.6,0,1.6-0.7,1.7-1.2
		c0.2-0.8,0.4-1.6,0.5-2.4c0.1-0.5,0-1.1,0.3-1.6c0.4-0.7,0.9-1.4,1.4-2c0.1-0.2,0.4-0.3,0.7-0.5c0,0.4,0,0.7,0,1
		c0,0.5-0.1,0.9,0,1.4c0,2,1.1,2.9,3.1,2.7c1.1-0.1,1.9-0.8,2.5-1.6c0.3-0.3,0.6-0.7,0.9-1.1c0.1,0.4,0.1,0.8,0.2,1.1
		c0.3,1.1,1,2,2.2,2.1c0.8,0.1,1.5-0.2,2.2-0.6c1.2-0.8,2.1-1.9,2.8-3.2c0.1-0.1,0.2-0.2,0.3-0.4c0.2,3.1,0.4,2.9,0.6,5.9
		c0,0.6,0.4,0.7,0.8,0.5c0.9-0.5,1.6-1.1,1.7-2.1c0.1-1.2-0.2-2.2-0.3-3c2.3-0.9,4.2-2.1,5.4-4.2c0,0.9,0,1.9,0,2.9
		c0.1,1.2,0.1,2.4,0.3,3.6c0.1,0.7,0.7,1.2,1.3,1.3c0.4,0.1,0.6-0.1,0.6-0.5c0.1-0.6,0.1-1.2,0.2-1.8c0.4-3.4,0.6-6.8,0.7-10.3
		c0-0.1,0-0.1,0-0.2l0.1,0c0.6,1.2,1.2,2.4,1.8,3.6c0.1,0.2,0.2,0.5,0.3,0.7c0.2,0.4,0.6,0.5,0.9,0.3c0.4-0.2,0.7-0.4,1-0.8
		c0.7-0.9,1.2-1.9,1.9-2.9c0.1-0.1,0.2-0.2,0.3-0.5c0,0.3,0,0.4,0,0.6c0,3.1,0,6.1,0.1,9.2c0,0.7,0.2,1.5,0.3,2.2
		c0.1,0.4,0.3,0.5,0.7,0.4c0.6-0.1,1-0.5,1.3-1.1c0.5-0.9,0.7-1.9,0.7-2.9c0.1-3.5,0.2-6.9,0.3-10.4c0-0.7-0.1-1.4-0.5-2
		C64.3,10.7,63.3,10.5,62.6,11.2L62.6,11.2z M92.1,18.8L92.1,18.8L92.1,18.8L92.1,18.8l-0.1,0l0,0l0,0v-0.1l0,0v0l0,0l0-0.1l0,0
		v-0.1l0,0l0-0.1v-0.2l0-0.1v0l0,0V18l0-0.1l0,0v-0.1l0-0.1v0l0,0l0,0l0,0v0l0,0v0l0,0l0,0l0,0l0,0l-0.1,0l0,0l0,0h0l-0.2,0l-0.1,0
		l0,0l0,0l0,0l0,0l0-0.1l0-0.1l0,0l0,0l0,0l0,0l0,0h0l0,0h0.1l0,0h0.1l0,0H92l0.1,0h0.1l0.1,0l0,0l0,0l0.1,0l0.1,0l0.2,0l0.1,0l0,0
		l0.1,0l0,0.1v0l0,0l0,0l0,0l0,0l0,0l0,0l-0.1,0l-0.1,0l-0.1,0l-0.2,0l0,0l0,0l0,0.1v0.1l0,0l0,0l0,0l0,0.1l0,0.1v0l0,0l0,0l0,0l0,0
		V18l0,0l0,0l0,0l0,0l0,0l0,0v0l0,0v0l0,0l0,0l0,0l0,0.1v0l0,0l0,0l0,0l0,0v0.1l0,0l0,0v0l0,0l0,0l0,0l0,0l0,0l0,0l0,0L92.1,18.8
		L92.1,18.8L92.1,18.8z M93.1,18.8L93.1,18.8L93.1,18.8L93,18.7l0,0v0l0,0l0,0l0-0.1l0,0l0-0.1v-0.1l0,0l0-0.1l0-0.1v0l0-0.1v-0.1
		l0,0l0-0.1v-0.1l0-0.1v-0.1l0,0v-0.1l0-0.1l0,0v0l0,0l0,0l0,0l0,0l0,0h0l0,0l0,0l0,0l0,0l0,0l0,0l0,0.1l0,0.1l0,0.1l0,0.1l0,0.1
		l0,0.1l0,0l0,0.1l0,0l0,0l0,0l0,0l0,0.1l0,0.1l0,0l0,0l0,0l0,0l0,0l0,0.1l0,0l0,0l0,0l0,0l0,0l0,0l0,0l0,0l0-0.1l0-0.1l0,0l0,0l0,0
		l0,0l0,0l0,0l0,0l0,0l0,0l0-0.1l0,0l0,0l0,0l0,0l0-0.1l0-0.1l0-0.1l0-0.1l0,0l0,0l0,0l0,0l0,0l0-0.1l0,0l0,0l0.1,0l0,0l0,0l0,0l0,0
		l0,0v0.2l0,0l0,0.1v0.2l0,0.1v0l0,0l0,0.1l0,0.1l0,0.1v0.2l0,0.1v0l0,0l0,0.1l0,0l0,0.1l0,0.1l0,0.1l0,0l0,0l0,0l0,0l0,0l0,0h0l0,0
		l0,0l0,0l0-0.1l0-0.1l0-0.1v-0.1l0-0.1v-0.2l0-0.1l0-0.1v0l0-0.1v0l0,0v-0.1l0,0l0,0l0,0l0,0l0,0l0,0l0,0l0,0l0,0l0,0l0,0.1l0,0
		l0,0l0,0l0,0l0,0l0,0.1l0,0l0,0l0,0.1l0,0l0,0l0,0l0,0l0,0l0,0l0,0l0,0l0,0l0,0l0,0l0,0l0,0l0,0l0,0l0,0l0-0.1l0,0l0,0l0-0.1l0,0
		l0,0l0,0l0,0l0-0.1l0,0l0-0.1l0-0.1l0,0l0,0l0-0.1l0,0l0,0l0,0l0-0.1l0-0.1l0,0l0,0v0l0,0.1v0l0,0v0l0,0l0,0.1v0l0,0.1l0,0v0.1
		l0,0.1l0,0l0,0v0l0,0.1v0l0,0.1l0,0l0,0L93.1,18.8L93.1,18.8L93.1,18.8z"/>
</g>
</svg>
