<?xml version="1.0" encoding="utf-8"?>
<!-- Generator: Adobe Illustrator 24.3.0, SVG Export Plug-In . SVG Version: 6.00 Build 0)  -->
<svg version="1.1" id="Layer_1" xmlns="http://www.w3.org/2000/svg" xmlns:xlink="http://www.w3.org/1999/xlink" x="0px" y="0px"
	 viewBox="0 0 110 40" style="enable-background:new 0 0 110 40;" xml:space="preserve">
<g>
	<path d="M31.2,19c-0.7-0.5-1.4-1-2.3-1.4c-0.9-0.4-1.7-0.6-2.5-0.6c-0.5,0-1,0-1.6,0.1c-0.5,0.1-1,0.3-1.3,0.6
		c-0.4,0.3-0.6,0.6-0.6,1.1c0,0.5,0.2,0.8,0.6,1.1c0.4,0.3,0.9,0.5,1.5,0.7c0.6,0.2,1.3,0.3,2,0.5c0.7,0.2,1.5,0.3,2.2,0.6
		c0.7,0.2,1.4,0.5,1.9,0.8c0.6,0.3,1.1,0.8,1.4,1.3c0.4,0.5,0.5,1.1,0.5,1.9c0,1-0.3,1.9-0.9,2.6c-0.6,0.7-1.4,1.2-2.3,1.6
		c-1,0.4-2,0.6-3.1,0.6c-1.4,0-2.7-0.2-3.9-0.6c-1.2-0.4-2.3-1.1-3.2-2.2l2-1.8c0.6,0.6,1.3,1.2,2.2,1.5c0.8,0.4,1.8,0.6,2.9,0.6
		c0.5,0,1-0.1,1.5-0.2c0.5-0.1,1-0.3,1.3-0.6c0.4-0.3,0.6-0.7,0.6-1.2c0-0.4-0.2-0.8-0.6-1.1s-0.9-0.5-1.5-0.6
		c-0.6-0.2-1.3-0.3-2-0.5c-1.1-0.2-2-0.5-3-0.8c-0.9-0.3-1.7-0.8-2.3-1.4c-0.6-0.6-0.8-1.5-0.8-2.7c0-0.9,0.3-1.7,0.8-2.3
		c0.6-0.7,1.4-1.2,2.3-1.5c1-0.4,2-0.6,3.2-0.6c0.7,0,1.5,0.1,2.3,0.3c0.8,0.2,1.6,0.4,2.3,0.8c0.8,0.4,1.4,0.8,1.9,1.4L31.2,19z"/>
	<path d="M38.9,24.5c0.3,0.5,0.7,1,1.2,1.5c0.5,0.5,1,0.9,1.6,1.3c0.6,0.4,1.4,0.5,2.2,0.5c0.7,0,1.4-0.1,2.1-0.4
		c0.7-0.3,1.3-0.7,1.8-1.3s0.7-1.3,0.7-2.2c0-0.8-0.2-1.5-0.6-2c-0.4-0.5-0.9-0.9-1.5-1.1c-0.6-0.2-1.2-0.4-1.8-0.4
		c-0.6,0-1.2,0.1-1.7,0.2c-0.5,0.1-1.1,0.3-1.5,0.5l-1-2.2l6-6.2h-8.7V9.8h12.9l0.6,1.5l-5.9,6.1c1.1,0,2.2,0.3,3.1,0.8
		c1,0.5,1.7,1.3,2.3,2.2c0.6,0.9,0.9,2,0.9,3.2c0,1.4-0.4,2.6-1.1,3.7c-0.7,1-1.6,1.8-2.8,2.4c-1.1,0.6-2.4,0.8-3.8,0.8
		c-1.2,0-2.3-0.2-3.2-0.6c-0.9-0.4-1.7-0.9-2.4-1.6c-0.7-0.7-1.3-1.4-1.8-2.2L38.9,24.5z"/>
	<path d="M62.8,30.2c-1.4,0-2.6-0.3-3.8-0.9c-1.1-0.6-2.1-1.4-2.7-2.5c-0.7-1.1-1-2.3-1-3.8c0-1,0.2-2,0.6-3
		c0.4-1.1,0.9-2.1,1.5-3.2c0.6-1.1,1.3-2.1,2-3l3.1-4.3h3.3l0.1,0.3l-4,5.4c-0.3,0.4-0.6,0.9-0.9,1.3c0.4-0.2,0.8-0.3,1.3-0.4
		c0.5-0.1,1-0.1,1.5-0.1c1.2,0,2.3,0.3,3.4,0.9c1,0.6,1.8,1.4,2.5,2.4c0.6,1,0.9,2.1,0.9,3.4c0,1.4-0.3,2.6-0.9,3.8
		c-0.6,1.1-1.5,2.1-2.6,2.8C65.7,29.9,64.3,30.2,62.8,30.2z M62.8,27.3c0.8,0,1.5-0.2,2.2-0.5c0.7-0.4,1.3-0.8,1.7-1.5
		c0.4-0.6,0.6-1.4,0.6-2.3c0-0.7-0.2-1.3-0.6-2c-0.4-0.6-0.9-1.2-1.5-1.6c-0.7-0.4-1.4-0.6-2.3-0.6c-1,0-1.8,0.2-2.5,0.6
		c-0.7,0.4-1.2,0.9-1.6,1.5c-0.4,0.6-0.6,1.3-0.6,2c0,0.8,0.2,1.5,0.5,2.1c0.4,0.6,0.9,1.2,1.6,1.6C61,27.1,61.8,27.3,62.8,27.3z"/>
	<path d="M82.4,30.5c-1.8,0-3.3-0.4-4.5-1.3c-1.2-0.9-2.1-2.2-2.7-3.7c-0.6-1.6-0.9-3.4-0.9-5.4s0.3-3.9,0.9-5.4
		c0.6-1.6,1.5-2.8,2.7-3.7c1.2-0.9,2.7-1.4,4.5-1.4c1.8,0,3.2,0.5,4.4,1.4c1.2,0.9,2.1,2.1,2.7,3.7c0.6,1.6,0.9,3.4,0.9,5.4
		s-0.3,3.9-0.9,5.4c-0.6,1.6-1.5,2.8-2.7,3.7C85.7,30.1,84.2,30.5,82.4,30.5z M82.4,27.7c1.6,0,2.8-0.7,3.7-2
		c0.9-1.3,1.3-3.2,1.3-5.7s-0.4-4.3-1.3-5.7c-0.9-1.3-2.1-2-3.7-2c-1.6,0-2.9,0.7-3.8,2c-0.9,1.3-1.3,3.2-1.3,5.7s0.4,4.3,1.3,5.7
		C79.5,27,80.8,27.7,82.4,27.7z"/>
	<path d="M37.6,12.7h8.7h3.4l1.3-1.4l-0.6-1.5H37.6V12.7z"/>
</g>
</svg>
