<?xml version="1.0" standalone="no"?>
<!DOCTYPE svg PUBLIC "-//W3C//DTD SVG 1.1//EN" "http://www.w3.org/Graphics/SVG/1.1/DTD/svg11.dtd" >
<svg xmlns="http://www.w3.org/2000/svg" xmlns:xlink="http://www.w3.org/1999/xlink" version="1.1">
<metadata></metadata>
<defs>
<font id="centrale_sans_mediummedium" horiz-adv-x="1271" >
<font-face units-per-em="2048" ascent="1536" descent="-512" />
<missing-glyph horiz-adv-x="512" />
<glyph unicode="&#xfb01;" horiz-adv-x="1175" d="M61 901v133l162 31v94q0 176 111.5 276.5t288.5 100.5q180 0 346 -92l-82 -150q-123 57 -254 58q-98 0 -144.5 -58.5t-46.5 -132.5v-96h594v-1065h-217v901h-377v-901h-219v901h-162z" />
<glyph unicode="&#xfb02;" horiz-adv-x="1224" d="M61 901v133l162 31v78q0 180 114 286.5t292 106.5q172 0 285.5 -106.5t113.5 -286.5v-901q0 -43 45 -43q39 0 88 6v-176q-10 -6 -68.5 -17.5t-105.5 -11.5q-78 0 -128 49t-50 131v981q0 88 -50 139.5t-130 51.5q-76 0 -131.5 -52.5t-55.5 -138.5v-96h189v-164h-189v-901 h-219v901h-162z" />
<glyph unicode="&#xfb03;" horiz-adv-x="1759" d="M61 901v133l162 31v96q0 170 73 257t243 87q72 0 141 -16l-23 -172q-49 6 -90 6q-76 0 -100.5 -44t-24.5 -116v-98h365v94q0 176 111.5 276.5t287.5 100.5q180 0 346 -92l-82 -150q-123 57 -253 58q-98 0 -144.5 -58.5t-46.5 -132.5v-96h594v-1065h-217v901h-377v-901 h-219v901h-365v-901h-219v901h-162z" />
<glyph unicode="&#xfb04;" horiz-adv-x="1808" d="M61 901v133l162 31v96q0 166 72 255t242 89q78 0 143 -16l-23 -172q-49 6 -90 6q-125 0 -125 -160v-98h365v78q0 180 113.5 286.5t287.5 106.5t289 -106.5t115 -286.5v-901q0 -43 53 -43q31 0 80 6v-176q-10 -6 -67.5 -17.5t-100.5 -11.5q-84 0 -134 49t-50 131v981 q0 88 -51.5 139.5t-127.5 51.5q-78 0 -133 -52.5t-55 -138.5v-96h188v-164h-188v-901h-219v901h-365v-901h-219v901h-162z" />
<glyph horiz-adv-x="0" />
<glyph unicode="&#xd;" horiz-adv-x="681" />
<glyph unicode=" "  horiz-adv-x="512" />
<glyph unicode="&#x09;" horiz-adv-x="512" />
<glyph unicode="&#xa0;" horiz-adv-x="512" />
<glyph unicode="!" horiz-adv-x="548" d="M139 114.5q0 57.5 40.5 95.5t99.5 38q57 0 95 -38t38 -95.5t-38 -95t-95 -37.5q-59 0 -99.5 37.5t-40.5 95zM141 1434h265l-46 -994h-174z" />
<glyph unicode="&#x22;" horiz-adv-x="903" d="M139 852l2 582h250l-110 -582h-142zM563 852l2 582h250l-110 -582h-142z" />
<glyph unicode="#" horiz-adv-x="1626" d="M102 324l35 182h262l74 405h-260l33 185h258l69 338h187l-68 -338h383l68 338h186l-67 -338h262l-35 -185h-256l-74 -405h262l-32 -182h-263l-65 -324h-184l65 324h-389l-64 -324h-188l68 324h-267zM588 506h385l71 405h-385z" />
<glyph unicode="$" horiz-adv-x="1175" d="M92 104l84 191q190 -104 404 -105q137 0 212.5 48.5t75.5 138.5q0 72 -56 121t-141 73.5t-183.5 60.5t-183.5 78t-141.5 130t-56.5 211q0 176 110 279.5t308 121.5v178h144v-178q190 -14 368 -104l-78 -183q-178 80 -354 80q-127 0 -200.5 -48t-73.5 -138 q0 -61 42 -106.5t109.5 -73t148.5 -53t161.5 -59.5t148.5 -78t110 -122t42 -182q0 -174 -112 -276.5t-312 -124.5v-179h-144v177q-233 14 -432 122z" />
<glyph unicode="%" horiz-adv-x="1705" d="M100 1110q0 154 92.5 252t240 98t238.5 -97t91 -251q0 -150 -93.5 -248t-240.5 -98q-145 0 -236.5 97.5t-91.5 246.5zM272 1114q0 -90 45 -143t115 -53q74 0 115 52t41 140q0 92 -44 145.5t-116 53.5t-114 -52.5t-42 -142.5zM346 0l823 1434h185l-822 -1434h-186z M944 315q0 154 94.5 252.5t241.5 98.5q145 0 235.5 -98.5t90.5 -248t-92.5 -248t-239.5 -98.5q-145 0 -237.5 96.5t-92.5 245.5zM1120 319.5q0 -90.5 44 -142.5t114 -52q72 0 114 52t42 138q0 92 -44 146.5t-116 54.5q-74 0 -114 -53t-40 -143.5z" />
<glyph unicode="&#x26;" horiz-adv-x="1329" d="M90 420q0 133 71.5 225t203.5 176q-6 8 -31 39t-32 40t-24.5 35t-24.5 41t-16.5 39.5t-12.5 48t-3 50.5q0 145 106.5 232.5t237.5 87.5t238.5 -86t107.5 -232q0 -98 -67.5 -188t-186.5 -158l295 -340q55 96 60 215h170q0 -90 -24.5 -181t-49.5 -136l-25 -47l244 -281 h-244l-122 143q-152 -143 -394 -143q-186 0 -331.5 112.5t-145.5 307.5zM291 426q0 -104 84 -163.5t196 -59.5q158 0 254 90l-344 391q-190 -106 -190 -258zM420 1104q0 -14 3 -29.5t6 -27t12.5 -26.5t13.5 -22.5t18 -24t19.5 -22.5t22.5 -25.5t22 -23.5q180 86 180 207 q0 63 -44.5 98t-105.5 35q-63 0 -105 -40t-42 -99z" />
<glyph unicode="'" horiz-adv-x="479" d="M139 852l4 582h250l-112 -584q-23 0 -70 1t-72 1z" />
<glyph unicode="(" horiz-adv-x="716" d="M88 582q0 154 47 297t123 248.5t153.5 180.5t157.5 126l101 -129q-59 -51 -95 -84t-92.5 -102.5t-87 -138.5t-55.5 -174.5t-25 -225.5q-2 -123 22.5 -229.5t55.5 -176.5t88.5 -140.5t92 -104t96.5 -87.5l-101 -131q-82 53 -158.5 128t-152.5 182.5t-123 254t-47 306.5z " />
<glyph unicode=")" horiz-adv-x="716" d="M45 -158q78 66 124 114t108.5 139t93 212t30.5 273q0 121 -24.5 226t-55 174t-87 138.5t-92.5 102t-95 84.5l98 129q80 -51 158 -126t155 -180.5t124 -249t47 -296.5q0 -160 -47 -306.5t-124 -254t-154 -182.5t-159 -128z" />
<glyph unicode="*" horiz-adv-x="890" d="M125 1106l235 104l-235 107l70 119l211 -152l-29 256h137l-27 -256l209 152l70 -119l-236 -107l236 -104l-70 -121l-209 152l27 -256h-137l29 256l-211 -152z" />
<glyph unicode="+" horiz-adv-x="1024" d="M111 606v150h323v325h154v-325h325v-150h-325v-327h-154v327h-323z" />
<glyph unicode="," horiz-adv-x="532" d="M115 112.5q0 55.5 40 94.5t95 39q80 0 127 -60.5t47 -140.5q0 -205 -246 -328l-57 90q10 6 29.5 20.5t51 43.5t53 65.5t21.5 71.5q-18 -18 -49 -18q-55 0 -83.5 33.5t-28.5 89z" />
<glyph unicode="-" horiz-adv-x="1015" d="M135 612v148h746v-148h-746z" />
<glyph unicode="." horiz-adv-x="497" d="M115 123q0 55 39 94t94 39q57 0 96 -39t39 -94q0 -53 -40 -93t-95 -40t-94 39t-39 94z" />
<glyph unicode="/" horiz-adv-x="1019" d="M74 -72l688 1571h184l-690 -1571h-182z" />
<glyph unicode="0" horiz-adv-x="1425" d="M113 713q0 324 165.5 531.5t438.5 207.5q268 0 432 -206t164 -525q0 -324 -165 -531.5t-435 -207.5q-268 0 -434 210.5t-166 520.5zM342 716.5q0 -237.5 101.5 -387t273.5 -149.5q168 0 267 147.5t99 385t-101 389t-269 151.5t-269.5 -149.5t-101.5 -387z" />
<glyph unicode="1" horiz-adv-x="718" d="M35 1243l340 191h157v-1434h-210v1163l-5 6l-202 -88z" />
<glyph unicode="2" horiz-adv-x="1189" d="M96 0v178l463 453q219 211 219 383q0 111 -78.5 178.5t-189.5 67.5q-150 2 -328 -72l-73 158q219 115 419 114q207 0 339 -123t132 -321q0 -260 -311 -543l-317 -289h678v-184h-953z" />
<glyph unicode="3" horiz-adv-x="1128" d="M68 88l79 154q141 -68 318 -68q139 0 233.5 72.5t94.5 191.5q0 113 -87.5 184.5t-224.5 71.5h-164l2 160h168q98 0 177 51t79 154q0 98 -77.5 147t-212.5 49q-121 0 -275 -47l-74 168q221 84 394 84q201 0 328.5 -104.5t127.5 -268.5q0 -111 -59 -192.5t-158 -116.5 q127 -39 201 -136t74 -232q0 -201 -151.5 -319t-364.5 -118q-123 0 -246 37t-182 78z" />
<glyph unicode="4" horiz-adv-x="1202" d="M55 344v158l713 932h172v-902h170v-188h-170v-344h-201v344h-684zM303 532h436v551z" />
<glyph unicode="5" horiz-adv-x="1165" d="M86 90l74 162q152 -76 354 -76q135 0 233.5 87t98.5 216q0 119 -85 192.5t-214 73.5q-119 0 -221 -77l-176 88l92 678h753v-185h-575l-43 -362q109 51 209 51q203 0 341 -123t138 -336q0 -225 -154.5 -365.5t-386.5 -140.5q-242 0 -438 117z" />
<glyph unicode="6" horiz-adv-x="1253" d="M119 688q0 135 27.5 261t89 246t181.5 192.5t283 72.5q174 0 371 -84l-63 -166q-170 55 -299 56q-197 0 -292 -150.5t-95 -378.5h6q39 86 133 146.5t227 60.5q195 0 329 -131t134 -344q0 -221 -145.5 -358.5t-360.5 -137.5q-111 0 -200 40t-149 107.5t-100 160 t-58.5 193.5t-18.5 214zM344 459q0 -121 84 -205t219 -84q137 0 220 85t83 206q0 119 -83 201.5t-220 82.5t-220 -82.5t-83 -203.5z" />
<glyph unicode="7" horiz-adv-x="1048" d="M59 1235v199h947v-191l-568 -1243h-235l569 1235h-713z" />
<glyph unicode="8" horiz-adv-x="1220" d="M111 414q0 121 79.5 223t192.5 141q-80 35 -138.5 112t-58.5 179q0 172 126 281.5t298 109.5t299 -109.5t127 -281.5q0 -104 -57 -180t-137 -111q117 -39 192.5 -140t75.5 -224q0 -203 -147.5 -322t-354.5 -119q-203 0 -350 120t-147 321zM311 416q0 -121 89 -189.5 t210 -68.5q123 0 212 67.5t89 192.5q0 113 -86 178.5t-213 65.5q-131 0 -216 -67t-85 -179zM377 1063q0 -92 64.5 -153.5t168.5 -61.5q106 0 172 61.5t66 153.5q0 96 -72 154.5t-166 58.5q-92 0 -162.5 -57.5t-70.5 -155.5z" />
<glyph unicode="9" horiz-adv-x="1255" d="M104 954q0 219 144.5 362.5t361.5 143.5q176 0 299 -104.5t175.5 -262t52.5 -352.5q0 -135 -28 -262t-89.5 -244.5t-177 -189.5t-273.5 -72q-184 0 -385 84l64 166q158 -55 278 -55q213 0 310.5 140.5t97.5 379.5h-6q-39 -88 -133.5 -148.5t-225.5 -60.5q-197 0 -331 132 t-134 343zM305 964.5q0 -120.5 82 -203.5t221 -83q137 0 220 83t83 202q0 121 -84 210t-221 89q-135 0 -218 -88.5t-83 -209z" />
<glyph unicode=":" horiz-adv-x="538" d="M135 123q0 55 39 94t94 39q57 0 96 -39t39 -94q0 -53 -39.5 -93t-95 -40t-94.5 39t-39 94zM135 834q0 55 39 94t94 39q57 0 96 -39t39 -94q0 -53 -38.5 -92.5t-96.5 -39.5q-55 0 -94 39t-39 93z" />
<glyph unicode=";" horiz-adv-x="573" d="M139 106q0 57 39 94.5t96 37.5q72 0 118 -59.5t46 -141.5q0 -104 -68.5 -185t-170.5 -131l-54 82q20 12 50 37t67 76t35 94q-16 -20 -53 -20q-47 0 -76 33.5t-29 82.5zM150 834q0 55 38.5 94t94 39t94.5 -39t39 -94q0 -53 -39 -92.5t-94.5 -39.5t-94 39t-38.5 93z" />
<glyph unicode="&#x3c;" horiz-adv-x="886" d="M109 629v125l614 305v-168l-416 -201l416 -201v-174z" />
<glyph unicode="=" horiz-adv-x="1021" d="M154 442v152h716v-152h-716zM154 772v150h716v-150h-716z" />
<glyph unicode="&#x3e;" horiz-adv-x="886" d="M164 315v174l416 201l-416 201v168l614 -305v-125z" />
<glyph unicode="?" horiz-adv-x="1034" d="M96 1360q72 53 174.5 87t202.5 34q182 0 313.5 -100.5t131.5 -272.5q0 -74 -28 -134.5t-71 -97t-91 -73.5t-91 -65.5t-70.5 -72.5t-27.5 -98v-127h-183v142q0 80 36 142t86 102t101.5 77t87 86t35.5 111q0 84 -68.5 138t-164.5 54q-66 0 -145.5 -25.5t-128.5 -58.5z M315 114.5q0 57.5 40.5 95.5t99.5 38q57 0 95 -38t38 -95.5t-37 -95t-96.5 -37.5t-99.5 37.5t-40 95z" />
<glyph unicode="@" horiz-adv-x="1898" d="M117 606q0 344 243.5 586t595.5 242q166 0 315.5 -55.5t265.5 -156t184.5 -257t68.5 -347.5q0 -211 -88 -335.5t-266 -124.5q-92 0 -157 41t-77 110q-84 -152 -289 -151q-141 0 -232 71.5t-91 202.5q0 72 32.5 124t86 79t106.5 39t107 12q51 0 107 -7t85 -15l31 -7v68 q0 100 -53.5 140t-147.5 40q-100 0 -256 -39l-35 113q164 53 318 53q164 0 249 -77.5t85 -217.5v-309q0 -115 135 -115q100 4 147 93.5t47 214.5q0 166 -58 296t-156.5 207.5t-216.5 117.5t-247 40q-289 0 -486.5 -198.5t-197.5 -479.5q0 -283 192.5 -482.5t475.5 -199.5 q139 0 289 62l57 -138q-180 -78 -344 -77q-350 0 -587.5 243.5t-237.5 593.5zM737 432q0 -72 52 -107.5t122 -35.5q90 0 161 53t73 133v64q-84 33 -207 32q-84 0 -142.5 -32.5t-58.5 -106.5z" />
<glyph unicode="A" horiz-adv-x="1339" d="M10 0l543 1452h233l543 -1452h-239l-129 377h-580l-131 -377h-240zM436 559h469l-237 672z" />
<glyph unicode="B" horiz-adv-x="1351" d="M178 0v1434h574q178 0 301 -108.5t123 -278.5q0 -129 -63.5 -209t-143.5 -103q115 -29 197.5 -116t82.5 -220q0 -186 -119.5 -292.5t-300.5 -106.5h-651zM403 209h426q76 0 135.5 64.5t59.5 144.5q0 86 -60.5 146.5t-152.5 60.5h-408v-416zM403 819h363q84 0 135 52.5 t51 138.5q0 88 -58 151.5t-142 63.5h-349v-406z" />
<glyph unicode="C" horiz-adv-x="1368" d="M96 717q0 305 220.5 520t541.5 215q117 0 238 -33t200 -80l-82 -168q-160 78 -354 78q-227 0 -375.5 -151.5t-148.5 -381t148.5 -381t375.5 -151.5q86 0 175 19.5t134 38.5l45 20l82 -168q-80 -47 -200.5 -79.5t-237.5 -32.5q-322 0 -542 215t-220 520z" />
<glyph unicode="D" horiz-adv-x="1433" d="M178 0v1434h498q182 0 334 -91q317 -186 321 -626q0 -199 -80 -367t-241 -260q-154 -90 -334 -90h-498zM403 213h232q156 0 276 70q195 111 195 436q0 315 -195 432q-117 70 -276 70h-232v-1008z" />
<glyph unicode="E" horiz-adv-x="1292" d="M178 0v1434h1000v-211h-775v-422h662v-203h-662v-389h795v-209h-1020z" />
<glyph unicode="F" horiz-adv-x="1232" d="M178 0v1434h1000v-211h-775v-435h662v-204h-662v-584h-225z" />
<glyph unicode="G" horiz-adv-x="1509" d="M98 715q0 305 219.5 521t532.5 216q274 0 477 -119l-88 -168q-201 84 -371 84q-231 0 -380.5 -150.5t-149.5 -380t148.5 -382t371.5 -152.5q199 0 332 113v276h-377v187h586v-549q-246 -229 -531 -229q-328 0 -549 214t-221 519z" />
<glyph unicode="H" horiz-adv-x="1499" d="M178 0v1434h225v-623h691v623h225v-1434h-225v602h-691v-602h-225z" />
<glyph unicode="I" horiz-adv-x="581" d="M178 0v1434h225v-1434h-225z" />
<glyph unicode="J" horiz-adv-x="641" d="M-16 -135q6 4 28.5 17.5t63.5 46t75.5 69.5t61.5 89t27 101v1035l-148 39v172h373v-1209q0 -184 -108 -305t-298 -207z" />
<glyph unicode="K" horiz-adv-x="1300" d="M178 0v1434h225v-484l-6 -209l135 177l441 516h270l-522 -607l577 -827h-262l-450 674l-183 -203v-471h-225z" />
<glyph unicode="L" horiz-adv-x="1171" d="M178 0v1434h225v-1225h730v-209h-955z" />
<glyph unicode="M" horiz-adv-x="1886" d="M178 0v1434h307l455 -1084h4l457 1084h307v-1434h-223v1092h-6l-437 -1008h-198l-436 1010h-5v-1094h-225z" />
<glyph unicode="N" horiz-adv-x="1499" d="M178 0v1434h234l436 -668l254 -412h2l-10 490v590h225v-1434h-232l-438 696l-252 396h-4l10 -406v-686h-225z" />
<glyph unicode="O" horiz-adv-x="1667" d="M96 719q0 313 219.5 523t520.5 210q307 0 521 -214t214 -519q0 -313 -218 -525t-517 -212q-307 0 -523.5 214t-216.5 523zM336 719q0 -233 140 -384t360 -151q217 0 356 150.5t139 384.5q0 229 -141 379.5t-361 150.5q-215 0 -354 -150.5t-139 -379.5z" />
<glyph unicode="P" horiz-adv-x="1284" d="M178 0v1434h619q174 0 301 -134.5t127 -310.5t-125 -312t-297 -136h-400v-541h-225zM403 754h394q82 0 142 73.5t60 161.5q0 113 -77.5 172.5t-190.5 59.5h-328v-467z" />
<glyph unicode="Q" horiz-adv-x="1662" d="M94 719q0 311 219 522t521 211q307 0 520 -213t213 -518q0 -215 -119 -395.5t-320 -259.5v-7q109 -57 433 -141l-82 -192q-129 29 -285 100.5t-250 132.5q-39 23 -117 23q-305 0 -519 217t-214 520zM334 716.5q0 -229.5 144.5 -382t355 -152.5t352 151.5t141.5 383 t-140 383t-353 151.5q-211 0 -355.5 -152.5t-144.5 -382z" />
<glyph unicode="R" horiz-adv-x="1361" d="M178 0v1434h637q176 0 301 -125t125 -301q0 -135 -78 -247t-207 -155l340 -606h-260l-311 580h-322v-580h-225zM403 784h412q82 0 143.5 69t61.5 155q0 111 -80 163t-192 52h-345v-439z" />
<glyph unicode="S" horiz-adv-x="1226" d="M96 106l82 179q209 -104 428 -105q150 0 232 50.5t82 146.5q0 74 -60.5 124t-149.5 73.5t-194.5 58.5t-195 75t-149.5 127t-60 209q0 190 135 299t370 109q238 0 465 -102l-77 -179q-186 82 -375 82q-135 0 -216 -49t-81 -141q0 -66 45 -112t115.5 -73.5t157.5 -52 t173 -56.5t157 -76t116 -119.5t45 -180.5q0 -195 -142.5 -303t-392.5 -108q-281 0 -510 124z" />
<glyph unicode="T" horiz-adv-x="1232" d="M37 1223v211h1159v-211h-467v-1223h-223v1223h-469z" />
<glyph unicode="U" horiz-adv-x="1466" d="M170 539v895h219v-902q0 -141 98.5 -230t246 -89t246.5 89t99 230v902h221v-895q0 -248 -148 -393.5t-417 -145.5q-260 0 -412.5 141.5t-152.5 397.5z" />
<glyph unicode="V" horiz-adv-x="1277" d="M10 1434h236l391 -1149h4l389 1149h238l-520 -1434h-218z" />
<glyph unicode="W" horiz-adv-x="2009" d="M29 1434h252l301 -1092h4l303 1092h231l301 -1092h4l299 1092h256l-446 -1434h-225l-303 1053l-306 -1053h-225z" />
<glyph unicode="X" horiz-adv-x="1382" d="M29 1434h266l391 -549h4l395 549h265l-529 -717l531 -717h-265l-397 545h-4l-389 -545h-264l526 717z" />
<glyph unicode="Y" horiz-adv-x="1224" d="M-8 1434h248l149 -252l221 -389h2l222 389l151 252h246l-510 -852v-582h-217v582z" />
<glyph unicode="Z" d="M76 0v154l823 1081l-2 4l-281 -6h-510v201h1074v-164l-822 -1071l2 -4l254 10h566v-205h-1104z" />
<glyph unicode="[" horiz-adv-x="606" d="M156 -348v1806h376v-170h-198v-1470h198v-166h-376z" />
<glyph unicode="\" horiz-adv-x="1019" d="M74 1499h184l688 -1571h-184z" />
<glyph unicode="]" horiz-adv-x="606" d="M74 -182h198v1470h-198v170h377v-1806h-377v166z" />
<glyph unicode="_" horiz-adv-x="1437" d="M266 -133h905v-156h-905v156z" />
<glyph unicode="`" horiz-adv-x="573" d="M109 1462l174 94l147 -358h-123z" />
<glyph unicode="a" horiz-adv-x="1150" d="M61 324q0 172 125 251.5t330 79.5q145 0 244 -16v59q0 203 -232 203q-158 0 -333 -43l-41 158q200 67 405 67h6q197 0 301.5 -88t104.5 -262v-493q0 -41 53 -41q35 0 84 6v-176q-10 -6 -59.5 -17.5t-90.5 -11.5q-72 0 -124 34t-52 103v19q-84 -174 -340 -174 q-166 0 -273.5 90t-107.5 252zM264 328q0 -84 60.5 -127t152.5 -43q111 0 197 60.5t86 150.5v110q-78 20 -213 21q-283 0 -283 -172z" />
<glyph unicode="b" horiz-adv-x="1304" d="M143 0v1499h226v-573q116 157 326 157h3q238 0 379.5 -163.5t141.5 -395t-143.5 -387t-377.5 -155.5q-252 0 -346 182l-28 -164h-181zM344 532q0 -156 93 -256t234.5 -100t230.5 98.5t89 258t-89 258t-230 98.5q-143 0 -235.5 -102.5t-92.5 -254.5z" />
<glyph unicode="c" horiz-adv-x="1042" d="M82 534.5q0 227.5 163.5 388t407.5 160.5q168 0 328 -82l-78 -165q-133 53 -235 53q-174 0 -266.5 -112.5t-92.5 -246t95.5 -244t261.5 -110.5q119 0 237 51l70 -166q-57 -35 -153.5 -57t-182.5 -22q-231 0 -393 162.5t-162 390z" />
<glyph unicode="d" horiz-adv-x="1304" d="M86 532q0 231 141.5 391t378.5 160q217 0 330 -153v569h225v-1499h-180l-29 160q-92 -178 -346 -178q-233 0 -376.5 158.5t-143.5 391.5zM313 532.5q0 -159.5 89.5 -258t230.5 -98.5t234.5 100.5t93.5 255.5q0 152 -92.5 254.5t-235.5 102.5q-141 0 -230.5 -98.5 t-89.5 -258z" />
<glyph unicode="e" horiz-adv-x="1173" d="M86 524q0 240 147.5 399.5t378.5 159.5q229 0 358.5 -158.5t129.5 -381.5l-8 -101h-777q8 -129 102.5 -201.5t227.5 -72.5q152 0 311 72l76 -164q-170 -94 -391 -94q-242 0 -398.5 152t-156.5 390zM313 610h578q-6 119 -70.5 199t-195.5 80q-125 0 -211.5 -76 t-100.5 -203z" />
<glyph unicode="f" horiz-adv-x="710" d="M59 901v133l162 31v127q0 172 74 258t250 86q63 0 133 -16l-23 -183q-49 6 -96 6q-119 0 -119 -159v-119h222v-164h-222v-901h-219v901h-162z" />
<glyph unicode="g" horiz-adv-x="1116" d="M98 -61q0 123 119 200q-108 56 -108 170q0 47 19 85t34.5 52.5t50.5 42.5q-90 96 -90 228q0 158 119.5 262t308.5 104q86 0 135 -18h375v-158l-150 -28q68 -59 68 -162q0 -154 -114.5 -256.5t-313.5 -102.5q-119 0 -199 41q-53 -25 -53 -69q0 -27 16.5 -47.5t43 -30.5 t61.5 -18.5t71.5 -9.5t74.5 -3q19 -1 36.5 -1t32.5 1h31q368 0 368 -263q0 -91 -44 -155.5t-118.5 -95.5t-147.5 -43t-155 -12q-86 0 -163.5 14.5t-149.5 45t-115 89t-43 138.5zM303 -41q0 -70 81 -99.5t181 -29.5q98 0 181 28.5t83 98.5q0 100 -170 102q-211 2 -280 17 q-31 -14 -53.5 -47t-22.5 -70zM332 717q0 -90 58.5 -147.5t160.5 -57.5t160.5 56.5t58.5 148.5q0 90 -59.5 146.5t-159.5 56.5q-102 0 -160.5 -56.5t-58.5 -146.5z" />
<glyph unicode="h" horiz-adv-x="1230" d="M143 0v1499h226v-584q41 61 120.5 114.5t202.5 53.5q176 0 289 -111.5t113 -338.5v-633h-226v625q0 117 -62.5 181t-168.5 64q-131 0 -199.5 -84t-68.5 -198v-588h-226z" />
<glyph unicode="i" horiz-adv-x="546" d="M68 909v156h335v-1065h-217v870zM141 1355.5q0 55.5 38 94.5t93.5 39t95.5 -40t40 -93q0 -55 -40 -94t-95.5 -39t-93.5 38.5t-38 94z" />
<glyph unicode="j" horiz-adv-x="559" d="M20 -201q25 10 57 32t74 76t42 113v850l-130 37v158h351v-975q0 -92 -29 -169t-66.5 -122t-89 -79.5t-80 -47t-55.5 -20.5zM135 1355.5q0 55.5 38 94.5t93.5 39t95 -40t39.5 -93q0 -55 -39.5 -94t-95 -39t-93.5 38.5t-38 94z" />
<glyph unicode="k" horiz-adv-x="1071" d="M143 0v1499h226v-643l-7 -297l209 272l203 234h266l-428 -500l420 -565h-256l-291 403l-116 -124v-279h-226z" />
<glyph unicode="l" horiz-adv-x="565" d="M147 190v1309h222v-1257q0 -43 43 -43q41 0 90 6v-176q-12 -6 -70.5 -17.5t-103.5 -11.5q-92 0 -136.5 55.5t-44.5 134.5z" />
<glyph unicode="m" horiz-adv-x="1843" d="M145 0v1065h172l37 -164q35 82 124 132t177 50q106 0 194.5 -57t125.5 -147q35 84 131 144t192 60q408 0 408 -428v-655h-225v655q0 96 -53.5 155.5t-155.5 59.5q-109 0 -172.5 -74.5t-63.5 -183.5v-612h-221v666q0 88 -55 146t-154 58q-109 0 -172 -74.5t-63 -183.5 v-612h-226z" />
<glyph unicode="n" horiz-adv-x="1230" d="M145 0v1065h172l37 -182q2 8 14.5 29.5t40 51t64.5 56.5t95.5 45t125.5 18q176 0 289 -111.5t113 -338.5v-633h-226v625q0 117 -62.5 181t-168.5 64q-125 0 -196.5 -85t-71.5 -197v-588h-226z" />
<glyph unicode="o" d="M84 532.5q0 237.5 159.5 394t391.5 156.5q233 0 393 -156.5t160 -394t-161 -394t-392.5 -156.5t-391 156.5t-159.5 394zM311 532q0 -152 92.5 -254t231.5 -102t232.5 102.5t93.5 253.5q0 154 -92.5 255.5t-233.5 101.5t-232.5 -101.5t-91.5 -255.5z" />
<glyph unicode="p" horiz-adv-x="1290" d="M143 -348v1413h179l28 -158q55 90 153 133t204 43q225 0 367.5 -157.5t142.5 -395.5q0 -227 -139.5 -387.5t-372.5 -160.5q-238 0 -338 151v-481h-224zM342 530q0 -156 91 -255t237 -99q135 0 227 100.5t92 253.5q0 156 -93 257.5t-226 101.5q-139 0 -233.5 -99.5 t-94.5 -259.5z" />
<glyph unicode="q" horiz-adv-x="1290" d="M74 530q0 238 142.5 395.5t367.5 157.5q106 0 203.5 -43t152.5 -133l29 158h178v-1413h-223v481q-99 -151 -335 -151h-3q-233 0 -372.5 160.5t-139.5 387.5zM301 530q0 -154 92 -254t228 -100q145 0 236 99.5t91 254.5q0 160 -94 259.5t-233 99.5q-133 0 -226.5 -101.5 t-93.5 -257.5z" />
<glyph unicode="r" horiz-adv-x="759" d="M143 0v1057h176l31 -180q39 96 117 142t219 46h21v-205h-31q-309 0 -309 -309v-551h-224z" />
<glyph unicode="s" horiz-adv-x="968" d="M86 74l68 159q152 -73 305 -73h4q113 0 168 36.5t55 94t-61.5 92.5t-148.5 56.5t-174 52t-148.5 101.5t-61.5 179q0 143 106.5 227t288.5 84q195 0 365 -79l-68 -158q-139 61 -282 61q-96 0 -149.5 -36.5t-53.5 -94.5q0 -49 44 -81.5t109.5 -49t143.5 -42t143.5 -56.5 t109.5 -95.5t44 -156.5q0 -147 -112.5 -230t-309.5 -83q-201 0 -385 92z" />
<glyph unicode="t" horiz-adv-x="757" d="M57 901v133l150 29l35 309h186v-307h246v-164h-246v-557q0 -158 133 -158q33 0 131 13l33 -158q-100 -41 -199 -41q-176 0 -247.5 88t-71.5 279v534h-150z" />
<glyph unicode="u" horiz-adv-x="1230" d="M137 426v639h221v-625q0 -245 232 -245h2q129 0 198.5 67.5t69.5 171.5v631h225v-1065h-172l-28 156q-100 -174 -342 -174q-199 0 -302.5 115.5t-103.5 328.5z" />
<glyph unicode="v" horiz-adv-x="1024" d="M20 1065h228l258 -817h4l266 817h230l-392 -1065h-215z" />
<glyph unicode="w" horiz-adv-x="1671" d="M25 1065h233l231 -807h7l227 807h225l230 -807h6l227 807h234l-342 -1065h-238l-227 772l-228 -772h-241z" />
<glyph unicode="x" horiz-adv-x="1110" d="M35 0l381 532l-377 533h262l252 -383h4l252 383h262l-375 -533l379 -532h-260l-258 385h-4l-258 -385h-260z" />
<glyph unicode="y" horiz-adv-x="1101" d="M14 1065h234l299 -829h4l303 829h233l-448 -1120q-61 -150 -132 -221.5t-192 -71.5q-104 0 -209 33l41 202q75 -21 136 -21q12 0 24 1q78 0 125 137z" />
<glyph unicode="z" horiz-adv-x="1058" d="M74 0v166l661 717l-2 6l-348 -6h-283v182h871v-170l-639 -719l2 -4v-4l262 6h375v-174h-899z" />
<glyph unicode="{" horiz-adv-x="669" d="M74 485v144q27 2 41 4t37.5 11t36 31.5t12.5 57.5v422q2 145 63.5 224t231.5 79h102v-164h-102q-117 0 -117 -141v-451q0 -66 -27 -100.5t-90 -44.5q63 -12 90 -47t27 -100v-453q0 -141 117 -141h102v-164h-102q-170 0 -231.5 79t-63.5 226v422q0 35 -11.5 57.5t-37 32.5 t-38 12t-40.5 4z" />
<glyph unicode="|" horiz-adv-x="493" d="M156 -317v1939h182v-1939h-182z" />
<glyph unicode="}" horiz-adv-x="669" d="M72 -184h100q123 0 123 141v453q0 66 26 100.5t87 46.5q-61 10 -87 45t-26 100v451q0 141 -123 141h-100v164h100q172 0 234.5 -79t62.5 -224v-422q0 -45 24.5 -70.5t45 -28.5t57.5 -5v-144q-29 -2 -41 -4t-37.5 -12t-37 -32.5t-11.5 -57.5v-422q0 -147 -62.5 -226 t-234.5 -79h-100v164z" />
<glyph unicode="&#xa1;" horiz-adv-x="550" d="M141 1327q0 57 40 94t100 37q57 0 95 -38t38 -93q0 -57 -38 -96t-95 -39q-59 0 -99.5 39t-40.5 96zM143 0l45 991h174l46 -991h-265z" />
<glyph unicode="&#xa2;" horiz-adv-x="1150" d="M119 535q0 207 139 361.5t354 180.5v199h121v-193q131 -6 285 -82l-78 -165q-133 53 -235 53q-174 0 -266.5 -112.5t-92.5 -246t95.5 -244t260.5 -110.5q119 0 238 51l70 -166q-109 -66 -277 -79v-187h-121v191q-211 20 -352 178t-141 371z" />
<glyph unicode="&#xa3;" horiz-adv-x="1148" d="M125 0v182q12 6 29.5 20.5t47 65.5t29.5 115v240h-104v127h104v239q0 61 7 90q23 166 143.5 273.5t290.5 107.5q96 0 187.5 -46t154.5 -120l-144 -151q-84 94 -198 94q-94 0 -156.5 -67.5t-62.5 -159.5v-260h444v-127h-444v-179q0 -78 -29 -153.5t-76 -106.5h684v-184 h-907z" />
<glyph unicode="&#xa5;" horiz-adv-x="1404" d="M84 1434h254l242 -408l122 -219h5l124 219l242 408h252l-512 -852v-47h242v-121h-242v-76h242v-123h-242v-215h-217v215h-272v123h272v76h-272v121h272v47z" />
<glyph unicode="&#xa7;" horiz-adv-x="1253" d="M113 537q0 109 81.5 179t202.5 91q-119 43 -184.5 118.5t-65.5 174.5q0 106 79 185t187.5 114t227.5 35q230 0 412 -113l-117 -172q-127 76 -301 76q-100 0 -184 -35t-84 -105q0 -63 77.5 -104t239.5 -86q84 -25 132 -40t119 -47t108.5 -63.5t67.5 -82t30 -109.5 q0 -111 -85 -186.5t-198 -102.5q252 -102 252 -287q0 -109 -82 -185.5t-193.5 -108t-234.5 -31.5q-119 0 -237.5 31.5t-196.5 85.5l117 170q133 -78 325 -78q43 0 85 6t89 19.5t76 42t29 67.5q0 35 -20.5 62.5t-72 50t-89 35t-121.5 36.5q-6 2 -9.5 3t-9.5 2t-10 3 q-72 20 -123 38t-116.5 49.5t-105.5 65.5t-68.5 85t-28.5 111zM340 547q0 -66 73.5 -110t192.5 -46q115 0 212 38t97 114q0 68 -78.5 109.5t-203.5 41.5q-117 0 -204 -38t-89 -109z" />
<glyph unicode="&#xa8;" horiz-adv-x="919" d="M143 1335q0 49 36 85t83 36q57 0 93 -34t36 -87q0 -51 -36 -83.5t-93 -32.5q-51 0 -85 32.5t-34 83.5zM586 1335q0 49 35.5 85t85.5 36q57 0 92 -34t35 -87q0 -51 -35 -83.5t-92 -32.5q-51 0 -86 32.5t-35 83.5z" />
<glyph unicode="&#xa9;" horiz-adv-x="1665" d="M117 719q0 295 210.5 505t503.5 210q297 0 507 -210t210 -505t-211 -507t-506 -212q-293 0 -503.5 212t-210.5 507zM217 719q0 -256 180.5 -438.5t433.5 -182.5q256 0 436.5 182.5t180.5 438.5q0 252 -181.5 433t-435.5 181q-252 0 -433 -181t-181 -433zM465 719 q0 158 111.5 269.5t269.5 111.5q143 -1 252 -105l-84 -112q-72 53 -166 53q-90 0 -153.5 -65.5t-63.5 -155.5q0 -88 63.5 -152.5t153.5 -64.5q92 0 166 53l82 -115q-96 -100 -250 -100q-158 0 -269.5 111.5t-111.5 271.5z" />
<glyph unicode="&#xaa;" horiz-adv-x="1021" d="M125 475v135h754v-135h-754zM147 965q2 115 87 168t215 53q37 0 80.5 -7.5t68.5 -13.5l27 -6v41q-2 78 -40 117t-145 39q-53 0 -182 -29l-29 125q125 47 254 47q141 0 219 -69.5t78 -198.5v-344q0 -39 39 -39q18 0 51 8v-111q-41 -31 -100 -30q-51 0 -86 29.5t-35 68.5 v18q-25 -45 -86 -80.5t-145 -35.5q-111 0 -191 65.5t-80 184.5zM297 967q0 -55 44 -87t99 -32q74 0 128.5 44t56.5 118v47q-74 25 -158 24q-170 0 -170 -114z" />
<glyph unicode="&#xab;" horiz-adv-x="1245" d="M88 510v45l432 479l113 -114l-297 -388l295 -389l-111 -114zM600 510v45l432 479l113 -114l-297 -388l295 -389l-111 -114z" />
<glyph unicode="&#xad;" horiz-adv-x="1015" d="M135 612v148h746v-148h-746z" />
<glyph unicode="&#xae;" horiz-adv-x="1208" d="M145 971q0 193 134.5 328t325 135t324.5 -135.5t134 -327.5q0 -188 -135 -323.5t-324 -135.5q-190 0 -324.5 135t-134.5 324zM229 970.5q0 -155.5 110 -264t265 -108.5q152 0 263.5 108.5t111.5 264t-110.5 266.5t-264.5 111q-156 0 -265.5 -111t-109.5 -266.5zM432 737 v482h213q57 0 99 -44.5t42 -103.5q0 -43 -26.5 -80t-69.5 -51l119 -203h-88l-113 195h-100v-195h-76zM508 1008h137q27 0 46.5 19.5t19.5 43.5q0 70 -88 70h-115v-133z" />
<glyph unicode="&#xaf;" horiz-adv-x="903" d="M121 1217v137h629v-137h-629z" />
<glyph unicode="&#xb0;" horiz-adv-x="616" d="M96 1249q0 92 65.5 150.5t147.5 58.5q84 0 146.5 -57.5t62.5 -149.5t-62.5 -151.5t-146.5 -59.5q-82 0 -147.5 58.5t-65.5 150.5zM186 1249q0 -49 38 -79.5t85 -30.5t83 29.5t36 80.5q0 49 -36 80t-83 31t-85 -31t-38 -80z" />
<glyph unicode="&#xb1;" horiz-adv-x="1048" d="M141 653v142h312v282h145v-282h309v-142h-309v-284h-145v284h-312zM143 86v147h764v-147h-764z" />
<glyph unicode="&#xb4;" horiz-adv-x="573" d="M137 1198l146 358l174 -94l-197 -264h-123z" />
<glyph unicode="&#xb6;" horiz-adv-x="1214" d="M98 1004q0 111 40 196.5t102.5 134.5t132 74t137.5 25h502v-1608h-168v1442h-150v-1442h-164v739h-49q-182 2 -282.5 128t-100.5 311z" />
<glyph unicode="&#xb7;" horiz-adv-x="557" d="M119 616q0 66 45.5 113t111.5 47q68 0 115 -47t47 -112.5t-47 -111.5t-115 -46q-63 0 -110 47t-47 110z" />
<glyph unicode="&#xb8;" horiz-adv-x="673" d="M160 -385l33 90q68 -23 110 -22q88 4 88 71q0 29 -22.5 50.5t-69.5 21.5q-8 0 -20 -2h-13l-41 41l70 155h63l-22 -126q12 2 24 2q82 0 129.5 -39t47.5 -111q0 -84 -64.5 -131t-155.5 -47q-84 0 -157 47z" />
<glyph unicode="&#xba;" horiz-adv-x="1103" d="M133 475v135h819v-135h-819zM133 1108q0 162 119 276.5t295 114.5q174 0 289.5 -112.5t115.5 -276.5q0 -166 -117.5 -280.5t-295.5 -114.5q-174 0 -290 113.5t-116 279.5zM311 1110q0 -100 67 -170t169 -70q100 0 164.5 69t64.5 169q0 94 -67.5 164.5t-169.5 70.5 q-98 0 -163 -69.5t-65 -163.5z" />
<glyph unicode="&#xbb;" horiz-adv-x="1245" d="M100 920l113 114l432 -479v-45l-432 -481l-111 114l295 389zM614 920l113 114l432 -479v-45l-432 -481l-111 114l295 389z" />
<glyph unicode="&#xbf;" horiz-adv-x="1032" d="M117 326q0 74 27.5 134t70.5 97t91 74t91 65.5t71 72.5t28 97v125h182v-141q0 -80 -36 -141.5t-87 -101.5t-101.5 -76.5t-86 -86t-35.5 -110.5q0 -84 68.5 -137.5t164.5 -53.5q66 0 146 26t131 58l96 -151q-72 -53 -175.5 -87t-201.5 -34q-182 0 -313 99.5t-131 271.5z M446 1325q0 57 37 95t96.5 38t98.5 -38t39 -95t-39 -95t-98.5 -38t-96.5 37t-37 96z" />
<glyph unicode="&#xc0;" horiz-adv-x="1339" d="M10 0l543 1452h233l543 -1452h-239l-129 377h-580l-131 -377h-240zM397 1796l174 94l148 -360h-123zM436 559h469l-237 672z" />
<glyph unicode="&#xc1;" horiz-adv-x="1339" d="M10 0l543 1452h233l543 -1452h-239l-129 377h-580l-131 -377h-240zM436 559h469l-237 672zM618 1530l148 360l174 -94l-199 -266h-123z" />
<glyph unicode="&#xc2;" horiz-adv-x="1339" d="M10 0l543 1452h233l543 -1452h-239l-129 377h-580l-131 -377h-240zM342 1530l250 272h149l258 -272h-170l-159 141l-166 -141h-162zM436 559h469l-237 672z" />
<glyph unicode="&#xc3;" horiz-adv-x="1339" d="M10 0l543 1452h233l543 -1452h-239l-129 377h-580l-131 -377h-240zM344 1597q37 68 96.5 113t124.5 45q55 0 131 -42t123 -42q57 0 115 68l63 -47q-39 -70 -98 -115t-127 -45q-57 0 -129 41t-121 41q-53 0 -114 -68zM436 559h469l-237 672z" />
<glyph unicode="&#xc4;" horiz-adv-x="1339" d="M10 0l543 1452h233l543 -1452h-239l-129 377h-580l-131 -377h-240zM324 1646.5q0 51.5 35.5 86t84.5 34.5q57 0 92 -33.5t35 -86.5q0 -51 -34.5 -84t-92.5 -33q-51 0 -85.5 32.5t-34.5 84zM436 559h469l-237 672zM768 1646.5q0 51.5 36 86t85 34.5q57 0 92 -33.5 t35 -86.5q0 -51 -35 -84t-92 -33q-51 0 -86 32.5t-35 84z" />
<glyph unicode="&#xc5;" horiz-adv-x="1339" d="M10 0l543 1452h233l543 -1452h-239l-129 377h-580l-131 -377h-240zM436 559h469l-237 672zM483 1716q0 80 57.5 131t131 51t131 -51t57.5 -131t-57.5 -131t-131 -51t-131 51t-57.5 131zM571 1716q0 -41 31 -65.5t70 -24.5t69.5 24.5t30.5 65.5t-30.5 65.5t-69.5 24.5 t-70 -24.5t-31 -65.5z" />
<glyph unicode="&#xc6;" horiz-adv-x="1953" d="M-2 0l682 1434h1157v-211h-694v-422h581v-203h-581v-389h715v-209h-940v377h-498l-174 -377h-248zM498 559h420v664h-127z" />
<glyph unicode="&#xc7;" horiz-adv-x="1368" d="M96 717q0 305 220.5 520t541.5 215q117 0 238 -33t200 -80l-82 -168q-160 78 -354 78q-227 0 -375.5 -151.5t-148.5 -381t148.5 -381t375.5 -151.5q86 0 175 19.5t134 38.5l45 20l82 -168q-80 -47 -199.5 -79.5t-236.5 -32.5l-18 -97q8 2 22 2q84 0 131 -38.5t47 -108.5 q0 -84 -64.5 -131t-156.5 -47q-80 0 -157 45l34 90q68 -23 111 -21q88 4 88 72q0 27 -22.5 48.5t-69.5 21.5l-33 -2l-41 43l53 127q-295 25 -491.5 234.5t-196.5 496.5z" />
<glyph unicode="&#xc8;" horiz-adv-x="1292" d="M178 0v1434h1000v-211h-775v-422h662v-203h-662v-389h795v-209h-1020zM444 1796l174 94l148 -360h-123z" />
<glyph unicode="&#xc9;" horiz-adv-x="1292" d="M178 0v1434h1000v-211h-775v-422h662v-203h-662v-389h795v-209h-1020zM565 1530l148 360l174 -94l-199 -266h-123z" />
<glyph unicode="&#xca;" horiz-adv-x="1292" d="M178 0v1434h1000v-211h-775v-422h662v-203h-662v-389h795v-209h-1020zM334 1530l250 272h149l258 -272h-170l-159 141l-166 -141h-162z" />
<glyph unicode="&#xcb;" horiz-adv-x="1292" d="M178 0v1434h1000v-211h-775v-422h662v-203h-662v-389h795v-209h-1020zM317 1646.5q0 51.5 36 86t85 34.5q57 0 92 -33.5t35 -86.5q0 -51 -34.5 -84t-92.5 -33q-51 0 -86 32.5t-35 84zM762 1646.5q0 51.5 36 86t85 34.5q57 0 92 -33.5t35 -86.5q0 -51 -35 -84t-92 -33 q-53 0 -87 32.5t-34 84z" />
<glyph unicode="&#xcc;" horiz-adv-x="581" d="M31 1796l174 94l145 -360h-123zM178 0v1434h225v-1434h-225z" />
<glyph unicode="&#xcd;" horiz-adv-x="581" d="M178 0v1434h225v-1434h-225zM242 1530l147 360l174 -94l-198 -266h-123z" />
<glyph unicode="&#xce;" horiz-adv-x="581" d="M-37 1530l250 272h152l256 -272h-168l-162 141l-164 -141h-164zM178 0v1434h225v-1434h-225z" />
<glyph unicode="&#xcf;" horiz-adv-x="581" d="M-53 1646.5q0 51.5 35.5 86t83.5 34.5q57 0 93 -33.5t36 -86.5q0 -51 -36 -84t-93 -33q-51 0 -85 32.5t-34 84zM178 0v1434h225v-1434h-225zM389 1646.5q0 51.5 36 86t85 34.5q57 0 92 -33.5t35 -86.5q0 -51 -35 -84t-92 -33q-51 0 -86 32.5t-35 84z" />
<glyph unicode="&#xd0;" horiz-adv-x="1458" d="M16 664v116h187v654h497q178 0 334 -91q164 -98 242 -263t78 -363.5t-79 -366.5t-241 -260q-156 -90 -334 -90h-497v664h-187zM428 213h229q154 0 277 70q195 109 194 436q0 315 -194 432q-117 70 -277 70h-229v-441h287v-116h-287v-451z" />
<glyph unicode="&#xd1;" horiz-adv-x="1499" d="M178 0v1434h234l436 -668l254 -412h2l-10 490v590h225v-1434h-232l-438 696l-252 396h-4l10 -406v-686h-225zM442 1597q37 68 96.5 113t125.5 45q45 0 124.5 -42t129.5 -42q57 0 114 68l64 -47q-88 -160 -222 -160q-45 0 -124.5 41t-128.5 41q-54 0 -115 -68z" />
<glyph unicode="&#xd2;" horiz-adv-x="1667" d="M96 719q0 313 219.5 523t520.5 210q307 0 521 -214t214 -519q0 -313 -218 -525t-517 -212q-307 0 -523.5 214t-216.5 523zM336 719q0 -233 140 -384t360 -151q217 0 356 150.5t139 384.5q0 229 -141 379.5t-361 150.5q-215 0 -354 -150.5t-139 -379.5zM602 1796l174 94 l148 -360h-123z" />
<glyph unicode="&#xd3;" horiz-adv-x="1667" d="M96 719q0 313 219.5 523t520.5 210q307 0 521 -214t214 -519q0 -313 -218 -525t-517 -212q-307 0 -523.5 214t-216.5 523zM336 719q0 -233 140 -384t360 -151q217 0 356 150.5t139 384.5q0 229 -141 379.5t-361 150.5q-215 0 -354 -150.5t-139 -379.5zM764 1530l147 360 l174 -94l-198 -266h-123z" />
<glyph unicode="&#xd4;" horiz-adv-x="1667" d="M96 719q0 313 219.5 523t520.5 210q307 0 521 -214t214 -519q0 -313 -218 -525t-517 -212q-307 0 -523.5 214t-216.5 523zM336 719q0 -233 140 -384t360 -151q217 0 356 150.5t139 384.5q0 229 -141 379.5t-361 150.5q-215 0 -354 -150.5t-139 -379.5zM510 1530l250 272 h151l258 -272h-170l-159 141l-166 -141h-164z" />
<glyph unicode="&#xd5;" horiz-adv-x="1671" d="M96 719q0 313 219.5 523t520.5 210q307 0 521 -214t214 -519q0 -313 -218 -525t-517 -212q-307 0 -523.5 214t-216.5 523zM336 719q0 -233 140 -384t360 -151q217 0 356 150.5t139 384.5q0 229 -141 379.5t-361 150.5q-215 0 -354 -150.5t-139 -379.5zM506 1597 q39 68 98.5 113t124.5 45q45 0 125 -42t129 -42q61 0 113 68l63 -47q-37 -70 -96 -115t-127 -45q-45 0 -123 41t-127 41q-58 0 -115 -68z" />
<glyph unicode="&#xd6;" horiz-adv-x="1667" d="M96 719q0 313 219.5 523t520.5 210q307 0 521 -214t214 -519q0 -313 -218 -525t-517 -212q-307 0 -523.5 214t-216.5 523zM336 719q0 -233 140 -384t360 -151q217 0 356 150.5t139 384.5q0 229 -141 379.5t-361 150.5q-215 0 -354 -150.5t-139 -379.5zM494 1646.5 q0 51.5 35.5 86t84.5 34.5q57 0 92 -33.5t35 -86.5q0 -51 -34.5 -84t-92.5 -33q-53 0 -86.5 32.5t-33.5 84zM938 1646.5q0 51.5 36 86t83 34.5q57 0 93 -33.5t36 -86.5q0 -51 -36 -84t-93 -33q-51 0 -85 32.5t-34 84z" />
<glyph unicode="&#xd7;" horiz-adv-x="907" d="M141 438l221 219l-221 222l90 88l222 -219l223 223l90 -90l-221 -224l219 -219l-90 -94l-221 223l-220 -223z" />
<glyph unicode="&#xd8;" horiz-adv-x="1667" d="M96 719q0 313 219.5 523t520.5 210q188 0 352 -90l88 135h141l-129 -199q131 -104 207 -254.5t76 -324.5q0 -313 -218 -525t-517 -212q-184 0 -347 84l-90 -138h-139l129 201q-137 102 -215 256t-78 334zM336 719q0 -258 168 -414l571 883q-113 61 -246 61 q-215 0 -354 -150.5t-139 -379.5zM600 240q104 -55 236 -56q217 0 356 151t139 384q0 246 -160 399z" />
<glyph unicode="&#xd9;" horiz-adv-x="1466" d="M170 539v895h219v-902q0 -141 98.5 -230t246 -89t246.5 89t99 230v902h221v-895q0 -248 -148 -393.5t-417 -145.5q-260 0 -412.5 141.5t-152.5 397.5zM516 1796l174 94l148 -360h-123z" />
<glyph unicode="&#xda;" horiz-adv-x="1466" d="M170 539v895h219v-902q0 -141 98.5 -230t246 -89t246.5 89t99 230v902h221v-895q0 -248 -148 -393.5t-417 -145.5q-260 0 -412.5 141.5t-152.5 397.5zM602 1530l148 360l174 -94l-199 -266h-123z" />
<glyph unicode="&#xdb;" horiz-adv-x="1466" d="M170 539v895h219v-902q0 -141 98.5 -230t246 -89t246.5 89t99 230v902h221v-895q0 -248 -148 -393.5t-417 -145.5q-260 0 -412.5 141.5t-152.5 397.5zM406 1530l249 272h150l258 -272h-170l-160 141l-166 -141h-161z" />
<glyph unicode="&#xdc;" horiz-adv-x="1466" d="M170 539v895h219v-902q0 -141 98.5 -230t246 -89t246.5 89t99 230v902h221v-895q0 -248 -148 -393.5t-417 -145.5q-260 0 -412.5 141.5t-152.5 397.5zM387 1646.5q0 51.5 36 86t85 34.5q57 0 92 -33.5t35 -86.5q0 -51 -35 -84t-92 -33q-51 0 -86 32.5t-35 84zM831 1646.5 q0 51.5 36 86t85 34.5q57 0 92 -33.5t35 -86.5q0 -51 -34.5 -84t-92.5 -33q-51 0 -86 32.5t-35 84z" />
<glyph unicode="&#xdd;" horiz-adv-x="1224" d="M-8 1434h248l149 -252l221 -389h2l222 389l151 252h246l-510 -852v-582h-217v582zM492 1530l147 360l174 -94l-199 -266h-122z" />
<glyph unicode="&#xde;" horiz-adv-x="1284" d="M178 0v1434h225v-258h394q174 0 301 -135.5t127 -309.5q0 -176 -125 -312t-297 -136h-400v-283h-225zM403 492h394q80 0 141 74.5t61 162.5q0 113 -77.5 173.5t-190.5 60.5h-328v-471z" />
<glyph unicode="&#xdf;" d="M143 0v1001q0 211 136 335t333 124q180 0 305 -114.5t125 -292.5q0 -68 -23.5 -119t-50 -78t-50 -66.5t-23.5 -87.5q0 -31 31.5 -63.5t77 -65t90.5 -70.5t76.5 -96.5t31.5 -127.5q0 -174 -114.5 -277.5t-292.5 -103.5q-139 0 -269 75l72 197q4 -2 24.5 -10t36 -14.5 t38 -12.5t48 -10t52.5 -4q82 0 131 42t49 122q0 53 -32 95t-77 71.5t-91 60.5t-77.5 77t-31.5 103q0 51 23.5 96t51 73t51 74t23.5 101q0 80 -55 142.5t-156 62.5q-119 0 -179 -80t-60 -225v-934h-224z" />
<glyph unicode="&#xe0;" horiz-adv-x="1150" d="M61 324q0 172 125 251.5t330 79.5q145 0 244 -16v59q0 203 -232 203q-158 0 -333 -43l-41 158q203 68 411 67q197 0 301.5 -88t104.5 -262v-493q0 -41 53 -41q35 0 84 6v-176q-10 -6 -59.5 -17.5t-90.5 -11.5q-72 0 -124 34t-52 103v19q-84 -174 -340 -174 q-166 0 -273.5 90t-107.5 252zM264 328q0 -84 60.5 -127t152.5 -43q111 0 197 60.5t86 150.5v110q-78 20 -213 21q-283 0 -283 -172zM346 1468l174 95l148 -361h-123z" />
<glyph unicode="&#xe1;" horiz-adv-x="1150" d="M61 324q0 172 125 251.5t330 79.5q145 0 244 -16v59q0 203 -232 203q-158 0 -333 -43l-41 158q203 68 411 67q197 0 301.5 -88t104.5 -262v-493q0 -41 53 -41q35 0 84 6v-176q-10 -6 -59.5 -17.5t-90.5 -11.5q-72 0 -124 34t-52 103v19q-84 -174 -340 -174 q-166 0 -273.5 90t-107.5 252zM264 328q0 -84 60.5 -127t152.5 -43q111 0 197 60.5t86 150.5v110q-78 20 -213 21q-283 0 -283 -172zM465 1202l147 361l174 -95l-198 -266h-123z" />
<glyph unicode="&#xe2;" horiz-adv-x="1150" d="M61 324q0 172 125 251.5t330 79.5q145 0 244 -16v59q0 203 -232 203q-158 0 -333 -43l-41 158q203 68 411 67q197 0 301.5 -88t104.5 -262v-493q0 -41 53 -41q35 0 84 6v-176q-10 -6 -59.5 -17.5t-90.5 -11.5q-72 0 -124 34t-52 103v19q-84 -174 -340 -174 q-166 0 -273.5 90t-107.5 252zM244 1202l250 273h151l256 -273h-168l-162 141l-163 -141h-164zM264 328q0 -84 60.5 -127t152.5 -43q111 0 197 60.5t86 150.5v110q-78 20 -213 21q-283 0 -283 -172z" />
<glyph unicode="&#xe3;" horiz-adv-x="1150" d="M61 324q0 172 125 251.5t330 79.5q145 0 244 -16v59q0 203 -232 203q-158 0 -333 -43l-41 158q203 68 411 67q197 0 301.5 -88t104.5 -262v-493q0 -41 53 -41q35 0 84 6v-176q-10 -6 -59.5 -17.5t-90.5 -11.5q-72 0 -124 34t-52 103v19q-84 -174 -340 -174 q-166 0 -273.5 90t-107.5 252zM186 1270q41 70 101.5 115t130.5 42q49 -2 122.5 -43t123.5 -41q61 0 112 68l64 -47q-39 -72 -99.5 -117t-132.5 -43q-53 2 -123.5 42t-119.5 40q-56 1 -113 -67zM264 328q0 -84 60.5 -127t152.5 -43q111 0 197 60.5t86 150.5v110 q-78 20 -213 21q-283 0 -283 -172z" />
<glyph unicode="&#xe4;" horiz-adv-x="1150" d="M61 324q0 172 125 251.5t330 79.5q145 0 244 -16v59q0 203 -232 203q-158 0 -333 -43l-41 158q203 68 411 67q197 0 301.5 -88t104.5 -262v-493q0 -41 53 -41q35 0 84 6v-176q-10 -6 -59.5 -17.5t-90.5 -11.5q-72 0 -124 34t-52 103v19q-84 -174 -340 -174 q-166 0 -273.5 90t-107.5 252zM203 1319q0 51 35.5 86t85.5 35q57 0 92 -34t35 -87q0 -51 -35 -84t-92 -33q-51 0 -86 33t-35 84zM264 328q0 -84 60.5 -127t152.5 -43q111 0 197 60.5t86 150.5v110q-78 20 -213 21q-283 0 -283 -172zM647 1319q0 51 36 86t85 35q57 0 92 -34 t35 -87q0 -51 -35 -84t-92 -33q-51 0 -86 33t-35 84z" />
<glyph unicode="&#xe5;" horiz-adv-x="1150" d="M61 324q0 172 125 251.5t330 79.5q145 0 244 -16v59q0 203 -232 203q-158 0 -333 -43l-41 158q203 68 411 67q197 0 301.5 -88t104.5 -262v-493q0 -41 53 -41q35 0 84 6v-176q-10 -6 -59.5 -17.5t-90.5 -11.5q-72 0 -124 34t-52 103v19q-84 -174 -340 -174 q-166 0 -273.5 90t-107.5 252zM264 328q0 -84 60.5 -127t152.5 -43q111 0 197 60.5t86 150.5v110q-78 20 -213 21q-283 0 -283 -172zM381 1388.5q0 79.5 57.5 131t131 51.5t131 -51.5t57.5 -131t-57.5 -131t-131 -51.5t-131 51.5t-57.5 131zM469 1389q0 -41 30.5 -66 t69.5 -25t70 25t31 66t-31 65.5t-70 24.5t-69.5 -24.5t-30.5 -65.5z" />
<glyph unicode="&#xe6;" horiz-adv-x="1822" d="M59 315q0 172 126 256t327 84q104 0 233 -14l13 55v2q0 203 -232 203q-158 0 -333 -43l-41 158q203 68 409 67q246 0 348 -135q145 135 353 135q229 0 358 -158.5t129 -381.5l-8 -101h-776q8 -129 101 -201.5t234 -72.5q145 0 306 72l75 -164q-170 -94 -387 -94 q-289 0 -448 202q-137 -203 -385 -202q-176 0 -289 86t-113 247zM262 336q0 -84 61.5 -131t151.5 -47q109 0 194 58t89 144q-18 68 -21 123q-90 16 -194 17q-55 0 -96 -5.5t-87.5 -20.5t-72 -50t-25.5 -88zM963 610h577q-6 119 -70.5 199t-195.5 80q-125 0 -211 -76 t-100 -203z" />
<glyph unicode="&#xe7;" horiz-adv-x="1042" d="M82 535q0 227 163.5 387.5t407.5 160.5q168 0 328 -82l-78 -165q-133 53 -235 53q-174 0 -266.5 -112.5t-92.5 -246t95.5 -244t261.5 -110.5q119 0 237 51l70 -166q-57 -35 -153.5 -57t-182.5 -22h-6l-17 -80h9q10 2 16 2q84 0 131 -39t47 -111q0 -84 -65.5 -131 t-155.5 -47q-82 0 -158 47l35 90q63 -23 111 -22q37 2 61.5 20.5t24.5 50.5q0 29 -21.5 50.5t-68.5 21.5q-8 0 -21 -2h-12l-43 41l55 115q-205 29 -341 183.5t-136 363.5z" />
<glyph unicode="&#xe8;" horiz-adv-x="1173" d="M86 524q0 240 147.5 399.5t378.5 159.5q229 0 358.5 -158.5t129.5 -381.5l-8 -101h-777q8 -129 102.5 -201.5t227.5 -72.5q152 0 311 72l76 -164q-170 -94 -391 -94q-242 0 -398.5 152t-156.5 390zM313 610h578q-6 119 -70.5 199t-195.5 80q-125 0 -211.5 -76 t-100.5 -203zM412 1468l174 95l147 -361h-123z" />
<glyph unicode="&#xe9;" horiz-adv-x="1173" d="M86 524q0 240 147.5 399.5t378.5 159.5q229 0 358.5 -158.5t129.5 -381.5l-8 -101h-777q8 -129 102.5 -201.5t227.5 -72.5q152 0 311 72l76 -164q-170 -94 -391 -94q-242 0 -398.5 152t-156.5 390zM313 610h578q-6 119 -70.5 199t-195.5 80q-125 0 -211.5 -76 t-100.5 -203zM528 1202l148 361l174 -95l-199 -266h-123z" />
<glyph unicode="&#xea;" horiz-adv-x="1173" d="M86 524q0 240 147.5 399.5t378.5 159.5q229 0 358.5 -158.5t129.5 -381.5l-8 -101h-777q8 -129 102.5 -201.5t227.5 -72.5q152 0 311 72l76 -164q-170 -94 -391 -94q-242 0 -398.5 152t-156.5 390zM289 1204l250 271h149l258 -271h-170l-160 139l-165 -139h-162zM313 610 h578q-6 119 -70.5 199t-195.5 80q-125 0 -211.5 -76t-100.5 -203z" />
<glyph unicode="&#xeb;" horiz-adv-x="1173" d="M86 524q0 240 147.5 399.5t378.5 159.5q229 0 358.5 -158.5t129.5 -381.5l-8 -101h-777q8 -129 102.5 -201.5t227.5 -72.5q152 0 311 72l76 -164q-170 -94 -391 -94q-242 0 -398.5 152t-156.5 390zM264 1319q0 51 36 86t85 35q57 0 92 -34t35 -87q0 -51 -35 -84t-92 -33 q-51 0 -86 33t-35 84zM313 610h578q-6 119 -70.5 199t-195.5 80q-125 0 -211.5 -76t-100.5 -203zM709 1319q0 51 35.5 86t84.5 35q57 0 92 -34t35 -87q0 -51 -34.5 -84t-92.5 -33q-53 0 -86.5 33t-33.5 84z" />
<glyph unicode="&#xec;" horiz-adv-x="546" d="M12 1468l174 95l146 -361h-123zM68 909v156h335v-1065h-217v870z" />
<glyph unicode="&#xed;" horiz-adv-x="546" d="M68 909v156h335v-1065h-217v870zM184 1202l148 361l174 -95l-199 -266h-123z" />
<glyph unicode="&#xee;" horiz-adv-x="546" d="M-98 1202l250 273h149l258 -273h-170l-160 141l-166 -141h-161zM68 909v156h335v-1065h-217v870z" />
<glyph unicode="&#xef;" horiz-adv-x="546" d="M-106 1319q0 51 35.5 86t84.5 35q57 0 92 -34t35 -87q0 -51 -34.5 -84t-92.5 -33q-53 0 -86.5 33t-33.5 84zM68 909v156h335v-1065h-217v870zM338 1319q0 51 36 86t83 35q57 0 93 -34t36 -87q0 -51 -36 -84t-93 -33q-51 0 -85 33t-34 84z" />
<glyph unicode="&#xf0;" horiz-adv-x="1171" d="M96 481q0 213 134.5 340t314.5 127q90 0 173 -31.5t124 -89.5q-18 201 -164 359l-180 -121l-52 78l168 110q-68 59 -206 131l59 103l6 2q145 -57 268 -150q29 18 88.5 58.5t88.5 60.5l51 -78l-158 -108q131 -127 194.5 -310.5t63.5 -367.5q0 -268 -135 -431t-359 -163 q-211 0 -345 135t-134 346zM289 481q0 -119 75.5 -205t206.5 -86q125 0 205 86t80 209q0 119 -76 203t-205 84q-135 0 -210.5 -87t-75.5 -204z" />
<glyph unicode="&#xf1;" horiz-adv-x="1230" d="M145 0v1065h172l37 -182q2 8 14.5 29.5t40 51t64.5 56.5t95.5 45t125.5 18q176 0 289 -111.5t113 -338.5v-633h-226v625q0 117 -62.5 181t-168.5 64q-125 0 -196.5 -85t-71.5 -197v-588h-226zM315 1270q39 70 99.5 115t130.5 42q51 -2 124.5 -43t121.5 -41q57 0 114 68 l64 -47q-41 -72 -101.5 -117t-130.5 -43q-55 2 -124.5 42t-118.5 40q-54 1 -115 -67z" />
<glyph unicode="&#xf2;" d="M84 532.5q0 237.5 159.5 394t391.5 156.5q233 0 393 -156.5t160 -394t-161 -394t-392.5 -156.5t-391 156.5t-159.5 394zM311 532q0 -152 92.5 -254t231.5 -102t232.5 102.5t93.5 253.5q0 154 -92.5 255.5t-233.5 101.5t-232.5 -101.5t-91.5 -255.5zM352 1468l174 95 l146 -361h-123z" />
<glyph unicode="&#xf3;" d="M84 532.5q0 237.5 159.5 394t391.5 156.5q233 0 393 -156.5t160 -394t-161 -394t-392.5 -156.5t-391 156.5t-159.5 394zM311 532q0 -152 92.5 -254t231.5 -102t232.5 102.5t93.5 253.5q0 154 -92.5 255.5t-233.5 101.5t-232.5 -101.5t-91.5 -255.5zM514 1202l148 361 l174 -95l-199 -266h-123z" />
<glyph unicode="&#xf4;" d="M84 532.5q0 237.5 159.5 394t391.5 156.5q233 0 393 -156.5t160 -394t-161 -394t-392.5 -156.5t-391 156.5t-159.5 394zM307 1202l250 273h152l258 -273h-170l-160 141l-166 -141h-164zM311 532q0 -152 92.5 -254t231.5 -102t232.5 102.5t93.5 253.5q0 154 -92.5 255.5 t-233.5 101.5t-232.5 -101.5t-91.5 -255.5z" />
<glyph unicode="&#xf5;" d="M84 532.5q0 237.5 159.5 394t391.5 156.5q233 0 393 -156.5t160 -394t-161 -394t-392.5 -156.5t-391 156.5t-159.5 394zM309 1270q41 70 101.5 115t130.5 42q49 -2 122.5 -43t122.5 -41q61 0 113 68l64 -47q-39 -72 -99.5 -117t-132.5 -43q-53 2 -123.5 42t-118.5 40 q-57 1 -114 -67zM311 532q0 -152 92.5 -254t231.5 -102t232.5 102.5t93.5 253.5q0 154 -92.5 255.5t-233.5 101.5t-232.5 -101.5t-91.5 -255.5z" />
<glyph unicode="&#xf6;" d="M84 532.5q0 237.5 159.5 394t391.5 156.5q233 0 393 -156.5t160 -394t-161 -394t-392.5 -156.5t-391 156.5t-159.5 394zM291 1319q0 51 35.5 86t85.5 35q57 0 92 -34t35 -87q0 -51 -35 -84t-92 -33q-53 0 -87 33t-34 84zM311 532q0 -152 92.5 -254t231.5 -102 t232.5 102.5t93.5 253.5q0 154 -92.5 255.5t-233.5 101.5t-232.5 -101.5t-91.5 -255.5zM735 1319q0 51 36 86t83 35q57 0 93 -34t36 -87q0 -51 -36 -84t-93 -33q-51 0 -85 33t-34 84z" />
<glyph unicode="&#xf7;" horiz-adv-x="1177" d="M135 592v147h909v-147h-909zM469 319q0 49 36 84t85 35t85 -35.5t36 -83.5q0 -51 -36 -85.5t-85 -34.5t-85 34.5t-36 85.5zM469 1016q0 49 36 84t85 35t85 -35t36 -84q0 -51 -36 -87t-85 -36t-85 36t-36 87z" />
<glyph unicode="&#xf8;" d="M84 532q0 238 159.5 394.5t391.5 156.5q139 0 258 -61l86 133h111l-117 -182q100 -74 157.5 -188.5t57.5 -252.5q0 -238 -161 -394t-392 -156q-139 0 -262 61l-80 -125h-109l113 174q-213 161 -213 440zM311 532q0 -160 99 -262l374 582q-67 37 -149 37 q-141 0 -232.5 -101.5t-91.5 -255.5zM483 213q66 -37 152 -37q139 0 232.5 102t93.5 254q0 162 -103 265z" />
<glyph unicode="&#xf9;" horiz-adv-x="1230" d="M137 426v639h221v-625q0 -246 234 -245q129 0 198.5 67.5t69.5 171.5v631h225v-1065h-172l-28 156q-100 -174 -342 -174q-199 0 -302.5 115.5t-103.5 328.5zM367 1468l174 95l147 -361h-123z" />
<glyph unicode="&#xfa;" horiz-adv-x="1230" d="M137 426v639h221v-625q0 -246 234 -245q129 0 198.5 67.5t69.5 171.5v631h225v-1065h-172l-28 156q-100 -174 -342 -174q-199 0 -302.5 115.5t-103.5 328.5zM516 1202l148 361l174 -95l-199 -266h-123z" />
<glyph unicode="&#xfb;" horiz-adv-x="1230" d="M137 426v639h221v-625q0 -246 234 -245q129 0 198.5 67.5t69.5 171.5v631h225v-1065h-172l-28 156q-100 -174 -342 -174q-199 0 -302.5 115.5t-103.5 328.5zM293 1202l250 273h151l258 -273h-170l-159 141l-166 -141h-164z" />
<glyph unicode="&#xfc;" horiz-adv-x="1230" d="M137 426v639h221v-625q0 -246 234 -245q129 0 198.5 67.5t69.5 171.5v631h225v-1065h-172l-28 156q-100 -174 -342 -174q-199 0 -302.5 115.5t-103.5 328.5zM252 1319q0 51 36 86t85 35q57 0 92 -34t35 -87q0 -51 -35 -84t-92 -33q-53 0 -87 33t-34 84zM696 1319 q0 51 36 86t83 35q57 0 93 -34t36 -87q0 -51 -36 -84t-93 -33q-51 0 -85 33t-34 84z" />
<glyph unicode="&#xfd;" horiz-adv-x="1101" d="M14 1065h234l299 -829h4l303 829h233l-448 -1120q-61 -150 -132 -221.5t-192 -71.5q-104 0 -209 33l41 202q90 -25 160 -20q78 0 125 137zM436 1202l148 361l174 -95l-199 -266h-123z" />
<glyph unicode="&#xfe;" horiz-adv-x="1290" d="M143 -348v1782h224v-527q109 176 340 176q225 0 367.5 -157.5t142.5 -395.5q0 -227 -139.5 -387.5t-372.5 -160.5q-238 0 -338 151v-481h-224zM342 530q0 -156 91 -255t237 -99q135 0 227 100.5t92 253.5q0 156 -93 257.5t-226 101.5q-139 0 -233.5 -99.5t-94.5 -259.5z " />
<glyph unicode="&#xff;" horiz-adv-x="1101" d="M14 1065h234l299 -829h4l303 829h233l-448 -1120q-61 -150 -132 -221.5t-192 -71.5q-104 0 -209 33l41 202q90 -25 160 -20q78 0 125 137zM209 1319q0 51 36 86t83 35q57 0 93 -34t36 -87q0 -51 -36 -84t-93 -33q-51 0 -85 33t-34 84zM651 1319q0 51 36 86t85 35 q57 0 92 -34t35 -87q0 -51 -35 -84t-92 -33q-51 0 -86 33t-35 84z" />
<glyph unicode="&#x152;" horiz-adv-x="1933" d="M98 725q0 301 220.5 504t523.5 205h973v-226h-734v-399h623v-219h-623v-365h756v-225h-993q-309 0 -527.5 212t-218.5 513zM336 723q0 -213 146.5 -355.5t363.5 -142.5h41v983h-49q-213 0 -357.5 -138t-144.5 -347z" />
<glyph unicode="&#x153;" horiz-adv-x="2058" d="M82 532.5q0 237.5 162 394t395 156.5q139 0 257 -67.5t185 -179.5q61 113 168 180t246 67q231 0 361.5 -157.5t130.5 -384.5q0 -14 -1 -29.5t-2.5 -27t-3.5 -20.5t-2 -13v-5h-782q16 -135 113.5 -203.5t222.5 -68.5q178 0 315 66l58 -160q-178 -98 -385 -98 q-147 0 -262 65.5t-179 179.5q-68 -113 -184.5 -179t-255.5 -66q-233 0 -395 156.5t-162 394zM303 532q0 -150 98.5 -254t237.5 -104q135 0 232.5 104.5t97.5 253.5q0 152 -96.5 254.5t-233.5 102.5q-141 0 -238.5 -102.5t-97.5 -254.5zM1196 604h578q-4 117 -78 193.5 t-199 76.5q-115 0 -201 -78.5t-100 -191.5z" />
<glyph unicode="&#x178;" horiz-adv-x="1224" d="M-8 1434h248l149 -252l221 -389h2l222 389l151 252h246l-510 -852v-582h-217v582zM266 1646.5q0 51.5 36 86t85 34.5q57 0 92 -33.5t35 -86.5q0 -51 -35 -84t-92 -33q-51 0 -86 32.5t-35 84zM711 1646.5q0 51.5 35.5 86t84.5 34.5q57 0 92 -33.5t35 -86.5 q0 -51 -34.5 -84t-92.5 -33q-51 0 -85.5 32.5t-34.5 84z" />
<glyph unicode="&#x2c6;" horiz-adv-x="870" d="M16 1253l250 271h152l258 -271h-170l-160 140l-166 -140h-164z" />
<glyph unicode="&#x2dc;" horiz-adv-x="778" d="M61 1280q41 70 101.5 115t130.5 43q49 -2 124 -42t122 -40q61 0 114 67l64 -49q-41 -72 -102.5 -117t-131.5 -40q-53 2 -122.5 40.5t-118.5 38.5q-54 1 -115 -67z" />
<glyph unicode="&#x2000;" horiz-adv-x="949" />
<glyph unicode="&#x2001;" horiz-adv-x="1898" />
<glyph unicode="&#x2002;" horiz-adv-x="949" />
<glyph unicode="&#x2003;" horiz-adv-x="1898" />
<glyph unicode="&#x2004;" horiz-adv-x="632" />
<glyph unicode="&#x2005;" horiz-adv-x="474" />
<glyph unicode="&#x2006;" horiz-adv-x="316" />
<glyph unicode="&#x2007;" horiz-adv-x="316" />
<glyph unicode="&#x2008;" horiz-adv-x="237" />
<glyph unicode="&#x2009;" horiz-adv-x="379" />
<glyph unicode="&#x200a;" horiz-adv-x="105" />
<glyph unicode="&#x2010;" horiz-adv-x="1015" d="M135 612v148h746v-148h-746z" />
<glyph unicode="&#x2011;" horiz-adv-x="1015" d="M135 612v148h746v-148h-746z" />
<glyph unicode="&#x2012;" horiz-adv-x="1015" d="M135 612v148h746v-148h-746z" />
<glyph unicode="&#x2013;" horiz-adv-x="1439" d="M135 612v148h1168v-148h-1168z" />
<glyph unicode="&#x2014;" horiz-adv-x="1746" d="M135 612v148h1477v-148h-1477z" />
<glyph unicode="&#x2018;" horiz-adv-x="516" d="M98 1130q0 203 246 328l55 -88q-16 -10 -46.5 -34.5t-70.5 -77t-36 -95.5q16 18 53 19q51 0 80 -35t29 -88q0 -57 -41.5 -95t-96.5 -38q-78 0 -125 61.5t-47 142.5z" />
<glyph unicode="&#x2019;" horiz-adv-x="512" d="M113 1325q0 57 41 95t96 38q78 0 125 -61.5t47 -143.5q0 -203 -246 -327l-55 88q16 10 47 34.5t71 77t35 95.5q-16 -18 -53 -19q-51 0 -79.5 35t-28.5 88z" />
<glyph unicode="&#x201a;" horiz-adv-x="526" d="M111 121q0 57 41 95t96 38q80 0 126 -61.5t46 -143.5q0 -201 -246 -325l-55 88q18 10 48 33.5t69.5 75.5t35.5 95q-16 -16 -53 -16q-51 0 -79.5 35t-28.5 86z" />
<glyph unicode="&#x201c;" horiz-adv-x="1003" d="M123 1133q0 203 248 325l55 -88q-14 -8 -48 -33.5t-72 -77t-34 -94.5q16 16 52 17q51 0 79.5 -35t28.5 -86q0 -57 -40 -95t-95 -38q-80 0 -127 61.5t-47 143.5zM567 1133q0 203 248 325l55 -88q-14 -8 -48 -33.5t-71.5 -77t-33.5 -94.5q16 16 51 17q51 0 80 -35t29 -86 q0 -57 -40.5 -95t-95.5 -38q-80 0 -127 61.5t-47 143.5z" />
<glyph unicode="&#x201d;" horiz-adv-x="1009" d="M139 1325q0 57 41 95t96 38q78 0 125.5 -61.5t47.5 -143.5q0 -201 -246 -325l-56 88q18 10 48 33.5t70 76t36 95.5q-18 -16 -53 -17q-51 0 -80 35t-29 86zM584 1325q0 57 41 95t96 38q78 0 125 -61.5t47 -143.5q0 -201 -246 -325l-55 88q18 10 48 33.5t70 76t35 95.5 q-18 -16 -53 -17q-51 0 -79.5 35t-28.5 86z" />
<glyph unicode="&#x201e;" horiz-adv-x="1013" d="M131 121q0 57 41 95t96 38q80 0 126 -61.5t46 -143.5q0 -201 -245 -325l-56 88q18 10 48 33.5t70 75.5t36 95q-18 -16 -53 -16q-51 0 -80 35t-29 86zM575 121q0 57 41.5 95t96.5 38q78 0 125 -61.5t47 -143.5q0 -201 -246 -325l-55 88q18 10 48 33.5t69.5 75.5t35.5 95 q-18 -16 -53 -16q-51 0 -80 35t-29 86z" />
<glyph unicode="&#x2022;" horiz-adv-x="663" d="M106 715q0 88 69 154.5t159 66.5t155.5 -66.5t65.5 -158.5q0 -90 -65.5 -156t-155.5 -66q-92 0 -160 67t-68 159z" />
<glyph unicode="&#x2026;" horiz-adv-x="1386" d="M115 123q0 55 39 94t94 39q57 0 96 -39t39 -94q0 -53 -40 -93t-95 -40t-94 39t-39 94zM545 123q0 55 39 94t94 39q57 0 96 -39t39 -94q0 -53 -40 -93t-95 -40t-94 39t-39 94zM1006 123q0 55 39 94t94 39q57 0 96 -39t39 -94q0 -53 -39 -93t-96 -40q-55 0 -94 39t-39 94z " />
<glyph unicode="&#x202f;" horiz-adv-x="379" />
<glyph unicode="&#x2039;" horiz-adv-x="733" d="M86 508v45l434 481l111 -116l-297 -388l295 -391l-109 -110z" />
<glyph unicode="&#x203a;" horiz-adv-x="733" d="M102 918l113 116l432 -481v-45l-432 -479l-111 110l295 391z" />
<glyph unicode="&#x205f;" horiz-adv-x="474" />
<glyph unicode="&#x20ac;" horiz-adv-x="1603" d="M111 526v121h206q-4 45 -4 72q0 55 4 84h-206v123h231q70 231 270.5 378.5t462.5 147.5q117 0 238 -33t200 -80l-81 -168q-160 78 -355 78q-170 0 -300 -87t-185 -236h471v-123h-508q-6 -23 -6 -80l6 -76h508v-121h-479q55 -156 188 -249t311 -93q84 0 171 20.5t132 41.5 l46 22l81 -170q-201 -117 -436 -116q-260 0 -468 148.5t-273 395.5h-225z" />
<glyph unicode="&#x2122;" horiz-adv-x="1619" d="M150 1305v129h559v-129h-213v-512h-136v512h-210zM799 793v641h106l217 -369l215 369h105v-641h-127v374l-152 -290h-84l-155 288v-372h-125z" />
<glyph unicode="&#x25fc;" horiz-adv-x="1064" d="M0 0v1065h1065v-1065h-1065z" />
</font>
</defs>
</svg>
