<?xml version="1.0" standalone="no"?>
<!DOCTYPE svg PUBLIC "-//W3C//DTD SVG 1.1//EN" "http://www.w3.org/Graphics/SVG/1.1/DTD/svg11.dtd" >
<svg xmlns="http://www.w3.org/2000/svg" xmlns:xlink="http://www.w3.org/1999/xlink" version="1.1">
<metadata></metadata>
<defs>
<font id="centrale_sans_thinthin" horiz-adv-x="1249" >
<font-face units-per-em="2048" ascent="1536" descent="-512" />
<missing-glyph horiz-adv-x="542" />
<glyph unicode="&#xfb01;" horiz-adv-x="1073" d="M82 997v54l133 14v123q0 147 85 247.5t226 100.5q176 0 330 -94l-35 -60q-131 80 -293 80q-125 0 -181 -88t-56 -207v-102h596v-1065h-76v997h-520v-997h-76v997h-133z" />
<glyph unicode="&#xfb02;" horiz-adv-x="1097" d="M80 997v54l133 14v100q0 172 92 271.5t237.5 99.5t241 -99.5t95.5 -273.5v-1032q0 -59 61 -59q49 0 68 6v-64q-44 -14 -101 -14q-104 0 -104 125v1044q0 139 -70.5 217t-189.5 78t-186.5 -77.5t-67.5 -217.5v-104h282v-68h-282v-997h-76v997h-133z" />
<glyph unicode="&#xfb03;" horiz-adv-x="1525" d="M82 997v54l133 14v141q0 154 61.5 232t206.5 78q74 -1 133 -19l-8 -67q-68 14 -119 14q-199 0 -198 -234v-145h452v131q0 147 76 243.5t217 96.5q162 0 293 -80l-31 -55q-119 63 -260 63q-115 0 -167 -80.5t-52 -193.5v-125h520v-1065h-75v997h-445v-997h-76v997h-452 v-997h-76v997h-133z" />
<glyph unicode="&#xfb04;" horiz-adv-x="1632" d="M82 997v54l133 14v137q0 143 57.5 228.5t210.5 85.5q65 -1 133 -21l-12 -63q-57 12 -117 12q-197 0 -196 -236v-143h452v100q0 172 92.5 271.5t237.5 99.5q143 0 238.5 -99.5t95.5 -273.5v-1034q0 -59 66 -59q16 0 39.5 3t25.5 3v-62q-35 -14 -98 -14q-106 0 -107 125 v1044q0 139 -70.5 217t-191.5 78q-115 0 -183.5 -80.5t-68.5 -214.5v-104h285v-68h-285v-997h-76v997h-452v-997h-76v997h-133z" />
<glyph horiz-adv-x="0" />
<glyph unicode="&#xd;" horiz-adv-x="681" />
<glyph unicode=" "  horiz-adv-x="542" />
<glyph unicode="&#x09;" horiz-adv-x="542" />
<glyph unicode="&#xa0;" horiz-adv-x="542" />
<glyph unicode="!" horiz-adv-x="493" d="M180 49q0 31 19.5 50.5t50.5 19.5q29 0 48 -19.5t19 -50.5q0 -29 -18 -47t-49 -18t-50.5 18t-19.5 47zM197 1434h98l-21 -1063h-59z" />
<glyph unicode="&#x22;" horiz-adv-x="677" d="M154 963l30 471h95l-86 -473q-6 0 -19.5 1t-19.5 1zM430 963l31 471h94l-86 -473q-6 0 -19.5 1t-19.5 1z" />
<glyph unicode="#" horiz-adv-x="1585" d="M121 352l12 68h299l103 575h-299l12 70h299l69 369h68l-68 -369h482l69 369h70l-70 -369h295l-14 -70h-291l-100 -575h297l-11 -68h-301l-67 -352h-68l66 352h-481l-68 -352h-70l68 352h-301zM502 420h483l102 575h-483z" />
<glyph unicode="$" horiz-adv-x="1169" d="M131 98l29 68q29 -16 80 -36.5t156.5 -45.5t205.5 -25q182 0 280.5 77t98.5 220q0 88 -46 149.5t-120 96.5t-164 62.5t-179 57.5t-162.5 71t-120 115.5t-46.5 176.5q0 164 111 260.5t309 102.5v164h60v-164q197 -4 370 -86l-28 -68q-178 80 -371 80q-166 0 -271.5 -70.5 t-105.5 -211.5q0 -88 46 -151.5t121 -98.5t164 -63.5t178 -59.5t164 -71t121 -113.5t46 -174.5q0 -174 -116 -272t-318 -102v-152h-60v152q-98 4 -197.5 28.5t-151.5 45t-83 38.5z" />
<glyph unicode="%" horiz-adv-x="1642" d="M121 1098q0 152 87 251t228 99q139 0 226.5 -99.5t87.5 -250.5q0 -147 -87.5 -246.5t-226.5 -99.5q-141 0 -228 98t-87 248zM190 1098q0 -121 68.5 -203t177.5 -82q111 0 177.5 81t66.5 204q0 125 -66.5 206.5t-177.5 81.5q-109 0 -177.5 -81.5t-68.5 -206.5zM365 0 l825 1434h80l-826 -1434h-79zM895 332q0 152 87 251t228 99q139 0 226.5 -99.5t87.5 -250.5q0 -150 -87.5 -248t-228.5 -98q-139 0 -226 99t-87 247zM965 334q0 -123 68 -205t177 -82q111 0 177.5 80t66.5 203q0 125 -68.5 208t-179.5 83q-109 0 -175 -81t-66 -206z" />
<glyph unicode="&#x26;" horiz-adv-x="1288" d="M113 393q0 137 85 232.5t248 189.5q-12 16 -62 73.5t-67.5 82t-38 74t-20.5 98.5q0 127 91 209t212 82q123 0 216 -79t93 -206q0 -186 -317 -350l442 -494q66 109 68 260h65q0 -80 -21.5 -158.5t-41.5 -117.5l-21 -39l211 -250h-86l-172 201q-180 -201 -438 -201 q-164 0 -305 110.5t-141 282.5zM186 395q0 -137 118 -229t255 -92q225 0 387 178l-457 512q-150 -80 -226.5 -165t-76.5 -204zM330 1141q0 -51 29.5 -107.5t57 -87.5t91.5 -98q86 43 139 78t102.5 95t49.5 126q0 98 -70 156.5t-166 58.5q-98 0 -165.5 -61.5t-67.5 -159.5z " />
<glyph unicode="'" horiz-adv-x="401" d="M152 963l36 471h95l-93 -473q-6 0 -18 1t-20 1z" />
<glyph unicode="(" horiz-adv-x="663" d="M115 573q0 276 132 496.5t310 353.5l39 -47q-80 -72 -136.5 -132t-124 -159.5t-103 -229.5t-35.5 -281.5t35.5 -280.5t105.5 -228.5t125 -158t137 -129.5l-43 -56q-178 133 -310 353.5t-132 498.5z" />
<glyph unicode=")" horiz-adv-x="663" d="M63 -223q82 72 137.5 130t124 157.5t104.5 228.5t36 280.5t-36 281.5t-103.5 230.5t-123 160t-134.5 130.5l36 47q180 -135 312.5 -354t132.5 -496q0 -193 -74 -369.5t-167 -287.5t-204 -195z" />
<glyph unicode="*" horiz-adv-x="878" d="M154 1100l254 127l-254 129l34 55l236 -156l-16 281h63l-14 -281l235 156l33 -55l-254 -129l254 -127l-33 -56l-235 156l14 -280h-63l16 280l-236 -156z" />
<glyph unicode="+" horiz-adv-x="1048" d="M135 614v64h357v358h65v-358h356v-64h-356v-356h-65v356h-357z" />
<glyph unicode="," horiz-adv-x="495" d="M150 -199q55 33 97 96.5t19 125.5q-12 -27 -47 -27q-61 0 -61 65q0 33 25.5 54.5t54.5 21.5q49 0 78.5 -44t29.5 -95q0 -76 -51 -135.5t-127 -93.5z" />
<glyph unicode="-" horiz-adv-x="1044" d="M162 616v64h721v-64h-721z" />
<glyph unicode="." horiz-adv-x="471" d="M158 72q0 33 22.5 56.5t55 23.5t55 -24t22.5 -56q0 -31 -22.5 -53.5t-55 -22.5t-55 22.5t-22.5 53.5z" />
<glyph unicode="/" horiz-adv-x="993" d="M94 -68l729 1567h74l-727 -1567h-76z" />
<glyph unicode="0" horiz-adv-x="1419" d="M143 715q0 305 155 519t413 214q256 0 410.5 -213t154.5 -518t-154.5 -518t-412.5 -213t-412 211t-154 518zM223 715q0 -272 133.5 -465t356.5 -193q221 0 351 190.5t130 465.5q0 176 -55.5 325.5t-168 243.5t-261.5 94q-223 0 -354.5 -192.5t-131.5 -468.5z" />
<glyph unicode="1" horiz-adv-x="614" d="M78 1288l252 146h59v-1434h-76v1337l-2 2l-202 -108z" />
<glyph unicode="2" horiz-adv-x="1116" d="M86 0v63l485 482q295 295 295 497q0 152 -105.5 243t-266.5 91q-160 0 -324 -92l-29 55q180 109 361 109q188 0 314 -111.5t126 -294.5q0 -246 -319 -550l-435 -422h795v-70h-897z" />
<glyph unicode="3" horiz-adv-x="1122" d="M104 80l29 53q170 -78 350 -78q168 0 293 91.5t125 240.5q0 164 -135 268.5t-305 104.5h-105v55h113q141 0 256 69.5t115 211.5q0 131 -106.5 204.5t-241.5 73.5q-150 0 -314 -53l-24 61q174 66 348 66q168 0 289.5 -96.5t121.5 -253.5q0 -123 -81.5 -208t-194.5 -108 q152 -35 246 -138t94 -257q0 -184 -141.5 -292.5t-348.5 -108.5q-100 0 -208.5 28.5t-174.5 65.5z" />
<glyph unicode="4" horiz-adv-x="1204" d="M74 381v65l780 988h57v-981h191v-72h-191v-381h-71v381h-766zM160 453h680v847z" />
<glyph unicode="5" horiz-adv-x="1163" d="M127 88l29 55q168 -84 356 -84q197 0 327 116t130 282q0 162 -122 273.5t-296 111.5q-162 0 -307 -113l-62 31l88 674h697v-68h-633l-68 -547q152 92 299 92q199 0 339 -130t140 -324q0 -205 -153.5 -338t-374.5 -133q-193 0 -389 102z" />
<glyph unicode="6" horiz-adv-x="1247" d="M152 668q0 106 12 202.5t48 206t94.5 187t160.5 130t235 52.5q165 0 353 -76l-25 -61q-170 66 -315 65q-244 0 -368 -183t-124 -603h2q35 139 158 223t281 84q190 0 322 -122t132 -322.5t-135 -332.5t-350 -132q-246 0 -363.5 181t-117.5 501zM250 434 q0 -160 110.5 -268.5t278.5 -108.5q176 0 290.5 117t114.5 281q0 160 -111.5 264t-275.5 104q-168 0 -287.5 -110.5t-119.5 -278.5z" />
<glyph unicode="7" horiz-adv-x="1021" d="M72 1362v72h901v-66l-613 -1368h-79l610 1362h-819z" />
<glyph unicode="8" horiz-adv-x="1228" d="M143 393q0 139 89.5 245.5t226.5 143.5q-106 31 -169 117t-63 201q0 158 112.5 253t272.5 95q162 0 275.5 -95.5t113.5 -252.5q0 -117 -62 -203t-165 -115q129 -39 219 -140t90 -247q0 -186 -138 -297.5t-333 -111.5q-190 0 -329.5 112.5t-139.5 294.5zM225 395 q0 -137 110.5 -234.5t276.5 -97.5t279 94.5t113 239.5q0 147 -111 242.5t-277 95.5q-170 0 -280.5 -100t-110.5 -240zM305 1096q0 -119 85 -201t222 -82q139 0 225.5 81t86.5 200q0 127 -93.5 201.5t-218.5 74.5q-123 0 -215 -74.5t-92 -199.5z" />
<glyph unicode="9" horiz-adv-x="1245" d="M129 979q0 197 132 333t353 136q231 0 356.5 -171t125.5 -466q0 -125 -12.5 -233.5t-48.5 -220t-93 -191.5t-152.5 -130t-220.5 -50q-179 0 -374 80l22 57q172 -66 340 -66q113 0 197 42t135 111t81.5 171t42 208.5t11.5 237.5h-2q-31 -135 -156 -213.5t-284 -78.5 q-186 0 -319.5 123.5t-133.5 320.5zM203 981q0 -164 110.5 -268.5t274.5 -104.5q166 0 287.5 107.5t121.5 271.5q0 156 -106.5 271.5t-269.5 115.5q-197 0 -307.5 -113.5t-110.5 -279.5z" />
<glyph unicode=":" horiz-adv-x="479" d="M162 72q0 33 22.5 56.5t55 23.5t55 -24t22.5 -56q0 -31 -22.5 -53.5t-55 -22.5t-55 22.5t-22.5 53.5zM162 870q0 33 22.5 55.5t55 22.5t55 -22.5t22.5 -55t-22.5 -54t-55 -21.5t-55 22.5t-22.5 52.5z" />
<glyph unicode=";" horiz-adv-x="532" d="M168 -199q57 33 99 97.5t18 124.5q-12 -27 -47 -27q-31 0 -46.5 20.5t-15.5 44.5q0 33 25.5 54.5t56.5 21.5q49 0 78 -45t29 -96q0 -74 -52.5 -133.5t-126.5 -93.5zM178 870q0 33 22.5 55.5t55.5 22.5t56.5 -22.5t23.5 -55t-22.5 -54t-57.5 -21.5q-33 0 -55.5 22.5 t-22.5 52.5z" />
<glyph unicode="&#x3c;" horiz-adv-x="907" d="M135 651v64l580 299v-80l-510 -250l512 -248v-84z" />
<glyph unicode="=" horiz-adv-x="1050" d="M182 471v66h688v-66h-688zM182 784v66h688v-66h-688z" />
<glyph unicode="&#x3e;" horiz-adv-x="907" d="M193 352v84l509 248l-507 250v80l579 -299v-64z" />
<glyph unicode="?" horiz-adv-x="993" d="M119 1382q59 45 152.5 73t177.5 28q178 0 295.5 -89t117.5 -253q0 -82 -41 -148.5t-100 -114t-118.5 -92.5t-100.5 -107.5t-41 -137.5v-168h-68v170q0 86 40 154.5t98.5 114.5t116 90t97 104.5t39.5 136.5q0 129 -99 199.5t-236 70.5q-158 0 -293 -86zM358 51 q0 31 19.5 50.5t48.5 19.5q31 0 50.5 -19.5t19.5 -50.5q0 -29 -18.5 -47t-51.5 -18q-29 0 -48.5 18.5t-19.5 46.5z" />
<glyph unicode="@" horiz-adv-x="1947" d="M137 610q0 344 247 584t609 240q123 0 241 -30t225.5 -92.5t187 -152.5t128 -221t48.5 -287q0 -211 -83 -341t-255 -130q-119 0 -177.5 53.5t-62.5 137.5q-37 -82 -120 -129t-183 -47q-123 0 -211 70.5t-88 189.5q0 72 33 122t87 73.5t104.5 32.5t105.5 9q33 0 65.5 -3 t59 -8t52.5 -11t41 -11.5t28 -9.5l12 -4v111q0 125 -59.5 174t-182.5 49q-119 0 -248 -39l-18 51q152 43 276 43q152 0 224.5 -67.5t72.5 -210.5v-355q0 -156 191 -155q96 0 160.5 64.5t88 151.5t23.5 189q0 147 -45 270t-120.5 205t-175 138.5t-207 82t-218.5 25.5 q-336 0 -563 -223t-227 -541q0 -319 222 -545.5t540 -226.5q154 0 282 51l19 -57q-147 -57 -303 -57q-338 0 -582 245.5t-244 591.5zM702 457q0 -92 73 -148.5t167 -56.5q113 0 201 74.5t88 177.5v84q-102 51 -256 51q-68 0 -124 -13.5t-102.5 -56.5t-46.5 -112z" />
<glyph unicode="A" horiz-adv-x="1314" d="M61 0l555 1448h86l558 -1448h-84l-156 414h-721l-154 -414h-84zM324 481h671l-336 885z" />
<glyph unicode="B" horiz-adv-x="1380" d="M223 0v1434h545q158 0 273.5 -110t115.5 -271q0 -111 -54 -198t-140 -122q119 -37 194.5 -130t75.5 -222q0 -164 -113.5 -272.5t-277.5 -108.5h-619zM303 74h541q119 0 215 91t96 218q0 123 -91 215t-224 92h-537v-616zM303 762h498q121 0 198.5 80t77.5 211 q0 135 -90 220t-217 85h-467v-596z" />
<glyph unicode="C" horiz-adv-x="1396" d="M131 717q0 301 215 516t512 215q209 0 418 -102l-29 -62q-180 90 -383 90q-270 0 -461.5 -191.5t-191.5 -466t191.5 -466t461.5 -191.5q90 0 186.5 22.5t145.5 45.5l51 23l29 -62q-209 -102 -418 -102q-295 0 -511 213t-216 518z" />
<glyph unicode="D" horiz-adv-x="1470" d="M223 0v1434h479q158 0 316 -91q313 -182 313 -626q0 -442 -313 -627q-158 -90 -316 -90h-479zM303 76h391q143 0 289 84q270 158 270 557t-270 557q-141 84 -289 84h-391v-1282z" />
<glyph unicode="E" horiz-adv-x="1339" d="M223 0v1434h963v-76h-885v-625h760v-74h-760v-585h922v-74h-1000z" />
<glyph unicode="F" horiz-adv-x="1251" d="M223 0v1434h963v-76h-885v-633h760v-74h-760v-651h-78z" />
<glyph unicode="G" horiz-adv-x="1546" d="M131 717q0 299 218 515t523 216q223 0 443 -107l-31 -63l-16 8q-16 6 -36 14.5t-49.5 18.5t-63.5 19.5t-71.5 17.5t-81.5 13t-85 5q-270 0 -470 -192.5t-200 -464.5q0 -270 188.5 -464t470.5 -194q260 0 463 183v379h-409v65h485v-471q-236 -229 -537 -229 q-305 0 -523 212t-218 519z" />
<glyph unicode="H" horiz-adv-x="1527" d="M223 0v1434h78v-668h924v668h78v-1434h-78v694h-924v-694h-78z" />
<glyph unicode="I" horiz-adv-x="526" d="M223 0v1434h78v-1434h-78z" />
<glyph unicode="J" horiz-adv-x="544" d="M14 -233q61 27 144.5 106.5t83.5 175.5v1305l-127 24v56h207v-1364q0 -240 -283 -357z" />
<glyph unicode="K" horiz-adv-x="1263" d="M223 0v1434h78v-910l141 170l623 740h98l-532 -635l610 -799h-94l-565 745l-281 -323v-422h-78z" />
<glyph unicode="L" horiz-adv-x="1228" d="M223 0v1434h78v-1360h864v-74h-942z" />
<glyph unicode="M" horiz-adv-x="1843" d="M223 0v1434h113l584 -1254h4l583 1254h113v-1434h-78v1325h-4l-582 -1241h-69l-584 1245h-2v-1329h-78z" />
<glyph unicode="N" horiz-adv-x="1497" d="M223 0v1434h80l483 -709l412 -608h2l-4 721v596h78v-1434h-84l-488 721l-399 596h-4l2 -576v-741h-78z" />
<glyph unicode="O" horiz-adv-x="1720" d="M131 715q0 305 214 519t513 214q303 0 517 -214t214 -519q0 -303 -214 -516t-517 -213q-301 0 -514 214t-213 515zM211 714.5q0 -274.5 188.5 -465t458.5 -190.5q272 0 461.5 190.5t189.5 465.5q0 270 -190.5 464.5t-460.5 194.5t-458.5 -192.5t-188.5 -467z" />
<glyph unicode="P" horiz-adv-x="1306" d="M223 0v1434h596q162 0 275.5 -126t113.5 -290q0 -162 -114.5 -288t-274.5 -126h-518v-604h-78zM301 680h510q131 0 225 102.5t94 235.5q0 139 -92 239.5t-227 100.5h-510v-678z" />
<glyph unicode="Q" horiz-adv-x="1712" d="M131 717q0 303 213 517t510 214q301 0 513 -214t212 -517q0 -252 -154.5 -449.5t-394.5 -253.5v-4q117 -61 264.5 -113.5t212.5 -68.5l-30 -70q-43 10 -216.5 80t-263.5 125q-16 8 -27.5 13.5t-25.5 7.5t-22.5 3t-31 0t-36.5 -1q-301 0 -512 215t-211 516zM213 715 q0 -272 186.5 -464t454.5 -192t456.5 191.5t188.5 464.5q0 274 -188.5 467.5t-456.5 193.5q-266 0 -453.5 -193.5t-187.5 -467.5z" />
<glyph unicode="R" horiz-adv-x="1382" d="M223 0v1434h604q164 0 280 -115t116 -277q0 -143 -91.5 -252.5t-228.5 -134.5l375 -655h-90l-369 647h-518v-647h-78zM301 723h526q131 0 225.5 94t94.5 225q0 135 -97.5 225.5t-234.5 90.5h-514v-635z" />
<glyph unicode="S" horiz-adv-x="1220" d="M131 100l33 68q27 -14 82 -35.5t165.5 -46.5t215.5 -25q193 0 297 76t104 219q0 88 -49 149.5t-127 96.5t-172 61.5t-188.5 57.5t-172 70.5t-127 114.5t-49.5 177q0 170 125 267.5t346 97.5q227 0 428 -86l-30 -68q-188 80 -394 80q-174 0 -284.5 -70.5t-110.5 -211.5 q0 -121 91.5 -194t221.5 -109.5t260 -76.5t221 -125t91 -225q0 -178 -129 -277t-354 -99q-254 0 -494 114z" />
<glyph unicode="T" horiz-adv-x="1245" d="M51 1358v76h1141v-76h-533v-1358h-75v1358h-533z" />
<glyph unicode="U" horiz-adv-x="1464" d="M213 598v836h76v-977q0 -152 133 -266.5t311 -114.5q180 0 313.5 114.5t133.5 266.5v977h75v-836q0 -57 -4 -168q-8 -178 -160.5 -304t-357.5 -126q-207 0 -358.5 126t-157.5 304q-4 55 -4 168z" />
<glyph unicode="V" horiz-adv-x="1282" d="M57 1434h82l498 -1334h6l498 1334h82l-541 -1434h-84z" />
<glyph unicode="W" horiz-adv-x="1916" d="M68 1434h84l378 -1309h5l383 1309h79l383 -1309h4l379 1309h84l-426 -1434h-80l-383 1313h-2l-383 -1313h-79z" />
<glyph unicode="X" horiz-adv-x="1312" d="M61 0l551 711l-549 723h93l499 -660h4l496 660h94l-547 -723l545 -711h-94l-494 647h-4l-497 -647h-97z" />
<glyph unicode="Y" horiz-adv-x="1181" d="M43 1434h86l182 -306l279 -464h2l274 462l187 308h84l-508 -844v-590h-76v590z" />
<glyph unicode="Z" horiz-adv-x="1247" d="M84 0v59l973 1301v2l-2 2l-340 -4h-606v74h1042v-72l-963 -1290l2 -2l248 4h711v-74h-1065z" />
<glyph unicode="[" horiz-adv-x="555" d="M193 -358v1820h280v-65h-215v-1688h215v-67h-280z" />
<glyph unicode="\" horiz-adv-x="993" d="M96 1499h74l729 -1567h-76z" />
<glyph unicode="]" horiz-adv-x="557" d="M82 -295h215v1690h-215v65h283v-1820h-283v65z" />
<glyph unicode="_" horiz-adv-x="1406" d="M311 -195h785v-61h-785v61z" />
<glyph unicode="`" horiz-adv-x="516" d="M158 1462l86 49l116 -290h-45z" />
<glyph unicode="a" horiz-adv-x="1159" d="M90 319q2 164 130 239t325 75q152 0 336 -37v152q0 152 -78 207t-240 55q-176 0 -358 -47l-17 61q201 55 387 55q199 0 290 -78.5t91 -261.5v-618q0 -49 62 -49q59 0 72 4v-64q-37 -12 -97 -12q-45 0 -74.5 26.5t-29.5 73.5v131q-47 -117 -161 -181t-251 -64 q-160 0 -273.5 85t-113.5 248zM164 317q0 -125 94 -194.5t225 -69.5q158 0 278 101.5t120 236.5v139q-4 2 -49.5 11.5t-127 19.5t-155.5 10q-162 0 -273.5 -59t-111.5 -195z" />
<glyph unicode="b" horiz-adv-x="1323" d="M186 0v1499h78v-698q53 125 173 201.5t259 76.5q221 0 364.5 -163.5t143.5 -383.5q0 -229 -146.5 -387.5t-361.5 -158.5q-147 0 -260.5 74.5t-175.5 209.5l-12 -270h-62zM256 532q0 -195 124 -335t308 -140q182 0 311 138.5t129 337t-126 337t-314 138.5 q-180 0 -306 -138.5t-126 -337.5z" />
<glyph unicode="c" horiz-adv-x="1073" d="M115 532.5q0 225.5 161.5 386t387.5 160.5q168 0 311 -65l-31 -62q-4 4 -37 15.5t-101.5 26t-137.5 14.5q-201 0 -338 -142.5t-137 -333t137 -333t338 -142.5q70 0 138 14.5t101 26t37 15.5l31 -62q-143 -65 -311 -65q-225 0 -387 160.5t-162 386z" />
<glyph unicode="d" horiz-adv-x="1323" d="M119 532q0 219 143.5 383t364.5 164q139 0 259 -76.5t173 -201.5v698h78v-1499h-62l-12 270q-131 -284 -434 -284h-2q-215 0 -361.5 158.5t-146.5 387.5zM195 532.5q0 -198.5 129 -337t311 -138.5q188 0 310 140.5t122 334.5q0 199 -126 337.5t-306 138.5 q-188 0 -314 -138.5t-126 -337z" />
<glyph unicode="e" horiz-adv-x="1220" d="M115 530q0 225 150.5 387t371.5 162q217 0 351 -160.5t134 -371.5l-2 -45h-925q10 -188 141 -317.5t330 -129.5q150 0 338 82l28 -59q-201 -92 -366 -92q-240 0 -395.5 160.5t-155.5 383.5zM195 565h852q-2 172 -113 307.5t-295 135.5q-178 0 -307 -131.5t-137 -311.5z " />
<glyph unicode="f" horiz-adv-x="657" d="M82 997v54l133 14v164q0 152 61.5 229.5t206.5 77.5q74 0 133 -18l-8 -68q-55 14 -121 14q-109 0 -152.5 -61.5t-43.5 -173.5v-164h309v-68h-309v-997h-76v997h-133z" />
<glyph unicode="g" horiz-adv-x="1085" d="M113 -55q0 141 139 229q-90 47 -90 150q0 92 106 170q-106 82 -106 251q0 156 106.5 245t276.5 89q49 0 125 -14h321v-45l-190 -21q139 -76 139 -254q0 -152 -100.5 -242.5t-282.5 -90.5q-139 0 -229 47q-16 -8 -35 -23.5t-39.5 -47.5t-20.5 -64q0 -39 24 -66t46 -35 l25 -8q82 -25 299 -25q174 0 268 -54t94 -191q0 -293 -438 -293t-438 293zM186 -55q0 -66 33 -113t90.5 -70.5t115.5 -33t126 -9.5q362 0 362 226q0 102 -73.5 142t-229.5 40q-203 0 -284 20q-139 -76 -140 -202zM240 745q0 -123 80.5 -194.5t232.5 -71.5q150 0 229.5 72 t79.5 194q0 129 -83 198t-226 69t-228 -70t-85 -197z" />
<glyph unicode="h" d="M186 0v1499h78v-694q10 37 38 78t74 88t122.5 77.5t169.5 30.5q201 0 304 -122.5t103 -338.5v-618h-78v623q0 176 -87 278.5t-251 102.5q-188 0 -291.5 -132.5t-103.5 -283.5v-588h-78z" />
<glyph unicode="i" horiz-adv-x="460" d="M96 1012v53h180v-1065h-77v989zM141 1341q0 31 21.5 53.5t54.5 22.5q31 0 55.5 -22.5t24.5 -51.5q0 -33 -24.5 -55t-55.5 -22q-33 0 -54.5 21.5t-21.5 53.5z" />
<glyph unicode="j" horiz-adv-x="464" d="M74 -295q47 18 87 68.5t40 128.5v1087l-107 23v53h185v-1073q0 -154 -42.5 -228.5t-138.5 -111.5zM139 1341q0 31 21.5 53.5t54.5 22.5q31 0 55.5 -22.5t24.5 -51.5q0 -33 -23.5 -55t-56.5 -22t-54.5 21.5t-21.5 53.5z" />
<glyph unicode="k" horiz-adv-x="976" d="M186 0v1499h78v-751l-2 -316l281 324l268 309h100l-430 -487l441 -578h-93l-395 520l-170 -194v-326h-78z" />
<glyph unicode="l" horiz-adv-x="493" d="M190 127v1372h78v-1368q0 -59 64 -59q43 0 67 6v-64q-47 -14 -100 -14q-109 0 -109 127z" />
<glyph unicode="m" horiz-adv-x="1845" d="M186 0v1065h60l14 -203q45 113 141.5 165t206.5 52q127 0 213 -66.5t121 -166.5q39 98 138.5 165.5t238.5 67.5q168 0 259 -104.5t91 -280.5v-694h-78v709q0 145 -80.5 220t-207.5 75q-150 0 -244 -95.5t-94 -240.5v-668h-78v711q0 143 -85 218t-208 75 q-141 0 -235.5 -98.5t-94.5 -239.5v-666h-78z" />
<glyph unicode="n" d="M186 0v1065h60l14 -254q27 88 131.5 178t276.5 90q201 0 304 -122.5t103 -338.5v-618h-78v623q0 176 -87 278.5t-251 102.5q-188 0 -291.5 -132.5t-103.5 -283.5v-588h-78z" />
<glyph unicode="o" horiz-adv-x="1316" d="M115 532q0 227 158.5 387t383.5 160q227 0 386 -158.5t159 -388.5q0 -227 -158.5 -386.5t-386.5 -159.5q-223 0 -382.5 160.5t-159.5 385.5zM193 532q0 -195 136 -334t328.5 -139t330.5 139.5t138 333.5q0 197 -137 335.5t-332 138.5q-193 0 -328.5 -138.5t-135.5 -335.5 z" />
<glyph unicode="p" horiz-adv-x="1320" d="M186 -348v1413h60l14 -272q59 139 174 212.5t260 73.5q215 0 362.5 -159.5t147.5 -389.5q0 -219 -144.5 -381.5t-365.5 -162.5q-141 0 -262 76.5t-168 205.5v-616h-78zM256 530q0 -205 125 -339t307 -134q186 0 313 138.5t127 334.5q0 199 -129 338.5t-311 139.5 q-188 0 -310 -138.5t-122 -339.5z" />
<glyph unicode="q" horiz-adv-x="1320" d="M119 530q0 229 147.5 389t362.5 160q145 0 260 -73.5t174 -212.5l14 272h60v-1413h-78v616q-47 -129 -168 -205.5t-262 -76.5q-221 0 -365.5 162.5t-144.5 381.5zM195 530q0 -197 127 -335t313 -138q182 0 307 134.5t125 338.5q0 201 -122 339.5t-310 138.5 q-182 0 -311 -139.5t-129 -338.5z" />
<glyph unicode="r" horiz-adv-x="673" d="M186 0v1063h58l16 -207q37 100 129 154.5t207 54.5v-70q-139 0 -235.5 -87t-96.5 -244v-664h-78z" />
<glyph unicode="s" horiz-adv-x="970" d="M115 72l28 61q39 -23 138.5 -50.5t210.5 -27.5q143 0 222 56.5t79 154.5q0 74 -49.5 123t-124 70.5t-160.5 49.5t-161 54.5t-124 88t-49 149.5q0 127 95 202.5t267 75.5q176 0 332 -69l-28 -62q-141 61 -302 62q-129 0 -209.5 -52.5t-80.5 -152.5q0 -74 49 -123 t123.5 -70.5t160.5 -49t161 -55.5t124 -89.5t49 -151.5q0 -129 -100 -204.5t-274 -75.5q-186 0 -377 86z" />
<glyph unicode="t" horiz-adv-x="688" d="M74 997v54l164 14l16 307h61v-307h301v-68h-301v-659q0 -135 45.5 -201.5t153.5 -66.5q59 0 145 14l15 -55q-90 -29 -168 -29q-150 0 -209 85t-59 253v659h-164z" />
<glyph unicode="u" d="M174 428v637h78v-623q0 -184 86 -282.5t283 -98.5q145 0 254.5 110t109.5 259v635h78v-1065h-59l-15 236q-45 -115 -150.5 -182.5t-226.5 -67.5q-221 0 -329.5 113.5t-108.5 328.5z" />
<glyph unicode="v" horiz-adv-x="991" d="M55 1065h80l359 -973h4l358 973h80l-397 -1065h-86z" />
<glyph unicode="w" horiz-adv-x="1579" d="M59 1065h80l314 -956h6l291 956h79l291 -956h6l314 956h80l-357 -1065h-80l-292 952h-3l-292 -952h-80z" />
<glyph unicode="x" horiz-adv-x="1064" d="M55 0l426 539l-413 526h98l364 -473h5l366 473h94l-413 -526l428 -539h-97l-378 487h-5l-378 -487h-97z" />
<glyph unicode="y" horiz-adv-x="1032" d="M51 1065h80l385 -975h4l379 975h82l-432 -1090q-29 -70 -47.5 -109.5t-56 -98t-88 -87t-111.5 -28.5q-72 0 -160 31l20 69q71 -24 129 -24h5q47 0 86 22.5t67.5 68.5t46 83t39.5 98z" />
<glyph unicode="z" horiz-adv-x="1040" d="M82 0v57l774 938v4l-403 -2h-347v68h846v-59l-772 -938v-2l242 2h522v-68h-862z" />
<glyph unicode="{" horiz-adv-x="641" d="M86 520v66q156 0 156 153v463q4 135 65.5 196.5t206.5 61.5h47v-67h-47q-109 0 -155 -43t-46 -146v-465q0 -155 -104 -186q104 -31 104 -186v-467q0 -100 46.5 -144.5t154.5 -44.5h47v-67h-47q-145 0 -206.5 61.5t-65.5 198.5v461q0 156 -156 155z" />
<glyph unicode="|" horiz-adv-x="448" d="M190 -297v1931h68v-1931h-68z" />
<glyph unicode="}" horiz-adv-x="641" d="M78 -289h49q109 0 155 44t46 145v467q0 155 104 186q-104 31 -104 186v465q0 102 -46 145.5t-155 43.5h-49v67h49q145 0 206.5 -61.5t65.5 -196.5v-463q0 -154 154 -153v-66q-154 0 -154 -155v-461q-4 -137 -65.5 -198.5t-206.5 -61.5h-49v67z" />
<glyph unicode="&#xa1;" horiz-adv-x="493" d="M180 1382q0 29 19.5 47.5t50.5 18.5t50 -18.5t19 -47.5q0 -31 -20 -50t-49 -19q-31 0 -50.5 19.5t-19.5 49.5zM197 0l20 1061h59l21 -1061h-100z" />
<glyph unicode="&#xa2;" horiz-adv-x="1222" d="M156 532q0 215 150.5 374t365.5 171v150h57v-148q152 -6 287 -65l-29 -62l-8 2q-6 4 -20.5 9.5t-33 10.5t-43 11t-51 11t-58.5 8.5t-64 3.5q-201 0 -338.5 -142.5t-137.5 -333.5q0 -195 138.5 -335t337.5 -140q72 0 140.5 14.5t100 26t35.5 15.5l27 -60q-37 -25 -119 -45 t-164 -22v-164h-57v164q-211 10 -363.5 169.5t-152.5 376.5z" />
<glyph unicode="&#xa3;" horiz-adv-x="1171" d="M137 0v68q12 6 31.5 20t52.5 68.5t33 119.5v375h-115v58h115v342q2 172 120 284.5t285 112.5q195 0 318 -160l-53 -51q-102 135 -265 135q-137 0 -232 -95t-95 -241v-327h536v-58h-536v-352q0 -170 -103 -231h811v-68h-903z" />
<glyph unicode="&#xa5;" horiz-adv-x="1294" d="M100 1434h88l281 -469l178 -299h4l178 301l281 467h86l-510 -844v-68h283v-55h-283v-111h283v-57h-283v-299h-76v299h-291v57h291v111h-291v55h291v68z" />
<glyph unicode="&#xa7;" horiz-adv-x="1218" d="M135 545q0 86 60.5 150.5t140.5 94t172 39.5q-59 18 -96 30.5t-92.5 40.5t-87 56.5t-56 73.5t-24.5 100q0 86 49 148.5t125.5 94.5t149.5 46.5t138 14.5q188 0 344 -88l-40 -62q-135 76 -312 76q-143 0 -261 -58.5t-118 -173.5q0 -96 100.5 -156.5t319.5 -111.5 q61 -14 77.5 -18t79 -22.5t88.5 -31t73 -39t67.5 -53t39 -64.5t18.5 -83q0 -70 -38 -125t-100.5 -88t-125 -52.5t-128.5 -27.5q59 -16 100.5 -30.5t97.5 -42t91 -58.5t60.5 -77t25.5 -101q0 -80 -46 -140.5t-122 -92t-155.5 -47t-161.5 -15.5q-227 0 -375 90l43 68 q150 -84 338 -84q63 0 128.5 11t129 35.5t103.5 70.5t40 108q0 47 -26.5 88t-63.5 66.5t-99.5 50t-109.5 38t-118 29.5q-63 14 -106.5 25.5t-113 40t-112.5 59.5t-77 83t-34 114zM213 551q0 -111 121 -177.5t256 -66.5q53 0 116.5 11.5t136 35t121 74.5t48.5 119 q0 80 -71 135t-156 74.5t-173 21.5q-147 2 -270 -57t-129 -170z" />
<glyph unicode="&#xa8;" horiz-adv-x="899" d="M176 1298.5q0 28.5 20.5 50t49.5 21.5q35 0 55.5 -20.5t20.5 -51t-20.5 -49t-55.5 -18.5q-29 0 -49.5 19.5t-20.5 48zM541 1298.5q0 28.5 20.5 50t48.5 21.5q35 0 54.5 -20.5t19.5 -51t-19.5 -49t-54.5 -18.5q-31 0 -50 19.5t-19 48z" />
<glyph unicode="&#xa9;" horiz-adv-x="1718" d="M139 717q0 297 211 507t508 210q299 0 509 -210t210 -507t-211 -507t-508 -210q-295 0 -507 211t-212 506zM193 717q0 -276 195.5 -471t469.5 -195q276 0 471 194.5t195 471.5q0 274 -195.5 468.5t-470 194.5t-470 -194.5t-195.5 -468.5zM522 725q0 143 103.5 247.5 t246.5 104.5q122 0 220 -82l-37 -49q-88 61 -181 62q-117 0 -198.5 -84t-81.5 -201q0 -115 82 -197t196 -82q94 0 183 62l35 -53q-86 -78 -218 -78q-145 0 -247.5 102.5t-102.5 247.5z" />
<glyph unicode="&#xaa;" horiz-adv-x="991" d="M166 571v60h657v-60h-657zM168 981q6 213 313 213q39 0 90.5 -10t83.5 -21l33 -10v66q0 117 -45 169t-182 52q-55 0 -191 -35l-12 53q131 41 213 41q145 0 212 -59.5t67 -192.5v-413q0 -20 34 -21q6 0 22.5 1t18.5 1v-49q-31 -14 -69 -14q-61 0 -62 59v84 q-33 -70 -102.5 -108.5t-161.5 -38.5q-106 0 -184 63t-78 170zM227 979q0 -76 63.5 -124t145.5 -48q106 0 177 63.5t75 155.5v74q-129 43 -209 43q-252 0 -252 -164z" />
<glyph unicode="&#xab;" horiz-adv-x="1085" d="M121 528v11l409 454l41 -43l-350 -418l348 -419l-39 -41zM504 528v11l409 454l39 -43l-350 -418l348 -419l-37 -41z" />
<glyph unicode="&#xad;" horiz-adv-x="1044" d="M162 616v64h721v-64h-721z" />
<glyph unicode="&#xae;" horiz-adv-x="1263" d="M174 975q0 190 134.5 324.5t324.5 134.5q188 0 322.5 -134.5t134.5 -324.5q0 -188 -135.5 -323.5t-321.5 -135.5q-190 0 -324.5 135t-134.5 324zM217 975q0 -174 121 -295t295 -121q168 0 292 121t124 295q0 170 -123 293t-293 123q-172 0 -294 -123t-122 -293zM479 741 v471h195q55 0 94 -38.5t39 -94.5q0 -47 -29.5 -82.5t-75.5 -44.5l123 -211h-43l-120 207h-144v-207h-39zM518 987h156q39 0 65.5 27.5t26.5 64.5q0 43 -29.5 69t-70.5 26h-148v-187z" />
<glyph unicode="&#xaf;" horiz-adv-x="927" d="M152 1245v60h593v-60h-593z" />
<glyph unicode="&#xb0;" horiz-adv-x="636" d="M129 1264q0 76 58.5 129t129.5 53q78 0 133.5 -51.5t55.5 -128.5q0 -80 -55.5 -132.5t-133.5 -52.5q-76 0 -132 52.5t-56 130.5zM182 1264q0 -53 41 -91t94 -38q55 0 95.5 35.5t40.5 93.5q0 55 -40 91t-96 36q-53 0 -94 -38t-41 -89z" />
<glyph unicode="&#xb1;" horiz-adv-x="1003" d="M178 739v60h293v270h61v-270h291v-60h-291v-270h-61v270h-293zM180 240v63h643v-63h-643z" />
<glyph unicode="&#xb4;" horiz-adv-x="516" d="M156 1221l114 290l86 -49l-157 -241h-43z" />
<glyph unicode="&#xb6;" horiz-adv-x="1005" d="M121 1051q0 168 103.5 275.5t254.5 107.5h291v-1608h-65v1542h-105v-1542h-65v823h-70q-162 0 -253 119t-91 283z" />
<glyph unicode="&#xb7;" horiz-adv-x="516" d="M158 610q0 41 28.5 70t69.5 29q43 0 72.5 -29t29.5 -70t-29.5 -69.5t-72.5 -28.5q-41 0 -69.5 28.5t-28.5 69.5z" />
<glyph unicode="&#xb8;" horiz-adv-x="657" d="M221 -365l15 41q47 -18 104 -18q47 0 80 23.5t33 66.5q0 37 -26 60.5t-75 23.5q-12 0 -37 -4l-30 29l55 147h41l-35 -135q14 2 27 2q72 0 107.5 -34t35.5 -91q0 -68 -49 -106.5t-117 -38.5q-72 0 -129 34z" />
<glyph unicode="&#xba;" horiz-adv-x="1206" d="M180 1042v7q0 160 115 272.5t291 112.5q178 0 290.5 -111t112.5 -272v-7q0 -160 -115.5 -274.5t-291.5 -114.5q-174 0 -288 113t-114 274zM190 412v63h799v-63h-799zM258 1044q0 -131 95.5 -224t236.5 -93q139 0 230 92t91 223v7q0 131 -94 223t-235 92 q-139 0 -231.5 -92t-92.5 -221v-7z" />
<glyph unicode="&#xbb;" horiz-adv-x="1085" d="M133 950l39 43l412 -454v-11l-412 -456l-37 41l348 419zM516 950l43 43l408 -454v-11l-408 -456l-41 41l348 419z" />
<glyph unicode="&#xbf;" horiz-adv-x="987" d="M131 299q0 82 41 147.5t99.5 112.5t118 92t100 106.5t40.5 137.5v170h68v-174q0 -86 -40 -153.5t-97.5 -112.5t-114.5 -89t-97 -104.5t-40 -134.5q0 -127 97 -195.5t235 -68.5q162 0 288 84l39 -54q-61 -47 -152 -74.5t-175 -27.5q-176 0 -293 88t-117 250zM494 1378 q0 29 19 47.5t50 18.5q29 0 48.5 -18.5t19.5 -47.5q0 -31 -18.5 -49t-49.5 -18t-50 18.5t-19 48.5z" />
<glyph unicode="&#xc0;" horiz-adv-x="1318" d="M61 0l555 1448h86l558 -1448h-84l-156 414h-721l-154 -414h-84zM324 481h671l-336 885zM475 1759l84 49l117 -290h-43z" />
<glyph unicode="&#xc1;" horiz-adv-x="1318" d="M61 0l555 1448h86l558 -1448h-84l-156 414h-721l-154 -414h-84zM324 481h671l-336 885zM645 1518l117 290l84 -49l-158 -241h-43z" />
<glyph unicode="&#xc2;" horiz-adv-x="1318" d="M61 0l555 1448h86l558 -1448h-84l-156 414h-721l-154 -414h-84zM324 481h671l-336 885zM438 1518l191 208h61l193 -208h-70l-151 145l-154 -145h-70z" />
<glyph unicode="&#xc3;" horiz-adv-x="1318" d="M61 0l555 1448h86l558 -1448h-84l-156 414h-721l-154 -414h-84zM324 481h671l-336 885zM377 1561q63 109 164 108q49 0 122.5 -40t129.5 -40q72 0 116 64l35 -25q-66 -109 -172 -108q-49 0 -121.5 39.5t-126.5 39.5q-65 0 -112 -63z" />
<glyph unicode="&#xc4;" horiz-adv-x="1318" d="M61 0l555 1448h86l558 -1448h-84l-156 414h-721l-154 -414h-84zM324 481h671l-336 885zM406 1585q0 31 20 51.5t49 20.5q35 0 55.5 -19.5t20.5 -52.5q0 -29 -20.5 -48t-55.5 -19q-29 0 -49 19t-20 48zM770 1585q0 31 20.5 51.5t49.5 20.5q73 0 73 -72q0 -29 -19.5 -48 t-53.5 -19q-29 0 -49.5 19t-20.5 48z" />
<glyph unicode="&#xc5;" horiz-adv-x="1318" d="M61 0l555 1448h86l558 -1448h-84l-156 414h-721l-154 -414h-84zM324 481h671l-336 885zM496 1675.5q0 65.5 49 111.5t114.5 46t114.5 -46t49 -111.5t-49 -111.5t-114.5 -46t-114.5 46t-49 111.5zM537 1675q0 -47 36.5 -80.5t86 -33.5t86 33.5t36.5 80.5t-36.5 81t-86 34 t-86 -34t-36.5 -81z" />
<glyph unicode="&#xc6;" horiz-adv-x="1908" d="M51 0l678 1434h1028v-76h-809v-625h684v-74h-684v-585h846v-74h-924v414h-538l-195 -414h-86zM358 481h512v877h-100z" />
<glyph unicode="&#xc7;" horiz-adv-x="1396" d="M131 717q0 301 215 516t512 215q209 0 418 -102l-29 -62q-180 90 -383 90q-270 0 -461.5 -191.5t-191.5 -466t191.5 -466t461.5 -191.5q90 0 186.5 22.5t145.5 45.5l51 23l29 -62q-203 -100 -414 -102l-28 -117q14 2 26 2q72 0 108 -34t36 -91q0 -68 -49.5 -106.5 t-116.5 -38.5q-72 0 -129 34l14 41q47 -18 104 -18q47 0 80 23.5t33 66.5q0 37 -25.5 60.5t-74.5 23.5q-12 0 -37 -4l-31 29l49 131q-283 14 -486.5 224t-203.5 505z" />
<glyph unicode="&#xc8;" horiz-adv-x="1339" d="M223 0v1434h963v-76h-885v-625h760v-74h-760v-585h922v-74h-1000zM539 1759l84 49l116 -290h-43z" />
<glyph unicode="&#xc9;" horiz-adv-x="1339" d="M223 0v1434h963v-76h-885v-625h760v-74h-760v-585h922v-74h-1000zM629 1518l116 290l86 -49l-157 -241h-45z" />
<glyph unicode="&#xca;" horiz-adv-x="1339" d="M223 0v1434h963v-76h-885v-625h760v-74h-760v-585h922v-74h-1000zM469 1518l193 208h59l192 -208h-69l-152 145l-153 -145h-70z" />
<glyph unicode="&#xcb;" horiz-adv-x="1339" d="M223 0v1434h963v-76h-885v-625h760v-74h-760v-585h922v-74h-1000zM436 1585q0 31 21.5 51.5t50.5 20.5q33 0 53.5 -19.5t20.5 -52.5q0 -29 -20.5 -48t-53.5 -19q-31 0 -51.5 19t-20.5 48zM801 1585q0 31 20.5 51.5t48.5 20.5q35 0 55.5 -19.5t20.5 -52.5q0 -29 -20.5 -48 t-55.5 -19q-29 0 -49 19t-20 48z" />
<glyph unicode="&#xcc;" horiz-adv-x="526" d="M84 1759l84 49l117 -290h-45zM223 0v1434h78v-1434h-78z" />
<glyph unicode="&#xcd;" horiz-adv-x="526" d="M223 0v1434h78v-1434h-78zM242 1518l116 290l86 -49l-157 -241h-45z" />
<glyph unicode="&#xce;" horiz-adv-x="526" d="M41 1518l192 208h62l190 -208h-69l-152 145l-153 -145h-70zM223 0v1434h78v-1434h-78z" />
<glyph unicode="&#xcf;" horiz-adv-x="526" d="M8 1585q0 31 20.5 51.5t49.5 20.5q35 0 55.5 -19.5t20.5 -52.5q0 -29 -20.5 -48t-55.5 -19q-29 0 -49.5 19t-20.5 48zM223 0v1434h78v-1434h-78zM373 1585q0 31 20.5 51.5t48.5 20.5q35 0 55.5 -19.5t20.5 -52.5q0 -29 -20.5 -48t-55.5 -19q-29 0 -49 19t-20 48z" />
<glyph unicode="&#xd0;" horiz-adv-x="1476" d="M37 690v58h194v686h478q158 0 315 -91q313 -182 313 -626q0 -442 -313 -627q-157 -90 -315 -90h-478v690h-194zM309 76h391q143 0 289 84q270 158 270.5 557t-270.5 557q-141 84 -289 84h-391v-610h375v-58h-375v-614z" />
<glyph unicode="&#xd1;" horiz-adv-x="1497" d="M223 0v1434h80l483 -709l412 -608h2l-4 721v596h78v-1434h-84l-488 721l-399 596h-4l2 -576v-741h-78zM479 1561q35 59 89.5 87.5t111.5 16.5q31 -6 96.5 -41t120.5 -35q74 0 115 64l35 -25q-33 -59 -88.5 -88t-114.5 -16q-33 6 -98.5 40.5t-118.5 34.5q-62 0 -113 -63z " />
<glyph unicode="&#xd2;" horiz-adv-x="1720" d="M131 715q0 305 214 519t513 214q303 0 517 -214t214 -519q0 -303 -214 -516t-517 -213q-301 0 -514 214t-213 515zM211 714.5q0 -274.5 188.5 -465t458.5 -190.5q272 0 461.5 190.5t189.5 465.5q0 270 -190.5 464.5t-460.5 194.5t-458.5 -192.5t-188.5 -467zM682 1759 l86 49l115 -290h-43z" />
<glyph unicode="&#xd3;" horiz-adv-x="1720" d="M131 715q0 305 214 519t513 214q303 0 517 -214t214 -519q0 -303 -214 -516t-517 -213q-301 0 -514 214t-213 515zM211 714.5q0 -274.5 188.5 -465t458.5 -190.5q272 0 461.5 190.5t189.5 465.5q0 270 -190.5 464.5t-460.5 194.5t-458.5 -192.5t-188.5 -467zM846 1518 l117 290l86 -49l-158 -241h-45z" />
<glyph unicode="&#xd4;" horiz-adv-x="1720" d="M131 715q0 305 214 519t513 214q303 0 517 -214t214 -519q0 -303 -214 -516t-517 -213q-301 0 -514 214t-213 515zM211 714.5q0 -274.5 188.5 -465t458.5 -190.5q272 0 461.5 190.5t189.5 465.5q0 270 -190.5 464.5t-460.5 194.5t-458.5 -192.5t-188.5 -467zM639 1518 l190 208h62l192 -208h-69l-152 145l-153 -145h-70z" />
<glyph unicode="&#xd5;" horiz-adv-x="1738" d="M131 715q0 305 214 519t513 214q303 0 517 -214t214 -519q0 -303 -214 -516t-517 -213q-301 0 -514 214t-213 515zM211 714.5q0 -274.5 188.5 -465t458.5 -190.5q272 0 461.5 190.5t189.5 465.5q0 270 -190.5 464.5t-460.5 194.5t-458.5 -192.5t-188.5 -467zM575 1561 q80 129 201 104q31 -6 96.5 -41t120.5 -35q74 0 115 64l35 -25q-33 -59 -88.5 -88t-114.5 -16q-33 6 -98.5 40.5t-118.5 34.5q-62 0 -113 -63z" />
<glyph unicode="&#xd6;" horiz-adv-x="1720" d="M131 715q0 305 214 519t513 214q303 0 517 -214t214 -519q0 -303 -214 -516t-517 -213q-301 0 -514 214t-213 515zM211 714.5q0 -274.5 188.5 -465t458.5 -190.5q272 0 461.5 190.5t189.5 465.5q0 270 -190.5 464.5t-460.5 194.5t-458.5 -192.5t-188.5 -467zM606 1585 q0 31 20.5 51.5t49.5 20.5q35 0 55.5 -19.5t20.5 -52.5q0 -29 -20.5 -48t-55.5 -19q-29 0 -49.5 19t-20.5 48zM971 1585q0 31 20.5 51.5t48.5 20.5q35 0 55.5 -19.5t20.5 -52.5q0 -29 -20.5 -48t-55.5 -19q-29 0 -49 19t-20 48z" />
<glyph unicode="&#xd7;" horiz-adv-x="917" d="M178 426l238 236l-238 237l41 39l238 -236l239 240l43 -41l-239 -239l237 -236l-43 -45l-237 240l-236 -240z" />
<glyph unicode="&#xd8;" horiz-adv-x="1720" d="M131 715q0 305 214 519t513 214q203 0 375 -105l96 148h62l-113 -176q143 -100 227 -259t84 -341q0 -303 -214 -516t-517 -213q-197 0 -369 100l-94 -145h-63l112 174q-145 102 -229 260t-84 340zM211 715q0 -166 72.5 -307.5t199.5 -229.5l709 1102q-154 94 -334 94 q-270 0 -458.5 -192.5t-188.5 -466.5zM528 150q152 -90 330 -91q272 0 461.5 191t189.5 465q0 162 -72.5 303t-199.5 233z" />
<glyph unicode="&#xd9;" horiz-adv-x="1464" d="M213 598v836h76v-977q0 -152 133 -266.5t311 -114.5q180 0 313.5 114.5t133.5 266.5v977h75v-836q0 -57 -4 -168q-8 -178 -160.5 -304t-357.5 -126q-207 0 -358.5 126t-157.5 304q-4 55 -4 168zM600 1759l86 49l115 -290h-43z" />
<glyph unicode="&#xda;" horiz-adv-x="1464" d="M213 598v836h76v-977q0 -152 133 -266.5t311 -114.5q180 0 313.5 114.5t133.5 266.5v977h75v-836q0 -57 -4 -168q-8 -178 -160.5 -304t-357.5 -126q-207 0 -358.5 126t-157.5 304q-4 55 -4 168zM643 1518l117 290l86 -49l-158 -241h-45z" />
<glyph unicode="&#xdb;" horiz-adv-x="1464" d="M213 598v836h76v-977q0 -152 133 -266.5t311 -114.5q180 0 313.5 114.5t133.5 266.5v977h75v-836q0 -57 -4 -168q-8 -178 -160.5 -304t-357.5 -126q-207 0 -358.5 126t-157.5 304q-4 55 -4 168zM512 1518l190 208h62l192 -208h-69l-152 145l-155 -145h-68z" />
<glyph unicode="&#xdc;" horiz-adv-x="1464" d="M213 598v836h76v-977q0 -152 133 -266.5t311 -114.5q180 0 313.5 114.5t133.5 266.5v977h75v-836q0 -57 -4 -168q-8 -178 -160.5 -304t-357.5 -126q-207 0 -358.5 126t-157.5 304q-4 55 -4 168zM479 1585q0 31 20.5 51.5t49.5 20.5q74 0 74 -72q0 -29 -19.5 -48 t-54.5 -19q-29 0 -49.5 19t-20.5 48zM844 1585q0 31 20.5 51.5t48.5 20.5q74 0 74 -72q0 -29 -19.5 -48t-54.5 -19q-31 0 -50 19t-19 48z" />
<glyph unicode="&#xdd;" horiz-adv-x="1181" d="M43 1434h86l182 -306l279 -464h2l274 462l187 308h84l-508 -844v-590h-76v590zM520 1518l115 290l86 -49l-158 -241h-43z" />
<glyph unicode="&#xde;" horiz-adv-x="1302" d="M223 0v1434h78v-289h520q162 0 274.5 -126t112.5 -290t-113.5 -291t-275.5 -127h-518v-311h-78zM301 387h510q133 0 226 103.5t93 236.5q0 139 -92 240.5t-227 101.5h-510v-682z" />
<glyph unicode="&#xdf;" horiz-adv-x="1212" d="M186 0v1028q0 111 30 193t72 123.5t98 66.5t95 31t78 6q170 0 271.5 -90t101.5 -256q0 -70 -26.5 -128.5t-59.5 -92t-59.5 -85t-26.5 -104.5q0 -43 38 -84t91 -75.5t106.5 -74.5t91 -100.5t37.5 -132.5q0 -160 -103 -252t-267 -92q-41 0 -81 7.5t-70 16.5t-57.5 22.5 t-44 22.5t-30.5 17l-12 10l28 64l9 -4q8 -4 17 -10.5t25.5 -13.5l33 -14t39 -14.5t45 -13.5t49 -9t51.5 -3q123 0 207 70.5t84 193.5q0 63 -38 116.5t-91.5 90.5t-106.5 72t-91 83t-38 105.5t26.5 112.5t59.5 91t59.5 91t26.5 113q0 41 -11.5 83t-40 88t-91 74.5 t-150.5 28.5q-29 0 -56.5 -4t-74.5 -23.5t-81 -54.5t-59.5 -105.5t-25.5 -164.5v-1020h-78z" />
<glyph unicode="&#xe0;" horiz-adv-x="1159" d="M90 319q2 164 130 239t325 75q152 0 336 -37v152q0 152 -78 207t-240 55q-176 0 -358 -47l-17 61q201 55 387 55q199 0 290 -78.5t91 -261.5v-618q0 -49 62 -49q59 0 72 4v-64q-37 -12 -97 -12q-45 0 -74.5 26.5t-29.5 73.5v131q-47 -117 -161 -181t-251 -64 q-160 0 -273.5 85t-113.5 248zM164 317q0 -125 94 -194.5t225 -69.5q158 0 278 101.5t120 236.5v139q-4 2 -49.5 11.5t-127 19.5t-155.5 10q-162 0 -273.5 -59t-111.5 -195zM444 1432l86 49l117 -291h-45z" />
<glyph unicode="&#xe1;" horiz-adv-x="1159" d="M90 319q2 164 130 239t325 75q152 0 336 -37v152q0 152 -78 207t-240 55q-176 0 -358 -47l-17 61q201 55 387 55q199 0 290 -78.5t91 -261.5v-618q0 -49 62 -49q59 0 72 4v-64q-37 -12 -97 -12q-45 0 -74.5 26.5t-29.5 73.5v131q-47 -117 -161 -181t-251 -64 q-160 0 -273.5 85t-113.5 248zM164 317q0 -125 94 -194.5t225 -69.5q158 0 278 101.5t120 236.5v139q-4 2 -49.5 11.5t-127 19.5t-155.5 10q-162 0 -273.5 -59t-111.5 -195zM535 1190l116 291l86 -49l-157 -242h-45z" />
<glyph unicode="&#xe2;" horiz-adv-x="1159" d="M90 319q2 164 130 239t325 75q152 0 336 -37v152q0 152 -78 207t-240 55q-176 0 -358 -47l-17 61q201 55 387 55q199 0 290 -78.5t91 -261.5v-618q0 -49 62 -49q59 0 72 4v-64q-37 -12 -97 -12q-45 0 -74.5 26.5t-29.5 73.5v131q-47 -117 -161 -181t-251 -64 q-160 0 -273.5 85t-113.5 248zM164 317q0 -125 94 -194.5t225 -69.5q158 0 278 101.5t120 236.5v139q-4 2 -49.5 11.5t-127 19.5t-155.5 10q-162 0 -273.5 -59t-111.5 -195zM352 1190l191 209h61l193 -209h-70l-152 145l-155 -145h-68z" />
<glyph unicode="&#xe3;" horiz-adv-x="1159" d="M90 319q2 164 130 239t325 75q152 0 336 -37v152q0 152 -78 207t-240 55q-176 0 -358 -47l-17 61q201 55 387 55q199 0 290 -78.5t91 -261.5v-618q0 -49 62 -49q59 0 72 4v-64q-37 -12 -97 -12q-45 0 -74.5 26.5t-29.5 73.5v131q-47 -117 -161 -181t-251 -64 q-160 0 -273.5 85t-113.5 248zM164 317q0 -125 94 -194.5t225 -69.5q158 0 278 101.5t120 236.5v139q-4 2 -49.5 11.5t-127 19.5t-155.5 10q-162 0 -273.5 -59t-111.5 -195zM256 1233q66 109 166 108q49 0 121.5 -39.5t128.5 -39.5q72 0 116 63l33 -25q-63 -109 -170 -108 q-49 0 -121.5 40t-128.5 40q-61 -1 -112 -64z" />
<glyph unicode="&#xe4;" horiz-adv-x="1159" d="M90 319q2 164 130 239t325 75q152 0 336 -37v152q0 152 -78 207t-240 55q-176 0 -358 -47l-17 61q201 55 387 55q199 0 290 -78.5t91 -261.5v-618q0 -49 62 -49q59 0 72 4v-64q-37 -12 -97 -12q-45 0 -74.5 26.5t-29.5 73.5v131q-47 -117 -161 -181t-251 -64 q-160 0 -273.5 85t-113.5 248zM164 317q0 -125 94 -194.5t225 -69.5q158 0 278 101.5t120 236.5v139q-4 2 -49.5 11.5t-127 19.5t-155.5 10q-162 0 -273.5 -59t-111.5 -195zM319 1257q0 31 20.5 51.5t49.5 20.5q74 0 74 -72q0 -29 -19.5 -48t-54.5 -19q-29 0 -49.5 19.5 t-20.5 47.5zM684 1257q0 31 20.5 51.5t49.5 20.5q73 0 73 -72q0 -29 -19.5 -48t-53.5 -19q-31 0 -50.5 19.5t-19.5 47.5z" />
<glyph unicode="&#xe5;" horiz-adv-x="1159" d="M90 319q2 164 130 239t325 75q152 0 336 -37v152q0 152 -78 207t-240 55q-176 0 -358 -47l-17 61q201 55 387 55q199 0 290 -78.5t91 -261.5v-618q0 -49 62 -49q59 0 72 4v-64q-37 -12 -97 -12q-45 0 -74.5 26.5t-29.5 73.5v131q-47 -117 -161 -181t-251 -64 q-160 0 -273.5 85t-113.5 248zM164 317q0 -125 94 -194.5t225 -69.5q158 0 278 101.5t120 236.5v139q-4 2 -49.5 11.5t-127 19.5t-155.5 10q-162 0 -273.5 -59t-111.5 -195zM410 1347.5q0 65.5 49 111.5t114.5 46t114.5 -46t49 -111.5t-49 -111.5t-114.5 -46t-114.5 46 t-49 111.5zM451 1347.5q0 -47.5 36.5 -81t86 -33.5t86 33.5t36.5 81t-36.5 81t-86 33.5t-86 -33.5t-36.5 -81z" />
<glyph unicode="&#xe6;" horiz-adv-x="1968" d="M90 319q2 164 130 239t325 75q147 0 321 -35q8 47 15 78v72q0 152 -78 207t-240 55q-176 0 -358 -47l-17 61q201 55 387 55q172 0 262.5 -57t112.5 -186q72 113 184.5 178t249.5 65q217 0 351.5 -160.5t134.5 -371.5l-2 -45h-926q10 -188 141 -317.5t330 -129.5 q150 0 338 82l29 -59q-201 -92 -367 -92q-162 0 -290 78.5t-195 209.5q-127 -289 -451 -288q-160 0 -273.5 85t-113.5 248zM164 317q0 -125 94 -194.5t225 -69.5q158 0 277 99.5t121 232.5q-19 69 -19 145v5q-170 37 -313 36q-162 0 -273.5 -59t-111.5 -195zM942 565h852 q-2 172 -112.5 307.5t-295.5 135.5q-178 0 -307 -131.5t-137 -311.5z" />
<glyph unicode="&#xe7;" horiz-adv-x="1073" d="M115 532q0 225 161.5 386t387.5 161q168 0 311 -65l-31 -62q-4 4 -37 15.5t-101.5 26t-137.5 14.5q-201 0 -338 -142.5t-137 -333t137 -333t338 -142.5q70 0 138 14.5t101 26t37 15.5l31 -62q-143 -65 -311 -65l-46 2l-30 -119q14 2 26 2q72 0 108 -34t36 -91 q0 -68 -49.5 -106.5t-116.5 -38.5q-72 0 -129 34l14 41q47 -18 105 -18q47 0 79.5 23.5t32.5 66.5q0 37 -25.5 60.5t-74.5 23.5q-12 0 -37 -4l-31 29l52 137q-197 31 -330 184.5t-133 353.5z" />
<glyph unicode="&#xe8;" horiz-adv-x="1220" d="M115 530q0 225 150.5 387t371.5 162q217 0 351 -160.5t134 -371.5l-2 -45h-925q10 -188 141 -317.5t330 -129.5q150 0 338 82l28 -59q-201 -92 -366 -92q-240 0 -395.5 160.5t-155.5 383.5zM195 565h852q-2 172 -113 307.5t-295 135.5q-178 0 -307 -131.5t-137 -311.5z M500 1432l86 49l116 -291h-45z" />
<glyph unicode="&#xe9;" horiz-adv-x="1220" d="M115 530q0 225 150.5 387t371.5 162q217 0 351 -160.5t134 -371.5l-2 -45h-925q10 -188 141 -317.5t330 -129.5q150 0 338 82l28 -59q-201 -92 -366 -92q-240 0 -395.5 160.5t-155.5 383.5zM195 565h852q-2 172 -113 307.5t-295 135.5q-178 0 -307 -131.5t-137 -311.5z M594 1190l117 291l86 -49l-158 -242h-45z" />
<glyph unicode="&#xea;" horiz-adv-x="1220" d="M115 530q0 225 150.5 387t371.5 162q217 0 351 -160.5t134 -371.5l-2 -45h-925q10 -188 141 -317.5t330 -129.5q150 0 338 82l28 -59q-201 -92 -366 -92q-240 0 -395.5 160.5t-155.5 383.5zM195 565h852q-2 172 -113 307.5t-295 135.5q-178 0 -307 -131.5t-137 -311.5z M420 1192l190 209h62l192 -209h-69l-152 145l-156 -145h-67z" />
<glyph unicode="&#xeb;" horiz-adv-x="1220" d="M115 530q0 225 150.5 387t371.5 162q217 0 351 -160.5t134 -371.5l-2 -45h-925q10 -188 141 -317.5t330 -129.5q150 0 338 82l28 -59q-201 -92 -366 -92q-240 0 -395.5 160.5t-155.5 383.5zM195 565h852q-2 172 -113 307.5t-295 135.5q-178 0 -307 -131.5t-137 -311.5z M383 1257q0 31 21.5 51.5t50.5 20.5q33 0 53 -19.5t20 -52.5q0 -29 -20.5 -48t-52.5 -19q-31 0 -51.5 19.5t-20.5 47.5zM748 1257q0 31 20 51.5t49 20.5q35 0 55.5 -19.5t20.5 -52.5q0 -29 -20.5 -48t-55.5 -19q-29 0 -49 19.5t-20 47.5z" />
<glyph unicode="&#xec;" horiz-adv-x="460" d="M35 1432l86 49l117 -291h-45zM96 1012v53h180v-1065h-77v989z" />
<glyph unicode="&#xed;" horiz-adv-x="460" d="M96 1012v53h180v-1065h-77v989zM180 1190l117 291l86 -49l-158 -242h-45z" />
<glyph unicode="&#xee;" horiz-adv-x="460" d="M-27 1190l191 209h61l193 -209h-70l-151 145l-154 -145h-70zM96 1012v53h180v-1065h-77v989z" />
<glyph unicode="&#xef;" horiz-adv-x="460" d="M-72 1257q0 31 20.5 51.5t49.5 20.5q74 0 74 -72q0 -29 -19.5 -48t-54.5 -19q-31 0 -50.5 19.5t-19.5 47.5zM96 1012v53h180v-1065h-77v989zM293 1257q0 31 20.5 51.5t48.5 20.5q33 0 53.5 -19.5t20.5 -52.5q0 -29 -20.5 -48t-53.5 -19q-31 0 -50 19.5t-19 47.5z" />
<glyph unicode="&#xf0;" horiz-adv-x="1157" d="M141 455q0 201 128 324.5t317 123.5q125 0 227 -57.5t156 -167.5q-33 358 -262 557l-209 -139l-29 39l201 135q-133 98 -279 157l19 41l2 2q172 -63 311 -163l188 127l29 -37l-182 -123q160 -147 226.5 -344t66.5 -383q0 -250 -125 -398.5t-332 -148.5q-209 0 -331 131 t-122 324zM217 452.5q0 -159.5 102.5 -269t272.5 -109.5q162 0 266.5 113.5t104.5 277.5q0 168 -108.5 268.5t-264.5 100.5q-166 0 -269.5 -111t-103.5 -270.5z" />
<glyph unicode="&#xf1;" d="M186 0v1065h60l14 -254q27 88 131.5 178t276.5 90q201 0 304 -122.5t103 -338.5v-618h-78v623q0 176 -87 278.5t-251 102.5q-188 0 -291.5 -132.5t-103.5 -283.5v-588h-78zM352 1233q66 109 166 108q49 0 122 -39.5t130 -39.5q74 0 115 63l35 -25q-61 -109 -170 -108 q-49 0 -123 40t-127 40q-62 -1 -113 -64z" />
<glyph unicode="&#xf2;" horiz-adv-x="1316" d="M115 532q0 227 158.5 387t383.5 160q227 0 386 -158.5t159 -388.5q0 -227 -158.5 -386.5t-386.5 -159.5q-223 0 -382.5 160.5t-159.5 385.5zM193 532q0 -195 136 -334t328.5 -139t330.5 139.5t138 333.5q0 197 -137 335.5t-332 138.5q-193 0 -328.5 -138.5t-135.5 -335.5 zM504 1432l84 49l117 -291h-46z" />
<glyph unicode="&#xf3;" horiz-adv-x="1316" d="M115 532q0 227 158.5 387t383.5 160q227 0 386 -158.5t159 -388.5q0 -227 -158.5 -386.5t-386.5 -159.5q-223 0 -382.5 160.5t-159.5 385.5zM193 532q0 -195 136 -334t328.5 -139t330.5 139.5t138 333.5q0 197 -137 335.5t-332 138.5q-193 0 -328.5 -138.5t-135.5 -335.5 zM621 1190l116 291l86 -49l-157 -242h-45z" />
<glyph unicode="&#xf4;" horiz-adv-x="1316" d="M115 532q0 227 158.5 387t383.5 160q227 0 386 -158.5t159 -388.5q0 -227 -158.5 -386.5t-386.5 -159.5q-223 0 -382.5 160.5t-159.5 385.5zM193 532q0 -195 136 -334t328.5 -139t330.5 139.5t138 333.5q0 197 -137 335.5t-332 138.5q-193 0 -328.5 -138.5t-135.5 -335.5 zM436 1190l191 209h61l193 -209h-70l-152 145l-153 -145h-70z" />
<glyph unicode="&#xf5;" horiz-adv-x="1316" d="M115 532q0 227 158.5 387t383.5 160q227 0 386 -158.5t159 -388.5q0 -227 -158.5 -386.5t-386.5 -159.5q-223 0 -382.5 160.5t-159.5 385.5zM193 532q0 -195 136 -334t328.5 -139t330.5 139.5t138 333.5q0 197 -137 335.5t-332 138.5q-193 0 -328.5 -138.5t-135.5 -335.5 zM375 1233q63 109 164 108q49 0 122.5 -39.5t129.5 -39.5q72 0 116 63l35 -25q-66 -109 -172 -108q-43 0 -121 40t-127 40q-65 -1 -112 -64z" />
<glyph unicode="&#xf6;" horiz-adv-x="1316" d="M115 532q0 227 158.5 387t383.5 160q227 0 386 -158.5t159 -388.5q0 -227 -158.5 -386.5t-386.5 -159.5q-223 0 -382.5 160.5t-159.5 385.5zM193 532q0 -195 136 -334t328.5 -139t330.5 139.5t138 333.5q0 197 -137 335.5t-332 138.5q-193 0 -328.5 -138.5t-135.5 -335.5 zM403 1257q0 31 20.5 51.5t49.5 20.5q35 0 55.5 -19.5t20.5 -52.5q0 -29 -20.5 -48t-55.5 -19q-29 0 -49.5 19.5t-20.5 47.5zM768 1257q0 31 20.5 51.5t49.5 20.5q35 0 55 -19.5t20 -52.5q0 -29 -20.5 -48t-54.5 -19q-29 0 -49.5 19.5t-20.5 47.5z" />
<glyph unicode="&#xf7;" horiz-adv-x="1181" d="M178 612v64h826v-64h-826zM512 328q0 33 22.5 56.5t57.5 23.5q33 0 55.5 -24t22.5 -56.5t-22.5 -56t-55.5 -23.5t-56.5 22.5t-23.5 57.5zM512 963q0 33 23.5 55t56.5 22t55.5 -22.5t22.5 -54.5q0 -35 -22.5 -58.5t-55.5 -23.5t-56.5 22.5t-23.5 59.5z" />
<glyph unicode="&#xf8;" horiz-adv-x="1316" d="M115 532q0 227 158.5 387t383.5 160q150 0 275 -73l84 129h59l-100 -156q104 -76 165.5 -193.5t61.5 -253.5q0 -227 -158.5 -386.5t-386.5 -159.5q-147 0 -272 73l-82 -127h-59l98 154q-104 78 -165.5 194.5t-61.5 251.5zM193 532q0 -117 51 -217t139 -165l510 792 q-113 64 -236 64q-193 0 -328.5 -138.5t-135.5 -335.5zM424 123q109 -63 233 -64q193 0 331 139t138 334q0 117 -51 217.5t-141 165.5z" />
<glyph unicode="&#xf9;" d="M174 428v637h78v-623q0 -184 86 -282.5t283 -98.5q145 0 254.5 110t109.5 259v635h78v-1065h-59l-15 236q-45 -115 -150.5 -182.5t-226.5 -67.5q-221 0 -329.5 113.5t-108.5 328.5zM461 1432l84 49l117 -291h-44z" />
<glyph unicode="&#xfa;" d="M174 428v637h78v-623q0 -184 86 -282.5t283 -98.5q145 0 254.5 110t109.5 259v635h78v-1065h-59l-15 236q-45 -115 -150.5 -182.5t-226.5 -67.5q-221 0 -329.5 113.5t-108.5 328.5zM559 1190l117 291l84 -49l-158 -242h-43z" />
<glyph unicode="&#xfb;" d="M174 428v637h78v-623q0 -184 86 -282.5t283 -98.5q145 0 254.5 110t109.5 259v635h78v-1065h-59l-15 236q-45 -115 -150.5 -182.5t-226.5 -67.5q-221 0 -329.5 113.5t-108.5 328.5zM403 1190l191 209h61l193 -209h-70l-151 145l-156 -145h-68z" />
<glyph unicode="&#xfc;" d="M174 428v637h78v-623q0 -184 86 -282.5t283 -98.5q145 0 254.5 110t109.5 259v635h78v-1065h-59l-15 236q-45 -115 -150.5 -182.5t-226.5 -67.5q-221 0 -329.5 113.5t-108.5 328.5zM365 1257q0 31 20.5 51.5t48.5 20.5q35 0 55.5 -19.5t20.5 -52.5q0 -29 -20.5 -48 t-55.5 -19q-29 0 -49 19.5t-20 47.5zM729 1257q0 31 20.5 51.5t49.5 20.5q35 0 55 -19.5t20 -52.5q0 -29 -20 -48t-55 -19q-29 0 -49.5 19.5t-20.5 47.5z" />
<glyph unicode="&#xfd;" horiz-adv-x="1032" d="M51 1065h80l385 -975h4l379 975h82l-432 -1090q-29 -70 -47.5 -109.5t-56 -98t-88 -87t-111.5 -28.5q-72 0 -160 31l20 69q74 -25 134 -24q47 0 86 22.5t67.5 68.5t46 83t39.5 98zM451 1190l116 291l86 -49l-157 -242h-45z" />
<glyph unicode="&#xfe;" horiz-adv-x="1310" d="M186 -348v1782h60l14 -641q59 139 174 212.5t260 73.5q215 0 362.5 -159.5t147.5 -389.5q0 -219 -144.5 -381.5t-365.5 -162.5q-141 0 -262 76.5t-168 205.5v-616h-78zM256 530q0 -205 125 -339t307 -134q186 0 313 138.5t127 334.5q0 199 -129 338.5t-311 139.5 q-188 0 -310 -138.5t-122 -339.5z" />
<glyph unicode="&#xff;" horiz-adv-x="1032" d="M51 1065h80l385 -975h4l379 975h82l-432 -1090q-29 -70 -47.5 -109.5t-56 -98t-88 -87t-111.5 -28.5q-72 0 -160 31l20 69q74 -25 134 -24q47 0 86 22.5t67.5 68.5t46 83t39.5 98zM262 1257q0 31 20.5 51.5t49.5 20.5q33 0 53.5 -19.5t20.5 -52.5q0 -29 -20.5 -48 t-53.5 -19q-31 0 -50.5 19.5t-19.5 47.5zM625 1257q0 31 20.5 51.5t48.5 20.5q35 0 55.5 -19.5t20.5 -52.5q0 -29 -20.5 -48t-55.5 -19q-29 0 -49 19.5t-20 47.5z" />
<glyph unicode="&#x152;" horiz-adv-x="1986" d="M133 719q0 299 214 507t515 208h971v-78h-850v-621h725v-76h-725v-583h887v-76h-1006q-305 0 -518 209t-213 510zM213 717q0 -270 189.5 -455.5t461.5 -185.5h47v1280h-49q-270 0 -459.5 -185.5t-189.5 -453.5z" />
<glyph unicode="&#x153;" horiz-adv-x="2232" d="M115 530q0 229 159.5 389t384.5 160q174 0 313.5 -104.5t190.5 -263.5q51 162 182.5 265t301.5 103q219 0 353 -160.5t134 -373.5l-4 -45h-926q16 -193 153.5 -318t336.5 -125q143 2 321 80l25 -57q-195 -94 -365 -94q-186 0 -322 103.5t-188 262.5q-55 -162 -193 -264 t-313 -102q-225 0 -384.5 159.5t-159.5 384.5zM193 530q0 -195 137 -334t329.5 -139t329.5 139.5t137 333.5q2 195 -137.5 336.5t-329.5 141.5q-193 0 -329.5 -140.5t-136.5 -337.5zM1204 563h852q0 170 -112.5 305.5t-294.5 135.5q-178 0 -307.5 -131.5t-137.5 -309.5z" />
<glyph unicode="&#x178;" horiz-adv-x="1181" d="M43 1434h86l182 -306l279 -464h2l274 462l187 308h84l-508 -844v-590h-76v590zM338 1585q0 31 20.5 51.5t49.5 20.5q73 0 73 -72q0 -29 -19.5 -48t-53.5 -19q-29 0 -49.5 19t-20.5 48zM702 1585q0 31 20.5 51.5t49.5 20.5q74 0 74 -72q0 -29 -19.5 -48t-54.5 -19 q-31 0 -50.5 19t-19.5 48z" />
<glyph unicode="&#x2c6;" horiz-adv-x="743" d="M131 1296l191 207h61l192 -207h-69l-152 144l-153 -144h-70z" />
<glyph unicode="&#x2dc;" horiz-adv-x="866" d="M121 1325q66 109 168 109q47 0 120.5 -40t127.5 -40q72 0 116 63l35 -24q-63 -109 -168 -109q-51 0 -123.5 40t-128.5 40q-65 -1 -112 -64z" />
<glyph unicode="&#x2000;" horiz-adv-x="916" />
<glyph unicode="&#x2001;" horiz-adv-x="1833" />
<glyph unicode="&#x2002;" horiz-adv-x="916" />
<glyph unicode="&#x2003;" horiz-adv-x="1833" />
<glyph unicode="&#x2004;" horiz-adv-x="611" />
<glyph unicode="&#x2005;" horiz-adv-x="458" />
<glyph unicode="&#x2006;" horiz-adv-x="305" />
<glyph unicode="&#x2007;" horiz-adv-x="305" />
<glyph unicode="&#x2008;" horiz-adv-x="229" />
<glyph unicode="&#x2009;" horiz-adv-x="366" />
<glyph unicode="&#x200a;" horiz-adv-x="101" />
<glyph unicode="&#x2010;" horiz-adv-x="1044" d="M162 616v64h721v-64h-721z" />
<glyph unicode="&#x2011;" horiz-adv-x="1044" d="M162 616v64h721v-64h-721z" />
<glyph unicode="&#x2012;" horiz-adv-x="1044" d="M162 616v64h721v-64h-721z" />
<glyph unicode="&#x2013;" horiz-adv-x="1452" d="M162 616v64h1128v-64h-1128z" />
<glyph unicode="&#x2014;" horiz-adv-x="1513" d="M162 616v64h1192v-64h-1192z" />
<glyph unicode="&#x2018;" horiz-adv-x="462" d="M131 1221q0 72 52.5 131t125.5 94l19 -29q-63 -37 -106.5 -103.5t-8.5 -121.5q8 23 45 22q59 0 59 -65q0 -35 -25 -53.5t-56 -18.5q-47 0 -76 45t-29 99z" />
<glyph unicode="&#x2019;" horiz-adv-x="464" d="M145 1106q63 37 106.5 103.5t8.5 121.5q-8 -23 -45 -22q-59 0 -59 65q0 35 25.5 53.5t56.5 18.5q47 0 75.5 -45t28.5 -98q0 -72 -52 -131.5t-126 -94.5z" />
<glyph unicode="&#x201a;" horiz-adv-x="471" d="M139 -203q63 37 105.5 102.5t7.5 123.5q-8 -23 -45 -23q-31 0 -45.5 20.5t-14.5 45.5q0 33 26.5 52t55.5 19q47 0 76 -45t29 -98q0 -72 -52.5 -131.5t-125.5 -93.5z" />
<glyph unicode="&#x201c;" horiz-adv-x="780" d="M135 1221q0 72 53.5 131t126.5 94l17 -29q-63 -37 -105.5 -103.5t-7.5 -123.5q8 25 43 24q59 0 60 -65q0 -35 -25.5 -54.5t-54.5 -19.5q-47 0 -77 45t-30 101zM449 1221q0 72 52 131t126 94l18 -29q-63 -35 -106 -102.5t-9 -124.5q8 25 45 24q59 0 60 -65 q0 -35 -25.5 -54.5t-56.5 -19.5q-47 0 -75.5 45t-28.5 101z" />
<glyph unicode="&#x201d;" horiz-adv-x="786" d="M152 1106q63 37 105 102.5t7 122.5q-8 -23 -45 -22q-31 0 -45 20.5t-14 44.5q0 33 26.5 52.5t55.5 19.5q47 0 75.5 -45t28.5 -98q0 -72 -52 -131.5t-126 -96.5zM463 1106q63 37 105 102.5t10 122.5q-10 -23 -46 -22q-59 0 -59 65q0 33 25.5 52.5t54.5 19.5q47 0 76.5 -45 t29.5 -98q0 -72 -52 -131.5t-128 -96.5z" />
<glyph unicode="&#x201e;" horiz-adv-x="790" d="M143 -203q63 37 105.5 102.5t7.5 123.5q-8 -23 -45 -23q-31 0 -45 20.5t-14 45.5q0 33 26 52t55 19q47 0 76 -45t29 -98q0 -72 -52.5 -131.5t-125.5 -93.5zM455 -203q63 37 105 102.5t9 123.5q-10 -23 -45 -23q-59 0 -59 66q0 33 25.5 52t54.5 19q47 0 76.5 -45t29.5 -98 q0 -72 -53 -131.5t-127 -93.5z" />
<glyph unicode="&#x2022;" horiz-adv-x="585" d="M152 723q0 55 42 96t99 41t98 -42t41 -99t-41 -97t-98 -40t-99 41t-42 100z" />
<glyph unicode="&#x2026;" horiz-adv-x="1193" d="M158 72q0 33 22.5 56.5t55 23.5t55 -24t22.5 -56q0 -31 -22.5 -53.5t-55 -22.5t-55 22.5t-22.5 53.5zM514 72q0 33 22.5 56.5t55.5 23.5t55.5 -24t22.5 -56q0 -31 -22.5 -53.5t-55.5 -22.5t-55.5 22.5t-22.5 53.5zM879 72q0 33 22 56.5t55 23.5q35 0 57.5 -23t22.5 -57 q0 -31 -23.5 -53.5t-56 -22.5t-55 22.5t-22.5 53.5z" />
<glyph unicode="&#x202f;" horiz-adv-x="366" />
<glyph unicode="&#x2039;" horiz-adv-x="700" d="M119 528v11l409 454l41 -43l-352 -418l350 -421l-39 -39z" />
<glyph unicode="&#x203a;" horiz-adv-x="700" d="M131 950l43 43l408 -454v-11l-408 -456l-41 39l350 421z" />
<glyph unicode="&#x205f;" horiz-adv-x="458" />
<glyph unicode="&#x20ac;" horiz-adv-x="1646" d="M129 559v57h236q-6 49 -7 101q0 66 9 114h-238v58h250q59 242 258 400.5t448 158.5q213 0 418 -100l-28 -62q-180 90 -385 90q-223 0 -397.5 -137t-229.5 -350h571v-58h-588q-8 -74 -8 -114q0 -2 6 -101h590v-57h-577q53 -219 229 -359.5t406 -140.5q90 0 186 22.5 t147 45.5l50 23l28 -62q-209 -102 -418 -102q-252 0 -454.5 162.5t-257.5 410.5h-244z" />
<glyph unicode="&#x2122;" horiz-adv-x="1593" d="M162 1376v58h485v-58h-213v-565h-57v565h-215zM813 811v623h59l232 -400l237 400h48v-623h-54v510l-211 -373h-37l-221 393v-530h-53z" />
<glyph unicode="&#x25fc;" horiz-adv-x="1064" d="M0 0v1065h1065v-1065h-1065z" />
</font>
</defs>
</svg>
