<?xml version="1.0" encoding="utf-8"?>
<!-- Generator: Adobe Illustrator 22.0.1, SVG Export Plug-In . SVG Version: 6.00 Build 0)  -->
<svg version="1.1" id="Layer_1" xmlns="http://www.w3.org/2000/svg" xmlns:xlink="http://www.w3.org/1999/xlink" x="0px" y="0px"
	 viewBox="0 0 110 40" style="enable-background:new 0 0 110 40;" xml:space="preserve">
<style type="text/css">
	.st0{fill:none;}
</style>
<title>logo_eboks</title>
<rect class="st0" width="110" height="40"/>
<g>
	<path d="M51.7,16.6c-0.5-0.4-1.2-0.6-1.9-0.5h-2.6c-0.7,0-1.3,0.2-1.9,0.5c-0.5,0.4-1,0.9-1.4,1.4c-0.3,0.4-0.4,0.8-0.4,1.3v3.7
		c0,0.5,0.1,0.9,0.4,1.3c0.4,0.5,0.8,1,1.4,1.4c0.5,0.4,1.2,0.6,1.9,0.5h2.6c0.7,0,1.3-0.2,1.9-0.5c0.5-0.4,1-0.9,1.4-1.4
		c0.3-0.4,0.4-0.8,0.4-1.3v-3.7c0-0.5-0.1-0.9-0.4-1.3C52.7,17.4,52.2,17,51.7,16.6z M51.4,22.7c0,0.2,0,0.4-0.1,0.6
		c-0.2,0.3-0.5,0.6-0.8,0.8c-0.2,0.1-0.4,0.1-0.6,0.1h-2.6c-0.2,0-0.4,0-0.6-0.1c-0.3-0.2-0.6-0.5-0.8-0.8c-0.1-0.2-0.2-0.4-0.1-0.6
		v-3.3c0-0.2,0-0.4,0.1-0.6c0.2-0.3,0.5-0.6,0.8-0.8C46.8,18,47,18,47.2,18h2.6c0.2,0,0.4,0,0.6,0.1c0.3,0.2,0.6,0.5,0.8,0.8
		c0.1,0.2,0.2,0.4,0.1,0.6L51.4,22.7z"/>
	<path d="M40.5,12.3c-0.5-0.4-1.2-0.6-1.9-0.5h-7c-0.1,0-0.2,0.1-0.2,0.2c0,0,0,0,0,0v14c0,0.1,0.1,0.2,0.2,0.2c0,0,0,0,0,0h7
		c0.7,0,1.3-0.2,1.9-0.5c0.5-0.4,1-0.9,1.4-1.4c0.3-0.4,0.4-0.8,0.4-1.3v-2.1c0-0.8-0.4-1.5-1-1.9c0,0-0.1-0.1-0.1-0.1
		c0-0.1,0-0.1,0.1-0.2c0.6-0.4,0.9-1.1,0.9-1.9v-1.8c0-0.5-0.1-0.9-0.4-1.3C41.5,13.1,41,12.7,40.5,12.3z M40.2,22.7
		c0,0.2,0,0.4-0.1,0.6c-0.2,0.3-0.5,0.6-0.8,0.8c-0.2,0.1-0.4,0.1-0.6,0.1h-5c-0.1,0-0.2-0.1-0.2-0.2v-4c0-0.1,0.1-0.2,0.2-0.2h5.3
		c0.2,0,0.3,0,0.5,0.1c0.3,0.2,0.5,0.4,0.7,0.7c0.1,0.1,0.1,0.3,0.1,0.5L40.2,22.7z M40.2,16.6c0,0.2,0,0.3-0.1,0.5
		c-0.2,0.3-0.4,0.5-0.7,0.7c-0.1,0.1-0.3,0.1-0.5,0.1h-5.3c-0.1,0-0.2-0.1-0.2-0.2v-3.7c0-0.1,0.1-0.2,0.2-0.2h5
		c0.2,0,0.4,0,0.6,0.1c0.3,0.2,0.6,0.5,0.8,0.8c0.1,0.2,0.2,0.4,0.1,0.6L40.2,16.6z"/>
	<path d="M64.1,16.4c0.1-0.1,0.1-0.3-0.1-0.3H62c-0.1,0-0.3,0.1-0.4,0.2l-3.3,3.3c-0.1,0.1-0.3,0.2-0.5,0.2h-0.7
		c-0.1,0-0.2-0.1-0.3-0.2c0,0,0,0,0-0.1V12c0-0.1-0.1-0.2-0.2-0.2c0,0,0,0-0.1,0h-1.5c-0.1,0-0.2,0.1-0.2,0.2c0,0,0,0,0,0.1v13.9
		c0,0.1,0.1,0.2,0.2,0.2c0,0,0,0,0.1,0h1.5c0.1,0,0.2-0.1,0.2-0.2c0,0,0,0,0-0.1v-4c0-0.1,0.1-0.2,0.2-0.3c0,0,0,0,0.1,0H58
		c0.1,0,0.3,0,0.4,0.2l3.4,4.2c0.1,0.1,0.2,0.2,0.3,0.2H64c0.1,0,0.2-0.1,0.2-0.2c0,0,0-0.1,0-0.1l-4.2-5c0,0-0.1-0.1-0.1-0.2
		c0-0.1,0-0.1,0.1-0.2L64.1,16.4z"/>
	<path d="M99.4,16.4c0.1-0.1,0.1-0.3-0.1-0.3h-2.1c-0.1,0-0.3,0.1-0.4,0.2l-3.3,3.3c-0.1,0.1-0.3,0.2-0.5,0.2h-0.7
		c-0.1,0-0.2-0.1-0.3-0.2c0,0,0,0,0-0.1V12c0-0.1-0.1-0.2-0.2-0.2c0,0,0,0-0.1,0h-1.5c-0.1,0-0.2,0.1-0.2,0.2c0,0,0,0,0,0.1v13.9
		c0,0.1,0.1,0.2,0.2,0.2c0,0,0,0,0.1,0h1.5c0.1,0,0.2-0.1,0.2-0.2c0,0,0,0,0-0.1v-4c0-0.1,0.1-0.2,0.2-0.3c0,0,0,0,0.1,0h0.8
		c0.1,0,0.3,0,0.4,0.2L97,26c0.1,0.1,0.2,0.2,0.3,0.2h1.9c0.1,0,0.2-0.1,0.2-0.2c0,0,0-0.1,0-0.1l-4.2-5c0,0-0.1-0.1-0.1-0.2
		c0-0.1,0-0.1,0.1-0.2L99.4,16.4z"/>
	<path d="M77.2,23.9c-0.1-0.1-0.2-0.1-0.3-0.1h-1.4c-0.1,0-0.2,0-0.3,0.1L75.1,24C75,24.1,75,24.2,75,24.3v1.4c0,0.1,0,0.2,0.1,0.3
		l0.1,0.1c0.1,0.1,0.2,0.1,0.3,0.1h1.4c0.1,0,0.2,0,0.3-0.1l0.1-0.1c0.1-0.1,0.1-0.2,0.1-0.3v-1.4C77.4,24.2,77.3,24.1,77.2,23.9
		L77.2,23.9z"/>
	<path d="M71.6,20.3l-4.6-0.2c-0.3,0-0.5-0.2-0.5-0.5v-0.5c0-0.1,0-0.3,0.1-0.4c0.2-0.2,0.4-0.4,0.6-0.6c0.1-0.1,0.3-0.1,0.4-0.1
		h2.8c0.2,0,0.4,0,0.6,0.2c0.4,0.3,0.7,0.6,0.9,0.9c0.1,0.1,0.3,0.2,0.4,0.1l1.4-0.5c0.1,0,0.2-0.2,0.2-0.3c0,0,0-0.1,0-0.1
		c-0.4-0.7-0.9-1.2-1.5-1.7c-0.5-0.4-1.2-0.6-1.8-0.5h-2.8c-0.6,0-1.2,0.2-1.7,0.5c-0.5,0.4-0.9,0.8-1.2,1.2
		c-0.2,0.3-0.3,0.7-0.3,1.2v0.8c0,1.3,1,2.3,2.3,2.3c0,0,0,0,0.1,0l4.6,0.2c0.3,0,0.5,0.2,0.5,0.5l0,0.4c0,0.1,0,0.3-0.1,0.4
		c-0.2,0.2-0.4,0.4-0.6,0.6c-0.1,0.1-0.3,0.1-0.4,0.1h-2.9c-0.2,0-0.4,0-0.6-0.2c-0.3-0.2-0.7-0.6-0.9-0.9C66.3,23,66.1,23,65.9,23
		l-1.4,0.5c-0.1,0-0.2,0.2-0.2,0.3c0,0,0,0.1,0,0.1c0.4,0.7,0.9,1.2,1.5,1.7c0.5,0.4,1.2,0.6,1.8,0.5h2.9c0.6,0,1.2-0.2,1.7-0.5
		c0.5-0.4,0.9-0.8,1.2-1.2c0.2-0.3,0.4-0.7,0.3-1.2l0-0.7C73.9,21.3,72.9,20.3,71.6,20.3C71.6,20.3,71.6,20.3,71.6,20.3z"/>
	<path d="M88.4,24.9c0-0.4-0.1-1.1-0.1-1.6l0-11.3c0-0.1-0.1-0.2-0.2-0.2c0,0,0,0-0.1,0h-1.5c-0.1,0-0.2,0.1-0.2,0.2c0,0,0,0,0,0.1
		v4.6c0,0.1-0.1,0.2-0.2,0.1c-0.4-0.4-1-0.6-1.5-0.6h-2.4c-0.7,0-1.3,0.2-1.9,0.5c-0.5,0.4-1,0.9-1.4,1.4c-0.3,0.4-0.4,0.8-0.4,1.3
		v3.7c0,0.5,0.1,0.9,0.4,1.3c0.4,0.5,0.8,1,1.4,1.4c0.5,0.4,1.2,0.6,1.9,0.5h2.4c0.6,0,1.2-0.3,1.6-0.8c0.1-0.1,0.2-0.1,0.3,0.1
		l0.1,0.5c0,0.1,0.1,0.2,0.2,0.2h1.5c0.2,0,0.2-0.1,0.2-0.3L88.4,24.9z M86.3,22.8c0,0.1-0.1,0.3-0.2,0.4L85,24.1
		c-0.1,0.1-0.3,0.1-0.4,0.1h-2.4c-0.2,0-0.4,0-0.6-0.1c-0.3-0.2-0.6-0.5-0.8-0.8c-0.1-0.2-0.2-0.4-0.1-0.6v-3.3c0-0.2,0-0.4,0.1-0.6
		c0.2-0.3,0.5-0.6,0.8-0.8C81.8,18,82,18,82.1,18h2.4c0.2,0,0.3,0,0.4,0.1l1.2,0.9c0.1,0.1,0.2,0.2,0.2,0.4L86.3,22.8z"/>
</g>
<path d="M28,24.7c0,0.5-0.1,1-0.4,1.4c-0.3,0.4-0.7,0.8-1.1,1.1c-0.5,0.3-1,0.5-1.6,0.5H13.6c-0.6,0-1.1-0.2-1.6-0.5
	c-0.4-0.3-0.8-0.7-1.1-1.1c-0.3-0.4-0.4-0.8-0.4-1.2l0-11.7c0-0.5,0.1-1,0.4-1.4c0.3-0.4,0.7-0.8,1.1-1.1c0.5-0.3,1.1-0.5,1.6-0.5
	h11.1c0.6,0,1.2,0.2,1.6,0.5c0.4,0.3,0.8,0.7,1.1,1.1c0.3,0.4,0.4,0.9,0.4,1.4V24.7z M23.4,15.4c-0.4-0.5-0.8-0.9-1.2-1.2
	c-0.5-0.3-1.1-0.5-1.6-0.5h-2.6c-0.6,0-1.2,0.1-1.6,0.5c-0.5,0.4-0.9,0.8-1.2,1.2c-0.2,0.3-0.3,0.7-0.3,1.1v4.8
	c0,0.4,0.1,0.8,0.3,1.1c0.4,0.5,0.8,0.9,1.2,1.2c0.5,0.3,1.1,0.5,1.6,0.5h2.7c0.6,0,1.2-0.1,1.6-0.5c0.5-0.4,1-0.9,1.4-1.5
	c0.1-0.1,0.1-0.2,0-0.3c0,0,0,0-0.1,0l-1.3-0.5c-0.1-0.1-0.3,0-0.4,0.1c-0.2,0.3-0.5,0.6-0.8,0.8c-0.2,0.1-0.3,0.1-0.5,0.1h-2.5
	c-0.2,0-0.4,0-0.5-0.1c-0.3-0.2-0.6-0.5-0.8-0.8c-0.1-0.2-0.1-0.3-0.1-0.5v-1c0-0.1,0.1-0.2,0.2-0.3c0,0,0,0,0,0h6.7
	c0.1,0,0.3-0.1,0.3-0.2c0,0,0,0,0-0.1v-3C23.8,16.1,23.7,15.7,23.4,15.4z M21.9,17.9c0,0.1-0.1,0.2-0.2,0.3c0,0,0,0,0,0h-4.8
	c-0.1,0-0.2-0.1-0.3-0.2c0,0,0,0,0,0v-1c0-0.2,0-0.4,0.1-0.5c0.2-0.3,0.5-0.6,0.8-0.8c0.2-0.1,0.3-0.1,0.5-0.1h2.4
	c0.2,0,0.4,0,0.5,0.1c0.3,0.2,0.6,0.5,0.8,0.8c0.1,0.2,0.1,0.3,0.1,0.5L21.9,17.9z"/>
</svg>
